<svg xmlns="http://www.w3.org/2000/svg" viewBox="0 0 414 270" enable-background="new 0 0 414 270"><g fill="#3A3A3C"><path d="M180 144v90h18v-36l21 36h18l-21-36h9l9-8.99v-36.02l-9-8.99h-45zm36 36h-18v-18h18v18zM180 144v90h18v-36l21 36h18l-21-36h9l9-8.99v-36.02l-9-8.99h-45zm36 36h-18v-18h18v18zM144 144h18v90h-18zM180 36v54l-9 18-9-18v-54h-18v54l18 36h18l18-36v-54zM108 36h18v90h-18zM306 162v-18h-54v90h54v-18h-36v-18h36v-18h-36v-18zM54 108v-72h-18v90h54v-18zM270 54v-18h-54v90h54v-18h-36v-18h36v-18h-36v-18zM378 162v-18h-45l-9 9v36l9 9h27v18h-36v18h45l9-9v-36l-9-9h-27v-18zM108 144v72h-18v-72h-18v72h-18v-72h-18v90h81l9-9v-81zM0 0v270h414v-270h-414zm18 252v-234h378v234h-378z"/></g></svg>