<?xml version="1.0" encoding="utf-8"?>
<!-- Generator: Adobe Illustrator 18.1.1, SVG Export Plug-In . SVG Version: 6.00 Build 0)  -->
<svg version="1.1" id="Layer_1" xmlns="http://www.w3.org/2000/svg" xmlns:xlink="http://www.w3.org/1999/xlink" x="0px" y="0px"
	 width="1200px" height="1200px" viewBox="0 0 1200 1200" style="enable-background:new 0 0 1200 1200;" xml:space="preserve">
<style type="text/css">
	.st0{fill:#FBFBF6;}
	.st1{fill:#231F20;}
	.st2{fill:#C63527;}
	.st3{fill:#FF5C39;}
	.st4{fill:#0057B8;}
	.st5{fill:#009FF0;}
	.st6{fill:#AA711F;}
	.st7{fill:#FBB33B;}
	.st8{fill:#006C42;}
	.st9{fill:#4BA354;}
	.st10{fill:#333333;}
	.st11{fill:#6D6E70;}
	.st12{fill:#B1B3B5;}
	.st13{fill:none;stroke:#000000;stroke-miterlimit:10;}
</style>
<rect x="299.4" class="st0" width="900.6" height="1200"/>
<rect x="-0.6" class="st1" width="300" height="1200"/>
<rect x="410.1" y="634.7" class="st2" width="150" height="75"/>
<rect x="560.1" y="634.7" class="st3" width="150" height="75"/>
<rect x="710.1" y="634.7" class="st4" width="150" height="75"/>
<rect x="860.1" y="634.7" class="st5" width="150" height="75"/>
<rect x="410.1" y="709.7" class="st6" width="150" height="75"/>
<rect x="560.1" y="709.7" class="st7" width="150" height="75"/>
<rect x="710.1" y="709.7" class="st8" width="150" height="75"/>
<rect x="860.1" y="709.7" class="st9" width="150" height="75"/>
<rect x="410.1" y="784.7" class="st1" width="150" height="75"/>
<rect x="560.1" y="784.7" class="st10" width="150" height="75"/>
<rect x="710.1" y="784.7" class="st11" width="150" height="75"/>
<rect x="860.1" y="784.7" class="st12" width="150" height="75"/>
<g>
	<path d="M428,584.5c5.2,0,8.4,3.1,9.3,7.5h-4.6c-0.8-2-2.1-3.4-4.7-3.4c-3.5,0-5.6,3.1-5.6,7.3c0,4.2,2.1,7.3,5.6,7.3
		c2.6,0,3.9-1.4,4.7-3.4h4.6c-0.8,4.5-4,7.5-9.3,7.5c-5.9,0-10.3-4.6-10.3-11.4C417.7,589.2,422.1,584.5,428,584.5z"/>
	<path d="M447.2,607.4c-4.7,0-7.9-3.5-7.9-8.4c0-5,3.2-8.4,7.9-8.4c4.7,0,7.9,3.5,7.9,8.4C455,603.9,451.8,607.4,447.2,607.4z
		 M447.2,594.3c-2.2,0-3.5,1.9-3.5,4.6c0,2.7,1.2,4.6,3.5,4.6c2.2,0,3.5-1.9,3.5-4.6C450.6,596.3,449.4,594.3,447.2,594.3z"/>
	<path d="M462.3,607h-4.5v-23.4h4.5V607z"/>
	<path d="M473.1,607.4c-4.7,0-7.9-3.5-7.9-8.4c0-5,3.2-8.4,7.9-8.4c4.7,0,7.9,3.5,7.9,8.4C481,603.9,477.8,607.4,473.1,607.4z
		 M473.1,594.3c-2.2,0-3.5,1.9-3.5,4.6c0,2.7,1.2,4.6,3.5,4.6c2.2,0,3.5-1.9,3.5-4.6C476.6,596.3,475.3,594.3,473.1,594.3z"/>
	<path d="M498.1,607h-4.5v-1.5c-0.9,1-2.4,1.8-4.3,1.8c-3.6,0-5.7-2.4-5.7-5.9v-10.5h4.5v9.6c0,1.7,0.8,2.8,2.6,2.8
		c1.4,0,2.6-0.8,2.9-2.2v-10.2h4.5V607z"/>
	<path d="M511.7,595.3c-0.6-0.4-1.4-0.5-2.2-0.5c-1.5,0-2.7,0.8-3.1,2.3v10h-4.5v-16.1h4.5v1.6c0.7-1.2,2-1.9,3.6-1.9
		c0.8,0,1.4,0.1,1.7,0.3V595.3z"/>
	<path d="M517.8,602.2c0.4,1.2,1.4,1.8,2.7,1.8c1.4,0,2.3-0.5,2.3-1.6c0-0.7-0.5-1.1-1.6-1.4l-3.2-0.7c-2.4-0.6-4.2-1.8-4.2-4.5
		c0-3.1,2.8-5.2,6.4-5.2c4.1,0,6.3,1.9,6.8,5h-4.2c-0.3-0.9-1-1.6-2.5-1.6c-1.1,0-2.1,0.5-2.1,1.5c0,0.6,0.4,1,1.4,1.3l3.3,0.8
		c2.8,0.7,4.3,2.2,4.3,4.7c0,3.3-2.8,5.2-6.6,5.2c-3.9,0-6.7-1.9-7.2-5.1H517.8z"/>
</g>
<g>
	<path d="M418.8,964.1V942h14.7v4h-10.2v5.6h9.4v4h-9.4v8.5H418.8z"/>
	<path d="M438.9,946c-1.4,0-2.7-1-2.7-2.6c0-1.5,1.2-2.6,2.7-2.6c1.4,0,2.6,1.1,2.6,2.6C441.5,944.9,440.3,946,438.9,946z
		 M441.1,964.1h-4.5v-16.1h4.5V964.1z"/>
	<path d="M458.9,958.9c-0.6,3.4-3.1,5.6-7.1,5.6c-4.7,0-7.8-3.4-7.8-8.4c0-4.9,3.2-8.4,7.7-8.4c4.7,0,7.3,3.3,7.3,8v1.4h-10.7
		c0.1,2.4,1.5,3.9,3.5,3.9c1.5,0,2.6-0.6,3-2H458.9z M448.4,954.4h6.2c0-1.7-1-3-2.9-3C450,951.3,448.8,952.4,448.4,954.4z"/>
	<path d="M466.3,964.1h-4.5v-23.4h4.5V964.1z"/>
	<path d="M480.6,962.8c-0.7,0.9-2.3,1.7-4,1.7c-4.7,0-7.3-3.8-7.3-8.4s2.6-8.4,7.3-8.4c1.7,0,3.3,0.8,4,1.7v-8.6h4.5v23.4h-4.5
		V962.8z M480.6,953.5c-0.5-1.1-1.7-1.9-3-1.9c-2.4,0-3.9,1.9-3.9,4.5c0,2.6,1.4,4.5,3.9,4.5c1.3,0,2.5-0.8,3-1.9V953.5z"/>
	<path d="M492.3,959.4c0.4,1.2,1.4,1.8,2.7,1.8c1.4,0,2.3-0.5,2.3-1.6c0-0.7-0.5-1.1-1.6-1.4l-3.2-0.7c-2.4-0.6-4.2-1.8-4.2-4.5
		c0-3.1,2.8-5.2,6.4-5.2c4.1,0,6.3,1.9,6.8,5h-4.2c-0.3-0.9-1-1.6-2.5-1.6c-1.1,0-2.1,0.5-2.1,1.5c0,0.6,0.4,1,1.4,1.3l3.3,0.8
		c2.8,0.7,4.3,2.2,4.3,4.7c0,3.3-2.8,5.2-6.6,5.2c-3.9,0-6.7-1.9-7.2-5.1H492.3z"/>
</g>
<g>
	<path d="M418.8,204.6v-22.1h14.7v4h-10.2v5.6h9.4v4h-9.4v8.5H418.8z"/>
	<path d="M443,205c-4.7,0-7.9-3.5-7.9-8.4c0-5,3.2-8.4,7.9-8.4c4.7,0,7.9,3.5,7.9,8.4C450.9,201.5,447.7,205,443,205z M443,191.9
		c-2.2,0-3.5,1.9-3.5,4.6c0,2.7,1.2,4.6,3.5,4.6c2.2,0,3.5-1.9,3.5-4.6C446.4,193.9,445.2,191.9,443,191.9z"/>
	<path d="M453.7,188.5h4.5v1.5c0.9-1,2.4-1.8,4.3-1.8c3.6,0,5.7,2.4,5.7,5.9v10.5h-4.5V195c0-1.7-0.9-2.8-2.6-2.8
		c-1.4,0-2.6,0.8-2.9,2.2v10.2h-4.5V188.5z"/>
	<path d="M472.9,192.1h-2.4v-3.6h2.4v-4.4h4.4v4.4h3.5v3.6h-3.5v7.1c0,1.3,0.7,1.8,1.8,1.8c0.7,0,1.4-0.2,1.9-0.5v4
		c-0.6,0.3-1.7,0.5-2.9,0.5c-3.3,0-5.3-1.6-5.3-5.2V192.1z"/>
	<path d="M487.5,199.8c0.4,1.2,1.4,1.8,2.7,1.8c1.4,0,2.3-0.5,2.3-1.6c0-0.7-0.5-1.1-1.6-1.4l-3.2-0.7c-2.4-0.6-4.2-1.8-4.2-4.5
		c0-3.1,2.8-5.2,6.4-5.2c4.1,0,6.3,1.9,6.8,5h-4.2c-0.3-0.9-1-1.6-2.5-1.6c-1.1,0-2.1,0.5-2.1,1.5c0,0.6,0.4,1,1.4,1.3l3.3,0.8
		c2.8,0.7,4.3,2.2,4.3,4.7c0,3.3-2.8,5.2-6.6,5.2c-3.9,0-6.7-1.9-7.2-5.1H487.5z"/>
</g>
<g>
	<path class="st0" d="M43.6,104.8c-6.2,0-10.4-4.8-10.4-11.4c0-6.6,4.3-11.4,10.4-11.4s10.5,4.8,10.5,11.4
		C54.1,100,49.8,104.8,43.6,104.8z M43.6,86.1c-3.5,0-5.8,3-5.8,7.3s2.3,7.3,5.8,7.3c3.5,0,5.8-3,5.8-7.3S47.2,86.1,43.6,86.1z"/>
	<path class="st0" d="M61.7,104.5l-6.1-16.1h4.7L64,99.1l3.6-10.7h4.5l-6.1,16.1H61.7z"/>
	<path class="st0" d="M88,99.2c-0.6,3.4-3.1,5.6-7.1,5.6c-4.7,0-7.8-3.4-7.8-8.4c0-4.9,3.2-8.4,7.7-8.4c4.7,0,7.3,3.3,7.3,8v1.4
		H77.4c0.1,2.4,1.5,3.9,3.5,3.9c1.5,0,2.6-0.6,3-2H88z M77.5,94.7h6.2c0-1.7-1-3-2.9-3C79.1,91.7,77.9,92.7,77.5,94.7z"/>
	<path class="st0" d="M100.7,92.8c-0.6-0.4-1.4-0.5-2.2-0.5c-1.5,0-2.7,0.8-3.1,2.3v10H91V88.4h4.5V90c0.7-1.2,2-1.9,3.6-1.9
		c0.8,0,1.4,0.1,1.7,0.3V92.8z"/>
	<path class="st0" d="M108.2,104.5l-6.1-16.1h4.7l3.7,10.7l3.6-10.7h4.5l-6.1,16.1H108.2z"/>
	<path class="st0" d="M123.3,86.3c-1.4,0-2.7-1-2.7-2.6c0-1.5,1.2-2.6,2.7-2.6c1.4,0,2.6,1.1,2.6,2.6
		C125.9,85.3,124.7,86.3,123.3,86.3z M125.5,104.5h-4.5V88.4h4.5V104.5z"/>
	<path class="st0" d="M143.3,99.2c-0.6,3.4-3.1,5.6-7.1,5.6c-4.7,0-7.8-3.4-7.8-8.4c0-4.9,3.2-8.4,7.7-8.4c4.7,0,7.3,3.3,7.3,8v1.4
		h-10.7c0.1,2.4,1.5,3.9,3.5,3.9c1.5,0,2.6-0.6,3-2H143.3z M132.8,94.7h6.2c0-1.7-1-3-2.9-3C134.5,91.7,133.2,92.7,132.8,94.7z"/>
	<path class="st0" d="M160.7,98.6l2.9-10.3h4.3l-4.9,16.1h-4.1l-2.6-9.9l-2.6,9.9h-4.1l-4.9-16.1h4.5l2.9,10.3l2.6-10.3h3.4
		L160.7,98.6z"/>
	<path class="st0" d="M38.9,176.5h-4.6v-22.1h4.6V176.5z"/>
	<path class="st0" d="M53.2,175.1c-0.7,0.9-2.3,1.7-4,1.7c-4.7,0-7.3-3.8-7.3-8.4s2.6-8.4,7.3-8.4c1.7,0,3.3,0.8,4,1.7v-8.6h4.5
		v23.4h-4.5V175.1z M53.2,165.8c-0.5-1.1-1.7-1.9-3-1.9c-2.4,0-3.9,1.9-3.9,4.5c0,2.6,1.4,4.5,3.9,4.5c1.3,0,2.5-0.8,3-1.9V165.8z"
		/>
	<path class="st0" d="M75.5,171.2c-0.6,3.4-3.1,5.6-7.1,5.6c-4.7,0-7.8-3.4-7.8-8.4c0-4.9,3.2-8.4,7.7-8.4c4.7,0,7.3,3.3,7.3,8v1.4
		H64.9c0.1,2.4,1.5,3.9,3.5,3.9c1.5,0,2.6-0.6,3-2H75.5z M65,166.7h6.2c0-1.7-1-3-2.9-3C66.6,163.7,65.4,164.7,65,166.7z"/>
	<path class="st0" d="M78.5,160.4h4.5v1.5c0.9-1,2.4-1.8,4.3-1.8c3.6,0,5.7,2.4,5.7,5.9v10.5h-4.5v-9.6c0-1.7-0.9-2.8-2.6-2.8
		c-1.4,0-2.6,0.8-2.9,2.2v10.2h-4.5V160.4z"/>
	<path class="st0" d="M97.6,164h-2.4v-3.6h2.4V156h4.4v4.4h3.5v3.6h-3.5v7.1c0,1.3,0.7,1.8,1.8,1.8c0.7,0,1.4-0.2,1.9-0.5v4
		c-0.6,0.3-1.7,0.5-2.9,0.5c-3.3,0-5.3-1.6-5.3-5.2V164z"/>
	<path class="st0" d="M111.3,158.3c-1.4,0-2.7-1-2.7-2.6c0-1.5,1.2-2.6,2.7-2.6c1.4,0,2.6,1.1,2.6,2.6
		C113.9,157.3,112.7,158.3,111.3,158.3z M113.5,176.5h-4.5v-16.1h4.5V176.5z"/>
	<path class="st0" d="M118.4,164h-2.4v-3.6h2.4V156h4.4v4.4h3.5v3.6h-3.5v7.1c0,1.3,0.7,1.8,1.8,1.8c0.7,0,1.4-0.2,1.9-0.5v4
		c-0.6,0.3-1.7,0.5-2.9,0.5c-3.3,0-5.3-1.6-5.3-5.2V164z"/>
	<path class="st0" d="M131.8,182.4l2.3-5.9l-6.2-16.2h4.7l3.7,10.7l3.7-10.7h4.5l-8.4,22H131.8z"/>
	<path class="st0" d="M43.5,226c5.2,0,8.4,3.1,9.3,7.5h-4.6c-0.8-2-2.1-3.4-4.7-3.4c-3.5,0-5.6,3.1-5.6,7.3c0,4.2,2.1,7.3,5.6,7.3
		c2.6,0,3.9-1.4,4.7-3.4h4.6c-0.8,4.5-4,7.5-9.3,7.5c-5.9,0-10.3-4.6-10.3-11.4C33.2,230.7,37.6,226,43.5,226z"/>
	<path class="st0" d="M62.6,248.8c-4.7,0-7.9-3.5-7.9-8.4c0-5,3.2-8.4,7.9-8.4c4.7,0,7.9,3.5,7.9,8.4
		C70.5,245.4,67.3,248.8,62.6,248.8z M62.6,235.8c-2.2,0-3.5,1.9-3.5,4.6c0,2.7,1.2,4.6,3.5,4.6c2.2,0,3.5-1.9,3.5-4.6
		C66.1,237.7,64.9,235.8,62.6,235.8z"/>
	<path class="st0" d="M73.4,232.4h4.5v1.5c0.9-1,2.4-1.8,4.3-1.8c3.6,0,5.7,2.4,5.7,5.9v10.5h-4.5v-9.6c0-1.7-0.9-2.8-2.6-2.8
		c-1.4,0-2.6,0.8-2.9,2.2v10.2h-4.5V232.4z"/>
	<path class="st0" d="M92.5,236h-2.4v-3.6h2.4V228h4.4v4.4h3.5v3.6h-3.5v7.1c0,1.3,0.7,1.8,1.8,1.8c0.7,0,1.4-0.2,1.9-0.5v4
		c-0.6,0.3-1.7,0.5-2.9,0.5c-3.3,0-5.3-1.6-5.3-5.2V236z"/>
	<path class="st0" d="M117.7,243.2c-0.6,3.4-3.1,5.6-7.1,5.6c-4.7,0-7.8-3.4-7.8-8.4c0-4.9,3.2-8.4,7.7-8.4c4.7,0,7.3,3.3,7.3,8v1.4
		h-10.7c0.1,2.4,1.5,3.9,3.5,3.9c1.5,0,2.6-0.6,3-2H117.7z M107.2,238.7h6.2c0-1.7-1-3-2.9-3C108.9,235.7,107.6,236.7,107.2,238.7z"
		/>
	<path class="st0" d="M120.7,232.4h4.5v1.5c0.9-1,2.4-1.8,4.3-1.8c3.6,0,5.7,2.4,5.7,5.9v10.5h-4.5v-9.6c0-1.7-0.9-2.8-2.6-2.8
		c-1.4,0-2.6,0.8-2.9,2.2v10.2h-4.5V232.4z"/>
	<path class="st0" d="M139.9,236h-2.4v-3.6h2.4V228h4.4v4.4h3.5v3.6h-3.5v7.1c0,1.3,0.7,1.8,1.8,1.8c0.7,0,1.4-0.2,1.9-0.5v4
		c-0.6,0.3-1.7,0.5-2.9,0.5c-3.3,0-5.3-1.6-5.3-5.2V236z"/>
	<path class="st0" d="M34.3,298.4h4.6v18h10.3v4.1H34.3V298.4z"/>
	<path class="st0" d="M61.3,320.5v-0.9c-0.5,0.5-2.2,1.2-3.9,1.2c-3.2,0-6-1.9-6-5.2c0-3.1,2.7-5.1,6.2-5.1c1.4,0,3,0.5,3.7,0.9
		v-1.2c0-1.4-0.8-2.5-2.6-2.5c-1.3,0-2,0.6-2.4,1.5H52c0.5-2.9,3.1-5.1,6.8-5.1c4.3,0,6.8,2.3,6.8,6.2v10.3H61.3z M61.3,314.9
		c-0.4-0.9-1.6-1.4-2.9-1.4c-1.4,0-2.8,0.6-2.8,2c0,1.4,1.4,2,2.8,2c1.3,0,2.5-0.5,2.9-1.4V314.9z"/>
	<path class="st0" d="M71.1,326.4l2.3-5.9l-6.2-16.2H72l3.7,10.7l3.7-10.7h4.5l-8.4,22H71.1z"/>
	<path class="st0" d="M92.6,320.8c-4.7,0-7.9-3.5-7.9-8.4c0-5,3.2-8.4,7.9-8.4c4.7,0,7.9,3.5,7.9,8.4
		C100.5,317.4,97.3,320.8,92.6,320.8z M92.6,307.8c-2.2,0-3.5,1.9-3.5,4.6c0,2.7,1.2,4.6,3.5,4.6c2.2,0,3.5-1.9,3.5-4.6
		C96.1,309.7,94.9,307.8,92.6,307.8z"/>
	<path class="st0" d="M117.6,320.5h-4.5V319c-0.9,1-2.4,1.8-4.3,1.8c-3.6,0-5.7-2.4-5.7-5.9v-10.5h4.5v9.6c0,1.7,0.8,2.8,2.6,2.8
		c1.4,0,2.6-0.8,2.9-2.2v-10.2h4.5V320.5z"/>
	<path class="st0" d="M122.4,308H120v-3.6h2.4V300h4.4v4.4h3.5v3.6h-3.5v7.1c0,1.3,0.7,1.8,1.8,1.8c0.7,0,1.4-0.2,1.9-0.5v4
		c-0.6,0.3-1.7,0.5-2.9,0.5c-3.3,0-5.3-1.6-5.3-5.2V308z"/>
	<path class="st0" d="M49.3,370.4v4H38.8v4.8h9.5v3.9h-9.5v5.3h10.5v4.1h-15v-22.1H49.3z"/>
	<path class="st0" d="M57.1,392.5h-4.5v-23.4h4.5V392.5z"/>
	<path class="st0" d="M74.9,387.2c-0.6,3.4-3.1,5.6-7.1,5.6c-4.7,0-7.8-3.4-7.8-8.4c0-4.9,3.2-8.4,7.7-8.4c4.7,0,7.3,3.3,7.3,8v1.4
		H64.3c0.1,2.4,1.5,3.9,3.5,3.9c1.5,0,2.6-0.6,3-2H74.9z M64.4,382.7h6.2c0-1.7-1-3-2.9-3C66.1,379.7,64.8,380.7,64.4,382.7z"/>
	<path class="st0" d="M95.6,376c3.3,0,5.3,2.3,5.3,5.9v10.5h-4.5v-9.6c0-1.7-0.8-2.9-2.3-2.9c-1.2,0-2.2,0.7-2.5,2.1v10.4h-4.5v-9.6
		c0-1.7-0.7-2.9-2.3-2.9c-1.2,0-2.2,0.7-2.5,2.1v10.4h-4.5v-16.1h4.5v1.3c0.8-1,2.3-1.7,4.1-1.7c1.9,0,3.4,0.9,4.3,2.1
		C91.8,376.9,93.3,376,95.6,376z"/>
	<path class="st0" d="M118.5,387.2c-0.6,3.4-3.1,5.6-7.1,5.6c-4.7,0-7.8-3.4-7.8-8.4c0-4.9,3.2-8.4,7.7-8.4c4.7,0,7.3,3.3,7.3,8v1.4
		h-10.7c0.1,2.4,1.5,3.9,3.5,3.9c1.5,0,2.6-0.6,3-2H118.5z M108,382.7h6.2c0-1.7-1-3-2.9-3C109.6,379.7,108.4,380.7,108,382.7z"/>
	<path class="st0" d="M121.5,376.4h4.5v1.5c0.9-1,2.4-1.8,4.3-1.8c3.6,0,5.7,2.4,5.7,5.9v10.5h-4.5v-9.6c0-1.7-0.9-2.8-2.6-2.8
		c-1.4,0-2.6,0.8-2.9,2.2v10.2h-4.5V376.4z"/>
	<path class="st0" d="M140.6,380h-2.4v-3.6h2.4V372h4.4v4.4h3.5v3.6h-3.5v7.1c0,1.3,0.7,1.8,1.8,1.8c0.7,0,1.4-0.2,1.9-0.5v4
		c-0.6,0.3-1.7,0.5-2.9,0.5c-3.3,0-5.3-1.6-5.3-5.2V380z"/>
	<path class="st0" d="M155.3,387.7c0.4,1.2,1.4,1.8,2.7,1.8c1.4,0,2.3-0.5,2.3-1.6c0-0.7-0.5-1.1-1.6-1.4l-3.2-0.7
		c-2.4-0.6-4.2-1.8-4.2-4.5c0-3.1,2.8-5.2,6.4-5.2c4.1,0,6.3,1.9,6.8,5h-4.2c-0.3-0.9-1-1.6-2.5-1.6c-1.1,0-2.1,0.5-2.1,1.5
		c0,0.6,0.4,1,1.4,1.3l3.3,0.8c2.8,0.7,4.3,2.2,4.3,4.7c0,3.3-2.8,5.2-6.6,5.2c-3.9,0-6.7-1.9-7.2-5.1H155.3z"/>
	<path class="st0" d="M43.5,442c5.2,0,8.4,3.1,9.3,7.5h-4.6c-0.8-2-2.1-3.4-4.7-3.4c-3.5,0-5.6,3.1-5.6,7.3c0,4.2,2.1,7.3,5.6,7.3
		c2.6,0,3.9-1.4,4.7-3.4h4.6c-0.8,4.5-4,7.5-9.3,7.5c-5.9,0-10.3-4.6-10.3-11.4C33.2,446.7,37.6,442,43.5,442z"/>
	<path class="st0" d="M62.6,464.8c-4.7,0-7.9-3.5-7.9-8.4c0-5,3.2-8.4,7.9-8.4c4.7,0,7.9,3.5,7.9,8.4
		C70.5,461.4,67.3,464.8,62.6,464.8z M62.6,451.8c-2.2,0-3.5,1.9-3.5,4.6c0,2.7,1.2,4.6,3.5,4.6c2.2,0,3.5-1.9,3.5-4.6
		C66.1,453.7,64.9,451.8,62.6,451.8z"/>
	<path class="st0" d="M91.1,448c3.3,0,5.3,2.3,5.3,5.9v10.5h-4.5v-9.6c0-1.7-0.8-2.9-2.3-2.9c-1.2,0-2.2,0.7-2.5,2.1v10.4h-4.5v-9.6
		c0-1.7-0.7-2.9-2.3-2.9c-1.2,0-2.2,0.7-2.5,2.1v10.4h-4.5v-16.1h4.5v1.3c0.8-1,2.3-1.7,4.1-1.7c1.9,0,3.4,0.9,4.3,2.1
		C87.3,448.9,88.8,448,91.1,448z"/>
	<path class="st0" d="M104.5,470.4h-4.5v-22h4.5v1.3c0.7-0.9,2.3-1.7,4-1.7c4.7,0,7.3,3.9,7.3,8.4c0,4.5-2.7,8.4-7.3,8.4
		c-1.7,0-3.3-0.8-4-1.7V470.4z M104.5,459.1c0.5,1.1,1.7,1.9,3,1.9c2.4,0,3.9-1.9,3.9-4.5c0-2.6-1.4-4.5-3.9-4.5
		c-1.3,0-2.5,0.8-3,1.9V459.1z"/>
	<path class="st0" d="M125.8,464.8c-4.7,0-7.9-3.5-7.9-8.4c0-5,3.2-8.4,7.9-8.4c4.7,0,7.9,3.5,7.9,8.4
		C133.7,461.4,130.5,464.8,125.8,464.8z M125.8,451.8c-2.2,0-3.5,1.9-3.5,4.6c0,2.7,1.2,4.6,3.5,4.6c2.2,0,3.5-1.9,3.5-4.6
		C129.2,453.7,128,451.8,125.8,451.8z"/>
	<path class="st0" d="M136.5,448.4h4.5v1.5c0.9-1,2.4-1.8,4.3-1.8c3.6,0,5.7,2.4,5.7,5.9v10.5h-4.5v-9.6c0-1.7-0.9-2.8-2.6-2.8
		c-1.4,0-2.6,0.8-2.9,2.2v10.2h-4.5V448.4z"/>
	<path class="st0" d="M168.6,459.2c-0.6,3.4-3.1,5.6-7.1,5.6c-4.7,0-7.8-3.4-7.8-8.4c0-4.9,3.2-8.4,7.7-8.4c4.7,0,7.3,3.3,7.3,8v1.4
		H158c0.1,2.4,1.5,3.9,3.5,3.9c1.5,0,2.6-0.6,3-2H168.6z M158.1,454.7h6.2c0-1.7-1-3-2.9-3C159.7,451.7,158.5,452.7,158.1,454.7z"/>
	<path class="st0" d="M171.6,448.4h4.5v1.5c0.9-1,2.4-1.8,4.3-1.8c3.6,0,5.7,2.4,5.7,5.9v10.5h-4.5v-9.6c0-1.7-0.9-2.8-2.6-2.8
		c-1.4,0-2.6,0.8-2.9,2.2v10.2h-4.5V448.4z"/>
	<path class="st0" d="M190.7,452h-2.4v-3.6h2.4V444h4.4v4.4h3.5v3.6h-3.5v7.1c0,1.3,0.7,1.8,1.8,1.8c0.7,0,1.4-0.2,1.9-0.5v4
		c-0.6,0.3-1.7,0.5-2.9,0.5c-3.3,0-5.3-1.6-5.3-5.2V452z"/>
	<path class="st0" d="M205.4,459.7c0.4,1.2,1.4,1.8,2.7,1.8c1.4,0,2.3-0.5,2.3-1.6c0-0.7-0.5-1.1-1.6-1.4l-3.2-0.7
		c-2.4-0.6-4.2-1.8-4.2-4.5c0-3.1,2.8-5.2,6.4-5.2c4.1,0,6.3,1.9,6.8,5h-4.2c-0.3-0.9-1-1.6-2.5-1.6c-1.1,0-2.1,0.5-2.1,1.5
		c0,0.6,0.4,1,1.4,1.3l3.3,0.8c2.8,0.7,4.3,2.2,4.3,4.7c0,3.3-2.8,5.2-6.6,5.2c-3.9,0-6.7-1.9-7.2-5.1H205.4z"/>
	<path class="st0" d="M33.1,514.4h18.9v4h-7.1v18.1h-4.6v-18.1h-7.1V514.4z"/>
	<path class="st0" d="M66.4,531.2c-0.6,3.4-3.1,5.6-7.1,5.6c-4.7,0-7.8-3.4-7.8-8.4c0-4.9,3.2-8.4,7.7-8.4c4.7,0,7.3,3.3,7.3,8v1.4
		H55.8c0.1,2.4,1.5,3.9,3.5,3.9c1.5,0,2.6-0.6,3-2H66.4z M55.9,526.7h6.2c0-1.7-1-3-2.9-3C57.5,523.7,56.3,524.7,55.9,526.7z"/>
	<path class="st0" d="M87.1,520c3.3,0,5.3,2.3,5.3,5.9v10.5h-4.5v-9.6c0-1.7-0.8-2.9-2.3-2.9c-1.2,0-2.2,0.7-2.5,2.1v10.4h-4.5v-9.6
		c0-1.7-0.7-2.9-2.3-2.9c-1.2,0-2.2,0.7-2.5,2.1v10.4h-4.5v-16.1h4.5v1.3c0.8-1,2.3-1.7,4.1-1.7c1.9,0,3.4,0.9,4.3,2.1
		C83.3,520.9,84.8,520,87.1,520z"/>
	<path class="st0" d="M100.5,542.4h-4.5v-22h4.5v1.3c0.7-0.9,2.3-1.7,4-1.7c4.7,0,7.3,3.9,7.3,8.4c0,4.5-2.7,8.4-7.3,8.4
		c-1.7,0-3.3-0.8-4-1.7V542.4z M100.5,531.1c0.5,1.1,1.7,1.9,3,1.9c2.4,0,3.9-1.9,3.9-4.5c0-2.6-1.4-4.5-3.9-4.5
		c-1.3,0-2.5,0.8-3,1.9V531.1z"/>
	<path class="st0" d="M119.2,536.5h-4.5v-23.4h4.5V536.5z"/>
	<path class="st0" d="M132,536.5v-0.9c-0.5,0.5-2.2,1.2-3.9,1.2c-3.2,0-6-1.9-6-5.2c0-3.1,2.7-5.1,6.2-5.1c1.4,0,3,0.5,3.7,0.9v-1.2
		c0-1.4-0.8-2.5-2.6-2.5c-1.3,0-2,0.6-2.4,1.5h-4.2c0.5-2.9,3.1-5.1,6.8-5.1c4.3,0,6.8,2.3,6.8,6.2v10.3H132z M132,530.9
		c-0.4-0.9-1.6-1.4-2.9-1.4c-1.4,0-2.8,0.6-2.8,2c0,1.4,1.4,2,2.8,2c1.3,0,2.5-0.5,2.9-1.4V530.9z"/>
	<path class="st0" d="M140.8,524h-2.4v-3.6h2.4V516h4.4v4.4h3.5v3.6h-3.5v7.1c0,1.3,0.7,1.8,1.8,1.8c0.7,0,1.4-0.2,1.9-0.5v4
		c-0.6,0.3-1.7,0.5-2.9,0.5c-3.3,0-5.3-1.6-5.3-5.2V524z"/>
	<path class="st0" d="M166,531.2c-0.6,3.4-3.1,5.6-7.1,5.6c-4.7,0-7.8-3.4-7.8-8.4c0-4.9,3.2-8.4,7.7-8.4c4.7,0,7.3,3.3,7.3,8v1.4
		h-10.7c0.1,2.4,1.5,3.9,3.5,3.9c1.5,0,2.6-0.6,3-2H166z M155.5,526.7h6.2c0-1.7-1-3-2.9-3C157.1,523.7,155.9,524.7,155.5,526.7z"/>
	<path class="st0" d="M172.4,531.7c0.4,1.2,1.4,1.8,2.7,1.8c1.4,0,2.3-0.5,2.3-1.6c0-0.7-0.5-1.1-1.6-1.4l-3.2-0.7
		c-2.4-0.6-4.2-1.8-4.2-4.5c0-3.1,2.8-5.2,6.4-5.2c4.1,0,6.3,1.9,6.8,5h-4.2c-0.3-0.9-1-1.6-2.5-1.6c-1.1,0-2.1,0.5-2.1,1.5
		c0,0.6,0.4,1,1.4,1.3l3.3,0.8c2.8,0.7,4.3,2.2,4.3,4.7c0,3.3-2.8,5.2-6.6,5.2c-3.9,0-6.7-1.9-7.2-5.1H172.4z"/>
	<path class="st0" d="M43.5,586c5.2,0,8.4,3.1,9.3,7.5h-4.6c-0.8-2-2.1-3.4-4.7-3.4c-3.5,0-5.6,3.1-5.6,7.3c0,4.2,2.1,7.3,5.6,7.3
		c2.6,0,3.9-1.4,4.7-3.4h4.6c-0.8,4.5-4,7.5-9.3,7.5c-5.9,0-10.3-4.6-10.3-11.4C33.2,590.7,37.6,586,43.5,586z"/>
	<path class="st0" d="M62.6,608.8c-4.7,0-7.9-3.5-7.9-8.4c0-5,3.2-8.4,7.9-8.4c4.7,0,7.9,3.5,7.9,8.4
		C70.5,605.4,67.3,608.8,62.6,608.8z M62.6,595.8c-2.2,0-3.5,1.9-3.5,4.6c0,2.7,1.2,4.6,3.5,4.6c2.2,0,3.5-1.9,3.5-4.6
		C66.1,597.7,64.9,595.8,62.6,595.8z"/>
	<path class="st0" d="M83.8,607.1c-0.7,0.9-2.3,1.7-4,1.7c-4.7,0-7.3-3.8-7.3-8.4c0-4.6,2.6-8.4,7.3-8.4c1.7,0,3.3,0.8,4,1.7v-8.6
		h4.5v23.4h-4.5V607.1z M83.8,597.8c-0.5-1.1-1.7-1.9-3-1.9c-2.4,0-3.9,1.9-3.9,4.5c0,2.6,1.4,4.5,3.9,4.5c1.3,0,2.5-0.8,3-1.9
		V597.8z"/>
	<path class="st0" d="M106.1,603.2c-0.6,3.4-3.1,5.6-7.1,5.6c-4.7,0-7.8-3.4-7.8-8.4c0-4.9,3.2-8.4,7.7-8.4c4.7,0,7.3,3.3,7.3,8v1.4
		H95.5c0.1,2.4,1.5,3.9,3.5,3.9c1.5,0,2.6-0.6,3-2H106.1z M95.6,598.7h6.2c0-1.7-1-3-2.9-3C97.2,595.7,96,596.7,95.6,598.7z"/>
</g>
<g>
	<path d="M420,245.4v4.1h-2.3v-11.1h4.6c2.3,0,3.9,1.2,3.9,3.5c0,1.8-1,2.9-2.5,3.3l2.9,4.3H424l-2.7-4.1H420z M420,243.5h2.1
		c1.2,0,1.7-0.6,1.7-1.5c0-0.9-0.6-1.5-1.7-1.5H420V243.5z"/>
	<path d="M434.7,246.9c-0.3,1.7-1.5,2.8-3.6,2.8c-2.3,0-3.9-1.7-3.9-4.2c0-2.4,1.6-4.2,3.9-4.2c2.4,0,3.7,1.6,3.7,4v0.7h-5.4
		c0.1,1.2,0.8,1.9,1.7,1.9c0.8,0,1.3-0.3,1.5-1H434.7z M429.4,244.6h3.1c0-0.8-0.5-1.5-1.4-1.5C430.2,243.1,429.6,243.6,429.4,244.6
		z"/>
	<path d="M441.3,248.5c-0.4,0.4-1.1,0.8-2,0.8c-2.3,0-3.7-1.9-3.7-4c0-2.1,1.3-4,3.7-4c0.9,0,1.6,0.4,2,0.8v-0.6h2.2v7.2
		c0,2.8-1.7,4-3.9,4c-2.1,0-3.5-1.1-3.7-2.9h2.2c0.2,0.8,0.7,1.1,1.6,1.1c1.1,0,1.7-0.7,1.7-2V248.5z M441.3,244
		c-0.3-0.4-0.8-0.8-1.5-0.8c-1.2,0-1.9,0.9-1.9,2.1c0,1.3,0.7,2.2,1.9,2.2c0.7,0,1.2-0.4,1.5-0.8V244z"/>
	<path d="M452.6,249.5h-2.2v-0.7c-0.5,0.5-1.2,0.9-2.2,0.9c-1.8,0-2.8-1.2-2.8-3v-5.3h2.2v4.8c0,0.8,0.4,1.4,1.3,1.4
		c0.7,0,1.3-0.4,1.4-1.1v-5.1h2.3V249.5z"/>
	<path d="M456.7,249.5h-2.2v-11.7h2.2V249.5z"/>
	<path d="M463.1,249.5v-0.4c-0.3,0.3-1.1,0.6-2,0.6c-1.6,0-3-0.9-3-2.6c0-1.5,1.4-2.6,3.1-2.6c0.7,0,1.5,0.2,1.8,0.5v-0.6
		c0-0.7-0.4-1.2-1.3-1.2c-0.6,0-1,0.3-1.2,0.8h-2.1c0.2-1.5,1.5-2.6,3.4-2.6c2.1,0,3.4,1.2,3.4,3.1v5.1H463.1z M463.1,246.7
		c-0.2-0.4-0.8-0.7-1.5-0.7c-0.7,0-1.4,0.3-1.4,1c0,0.7,0.7,1,1.4,1c0.6,0,1.3-0.3,1.5-0.7V246.7z"/>
	<path d="M472,243.7c-0.3-0.2-0.7-0.3-1.1-0.3c-0.8,0-1.4,0.4-1.5,1.1v5h-2.2v-8h2.2v0.8c0.3-0.6,1-1,1.8-1c0.4,0,0.7,0.1,0.8,0.1
		V243.7z"/>
	<path d="M422.7,260l4.3,11.1h-1.4l-1.3-3.3h-4.6l-1.3,3.3H417l4.3-11.1H422.7z M420.2,266.5h3.6l-1.8-4.7L420.2,266.5z"/>
	<path d="M436.4,268c0,2-1.4,3.1-3.7,3.1h-4V260h3.6c2.3,0,3.7,1,3.7,2.9c0,1.3-0.8,2.1-1.6,2.4C435.6,265.7,436.4,266.7,436.4,268z
		 M432.3,264.9c1.5,0,2.3-0.6,2.3-1.8c0-1.2-0.8-1.8-2.3-1.8h-2.3v3.6H432.3z M430.1,269.9h2.6c1.5,0,2.3-0.8,2.3-1.9
		c0-1.2-0.8-1.9-2.3-1.9h-2.6V269.9z"/>
	<path d="M442.7,259.9c2.3,0,3.9,1.4,4.3,3.4h-1.4c-0.5-1.3-1.4-2.1-2.9-2.1c-2.1,0-3.5,1.8-3.5,4.4c0,2.6,1.4,4.4,3.5,4.4
		c1.5,0,2.4-0.8,2.9-2.1h1.4c-0.5,2.1-2,3.4-4.3,3.4c-2.8,0-5-2.3-5-5.7C437.8,262.1,439.9,259.9,442.7,259.9z"/>
	<path d="M449,260h3.5c3.2,0,5.4,2.2,5.4,5.5c0,3.4-2.1,5.5-5.4,5.5H449V260z M452.5,269.8c2.5,0,4-1.7,4-4.2s-1.5-4.3-4-4.3h-2.1
		v8.5H452.5z"/>
	<path d="M466.9,260v1.3h-5.6v3.5h5.1v1.3h-5.1v3.8h5.6v1.3h-7V260H466.9z"/>
	<path d="M469.1,271.1V260h6.8v1.3h-5.3v3.7h5v1.3h-5v4.8H469.1z"/>
	<path d="M482.9,266.9v-1.2h4v0.8c0,3-1.9,4.9-4.6,4.9c-2.9,0-5.1-2.2-5.1-5.7s2.2-5.7,5-5.7c2.4,0,3.9,1.4,4.4,3.4h-1.4
		c-0.5-1.3-1.4-2.1-2.9-2.1c-2.1,0-3.6,1.8-3.6,4.4c0,2.6,1.5,4.4,3.7,4.4c1.9,0,3.1-1.2,3.2-3.1H482.9z"/>
	<path d="M497.9,260v11.1h-1.4v-5h-6.2v5h-1.4V260h1.4v4.7h6.2V260H497.9z"/>
	<path d="M502,271.1h-1.4V260h1.4V271.1z"/>
	<path d="M505.1,268c0.1,1.2,0.9,2,2.1,2c1.4,0,2.2-0.8,2.2-2.5V260h1.4v7.4c0,2.6-1.5,3.8-3.6,3.8c-2.2,0-3.5-1.4-3.6-3.3H505.1z"
		/>
	<path d="M514.7,265.6l5.1-5.5h1.8l-4.7,5l4.9,6H520l-4.2-5l-1.2,1.3v3.8h-1.4V260h1.4V265.6z"/>
	<path d="M523.4,260h1.4v9.8h5.6v1.3h-7.1V260z"/>
	<path d="M537.3,271.1l-3.5-8.4v8.4h-1.4V260h1.6l3.7,9.1l3.7-9.1h1.5v11.1h-1.4v-8.4l-3.5,8.4H537.3z"/>
	<path d="M554.3,271.1h-1l-6.2-8.8v8.8h-1.4V260h1.4l5.9,8.4V260h1.4V271.1z"/>
	<path d="M561.3,271.3c-2.9,0-5-2.4-5-5.7c0-3.3,2.1-5.7,5-5.7c2.9,0,5,2.3,5,5.7C566.3,268.9,564.2,271.3,561.3,271.3z
		 M561.3,261.2c-2.1,0-3.6,1.8-3.6,4.4s1.4,4.4,3.6,4.4c2.1,0,3.6-1.8,3.6-4.4S563.4,261.2,561.3,261.2z"/>
	<path d="M569.7,266.7v4.4h-1.4V260h4.1c2.2,0,3.6,1.1,3.6,3.3c0,2.2-1.4,3.3-3.6,3.3H569.7z M572.3,261.3h-2.7v4.1h2.7
		c1.5,0,2.3-0.8,2.3-2.1C574.6,262.1,573.8,261.3,572.3,261.3z"/>
	<path d="M584.7,270.6c-0.7,0.4-1.5,0.6-2.4,0.6c-2.9,0-5-2.4-5-5.7c0-3.3,2.1-5.7,5-5.7c2.9,0,5,2.3,5,5.7c0,1.8-0.6,3.3-1.6,4.3
		l0.9,1.2l-1,0.7L584.7,270.6z M582.2,261.2c-2.1,0-3.6,1.8-3.6,4.4s1.4,4.4,3.6,4.4c0.6,0,1.2-0.1,1.7-0.4l-0.9-1.2l1-0.7l0.9,1.2
		c0.6-0.8,1-1.9,1-3.3C585.8,263,584.4,261.2,582.2,261.2z"/>
	<path d="M590.6,266.4v4.7h-1.4V260h4.1c2.2,0,3.6,1.1,3.6,3.2c0,1.8-1.1,2.9-2.8,3.1l3.3,4.7h-1.6l-3.2-4.7H590.6z M590.6,265.2
		h2.6c1.5,0,2.3-0.7,2.3-2c0-1.2-0.8-2-2.3-2h-2.6V265.2z"/>
	<path d="M599.7,268.2c0.4,1.2,1.5,1.8,2.8,1.8c1.4,0,2.4-0.7,2.4-1.9c0-0.9-0.5-1.4-1.8-1.7l-2-0.5c-1.5-0.4-2.6-1.2-2.6-2.8
		c0-1.9,1.5-3.1,3.6-3.1c2.3,0,3.6,1.2,4.1,2.9h-1.4c-0.3-1-1.2-1.7-2.6-1.7c-1.3,0-2.3,0.7-2.3,1.8c0,0.9,0.6,1.4,1.8,1.7l1.9,0.5
		c1.8,0.5,2.8,1.4,2.8,3c0,2-1.6,3.2-3.8,3.2c-2.2,0-3.8-1.1-4.2-3H599.7z"/>
	<path d="M607.4,260h9.1v1.3h-3.9v9.8h-1.4v-9.8h-3.9V260z"/>
	<path d="M618.2,266.7V260h1.4v6.5c0,2.4,1.1,3.5,2.9,3.5c1.8,0,2.9-1.1,2.9-3.5V260h1.4v6.7c0,3-1.8,4.5-4.3,4.5
		C620,271.3,618.2,269.8,618.2,266.7z"/>
	<path d="M632.6,271.1l-4.3-11.1h1.5l3.5,9.2l3.5-9.2h1.4l-4.3,11.1H632.6z"/>
	<path d="M646.1,260l2.3,8.8l2.3-8.8h1.4l-2.9,11.1h-1.3l-2.3-8.6l-2.4,8.6h-1.3l-2.9-11.1h1.4l2.3,8.8l2.3-8.8H646.1z"/>
	<path d="M658.2,265.4l3.9,5.7h-1.6l-3.1-4.5l-3.1,4.5h-1.6l3.9-5.6l-3.8-5.4h1.6l3,4.3l3-4.3h1.6L658.2,265.4z"/>
	<path d="M670.6,260h1.5l-4,6.5v4.6h-1.4v-4.6l-4-6.5h1.5l3.2,5.2L670.6,260z"/>
	<path d="M681.3,271.1h-8.1v-1l6.3-8.8h-6.2V260h8v1l-6.3,8.8h6.3V271.1z"/>
	<path d="M422.4,292.7v-0.6c-0.3,0.3-1.2,0.7-2.1,0.7c-1.6,0-3-1-3-2.6c0-1.5,1.4-2.5,3.1-2.5c0.8,0,1.7,0.3,2,0.6v-1
		c0-1-0.6-1.7-1.8-1.7c-0.8,0-1.4,0.4-1.6,1.1h-1.3c0.3-1.4,1.5-2.3,3-2.3c1.9,0,3,1.1,3,2.8v5.3H422.4z M422.4,289.9
		c-0.2-0.6-1-1-1.9-1c-1,0-1.9,0.4-1.9,1.4c0,1,0.9,1.4,1.9,1.4c0.8,0,1.6-0.4,1.9-1V289.9z"/>
	<path d="M427.3,292.7H426V281h1.4v4.6c0.4-0.6,1.3-1.1,2.3-1.1c2.3,0,3.6,1.9,3.6,4.2c0,2.3-1.3,4.2-3.6,4.2c-1,0-1.9-0.5-2.3-1.1
		V292.7z M427.3,290.3c0.4,0.8,1.2,1.3,2.1,1.3c1.5,0,2.4-1.2,2.4-2.9s-0.9-2.9-2.4-2.9c-0.8,0-1.6,0.5-2.1,1.3V290.3z"/>
	<path d="M438.1,284.5c1.8,0,2.9,1,3.2,2.6h-1.4c-0.2-0.9-0.9-1.4-1.8-1.4c-1.4,0-2.3,1.2-2.3,3s0.9,3,2.3,3c1,0,1.6-0.5,1.8-1.4
		h1.4c-0.3,1.5-1.4,2.6-3.2,2.6c-2.1,0-3.6-1.7-3.6-4.2C434.5,286.2,436,284.5,438.1,284.5z"/>
	<path d="M448.3,291.8c-0.4,0.6-1.3,1.1-2.3,1.1c-2.3,0-3.6-1.9-3.6-4.2c0-2.3,1.3-4.2,3.6-4.2c1,0,1.9,0.5,2.3,1.1V281h1.4v11.7
		h-1.4V291.8z M448.3,287.1c-0.4-0.8-1.2-1.3-2.1-1.3c-1.5,0-2.4,1.2-2.4,2.9s0.9,2.9,2.4,2.9c0.8,0,1.6-0.5,2.1-1.3V287.1z"/>
	<path d="M458.4,290.3c-0.3,1.5-1.4,2.6-3.2,2.6c-2.2,0-3.7-1.7-3.7-4.1c0-2.4,1.5-4.2,3.6-4.2c2.2,0,3.4,1.6,3.4,3.9v0.5h-5.7
		c0,1.7,1,2.8,2.3,2.8c1,0,1.7-0.5,1.9-1.4H458.4z M452.9,287.9h4.2c0-1.2-0.6-2.2-2-2.2C453.9,285.7,453.1,286.5,452.9,287.9z"/>
	<path d="M464.3,282.2c-0.3-0.2-0.6-0.2-0.8-0.2c-0.8,0-1.3,0.5-1.3,1.5v1.2h1.8v1.2h-1.8v6.8h-1.3v-6.8h-1.4v-1.2h1.4v-1.3
		c0-1.6,1-2.5,2.4-2.5c0.4,0,0.7,0.1,1,0.2V282.2z"/>
	<path d="M470.6,291.6c-0.4,0.6-1.2,1.1-2.2,1.1c-2.3,0-3.6-1.9-3.6-4.1c0-2.1,1.2-4.1,3.6-4.1c1,0,1.8,0.5,2.2,1.1v-0.9h1.4v7.4
		c0,2.6-1.5,3.9-3.6,3.9c-1.9,0-3.2-1-3.4-2.6h1.3c0.2,1,1,1.5,2.1,1.5c1.4,0,2.2-0.9,2.2-2.6V291.6z M470.6,287
		c-0.4-0.8-1.2-1.2-2-1.2c-1.5,0-2.4,1.2-2.4,2.8c0,1.6,0.9,2.8,2.4,2.8c0.9,0,1.6-0.5,2-1.2V287z"/>
	<path d="M474.4,281h1.4v4.7c0.5-0.6,1.3-1.2,2.4-1.2c1.8,0,2.8,1.2,2.8,2.9v5.2h-1.4v-5c0-1.1-0.6-1.9-1.8-1.9
		c-0.9,0-1.7,0.6-2,1.5v5.4h-1.4V281z"/>
	<path d="M483.9,283.2c-0.5,0-0.9-0.4-0.9-0.9c0-0.5,0.4-0.9,0.9-0.9c0.5,0,0.9,0.4,0.9,0.9C484.7,282.8,484.3,283.2,483.9,283.2z
		 M484.5,292.7h-1.4v-8h1.4V292.7z"/>
	<path d="M488.3,293.6c0,1.5-0.8,2.3-2.3,2.3c-0.2,0-0.4,0-0.6-0.1v-1.2c0.1,0,0.3,0.1,0.5,0.1c0.7,0,1.1-0.3,1.1-1.2v-8.8h1.4
		V293.6z M487.6,283.2c-0.5,0-0.9-0.4-0.9-0.9c0-0.5,0.4-0.9,0.9-0.9c0.5,0,0.9,0.4,0.9,0.9C488.5,282.8,488.1,283.2,487.6,283.2z"
		/>
	<path d="M492.9,289l-0.9,0.8v2.9h-1.4V281h1.4v7.3l3.7-3.5h1.8l-3.6,3.5l3.7,4.5h-1.7L492.9,289z"/>
	<path d="M500.4,292.7H499V281h1.4V292.7z"/>
	<path d="M510.9,284.5c1.6,0,2.5,1.1,2.5,2.9v5.3h-1.4v-5.1c0-1.1-0.5-1.9-1.5-1.9c-0.8,0-1.5,0.6-1.8,1.4v5.5h-1.4v-5.1
		c0-1.1-0.5-1.9-1.5-1.9c-0.8,0-1.5,0.6-1.8,1.4v5.5h-1.4v-8h1.4v0.9c0.4-0.6,1.2-1.1,2.2-1.1c1,0,1.8,0.5,2.2,1.3
		C509,285.1,509.8,284.5,510.9,284.5z"/>
	<path d="M515.7,284.7h1.4v1c0.5-0.6,1.3-1.2,2.4-1.2c1.8,0,2.8,1.2,2.8,2.9v5.2h-1.4v-5c0-1.1-0.6-1.9-1.8-1.9
		c-0.9,0-1.7,0.6-2,1.5v5.4h-1.4V284.7z"/>
	<path d="M527.6,292.9c-2.2,0-3.7-1.7-3.7-4.2s1.5-4.2,3.7-4.2c2.2,0,3.7,1.7,3.7,4.2S529.8,292.9,527.6,292.9z M527.6,285.7
		c-1.4,0-2.3,1.2-2.3,3s0.9,3,2.3,3s2.3-1.2,2.3-3S529,285.7,527.6,285.7z"/>
	<path d="M534.5,295.8h-1.4v-11.1h1.4v0.9c0.4-0.6,1.3-1.1,2.3-1.1c2.4,0,3.6,1.9,3.6,4.2c0,2.2-1.2,4.2-3.6,4.2
		c-1,0-1.8-0.5-2.3-1.1V295.8z M534.5,290.3c0.4,0.8,1.2,1.3,2.1,1.3c1.5,0,2.4-1.2,2.4-2.9s-0.9-2.9-2.4-2.9
		c-0.8,0-1.6,0.5-2.1,1.3V290.3z"/>
	<path d="M547.5,291.8c-0.4,0.6-1.3,1.1-2.3,1.1c-2.4,0-3.6-1.9-3.6-4.2c0-2.2,1.2-4.2,3.6-4.2c1,0,1.8,0.5,2.3,1.1v-0.9h1.4v11.1
		h-1.4V291.8z M547.5,287.1c-0.4-0.8-1.2-1.3-2.1-1.3c-1.5,0-2.4,1.2-2.4,2.9s0.9,2.9,2.4,2.9c0.8,0,1.6-0.5,2.1-1.3V287.1z"/>
	<path d="M555.3,286.1c-0.2-0.1-0.6-0.2-0.9-0.2c-0.8,0-1.6,0.6-1.9,1.5v5.4h-1.4v-8h1.4v1c0.3-0.7,1.1-1.2,2-1.2
		c0.3,0,0.6,0.1,0.8,0.1V286.1z"/>
	<path d="M557.7,290.5c0.3,0.8,1,1.2,1.9,1.2c1,0,1.6-0.4,1.6-1.2c0-0.6-0.4-0.9-1.2-1.1l-1.6-0.4c-1.1-0.3-1.9-0.9-1.9-2.1
		c0-1.4,1.2-2.4,2.9-2.4c1.8,0,2.8,0.9,3.1,2.3h-1.4c-0.2-0.7-0.8-1.1-1.8-1.1c-0.8,0-1.5,0.4-1.5,1.2c0,0.5,0.4,0.8,1.1,1l1.5,0.4
		c1.4,0.4,2,1.1,2,2.2c0,1.5-1.3,2.4-3,2.4c-1.7,0-3-0.9-3.3-2.4H557.7z"/>
	<path d="M564.8,285.9h-1.3v-1.2h1.3v-2.1h1.4v2.1h1.9v1.2h-1.9v4.7c0,0.8,0.4,1.1,1.1,1.1c0.4,0,0.8-0.1,1-0.3v1.3
		c-0.3,0.2-0.8,0.3-1.3,0.3c-1.3,0-2.2-0.7-2.2-2.2V285.9z"/>
	<path d="M576.4,292.7h-1.4v-1c-0.5,0.6-1.3,1.2-2.3,1.2c-1.8,0-2.8-1.2-2.8-2.9v-5.2h1.4v5c0,1.1,0.5,1.9,1.7,1.9
		c0.9,0,1.7-0.6,2-1.5v-5.4h1.4V292.7z"/>
	<path d="M581,292.7l-3.1-8h1.5l2.3,6.3l2.3-6.3h1.4l-3.1,8H581z"/>
	<path d="M593.7,290.8l1.8-6.1h1.3l-2.4,8h-1.3l-1.7-6.1l-1.7,6.1h-1.3l-2.4-8h1.4l1.8,6.1l1.6-6.1h1.2L593.7,290.8z"/>
	<path d="M601.9,288.6l3,4.1h-1.5l-2.2-3.1l-2.2,3.1h-1.5l3-4.1l-2.8-3.9h1.5l2,2.9l2.1-2.9h1.5L601.9,288.6z"/>
	<path d="M607.4,295.8l1.2-3l-3.1-8h1.5l2.4,6.3l2.3-6.3h1.4l-4.3,11.1H607.4z"/>
	<path d="M620.4,292.7h-6.3v-0.9l4.5-6h-4.3v-1.2h6.1v0.9l-4.4,6h4.5V292.7z"/>
	<path d="M421.2,314.3h-1.4v-9.4l-2.7,1.4v-1.4l3.3-1.7h0.8V314.3z"/>
	<path d="M426.8,304.3c-1.3,0-2.1,0.9-2.2,2.2h-1.5c0.2-2.1,1.6-3.5,3.6-3.5c2.1,0,3.4,1.2,3.4,3.1c0,1.4-1.1,2.5-2.2,3.8l-2.8,3.1
		h5.3v1.3h-7.2v-0.9l3.6-3.9c1.2-1.3,2.1-2.2,2.1-3.2C428.8,305.1,428,304.3,426.8,304.3z"/>
	<path d="M434.3,308h0.7c1.2,0,2.1-0.7,2.1-1.9c0-1.1-0.8-1.9-2-1.9c-1.2,0-2,0.8-2.2,2h-1.4c0.3-1.9,1.6-3.2,3.6-3.2
		c2.1,0,3.4,1.3,3.4,3c0,1.2-0.7,2.2-1.7,2.5c1.2,0.3,1.9,1.3,1.9,2.6c0,1.8-1.3,3.3-3.5,3.3c-2.2,0-3.7-1.3-3.8-3.3h1.4
		c0.2,1.3,1,2.1,2.4,2.1c1.3,0,2.2-0.8,2.2-2c0-1.2-1-2-2.3-2h-0.8V308z"/>
	<path d="M441.3,310.6h3.5v-2.7h1.3v2.7h1.9v1.2h-1.9v2.5h-1.3v-2.5h-5.1v-1l4.2-7.5h1.4L441.3,310.6z"/>
	<path d="M450.9,309.3h-1.1v-6.1h6v1.3H451v3.3c0.4-0.3,1.1-0.7,2-0.7c2,0,3.5,1.5,3.5,3.7c0,2.1-1.5,3.7-3.6,3.7
		c-2.1,0-3.5-1.3-3.8-3.3h1.4c0.2,1.3,1,2.1,2.4,2.1c1.3,0,2.3-1,2.3-2.4c0-1.4-0.9-2.4-2.3-2.4C452,308.4,451.4,308.8,450.9,309.3z
		"/>
	<path d="M463.9,305.8c-0.3-0.9-0.9-1.6-2-1.6c-1.6,0-2.8,1.9-2.8,4.2c0,0.1,0,0.4,0,0.5c0.4-1.1,1.5-1.9,2.8-1.9
		c2.1,0,3.6,1.7,3.6,3.7c0,2-1.4,3.7-3.7,3.7c-1.4,0-2.6-0.7-3.3-2.1c-0.5-1-0.6-2.1-0.6-3.4c0-3.6,1.7-5.9,4.1-5.9
		c1.9,0,3,1,3.4,2.7H463.9z M461.8,313.3c1.4,0,2.4-1,2.4-2.5c0-1.5-1-2.5-2.4-2.5c-1.4,0-2.4,1-2.4,2.5
		C459.4,312.2,460.3,313.3,461.8,313.3z"/>
	<path d="M469.6,314.3h-1.4l3.9-9.8h-5.7v-1.3h7.1v1.1L469.6,314.3z"/>
	<path d="M474.4,311.3c0-1.4,0.9-2.5,2.2-2.8c-1-0.4-1.8-1.3-1.8-2.5c0-1.8,1.5-2.9,3.4-2.9c1.9,0,3.4,1.1,3.4,2.9
		c0,1.2-0.8,2.1-1.8,2.5c1.2,0.3,2.2,1.4,2.2,2.8c0,1.9-1.6,3.2-3.8,3.2C476.1,314.5,474.4,313.2,474.4,311.3z M480.6,311.2
		c0-1.2-1-2.1-2.4-2.1c-1.4,0-2.4,0.9-2.4,2.1c0,1.3,1,2.1,2.4,2.1C479.6,313.3,480.6,312.4,480.6,311.2z M480.2,306.1
		c0-1.1-0.9-1.8-2-1.8c-1.1,0-2,0.7-2,1.8c0,1.1,0.9,1.8,2,1.8C479.3,307.9,480.2,307.2,480.2,306.1z"/>
	<path d="M484.7,311.7c0.3,0.9,0.9,1.6,2,1.6c1.6,0,2.8-1.9,2.8-4.2c0-0.1,0-0.4,0-0.5c-0.4,1.1-1.5,1.9-2.8,1.9
		c-2.1,0-3.6-1.7-3.6-3.7c0-2,1.4-3.7,3.7-3.7c1.4,0,2.6,0.7,3.3,2.1c0.5,1,0.6,2.1,0.6,3.4c0,3.6-1.7,5.9-4.1,5.9
		c-1.9,0-3-1-3.4-2.7H484.7z M486.8,304.3c-1.4,0-2.4,1-2.4,2.5c0,1.5,1,2.5,2.4,2.5c1.4,0,2.4-1,2.4-2.5
		C489.2,305.3,488.3,304.3,486.8,304.3z"/>
	<path d="M492.2,308.8c0-3.4,1.7-5.7,4.1-5.7s4.1,2.3,4.1,5.7c0,3.4-1.7,5.7-4.1,5.7S492.2,312.1,492.2,308.8z M493.6,308.8
		c0,2.6,0.9,4.4,2.7,4.4c1.8,0,2.7-1.8,2.7-4.4s-1-4.4-2.7-4.4C494.6,304.4,493.6,306.2,493.6,308.8z"/>
	<path d="M425.7,332.7h-1.9l-0.8,3.2h-1.2l0.8-3.2H420l-0.8,3.2h-1.2l0.8-3.2h-1.7l0.2-1.1h1.7l0.6-2.6h-1.8l0.2-1.1h1.9l0.8-3.2
		h1.2l-0.8,3.2h2.5l0.8-3.2h1.2l-0.8,3.2h1.7l-0.2,1.1h-1.7l-0.6,2.6h1.8L425.7,332.7z M420.3,331.7h2.5l0.6-2.6h-2.5L420.3,331.7z"
		/>
	<path d="M427.6,325.8l0.4-0.7l1.6,0.9v-1.9h0.8v1.9l1.6-0.9l0.4,0.7l-1.6,1l1.6,0.9l-0.4,0.7l-1.6-0.9v1.9h-0.8v-1.9l-1.6,0.9
		l-0.4-0.7l1.6-0.9L427.6,325.8z"/>
	<path d="M442.3,333.4c-0.1,0.7,0.1,1,0.7,1c1.3,0,2.3-1.2,2.3-3.4c0-2.6-2.1-4.3-4.9-4.3c-3.4,0-5.7,2.5-5.7,5.8
		c0,3.8,3,5.1,5.7,5.1c1.6,0,2.9-0.4,3.9-0.8v1c-0.9,0.4-2.3,0.8-3.9,0.8c-3.5,0-6.8-1.8-6.8-6.2c0-3.8,2.7-6.8,6.8-6.8
		c3.5,0,6,2.3,6,5.3c0,2.9-1.7,4.3-3.5,4.3c-0.8,0-1.5-0.4-1.8-1c-0.4,0.6-1.1,1-1.8,1c-1.5,0-2.4-1.2-2.4-2.7c0-2,1.3-3.8,3.3-3.8
		c0.8,0,1.4,0.4,1.6,0.8l0.1-0.7h1.2L442.3,333.4z M441.5,331c-0.2-0.5-0.7-1-1.3-1c-1.3,0-2.1,1.3-2.1,2.6c0,1,0.5,1.6,1.4,1.6
		c0.7,0,1.3-0.5,1.6-1L441.5,331z"/>
	<path d="M450.7,335.7c-1.7-0.2-3-1.2-3.3-2.8h1.4c0.4,1.1,1.3,1.7,2.6,1.7c1.4,0,2.3-0.6,2.3-1.8c0-0.8-0.5-1.3-1.6-1.6l-1.8-0.5
		c-1.4-0.4-2.5-1.1-2.5-2.7c0-1.7,1.3-2.8,3-2.9v-1.6h1.2v1.7c1.6,0.3,2.5,1.3,2.9,2.7h-1.3c-0.3-0.9-1.1-1.6-2.4-1.6
		c-1.2,0-2.1,0.6-2.1,1.7c0,0.9,0.6,1.3,1.7,1.6l1.7,0.5c1.6,0.4,2.6,1.4,2.6,2.8c0,1.7-1.2,2.8-3,3v1.8h-1.2V335.7z"/>
	<path d="M458.5,329.5c-1.3,0-2.4-1.1-2.4-2.4c0-1.3,1.1-2.4,2.4-2.4s2.4,1.1,2.4,2.4C460.9,328.4,459.8,329.5,458.5,329.5z
		 M458.5,328.4c0.7,0,1.4-0.6,1.4-1.3s-0.6-1.4-1.4-1.4s-1.3,0.6-1.3,1.4S457.8,328.4,458.5,328.4z M464.2,324.8h1.1l-6.9,11.1h-1.1
		L464.2,324.8z M464.1,336.1c-1.3,0-2.4-1.1-2.4-2.4c0-1.3,1.1-2.4,2.4-2.4c1.3,0,2.4,1.1,2.4,2.4
		C466.5,335,465.4,336.1,464.1,336.1z M464.1,332.3c-0.7,0-1.4,0.6-1.4,1.3c0,0.7,0.6,1.4,1.4,1.4c0.7,0,1.3-0.6,1.3-1.4
		C465.4,332.9,464.8,332.3,464.1,332.3z"/>
	<path d="M473.5,327.4c-0.1-0.9-0.6-1.6-1.6-1.6c-1,0-1.7,0.6-1.7,1.7c0,0.8,0.6,1.4,1.2,2.1l3.1,3.3c0.3-0.7,0.5-1.5,0.5-2.4h1.3
		c0,1.2-0.4,2.4-1,3.3l2.1,2.2h-1.8l-1.1-1.2c-0.8,0.8-1.9,1.3-3.2,1.3c-2.1,0-3.6-1.4-3.6-3.4c0-1.3,0.8-2.5,2-3
		c-0.5-0.7-0.9-1.3-0.9-2.2c0-1.7,1.3-2.8,3-2.8c1.9,0,2.9,1.2,3,2.7H473.5z M473.8,333.9l-3.2-3.4c-0.9,0.3-1.5,1.2-1.5,2.2
		c0,1.3,0.9,2.3,2.3,2.3C472.4,334.9,473.2,334.6,473.8,333.9z"/>
	<path d="M478,336.7h5.9v1.2H478V336.7z"/>
	<path d="M485.8,334c0.5,0,1,0.4,1,1s-0.4,1-1,1c-0.5,0-1-0.4-1-1S485.2,334,485.8,334z"/>
	<path d="M488,330.6h4.3v1.3H488V330.6z"/>
	<path d="M494.4,335.9c-0.5-0.1-0.8-0.4-0.8-0.9c0-0.6,0.4-1,1-1s1,0.4,1,1c0,0.4-0.2,0.8-0.4,1.1l-1,1.6h-0.9L494.4,335.9z"/>
	<path d="M496.9,330.6h7.1v1.1h-7.1V330.6z"/>
	<path d="M506.1,335.9c-0.4-0.1-0.8-0.4-0.8-0.9c0-0.6,0.4-1,1-1c0.5,0,1,0.4,1,1c0,0.4-0.2,0.8-0.4,1.1l-1,1.6h-0.9L506.1,335.9z
		 M506.3,328.4c0.5,0,1,0.4,1,1s-0.4,1-1,1c-0.5,0-1-0.4-1-1S505.7,328.4,506.3,328.4z"/>
	<path d="M509.3,328.4c0.5,0,1,0.4,1,1s-0.4,1-1,1c-0.5,0-1-0.4-1-1S508.8,328.4,509.3,328.4z M509.3,334c0.5,0,1,0.4,1,1
		s-0.4,1-1,1c-0.5,0-1-0.4-1-1S508.8,334,509.3,334z"/>
	<path d="M511.6,330.6h13.8v1.1h-13.8V330.6z"/>
	<path d="M531.6,331c-0.6,0.6-0.8,1-0.8,1.5h-1.3c0.1-0.9,0.3-1.4,1-2.2c0.6-0.7,1.5-1.4,1.5-2.5c0-1.1-0.8-1.9-2-1.9
		c-1.3,0-2.1,0.9-2.2,2.2h-1.5c0.2-2.1,1.6-3.5,3.6-3.5c2.1,0,3.4,1.2,3.4,3.1C533.4,329.1,532.4,330.1,531.6,331z M530.1,334
		c0.5,0,1,0.4,1,1s-0.4,1-1,1c-0.5,0-1-0.4-1-1S529.6,334,530.1,334z"/>
	<path d="M535.7,334c0.5,0,1,0.4,1,1s-0.4,1-1,1c-0.5,0-1-0.4-1-1S535.2,334,535.7,334z M534.9,324.8h1.6l-0.3,7.6h-1L534.9,324.8z"
		/>
	<path d="M539.1,326.7c0.5,0.1,0.8,0.4,0.8,0.9c0,0.6-0.4,1-1,1c-0.5,0-1-0.4-1-1c0-0.4,0.2-0.8,0.4-1.1l0.9-1.5h0.9L539.1,326.7z"
		/>
	<path d="M542,326.5c-0.5-0.1-0.8-0.4-0.8-0.9c0-0.6,0.4-1,1-1s1,0.4,1,1c0,0.4-0.2,0.8-0.4,1.1l-0.9,1.5h-0.9L542,326.5z"/>
	<path d="M545.1,326.7c0.5,0.1,0.8,0.4,0.8,0.9c0,0.6-0.4,1-1,1s-1-0.4-1-1c0-0.4,0.2-0.8,0.4-1.1l0.9-1.5h0.9L545.1,326.7z
		 M547.9,326.7c0.5,0.1,0.8,0.4,0.8,0.9c0,0.6-0.4,1-1,1s-1-0.4-1-1c0-0.4,0.2-0.8,0.4-1.1l0.9-1.5h0.9L547.9,326.7z"/>
	<path d="M550.8,326.5c-0.5-0.1-0.8-0.4-0.8-0.9c0-0.6,0.4-1,1-1s1,0.4,1,1c0,0.4-0.2,0.8-0.4,1.1l-0.9,1.5h-0.9L550.8,326.5z
		 M553.5,326.5c-0.5-0.1-0.8-0.4-0.8-0.9c0-0.6,0.4-1,1-1c0.5,0,1,0.4,1,1c0,0.4-0.2,0.8-0.4,1.1l-0.9,1.5h-0.9L553.5,326.5z"/>
	<path d="M560.5,324.2v1.4c-1.9,0.5-3.5,2.4-3.5,5.2c0,2.8,1.5,4.7,3.5,5.2v1.4c-3-0.8-4.8-3.3-4.8-6.6
		C555.7,327.5,557.5,325,560.5,324.2z"/>
	<path d="M561.3,337.4V336c1.9-0.5,3.5-2.4,3.5-5.2c0-2.8-1.5-4.7-3.5-5.2v-1.4c3,0.8,4.8,3.3,4.8,6.6
		C566.1,334.1,564.3,336.6,561.3,337.4z"/>
	<path d="M420,379.1h-2.3V368h2.3V379.1z"/>
	<path d="M422.5,372.9h-1.2v-1.8h1.2v-2.2h2.2v2.2h1.8v1.8h-1.8v3.5c0,0.6,0.3,0.9,0.9,0.9c0.3,0,0.7-0.1,1-0.3v2
		c-0.3,0.2-0.8,0.3-1.4,0.3c-1.6,0-2.7-0.8-2.7-2.6V372.9z"/>
	<path d="M432.6,379.1v-0.4c-0.3,0.3-1.1,0.6-2,0.6c-1.6,0-3-0.9-3-2.6c0-1.5,1.4-2.6,3.1-2.6c0.7,0,1.5,0.2,1.8,0.5v-0.6
		c0-0.7-0.4-1.2-1.3-1.2c-0.6,0-1,0.3-1.2,0.8H428c0.2-1.5,1.5-2.6,3.4-2.6c2.1,0,3.4,1.2,3.4,3.1v5.1H432.6z M432.6,376.3
		c-0.2-0.4-0.8-0.7-1.5-0.7c-0.7,0-1.4,0.3-1.4,1c0,0.7,0.7,1,1.4,1c0.6,0,1.3-0.3,1.5-0.7V376.3z"/>
	<path d="M438.8,379.1h-2.2v-11.7h2.2V379.1z"/>
	<path d="M441.8,370c-0.7,0-1.3-0.5-1.3-1.3c0-0.7,0.6-1.3,1.3-1.3c0.7,0,1.3,0.5,1.3,1.3C443.2,369.5,442.6,370,441.8,370z
		 M443,379.1h-2.2v-8h2.2V379.1z"/>
	<path d="M448.3,370.9c2,0,3.3,1.2,3.5,2.9h-2.2c-0.1-0.6-0.6-1-1.3-1c-1,0-1.7,0.9-1.7,2.3c0,1.4,0.6,2.3,1.7,2.3
		c0.7,0,1.2-0.4,1.3-1h2.2c-0.2,1.7-1.5,2.9-3.5,2.9c-2.3,0-3.9-1.7-3.9-4.2C444.4,372.6,446,370.9,448.3,370.9z"/>
	<path d="M424.2,389.6l2.2,11.1H425l-0.6-3.3h-4.5l-1.9,3.3h-1.5l6.4-11.1H424.2z M420.5,396.1h3.6l-0.9-4.7L420.5,396.1z"/>
	<path d="M436.3,397.2c0,2.3-1.9,3.5-4.2,3.5h-4l1.9-11.1h3.6c2.1,0,3.2,0.9,3.2,2.5c0,1.5-1,2.5-2.1,2.8
		C435.7,395.3,436.3,396.1,436.3,397.2z M429.7,399.5h2.6c1.6,0,2.6-0.9,2.6-2.3c0-1-0.6-1.6-2-1.6h-2.6L429.7,399.5z M432.8,394.5
		c1.6,0,2.6-0.7,2.6-2.1c0-1-0.6-1.5-2-1.5h-2.3l-0.6,3.6H432.8z"/>
	<path d="M443.6,389.5c2.3,0,3.8,1.4,4,3.4h-1.4c-0.3-1.3-1.2-2.1-2.6-2.1c-2.5,0-4.1,2.4-4.1,5.2c0,2.1,1.2,3.6,3.1,3.6
		c1.6,0,2.5-0.8,3.1-2.1h1.4c-0.6,2.1-2.3,3.4-4.5,3.4c-2.6,0-4.5-2-4.5-4.9C438,392.6,440.2,389.5,443.6,389.5z"/>
	<path d="M450.4,389.6h3.4c3,0,4.6,1.8,4.6,4.6c0,3.6-2.6,6.4-6.3,6.4h-3.6L450.4,389.6z M452.2,399.4c2.8,0,4.7-2.1,4.7-5.1
		c0-2.1-1.1-3.4-3.3-3.4h-2l-1.5,8.5H452.2z"/>
	<path d="M468.3,389.6l-0.2,1.3h-5.7l-0.6,3.5h5.1l-0.2,1.3h-5.1l-0.7,3.8h5.7l-0.2,1.3h-7l1.9-11.1H468.3z"/>
	<path d="M468.6,400.7l1.9-11.1h6.7l-0.2,1.3h-5.3l-0.7,3.7h5l-0.2,1.3h-5l-0.8,4.8H468.6z"/>
	<path d="M477.6,395.9c0-3.3,2.2-6.5,5.6-6.5c2.3,0,3.9,1.3,4.1,3.4H486c-0.3-1.3-1.3-2.1-2.8-2.1c-2.6,0-4.1,2.4-4.1,5.2
		c0,2.1,1.2,3.6,3.2,3.6c1.9,0,3.2-1.3,3.6-3.1h-2.6l0.2-1.2h3.9l-0.2,1.1c-0.5,2.7-2.3,4.5-4.9,4.5
		C479.5,400.9,477.6,398.9,477.6,395.9z"/>
	<path d="M499.4,389.6l-1.9,11.1h-1.4l0.9-5h-6.3l-0.9,5h-1.4l1.9-11.1h1.4l-0.8,4.7h6.3l0.8-4.7H499.4z"/>
	<path d="M501.5,400.7h-1.4l1.9-11.1h1.4L501.5,400.7z"/>
	<path d="M505.3,397.3c0,0,0,0.1,0,0.2c0,1.2,0.6,2,1.9,2c1.4,0,2.2-0.9,2.5-2.6l1.3-7.3h1.4l-1.3,7.4c-0.4,2.4-1.9,3.8-3.9,3.8
		c-2.1,0-3.4-1.3-3.4-3.2c0-0.1,0-0.4,0-0.4H505.3z"/>
	<path d="M515.3,395.2l6.1-5.5h1.8l-5.7,5.1l3.9,6h-1.6l-3.3-5.1l-1.5,1.3l-0.6,3.8h-1.4l1.9-11.1h1.4L515.3,395.2z"/>
	<path d="M525,389.6h1.4l-1.7,9.8h5.7l-0.2,1.3h-7.1L525,389.6z"/>
	<path d="M537,400.7l-2-8.4l-1.5,8.4h-1.4l1.9-11.1h1.5l2.2,9.2l5.3-9.2h1.6l-1.9,11.1h-1.4l1.5-8.4l-4.9,8.4H537z"/>
	<path d="M554,400.7H553l-4.6-9l-1.6,9h-1.4l1.9-11.1h1.3l4.4,8.6l1.5-8.6h1.4L554,400.7z"/>
	<path d="M556.8,395.9c0-3.5,2.4-6.4,5.6-6.4c2.7,0,4.5,2,4.5,4.9c0,3.5-2.3,6.4-5.6,6.4C558.7,400.9,556.8,398.9,556.8,395.9z
		 M565.5,394.4c0-2.1-1.2-3.7-3-3.7c-2.5,0-4.2,2.3-4.2,5.2c0,2.1,1.2,3.7,3,3.7C563.8,399.6,565.5,397.3,565.5,394.4z"/>
	<path d="M570.2,396.3l-0.8,4.4H568l1.9-11.1h4.1c1.9,0,3.1,1,3.1,2.8c0,2.4-1.9,3.8-4.3,3.8H570.2z M570.4,395h2.7
		c1.6,0,2.6-0.9,2.6-2.4c0-1-0.6-1.7-1.9-1.7h-2.7L570.4,395z"/>
	<path d="M578,395.9c0-3.5,2.3-6.4,5.6-6.4c2.7,0,4.5,2,4.5,5c0,2.1-0.9,4-2.3,5.2l0.7,1.1l-1,0.6l-0.7-1.1
		c-0.7,0.4-1.5,0.6-2.3,0.6C579.8,400.9,578,398.9,578,395.9z M584.1,399.2l-0.7-1.2l1-0.6l0.7,1.2c1-0.9,1.5-2.4,1.5-4.1
		c0-2.1-1.2-3.7-3.1-3.7c-2.5,0-4.1,2.3-4.1,5.1c0,2.1,1.2,3.7,3.1,3.7C583.1,399.6,583.6,399.5,584.1,399.2z"/>
	<path d="M591.3,396l-0.8,4.7h-1.4l1.9-11.1h3.9c2.1,0,3.2,1,3.2,2.8c0,2.1-1.4,3.3-3.4,3.5l2.4,4.7h-1.5l-2.4-4.7H591.3z
		 M591.5,394.8h2.6c1.6,0,2.6-0.8,2.6-2.3c0-1-0.7-1.6-2-1.6h-2.6L591.5,394.8z"/>
	<path d="M606.1,392.5c-0.1-1.1-1-1.9-2.4-1.9c-1.4,0-2.4,0.7-2.4,2c0,0.8,0.5,1.2,1.4,1.5l1.9,0.6c1.4,0.4,2.2,1.2,2.2,2.6
		c0,2.2-1.9,3.5-4,3.5c-2.2,0-3.8-1.1-4-3.2h1.4c0.2,1.4,1.3,2,2.6,2c1.5,0,2.6-0.8,2.6-2.2c0-0.7-0.4-1.2-1.5-1.5l-1.9-0.6
		c-1.3-0.4-2.2-1.1-2.2-2.5c0-2,1.7-3.4,3.8-3.4c2.4,0,3.7,1.2,3.8,3.1H606.1z"/>
	<path d="M608.9,389.6h9.1l-0.2,1.3h-3.9l-1.7,9.8h-1.4l1.7-9.8h-3.9L608.9,389.6z"/>
	<path d="M618.5,397.3c0-0.3,0-0.7,0.1-1.2l1.1-6.5h1.4l-1.2,6.5c-0.1,0.3-0.1,0.7-0.1,1c0,1.6,0.9,2.5,2.5,2.5c1.9,0,3-1.1,3.5-3.5
		l1.1-6.5h1.4l-1.2,6.7c-0.5,3-2.3,4.5-4.8,4.5C620.1,400.9,618.5,399.7,618.5,397.3z"/>
	<path d="M632,400.7l-2.1-11.1h1.4l1.6,9.2l5.3-9.2h1.5l-6.5,11.1H632z"/>
	<path d="M647.7,389.6l0.6,8.8l4-8.8h1.4l-5.1,11.1h-1.3l-0.7-8.6l-4,8.6h-1.3l-0.8-11.1h1.3l0.6,8.8l4.1-8.8H647.7z"/>
	<path d="M658.8,395.1l2.8,5.6h-1.5l-2.3-4.6l-4.1,4.6h-1.6l5.1-5.7l-2.7-5.4h1.5l2.2,4.3l3.9-4.3h1.6L658.8,395.1z"/>
	<path d="M672.3,389.6h1.6l-5.2,6.5l-0.8,4.6h-1.4l0.8-4.6l-2.9-6.5h1.5l2.3,5.2L672.3,389.6z"/>
	<path d="M681,400.7h-8.1l0.2-1l7.8-8.8h-6.1l0.2-1.3h8l-0.2,1l-7.7,8.8h6.2L681,400.7z"/>
	<path d="M423,422.3h-1.3l0.1-0.6c-0.4,0.4-1.2,0.7-2.1,0.7c-1.5,0-2.7-0.9-2.7-2.3c0-1.7,1.6-2.8,3.4-2.8c0.9,0,1.7,0.3,2,0.7
		l0.2-1c0-0.1,0-0.3,0-0.4c0-0.7-0.5-1.3-1.4-1.3c-0.9,0-1.5,0.4-1.9,1.1H418c0.5-1.4,1.8-2.3,3.4-2.3c1.7,0,2.6,0.9,2.6,2.3
		c0,0.2,0,0.3-0.1,0.5L423,422.3z M422.2,419.5c-0.1-0.6-0.9-1-1.8-1c-1,0-2.1,0.5-2.1,1.6c0,0.8,0.8,1.2,1.7,1.2c0.9,0,1.7-0.4,2-1
		L422.2,419.5z"/>
	<path d="M426.7,422.3h-1.4l2.1-11.7h1.4l-0.8,4.7c0.5-0.6,1.4-1.2,2.4-1.2c2,0,3,1.5,3,3.4c0,2.6-1.7,4.9-4.2,4.9
		c-1.1,0-1.9-0.5-2.2-1.1L426.7,422.3z M427.1,419.9c0.3,0.8,1,1.3,1.9,1.3c1.9,0,2.9-1.7,2.9-3.7c0-1.3-0.6-2.2-1.9-2.2
		c-1,0-1.8,0.6-2.4,1.4L427.1,419.9z"/>
	<path d="M441.2,419.9c-0.5,1.6-1.7,2.6-3.5,2.6c-2,0-3.2-1.4-3.2-3.5c0-2.4,1.6-4.8,4.2-4.8c1.8,0,2.8,1,2.9,2.6h-1.4
		c-0.1-0.9-0.7-1.4-1.6-1.4c-1.8,0-2.7,1.7-2.7,3.6c0,1.4,0.7,2.3,1.9,2.3c1,0,1.7-0.5,2-1.4H441.2z"/>
	<path d="M449.8,410.6h1.4l-2.1,11.7h-1.4l0.2-1c-0.5,0.6-1.4,1.2-2.4,1.2c-2,0-3-1.5-3-3.4c0-2.5,1.7-4.9,4.2-4.9
		c1.1,0,1.9,0.5,2.2,1.1L449.8,410.6z M448.7,416.7c-0.3-0.8-1-1.3-1.9-1.3c-1.9,0-2.9,1.9-2.9,3.7c0,1.3,0.7,2.2,1.9,2.2
		c1,0,1.8-0.6,2.4-1.4L448.7,416.7z"/>
	<path d="M458.5,419.9c-0.5,1.5-1.8,2.6-3.5,2.6c-2.1,0-3.3-1.4-3.3-3.5c0-2.4,1.5-4.8,4.2-4.8c2,0,3,1.3,3,3.2
		c0,0.3-0.1,0.8-0.1,1.2H453c0,0.1,0,0.3,0,0.4c0,1.5,0.7,2.4,2,2.4c1,0,1.8-0.5,2.1-1.4H458.5z M453.2,417.5h4.3c0-0.1,0-0.2,0-0.3
		c0-1-0.6-1.9-1.7-1.9C454.4,415.3,453.5,416.3,453.2,417.5z"/>
	<path d="M465.7,411.8c-0.2-0.1-0.5-0.2-0.8-0.2c-0.8,0-1.4,0.5-1.6,1.5l-0.2,1.2h1.8l-0.2,1.2h-1.8l-1.2,6.8h-1.3l1.2-6.8h-1.3
		l0.2-1.2h1.4l0.2-1.3c0.3-1.6,1.4-2.5,2.9-2.5c0.4,0,0.8,0.1,1,0.2L465.7,411.8z"/>
	<path d="M470.5,421.1c-0.5,0.6-1.4,1.2-2.4,1.2c-2,0-3-1.5-3-3.4c0-2.4,1.7-4.7,4.2-4.7c1.1,0,1.9,0.6,2.2,1.1l0.2-0.9h1.4
		l-1.3,7.5c-0.4,2.4-1.9,3.7-4,3.7c-1.9,0-3.1-1-3.2-2.6h1.3c0.1,1,0.8,1.5,1.8,1.5c1.5,0,2.3-1,2.6-2.6L470.5,421.1z M471.3,416.6
		c-0.3-0.8-1-1.3-1.9-1.3c-1.9,0-2.9,1.8-2.9,3.5c0,1.3,0.7,2.1,1.9,2.1c1,0,1.8-0.6,2.4-1.4L471.3,416.6z"/>
	<path d="M481.5,416.5c0,0.2,0,0.4-0.1,0.6l-0.9,5.2h-1.4l0.9-5c0-0.2,0.1-0.4,0.1-0.5c0-0.8-0.5-1.4-1.4-1.4c-1,0-1.9,0.7-2.3,1.5
		l-1,5.4h-1.4l2.1-11.7h1.4l-0.8,4.7c0.5-0.6,1.5-1.2,2.6-1.2C480.7,414.1,481.5,415.1,481.5,416.5z"/>
	<path d="M484.2,422.3h-1.4l1.4-8h1.4L484.2,422.3z M485.4,412.8c-0.5,0-0.9-0.4-0.9-0.9c0-0.5,0.4-0.9,0.9-0.9
		c0.5,0,0.9,0.4,0.9,0.9C486.2,412.4,485.8,412.8,485.4,412.8z"/>
	<path d="M484.6,424.1c0.2,0.1,0.4,0.2,0.7,0.2c0.6,0,1-0.3,1.1-1.2l1.6-8.8h1.4l-1.6,8.9c-0.3,1.5-1.1,2.3-2.4,2.3
		c-0.4,0-0.7-0.1-0.9-0.2L484.6,424.1z M489.1,412.8c-0.5,0-0.9-0.4-0.9-0.9c0-0.5,0.4-0.9,0.9-0.9c0.5,0,0.9,0.4,0.9,0.9
		C490,412.4,489.6,412.8,489.1,412.8z"/>
	<path d="M493.3,418.6l-1,0.8l-0.5,2.9h-1.4l2.1-11.7h1.4l-1.3,7.2l4.2-3.5h1.8l-4.3,3.5l3,4.5h-1.5L493.3,418.6z"/>
	<path d="M500,422.3h-1.4l2.1-11.7h1.4L500,422.3z"/>
	<path d="M511.8,414.1c1.5,0,2.2,1,2.2,2.2c0,0.2,0,0.5-0.1,0.7l-0.9,5.3h-1.4l0.9-5c0.1-0.3,0.1-0.5,0.1-0.7c0-0.8-0.4-1.3-1.2-1.3
		c-0.9,0-1.6,0.7-2.1,1.5l-0.9,5.4h-1.4l0.9-5c0-0.3,0.1-0.5,0.1-0.7c0-0.8-0.4-1.3-1.2-1.3c-0.9,0-1.6,0.7-2.1,1.5l-1,5.4h-1.4
		l1.4-8h1.4l-0.2,1c0.5-0.6,1.3-1.2,2.3-1.2c1,0,1.7,0.6,1.9,1.3C509.9,414.7,510.8,414.1,511.8,414.1z"/>
	<path d="M516.8,414.3h1.4l-0.2,1c0.5-0.6,1.5-1.2,2.6-1.2c1.5,0,2.4,1,2.4,2.3c0,0.2,0,0.4-0.1,0.6l-0.9,5.2h-1.4l0.9-5
		c0-0.2,0.1-0.4,0.1-0.5c0-0.8-0.5-1.4-1.4-1.4c-1,0-1.9,0.7-2.3,1.5l-1,5.4h-1.4L516.8,414.3z"/>
	<path d="M524.3,419c0-2.8,1.8-4.8,4.1-4.8c2.1,0,3.3,1.4,3.3,3.5c0,2.8-1.8,4.8-4.1,4.8C525.5,422.5,524.3,421.1,524.3,419z
		 M530.3,417.6c0-1.4-0.7-2.3-1.9-2.3c-1.5,0-2.7,1.5-2.7,3.7c0,1.4,0.7,2.3,1.9,2.3C529.1,421.3,530.3,419.8,530.3,417.6z"/>
	<path d="M533.6,425.4h-1.4l1.9-11.1h1.4l-0.2,1c0.5-0.6,1.4-1.2,2.4-1.2c2,0,3,1.5,3,3.4c0,2.6-1.7,4.9-4.2,4.9
		c-1.1,0-1.9-0.5-2.2-1.1L533.6,425.4z M534.5,419.9c0.3,0.8,1,1.3,1.9,1.3c1.9,0,2.9-1.7,2.9-3.7c0-1.3-0.6-2.2-1.9-2.2
		c-1,0-1.8,0.6-2.4,1.4L534.5,419.9z"/>
	<path d="M548.5,414.3h1.4l-1.9,11.1h-1.4l0.7-4.1c-0.5,0.6-1.4,1.2-2.4,1.2c-2,0-3-1.5-3-3.4c0-2.5,1.7-4.9,4.2-4.9
		c1.1,0,1.9,0.5,2.2,1.1L548.5,414.3z M548.1,416.7c-0.3-0.8-1-1.3-1.9-1.3c-1.9,0-2.9,1.9-2.9,3.7c0,1.3,0.7,2.2,1.9,2.2
		c1,0,1.8-0.6,2.4-1.4L548.1,416.7z"/>
	<path d="M556.1,415.7c-0.2-0.1-0.5-0.2-0.9-0.2c-0.8,0-1.7,0.6-2.1,1.5l-1,5.4h-1.4l1.4-8h1.4l-0.2,1c0.5-0.7,1.3-1.2,2.2-1.2
		c0.3,0,0.6,0.1,0.8,0.1L556.1,415.7z"/>
	<path d="M557.8,420.1c0.1,0.9,0.9,1.3,1.8,1.3c1,0,1.8-0.4,1.8-1.3c0-0.5-0.3-0.8-1-1l-1.4-0.4c-1-0.3-1.7-0.8-1.7-2
		c0-1.5,1.4-2.5,3-2.5c1.9,0,2.8,1,2.9,2.3h-1.3c-0.1-0.7-0.6-1.2-1.6-1.2c-0.9,0-1.7,0.4-1.7,1.2c0,0.5,0.3,0.7,0.9,0.9l1.4,0.4
		c1.2,0.4,1.8,1,1.8,2c0,1.6-1.4,2.6-3.1,2.6c-1.9,0-3-1-3.2-2.4H557.8z"/>
	<path d="M565.6,415.5h-1.3l0.2-1.2h1.3l0.4-2.1h1.4l-0.4,2.1h1.9l-0.2,1.2H567l-0.8,4.6c0,0.2-0.1,0.3-0.1,0.5
		c0,0.5,0.3,0.8,0.9,0.8c0.4,0,0.8-0.1,1.1-0.3l-0.2,1.3c-0.3,0.2-0.8,0.3-1.3,0.3c-1.1,0-1.9-0.5-1.9-1.6c0-0.2,0-0.3,0.1-0.6
		L565.6,415.5z"/>
	<path d="M576,422.3h-1.4l0.2-1c-0.5,0.6-1.4,1.2-2.6,1.2c-1.5,0-2.3-0.9-2.3-2.3c0-0.2,0-0.4,0.1-0.6l0.9-5.2h1.4l-0.9,5.1
		c0,0.2-0.1,0.4-0.1,0.6c0,0.8,0.4,1.3,1.4,1.3c1,0,1.9-0.7,2.3-1.5l1-5.4h1.4L576,422.3z"/>
	<path d="M580.4,422.3l-1.4-8h1.3l1,6.3l3.7-6.3h1.5l-4.8,8H580.4z"/>
	<path d="M593.4,420.4l3-6.1h1.4l-4.1,8h-1.3l-0.4-6.1l-2.9,6.1h-1.3l-0.7-8h1.3l0.5,6.1l3-6.1h1.2L593.4,420.4z"/>
	<path d="M602.2,418.2l2.2,4.1H603l-1.7-3.1l-2.8,3.1H597l3.8-4.1l-2-3.9h1.4l1.5,2.9l2.6-2.9h1.5L602.2,418.2z"/>
	<path d="M606.1,425.4l1.9-3.2l-1.4-7.9h1.3l1.1,6.3l3.7-6.3h1.5l-6.7,11.1H606.1z"/>
	<path d="M620,422.3h-6.3l0.2-0.9l5.5-6h-4.3l0.2-1.2h6.1l-0.1,0.9l-5.5,6h4.5L620,422.3z"/>
	<path d="M420.4,443.9H419l1.6-9.3l-3,1.4l0.3-1.4l3.6-1.7h0.8L420.4,443.9z"/>
	<path d="M427,438.8c1.1-1,2.4-2.1,2.4-3.4c0-0.9-0.6-1.5-1.7-1.5c-1.4,0-2.2,0.9-2.5,2.2h-1.5c0.6-2.1,2.1-3.5,4.1-3.5
		c1.9,0,3,1,3,2.6c0,1.7-1.3,2.8-2.9,4.3l-3.4,3.1h5.2l-0.2,1.3h-7.1l0.1-0.9L427,438.8z"/>
	<path d="M434.5,437.6h0.7c1.2,0,2.4-0.7,2.4-2.2c0-0.9-0.6-1.6-1.7-1.6c-1.2,0-2.1,0.8-2.4,2H432c0.5-1.9,2.1-3.2,4-3.2
		c1.9,0,3,1.1,3,2.7c0,1.4-1,2.6-2.3,2.9c1,0.3,1.5,1.1,1.5,2.2c0,2-1.7,3.6-3.9,3.6s-3.5-1.2-3.5-3c0-0.1,0-0.3,0-0.3h1.4v0.1
		c0,1.3,0.7,2,2.1,2c1.4,0,2.5-0.9,2.5-2.3c0-1-0.8-1.7-1.9-1.7h-0.8L434.5,437.6z"/>
	<path d="M441.1,440.2h3.5l0.5-2.7h1.3l-0.5,2.7h1.9l-0.2,1.2h-1.9l-0.4,2.5H444l0.4-2.5h-5.1l0.2-1l5.5-7.5h1.5L441.1,440.2z"/>
	<path d="M448.7,441v-0.3h1.4v0.1c0,1.2,0.8,2,2.1,2c1.5,0,2.6-1.3,2.6-2.8c0-1.2-0.7-2.1-1.9-2.1c-0.9,0-1.6,0.5-2.1,1h-1.2
		l1.1-6.1h6l-0.2,1.3h-4.9l-0.6,3.3c0.5-0.3,1.2-0.7,2-0.7c1.9,0,3,1.3,3,3.2c0,2.2-1.6,4.2-4.1,4.2
		C449.9,444.1,448.7,442.8,448.7,441z"/>
	<path d="M464.4,435.5c-0.1-0.9-0.7-1.6-1.8-1.6c-1.9,0-3.3,2.1-3.6,4.4h0c0.6-1,1.7-1.6,2.8-1.6c2,0,3.3,1.5,3.3,3.2
		c0,2.2-1.7,4.1-4,4.1c-2.4,0-3.5-1.9-3.5-4.2c0-3.5,2-7.2,5-7.2c1.9,0,3,1.1,3.2,2.9H464.4z M461.1,442.8c1.4,0,2.6-1.2,2.6-2.8
		c0-1.2-0.7-2.2-2.1-2.2c-1.4,0-2.6,1.2-2.6,2.8C459,441.8,459.7,442.8,461.1,442.8z"/>
	<path d="M468.4,443.9h-1.5l5.6-9.8h-5.6l0.2-1.3h7.1l-0.2,1.1L468.4,443.9z"/>
	<path d="M474,441.1c0-1.7,1.3-2.9,2.7-3.2c-0.8-0.4-1.4-1.1-1.4-2.2c0-1.8,1.6-3.1,3.6-3.1c1.7,0,3.2,1,3.2,2.7
		c0,1.4-1,2.5-2.3,2.8c1,0.4,1.7,1.3,1.7,2.4c0,2.2-2,3.4-4.1,3.4C475.8,444.1,474,443.1,474,441.1z M477.6,442.9
		c1.5,0,2.6-0.9,2.6-2.3c0-1.2-1-1.9-2.3-1.9c-1.4,0-2.6,1-2.6,2.4C475.4,442.2,476.4,442.9,477.6,442.9z M478.9,433.8
		c-1.3,0-2.2,0.8-2.2,2.1c0,1,0.8,1.6,1.8,1.6c1.3,0,2.2-0.9,2.2-2.1C480.8,434.4,480,433.8,478.9,433.8z"/>
	<path d="M484.3,441.2c0.1,0.9,0.7,1.6,1.8,1.6c1.9,0,3.3-2.1,3.6-4.4h0c-0.6,1-1.7,1.6-2.8,1.6c-2,0-3.3-1.5-3.3-3.2
		c0-2.2,1.7-4.1,4-4.1c2.4,0,3.5,1.9,3.5,4.2c0,3.5-2,7.2-5,7.2c-1.9,0-3-1.1-3.2-2.9H484.3z M487.5,433.9c-1.4,0-2.6,1.2-2.6,2.8
		c0,1.2,0.7,2.2,2.1,2.2c1.4,0,2.6-1.2,2.6-2.8C489.7,435,489,433.9,487.5,433.9z"/>
	<path d="M492.3,439.8c0-3.8,2.1-7.1,4.9-7.1c2.2,0,3.5,1.7,3.5,4.3c0,3.8-2.1,7.1-4.9,7.1C493.6,444.1,492.3,442.4,492.3,439.8z
		 M499.3,437c0-1.8-0.7-3-2.1-3c-2.2,0-3.5,3-3.5,5.8c0,1.8,0.7,3,2.1,3C498,442.8,499.3,439.8,499.3,437z"/>
	<path d="M426,462.3h-2.1l-1,3.2h-1.2l1-3.2h-2.4l-1,3.2h-1.2l1-3.2h-1.6l0.2-1.1h1.7l0.8-2.6h-2l0.2-1.1h2.1l1-3.2h1.2l-1,3.2h2.4
		l1-3.2h1.2l-1,3.2h1.6l-0.2,1.1h-1.7l-0.8,2.6h2L426,462.3z M420.6,461.3h2.4l0.8-2.6h-2.4L420.6,461.3z"/>
	<path d="M430.3,458.9l0.3-1.9l-1.8,0.6l-0.3-0.7l1.8-0.6l-1.5-1.2l0.5-0.6l1.4,1.2l0.3-1.8l0.8,0.1l-0.3,1.9l1.7-0.6l0.3,0.7
		l-1.8,0.6l1.5,1.2l-0.5,0.6l-1.4-1.2l-0.3,1.9L430.3,458.9z"/>
	<path d="M442.6,463c-0.1,0.6,0,1,0.7,1c1.3,0,2.4-1.3,2.4-3.6c0-2.4-1.9-4-4.6-4c-3.5,0-6,2.7-6,6.2c0,3.5,2.8,4.7,5.4,4.7
		c1.7,0,3-0.4,4.1-0.8l-0.2,1.1c-0.9,0.4-2.3,0.8-3.9,0.8c-3.4,0-6.5-1.7-6.5-5.7c0-4,3-7.3,7.2-7.3c3.5,0,5.7,2.1,5.7,5
		c0,3.1-1.9,4.6-3.7,4.6c-0.8,0-1.5-0.4-1.7-1c-0.4,0.6-1.2,1-1.9,1c-1.4,0-2.2-1-2.2-2.4c0-2.1,1.5-4.1,3.5-4.1
		c0.8,0,1.4,0.4,1.6,0.8l0.2-0.7h1.2L442.6,463z M441.9,460.6c-0.2-0.5-0.6-1-1.3-1c-1.4,0-2.3,1.5-2.3,2.8c0,0.8,0.5,1.4,1.3,1.4
		c0.7,0,1.3-0.5,1.7-1L441.9,460.6z"/>
	<path d="M448.8,462.4c0.2,1.3,1.2,1.8,2.4,1.8c1.4,0,2.5-0.7,2.5-2.1c0-0.6-0.4-1.1-1.4-1.4l-1.8-0.5c-1.2-0.4-2.1-1-2.1-2.4
		c0-1.9,1.6-3.2,3.7-3.2l0.3-1.7h1.2l-0.3,1.8c1.4,0.4,2.2,1.4,2.4,2.7h-1.3c-0.1-1-0.9-1.7-2.3-1.7c-1.3,0-2.3,0.7-2.3,1.9
		c0,0.7,0.5,1.1,1.4,1.4l1.7,0.5c1.4,0.4,2.1,1.2,2.1,2.4c0,2-1.6,3.3-3.5,3.4l-0.3,1.7h-1.2l0.3-1.8c-1.6-0.3-2.7-1.3-2.8-2.9
		H448.8z"/>
	<path d="M465.4,454.4h1.2l-8.8,11.1h-1.2L465.4,454.4z M461.6,456.6c0,1.3-1,2.5-2.5,2.5c-1.3,0-2.3-1-2.3-2.3c0-1.3,1-2.5,2.5-2.5
		C460.7,454.3,461.6,455.3,461.6,456.6z M460.6,456.6c0-0.7-0.6-1.2-1.3-1.2s-1.4,0.6-1.4,1.4c0,0.7,0.6,1.2,1.3,1.2
		C459.9,458,460.6,457.4,460.6,456.6z M461.6,463.4c0-1.3,1-2.5,2.5-2.5c1.3,0,2.3,1,2.3,2.3c0,1.3-1,2.5-2.5,2.5
		C462.6,465.7,461.6,464.7,461.6,463.4z M462.7,463.4c0,0.7,0.6,1.2,1.3,1.2c0.7,0,1.4-0.6,1.4-1.4c0-0.7-0.6-1.2-1.3-1.2
		C463.3,462,462.7,462.5,462.7,463.4z"/>
	<path d="M471.2,457.3c0,0.7,0.3,1.2,0.8,1.8l2.6,3.4c0.4-0.7,0.7-1.5,0.9-2.3h1.3c-0.2,1.2-0.7,2.3-1.5,3.3l1.6,2.1h-1.6l-0.9-1.1
		c-0.9,0.8-2,1.3-3.3,1.3c-2.1,0-3.3-1.2-3.3-3c0-1.6,1.1-2.8,2.7-3.4c-0.4-0.6-0.6-1.2-0.6-1.9c0-1.9,1.5-3.1,3.2-3.1
		c1.9,0,2.8,1.1,2.9,2.7h-1.3c0-1-0.6-1.6-1.5-1.6C472,455.4,471.2,456.1,471.2,457.3z M473.8,463.5l-2.6-3.3c-1.2,0.3-2,1.2-2,2.5
		c0,1.1,0.8,1.9,2,1.9C472.2,464.5,473.1,464.2,473.8,463.5z"/>
	<path d="M477.2,466.3h5.9l-0.2,1.2H477L477.2,466.3z"/>
	<path d="M485.2,463.6c0.5,0,1,0.4,1,1s-0.4,1-1,1c-0.5,0-1-0.4-1-1S484.7,463.6,485.2,463.6z"/>
	<path d="M488.2,460.2h4.3l-0.2,1.3H488L488.2,460.2z"/>
	<path d="M493.8,465.5c-0.4-0.1-0.6-0.4-0.6-0.9c0-0.6,0.4-1,1-1c0.5,0,1,0.4,1,1c0,0.4-0.2,0.8-0.5,1.1l-1.2,1.6h-1L493.8,465.5z"
		/>
	<path d="M497,460.2h7.1l-0.2,1.1h-7.1L497,460.2z"/>
	<path d="M505.4,465.5c-0.4-0.1-0.6-0.4-0.6-0.9c0-0.6,0.4-1,1-1c0.5,0,1,0.4,1,1c0,0.4-0.2,0.8-0.5,1.1l-1.2,1.6h-1L505.4,465.5z
		 M506.7,458c0.5,0,1,0.4,1,1c0,0.6-0.4,1-1,1c-0.5,0-1-0.4-1-1C505.7,458.4,506.1,458,506.7,458z"/>
	<path d="M508.8,463.6c0.5,0,1,0.4,1,1s-0.4,1-1,1c-0.5,0-1-0.4-1-1S508.2,463.6,508.8,463.6z M509.8,458c0.5,0,1,0.4,1,1
		c0,0.6-0.4,1-1,1c-0.5,0-1-0.4-1-1C508.8,458.4,509.2,458,509.8,458z"/>
	<path d="M511.7,460.2h13.8l-0.2,1.1h-13.8L511.7,460.2z"/>
	<path d="M528.4,457.7H527c0.6-2.1,2-3.4,4.1-3.4c1.9,0,2.9,1,2.9,2.6c0,1.6-1.2,2.6-2.4,3.6c-0.8,0.7-1,1.1-1.1,1.5h-1.3
		c0.2-0.9,0.6-1.5,1.4-2.3c0.8-0.7,2-1.6,2-2.8c0-0.8-0.6-1.4-1.6-1.4C529.6,455.5,528.7,456.4,528.4,457.7z M529.4,463.6
		c0.5,0,1,0.4,1,1s-0.4,1-1,1s-1-0.4-1-1S528.9,463.6,529.4,463.6z"/>
	<path d="M535.2,463.6c0.5,0,1,0.4,1,1s-0.4,1-1,1c-0.5,0-1-0.4-1-1S534.7,463.6,535.2,463.6z M536.1,454.4h1.6l-1.7,7.6h-1
		L536.1,454.4z"/>
	<path d="M539.9,456.3c0.4,0.1,0.7,0.4,0.7,0.9c0,0.6-0.4,1-1,1c-0.5,0-1-0.4-1-1c0-0.4,0.2-0.8,0.5-1.1l1.2-1.6h1L539.9,456.3z"/>
	<path d="M542.8,456.1c-0.4-0.1-0.7-0.4-0.7-0.9c0-0.6,0.4-1,1-1c0.5,0,1,0.4,1,1c0,0.4-0.2,0.8-0.5,1.1l-1.2,1.6h-1L542.8,456.1z"
		/>
	<path d="M546,456.3c0.4,0.1,0.7,0.4,0.7,0.9c0,0.6-0.4,1-1,1c-0.5,0-1-0.4-1-1c0-0.4,0.2-0.8,0.5-1.1l1.2-1.6h1L546,456.3z
		 M548.7,456.3c0.4,0.1,0.7,0.4,0.7,0.9c0,0.6-0.4,1-1,1c-0.5,0-1-0.4-1-1c0-0.4,0.2-0.8,0.5-1.1l1.2-1.6h1L548.7,456.3z"/>
	<path d="M551.6,456.1c-0.4-0.1-0.7-0.4-0.7-0.9c0-0.6,0.4-1,1-1c0.5,0,1,0.4,1,1c0,0.4-0.2,0.8-0.5,1.1l-1.2,1.6h-1L551.6,456.1z
		 M554.4,456.1c-0.4-0.1-0.7-0.4-0.7-0.9c0-0.6,0.4-1,1-1c0.5,0,1,0.4,1,1c0,0.4-0.2,0.8-0.5,1.1l-1.2,1.6h-1L554.4,456.1z"/>
	<path d="M561.7,453.8l-0.3,1.5c-2.6,0.7-4.5,3.2-4.5,6.4c0,2.1,1,3.5,2.7,4l-0.3,1.4c-2.3-0.7-3.8-2.6-3.8-5.4
		C555.6,457.9,557.9,454.8,561.7,453.8z"/>
	<path d="M560.3,467l0.3-1.5c2.6-0.7,4.5-3.2,4.5-6.4c0-2.1-1-3.5-2.7-4l0.3-1.4c2.3,0.7,3.8,2.6,3.8,5.4
		C566.4,463,564.1,466,560.3,467z"/>
</g>
<g>
	<path d="M764.1,243.5c0,2-1.4,3.1-3.7,3.1h-4.6v-11.1h4.2c2.3,0,3.7,1,3.7,3c0,1.2-0.6,2.1-1.5,2.3
		C763.4,241.3,764.1,242.3,764.1,243.5z M759.9,240.2c1.1,0,1.7-0.4,1.7-1.3s-0.6-1.3-1.7-1.3H758v2.6H759.9z M758,244.7h2.2
		c1.1,0,1.7-0.5,1.7-1.4c0-0.9-0.6-1.4-1.7-1.4H758V244.7z"/>
	<path d="M769.1,246.9c-2.3,0-3.9-1.7-3.9-4.2c0-2.5,1.6-4.2,3.9-4.2s3.9,1.7,3.9,4.2C773.1,245.1,771.5,246.9,769.1,246.9z
		 M769.1,240.3c-1.1,0-1.7,1-1.7,2.3c0,1.3,0.6,2.3,1.7,2.3s1.7-1,1.7-2.3C770.9,241.3,770.2,240.3,769.1,240.3z"/>
	<path d="M776.7,246.7h-2.2V235h2.2V246.7z"/>
	<path d="M783.8,246c-0.4,0.4-1.2,0.8-2,0.8c-2.3,0-3.7-1.9-3.7-4.2s1.3-4.2,3.7-4.2c0.9,0,1.7,0.4,2,0.8V235h2.3v11.7h-2.3V246z
		 M783.8,241.3c-0.3-0.5-0.9-0.9-1.5-0.9c-1.2,0-1.9,1-1.9,2.3c0,1.3,0.7,2.3,1.9,2.3c0.7,0,1.3-0.4,1.5-0.9V241.3z"/>
	<path d="M762.1,257.2l4.2,11.1h-2.9l-0.8-2.1h-4l-0.8,2.1h-2.9l4.2-11.1H762.1z M759.4,263.8h2.3l-1.1-3.1L759.4,263.8z"/>
	<path d="M776,265.2c0,2-1.4,3.1-3.7,3.1h-5.1v-11.1h4.7c2.3,0,3.7,1,3.7,3c0,1.2-0.7,2.1-1.5,2.3C775.2,262.9,776,263.9,776,265.2z
		 M771.6,261.6c0.8,0,1.3-0.3,1.3-1c0-0.7-0.5-1-1.3-1H770v2H771.6z M770,265.9h1.9c0.8,0,1.3-0.4,1.3-1.1c0-0.7-0.5-1.1-1.3-1.1
		H770V265.9z"/>
	<path d="M782.1,257c2.8,0,4.4,1.6,4.8,3.9H784c-0.3-0.8-0.9-1.4-1.9-1.4c-1.5,0-2.4,1.4-2.4,3.2c0,1.8,0.9,3.2,2.4,3.2
		c1,0,1.6-0.5,1.9-1.4h2.9c-0.4,2.3-2,3.9-4.8,3.9c-3.1,0-5.3-2.4-5.3-5.7C776.8,259.4,779,257,782.1,257z"/>
	<path d="M788.1,257.2h4.2c3.5,0,5.6,2.2,5.6,5.5c0,3.4-2.1,5.5-5.6,5.5h-4.2V257.2z M792.1,265.8c1.8,0,2.9-1.2,2.9-3
		c0-1.9-1-3-2.9-3h-1.2v6.1H792.1z"/>
	<path d="M807,257.2v2.5h-5.1v1.7h4.6v2.4h-4.6v1.9h5.1v2.5h-7.9v-11.1H807z"/>
	<path d="M808.4,268.3v-11.1h7.8v2.5h-4.9v2.2h4.5v2.4h-4.5v3.9H808.4z"/>
	<path d="M822.9,264.5v-2.2h4.6v1.1c0,3.1-2,5-5,5c-3.2,0-5.5-2.3-5.5-5.7c0-3.4,2.3-5.7,5.4-5.7c2.8,0,4.5,1.6,4.9,3.9h-3
		c-0.3-0.8-0.9-1.4-1.9-1.4c-1.6,0-2.5,1.3-2.5,3.2c0,1.9,1,3.2,2.6,3.2c1.1,0,1.8-0.5,2.1-1.4H822.9z"/>
	<path d="M838.7,257.2v11.1h-2.9v-4.4h-4.3v4.4h-2.9v-11.1h2.9v4.2h4.3v-4.2H838.7z"/>
	<path d="M843.2,268.3h-2.9v-11.1h2.9V268.3z"/>
	<path d="M847.3,264.4c0.1,1,0.6,1.5,1.4,1.5c1.1,0,1.5-0.6,1.5-1.9v-6.8h2.9v6.8c0,3.1-1.9,4.4-4.4,4.4c-2.7,0-4.3-1.7-4.4-4.1
		H847.3z"/>
	<path d="M857.5,261.8l3.6-4.5h3.4l-3.9,4.9l4,6.2h-3.4l-2.8-4.2l-0.9,1.2v3.1h-2.9v-11.1h2.9V261.8z"/>
	<path d="M865.6,257.2h2.9v8.6h5v2.5h-7.9V257.2z"/>
	<path d="M879.8,268.3l-2.3-6.6v6.6h-2.7v-11.1h3.5l2.4,6.9l2.4-6.9h3.5v11.1h-2.7v-6.6l-2.3,6.6H879.8z"/>
	<path d="M898.1,268.3h-2.3l-4.6-6.5v6.5h-2.8v-11.1h2.7l4.3,6.1v-6.1h2.8V268.3z"/>
	<path d="M904.7,268.5c-3.2,0-5.4-2.4-5.4-5.7c0-3.3,2.2-5.7,5.4-5.7c3.2,0,5.4,2.4,5.4,5.7C910.1,266,907.9,268.5,904.7,268.5z
		 M904.7,259.6c-1.5,0-2.5,1.3-2.5,3.2c0,1.9,1,3.2,2.5,3.2c1.5,0,2.5-1.3,2.5-3.2C907.2,260.8,906.2,259.6,904.7,259.6z"/>
	<path d="M914.1,264.8v3.4h-2.9v-11.1h4.8c2.4,0,4,1.4,4,3.8c0,2.4-1.6,3.8-4,3.8H914.1z M915.8,259.7h-1.7v2.8h1.7
		c1,0,1.5-0.6,1.5-1.4C917.3,260.2,916.9,259.7,915.8,259.7z"/>
	<path d="M928.5,268c-0.6,0.3-1.4,0.5-2.1,0.5c-3.2,0-5.4-2.4-5.4-5.7c0-3.3,2.2-5.7,5.4-5.7c3.2,0,5.4,2.4,5.4,5.7
		c0,1.6-0.6,2.9-1.5,3.9l0.8,1l-1.7,1.4L928.5,268z M926.3,259.6c-1.5,0-2.5,1.3-2.5,3.2c0,1.9,1,3.3,2.5,3.3c0.2,0,0.4,0,0.5-0.1
		l-0.9-1.1l1.7-1.4l0.8,1c0.2-0.5,0.3-1.1,0.3-1.8C928.8,260.8,927.8,259.6,926.3,259.6z"/>
	<path d="M935.8,264.6v3.7H933v-11.1h5c2.4,0,4,1.4,4,3.8c0,1.7-0.8,2.8-2.2,3.3l2.6,4h-3.2l-2.3-3.7H935.8z M935.8,262.3h1.8
		c1,0,1.5-0.5,1.5-1.3c0-0.8-0.5-1.3-1.5-1.3h-1.8V262.3z"/>
	<path d="M945.7,265c0.2,0.8,0.9,1.1,1.8,1.1c0.9,0,1.5-0.4,1.5-1.1c0-0.5-0.3-0.8-1-0.9l-2.1-0.5c-1.6-0.4-2.8-1.2-2.8-3.1
		c0-2.2,1.8-3.6,4.2-3.6c2.7,0,4.2,1.5,4.5,3.4h-2.8c-0.2-0.6-0.7-1.1-1.7-1.1c-0.8,0-1.4,0.4-1.4,1c0,0.5,0.3,0.8,0.9,0.9l2.2,0.5
		c1.9,0.5,2.9,1.5,2.9,3.2c0,2.3-1.9,3.6-4.3,3.6c-2.6,0-4.4-1.3-4.8-3.5H945.7z"/>
	<path d="M952.5,257.2h9.7v2.5h-3.4v8.6h-2.9v-8.6h-3.4V257.2z"/>
	<path d="M963.3,263.8v-6.5h2.9v6.3c0,1.6,0.7,2.4,1.9,2.4c1.2,0,1.9-0.8,1.9-2.4v-6.3h2.9v6.6c0,3-1.9,4.7-4.8,4.7
		S963.3,266.8,963.3,263.8z"/>
	<path d="M977.8,268.3l-4.1-11.1h3.1l2.5,7.1l2.5-7.1h3l-4.1,11.1H977.8z"/>
	<path d="M993.4,257.2l1.7,6.5l1.5-6.5h2.9l-2.9,11.1H994l-1.7-6.5l-1.7,6.5h-2.6l-2.9-11.1h3l1.5,6.5l1.7-6.5H993.4z"/>
	<path d="M1006.8,262.6l3.7,5.7h-3.2l-2.2-3.4l-2.2,3.4h-3.2l3.7-5.7l-3.5-5.4h3.2l2,3.2l2.1-3.2h3.1L1006.8,262.6z"/>
	<path d="M1018.4,257.2h3l-4,7.1v3.9h-2.9v-3.9l-3.9-7.1h3.1l2.3,4.3L1018.4,257.2z"/>
	<path d="M1031,268.3h-8.9v-2.1l5.1-6.4h-5.1v-2.5h8.8v2.1l-5.1,6.4h5.1V268.3z"/>
	<path d="M760,289.9v-0.4c-0.3,0.3-1.1,0.6-1.9,0.6c-1.6,0-3-0.9-3-2.6c0-1.6,1.4-2.6,3.1-2.6c0.7,0,1.5,0.2,1.8,0.5v-0.5
		c0-0.5-0.3-1-1-1c-0.5,0-0.8,0.2-1,0.6h-2.7c0.2-1.6,1.6-2.8,3.7-2.8c2.3,0,3.6,1.2,3.6,3.3v5H760z M760,287.1
		c-0.2-0.3-0.7-0.6-1.2-0.6c-0.6,0-1.1,0.2-1.1,0.8c0,0.6,0.6,0.8,1.1,0.8c0.5,0,1-0.2,1.2-0.5V287.1z"/>
	<path d="M766.9,289.9h-2.8v-11.7h2.8v4.2c0.4-0.4,1.2-0.8,2-0.8c2.3,0,3.6,1.9,3.6,4.2s-1.3,4.2-3.6,4.2c-0.8,0-1.6-0.4-2-0.8
		V289.9z M766.9,286.9c0.2,0.5,0.7,0.8,1.2,0.8c1,0,1.5-0.8,1.5-1.8s-0.6-1.8-1.5-1.8c-0.5,0-1,0.3-1.2,0.8V286.9z"/>
	<path d="M777.4,281.6c2.2,0,3.5,1.3,3.8,3.2h-2.7c-0.1-0.5-0.5-0.8-1-0.8c-0.8,0-1.3,0.7-1.3,1.9s0.5,1.9,1.3,1.9
		c0.6,0,1-0.3,1-0.8h2.7c-0.2,1.9-1.6,3.2-3.8,3.2c-2.4,0-4.1-1.7-4.1-4.2C773.3,283.3,775,281.6,777.4,281.6z"/>
	<path d="M787.5,289.2c-0.4,0.4-1.2,0.8-2,0.8c-2.3,0-3.6-1.9-3.6-4.2s1.3-4.2,3.6-4.2c0.8,0,1.6,0.4,2,0.8v-4.2h2.8v11.7h-2.8
		V289.2z M787.5,284.7c-0.2-0.4-0.7-0.8-1.2-0.8c-1,0-1.5,0.8-1.5,1.8s0.6,1.8,1.5,1.8c0.6,0,1-0.3,1.2-0.8V284.7z"/>
	<path d="M799.3,287c-0.3,1.9-1.7,3-3.8,3c-2.5,0-4.1-1.7-4.1-4.2c0-2.5,1.7-4.2,4.1-4.2c2.5,0,3.9,1.7,3.9,4.1v0.7h-5.2
		c0.1,1,0.6,1.5,1.4,1.5c0.6,0,1-0.3,1.2-0.8H799.3z M794.1,285h2.4c0-0.7-0.5-1.2-1.2-1.2C794.8,283.8,794.3,284.2,794.1,285z"/>
	<path d="M805.6,280.5c-0.2-0.1-0.4-0.2-0.7-0.2c-0.6,0-1,0.3-1,1v0.4h1.6v2.2h-1.6v5.9h-2.8V284h-1.2v-2.2h1.2v-0.6
		c0-1.9,1.2-3.2,3.2-3.2c0.5,0,1,0.1,1.3,0.2V280.5z"/>
	<path d="M811.5,288.7c-0.4,0.4-1,0.8-1.9,0.8c-2.3,0-3.6-1.7-3.6-4c0-2.2,1.3-4,3.6-4c0.9,0,1.6,0.4,1.9,0.8v-0.6h2.8v6.9
		c0,2.8-1.7,4.2-4.2,4.2c-2.2,0-3.7-1.1-4-2.9h2.7c0.2,0.6,0.6,0.9,1.3,0.9c0.9,0,1.4-0.5,1.4-1.5V288.7z M811.5,284.5
		c-0.2-0.4-0.7-0.7-1.2-0.7c-0.9,0-1.5,0.7-1.5,1.7c0,1,0.6,1.7,1.5,1.7c0.6,0,1-0.3,1.2-0.7V284.5z"/>
	<path d="M815.8,278.2h2.8v4.3c0.5-0.5,1.2-0.9,2.2-0.9c1.8,0,2.9,1.2,2.9,3v5.3h-2.8v-4.6c0-0.7-0.3-1.2-1.1-1.2
		c-0.6,0-1,0.3-1.2,0.9v4.9h-2.8V278.2z"/>
	<path d="M826.6,281.1c-0.9,0-1.6-0.6-1.6-1.5c0-0.9,0.7-1.5,1.6-1.5s1.6,0.6,1.6,1.5C828.2,280.5,827.4,281.1,826.6,281.1z
		 M828,289.9h-2.8v-8.1h2.8V289.9z"/>
	<path d="M832.3,289.7c0,2-1.1,3.2-3.1,3.2c-0.4,0-0.8,0-1-0.1v-2.1c0.1,0,0.3,0,0.4,0c0.6,0,0.9-0.2,0.9-0.9v-8h2.8V289.7z
		 M830.9,281.1c-0.9,0-1.6-0.6-1.6-1.5c0-0.9,0.7-1.5,1.6-1.5s1.6,0.6,1.6,1.5C832.5,280.5,831.8,281.1,830.9,281.1z"/>
	<path d="M837.2,286.9l-0.5,0.6v2.4h-2.8v-11.7h2.8v6.2l2.3-2.6h3.4l-3.1,3.4l3.2,4.7h-3.2L837.2,286.9z"/>
	<path d="M846.1,289.9h-2.8v-11.7h2.8V289.9z"/>
	<path d="M857.3,281.6c1.7,0,2.7,1.2,2.7,3v5.3h-2.8v-4.6c0-0.7-0.3-1.2-0.9-1.2c-0.5,0-0.9,0.3-1,0.9v4.9h-2.8v-4.6
		c0-0.7-0.3-1.2-0.9-1.2c-0.5,0-0.9,0.3-1,0.9v4.9h-2.8v-8.1h2.8v0.7c0.4-0.5,1.2-0.8,2.1-0.8c1,0,1.7,0.4,2.2,1
		C855.2,282.1,856.1,281.6,857.3,281.6z"/>
	<path d="M861.4,281.8h2.8v0.7c0.5-0.5,1.2-0.9,2.2-0.9c1.8,0,2.9,1.2,2.9,3v5.3h-2.8v-4.6c0-0.7-0.3-1.2-1.1-1.2
		c-0.6,0-1,0.3-1.2,0.9v4.9h-2.8V281.8z"/>
	<path d="M874.5,290.1c-2.4,0-4.1-1.7-4.1-4.2c0-2.5,1.7-4.2,4.1-4.2c2.5,0,4.1,1.7,4.1,4.2C878.6,288.3,877,290.1,874.5,290.1z
		 M874.5,283.9c-0.9,0-1.4,0.8-1.4,1.9s0.5,1.9,1.4,1.9c0.9,0,1.4-0.8,1.4-1.9S875.4,283.9,874.5,283.9z"/>
	<path d="M882.6,292.7h-2.8v-11h2.8v0.6c0.4-0.4,1.2-0.8,2-0.8c2.3,0,3.6,1.9,3.6,4.2c0,2.3-1.3,4.2-3.6,4.2c-0.8,0-1.6-0.4-2-0.8
		V292.7z M882.6,286.9c0.2,0.5,0.7,0.8,1.2,0.8c1,0,1.5-0.8,1.5-1.8s-0.6-1.8-1.5-1.8c-0.6,0-1,0.3-1.2,0.8V286.9z"/>
	<path d="M894.5,289.2c-0.4,0.4-1.2,0.8-2,0.8c-2.3,0-3.6-1.9-3.6-4.2c0-2.3,1.3-4.2,3.6-4.2c0.8,0,1.6,0.4,2,0.8v-0.6h2.8v11h-2.8
		V289.2z M894.5,284.7c-0.2-0.4-0.7-0.8-1.2-0.8c-1,0-1.5,0.8-1.5,1.8s0.6,1.8,1.5,1.8c0.5,0,1-0.3,1.2-0.8V284.7z"/>
	<path d="M904.3,284.5c-0.3-0.2-0.7-0.3-1.2-0.3c-0.8,0-1.3,0.3-1.4,0.9v4.8h-2.8v-8.1h2.8v0.7c0.4-0.5,1-0.9,1.8-0.9
		c0.4,0,0.6,0.1,0.8,0.1V284.5z"/>
	<path d="M907.7,287.4c0.1,0.5,0.5,0.7,1,0.7c0.5,0,0.8-0.2,0.8-0.6c0-0.3-0.2-0.4-0.6-0.5l-1.6-0.3c-1.4-0.3-2.2-0.9-2.2-2.4
		c0-1.7,1.5-2.7,3.5-2.7c2.2,0,3.4,1,3.7,2.6h-2.6c-0.1-0.3-0.3-0.6-1-0.6c-0.4,0-0.8,0.2-0.8,0.5c0,0.3,0.2,0.4,0.6,0.5l1.6,0.4
		c1.5,0.3,2.3,1.1,2.3,2.4c0,1.7-1.6,2.7-3.5,2.7c-2.1,0-3.6-0.9-3.8-2.7H907.7z"/>
	<path d="M914.1,284h-1.2v-2.2h1.2v-2.2h2.8v2.2h1.7v2.2h-1.7v2.7c0,0.6,0.3,0.9,0.9,0.9c0.3,0,0.6-0.1,0.9-0.2v2.4
		c-0.3,0.1-0.9,0.3-1.6,0.3c-1.9,0-3-0.9-3-3V284z"/>
	<path d="M927.7,289.9h-2.8v-0.7c-0.4,0.5-1.2,0.9-2.2,0.9c-1.8,0-2.8-1.2-2.8-3v-5.3h2.8v4.6c0,0.7,0.3,1.2,1,1.2
		c0.5,0,1-0.3,1.2-0.9v-4.9h2.8V289.9z"/>
	<path d="M931.6,289.9l-3.1-8.1h2.9l1.5,4.6l1.5-4.6h2.8l-3.1,8.1H931.6z"/>
	<path d="M945.8,286.2l1.3-4.4h2.7l-2.6,8.1h-2.4l-1.2-4.1l-1.2,4.1h-2.4l-2.6-8.1h2.8l1.3,4.4l1.2-4.4h1.8L945.8,286.2z"/>
	<path d="M955.9,285.7l2.8,4.1h-3.1l-1.4-2.1l-1.4,2.1H950l2.8-4.1l-2.7-4h3l1.3,1.9l1.3-1.9h2.9L955.9,285.7z"/>
	<path d="M960.8,292.7l1.2-3.1l-3-7.9h2.9l1.5,4.6l1.5-4.6h2.8l-4.2,11H960.8z"/>
	<path d="M975.5,289.9h-7.1V288l3.6-4.1h-3.5v-2.2h6.9v1.8l-3.4,4.1h3.5V289.9z"/>
	<path d="M760.4,311.5h-2.8v-7.9l-2.6,1.2v-2.7l3.4-1.6h1.9V311.5z"/>
	<path d="M765.7,302.8c-0.7,0-1,0.5-1.1,1.1h-3c0.2-2.1,1.7-3.7,4.1-3.7c2.4,0,4,1.4,4,3.4c0,1.4-1,2.4-2.1,3.5l-1.8,1.8h4v2.5h-8
		v-1.9l3.8-3.8c0.8-0.8,1.3-1.3,1.3-2C766.8,303.3,766.4,302.8,765.7,302.8z"/>
	<path d="M773.8,304.9h0.6c0.8,0,1.4-0.3,1.4-1.1c0-0.6-0.4-1.1-1.1-1.1c-0.8,0-1.2,0.6-1.3,1.2h-2.8c0.2-2,1.7-3.6,4.1-3.6
		c2.3,0,3.8,1.4,3.8,3.4c0,1-0.5,1.9-1.2,2.3c0.9,0.4,1.4,1.3,1.4,2.3c0,2-1.5,3.4-3.9,3.4c-2.5,0-4.1-1.5-4.3-3.7h2.9
		c0.1,0.8,0.5,1.3,1.3,1.3c0.7,0,1.2-0.5,1.2-1.2c0-0.8-0.6-1.2-1.4-1.2h-0.7V304.9z"/>
	<path d="M782.5,307.1h1.7v-1.9h2.5v1.9h1.5v2.3h-1.5v2.1h-2.5v-2.1h-4.8v-2.1l3.3-6.9h2.8L782.5,307.1z"/>
	<path d="M791.8,307h-2.3v-6.6h6.8v2.5h-4.5v1.7c0.3-0.2,1-0.4,1.7-0.4c2.2,0,3.6,1.5,3.6,3.7c0,2.3-1.6,3.8-4,3.8
		c-2.5,0-4.1-1.5-4.2-3.7h2.8c0.1,0.8,0.6,1.3,1.4,1.3c0.8,0,1.3-0.6,1.3-1.4c0-0.8-0.5-1.4-1.3-1.4
		C792.6,306.5,792.2,306.7,791.8,307z"/>
	<path d="M803.6,303.4c-0.2-0.5-0.5-0.8-1.2-0.8c-1.1,0-1.7,1.2-1.7,2.3v0.1c0.3-0.5,1.1-0.8,2-0.8c2.3,0,3.7,1.6,3.7,3.6
		c0,2.2-1.6,3.9-4.1,3.9c-1.4,0-2.6-0.7-3.4-1.8c-0.6-1-0.9-2.2-0.9-3.6c0-3.5,1.6-6,4.4-6c2.2,0,3.5,1.2,3.9,3.2H803.6z
		 M802.3,309.3c0.9,0,1.5-0.6,1.5-1.5c0-0.9-0.6-1.5-1.5-1.5c-0.9,0-1.5,0.6-1.5,1.5C800.8,308.7,801.4,309.3,802.3,309.3z"/>
	<path d="M811.4,311.5h-2.9l3.2-8.6h-4.7v-2.5h7.7v1.9L811.4,311.5z"/>
	<path d="M815.5,308.4c0-1.3,0.8-2.2,1.8-2.6c-0.9-0.4-1.4-1.3-1.4-2.4c0-2.1,1.8-3.2,3.8-3.2c2,0,3.8,1.1,3.8,3.2
		c0,1.1-0.5,2-1.4,2.4c1,0.3,1.8,1.3,1.8,2.6c0,2-1.9,3.2-4.2,3.2S815.5,310.5,815.5,308.4z M821.1,308.2c0-0.8-0.6-1.2-1.4-1.2
		c-0.8,0-1.4,0.5-1.4,1.2c0,0.7,0.6,1.2,1.4,1.2C820.5,309.4,821.1,308.9,821.1,308.2z M820.9,303.6c0-0.7-0.5-1.2-1.2-1.2
		c-0.7,0-1.2,0.5-1.2,1.2c0,0.7,0.6,1.1,1.2,1.1C820.4,304.7,820.9,304.2,820.9,303.6z"/>
	<path d="M827.5,308.5c0.2,0.5,0.5,0.8,1.2,0.8c1.1,0,1.7-1.2,1.7-2.3v-0.1c-0.3,0.5-1.1,0.8-2,0.8c-2.2,0-3.7-1.6-3.7-3.6
		c0-2.2,1.6-3.9,4.1-3.9c1.4,0,2.6,0.7,3.4,1.8c0.6,1,0.9,2.2,0.9,3.6c0,3.5-1.6,6-4.4,6c-2.2,0-3.5-1.2-3.9-3.2H827.5z
		 M828.7,302.6c-0.9,0-1.5,0.6-1.5,1.5c0,0.9,0.6,1.5,1.5,1.5c0.9,0,1.5-0.6,1.5-1.5C830.2,303.2,829.6,302.6,828.7,302.6z"/>
	<path d="M834,305.9c0-3.4,1.9-5.7,4.6-5.7s4.6,2.3,4.6,5.7c0,3.4-1.9,5.7-4.6,5.7S834,309.3,834,305.9z M836.8,305.9
		c0,1.7,0.5,3.2,1.8,3.2s1.8-1.5,1.8-3.2c0-1.7-0.5-3.2-1.8-3.2S836.8,304.2,836.8,305.9z"/>
	<path d="M764.6,330.3h-1.8l-0.7,2.8h-2l0.7-2.8h-1.9l-0.7,2.8h-2l0.7-2.8h-1.7l0.4-1.8h1.7l0.5-1.9h-1.8l0.4-1.8h1.8l0.7-2.8h2
		l-0.7,2.8h1.9l0.7-2.8h2l-0.7,2.8h1.7l-0.4,1.8h-1.8l-0.5,1.9h1.8L764.6,330.3z M759.3,328.5h1.9l0.5-1.9h-1.9L759.3,328.5z"/>
	<path d="M766.6,323.3l0.7-1.2l1.3,0.8v-1.5h1.4v1.5l1.3-0.8l0.7,1.2l-1.3,0.8l1.3,0.8l-0.7,1.2l-1.3-0.8v1.5h-1.4v-1.5l-1.3,0.8
		l-0.7-1.2l1.3-0.8L766.6,323.3z"/>
	<path d="M782.1,330.4c-0.1,0.5,0,0.7,0.5,0.7c1,0,1.7-1.1,1.7-3c0-2.5-2-4-4.6-4c-3.2,0-5.4,2.2-5.4,5.5c0,3.8,3,4.9,5.4,4.9
		c1.7,0,2.9-0.4,4-0.9v1.4c-0.9,0.5-2.4,0.8-4,0.8c-3.5,0-6.9-1.9-6.9-6.2c0-3.8,2.8-6.9,6.9-6.9c3.6,0,6,2.3,6,5.3
		c0,3-1.7,4.4-3.8,4.4c-0.8,0-1.6-0.3-2.1-0.9c-0.4,0.6-1.1,0.9-1.8,0.9c-1.6,0-2.5-1.2-2.5-2.8c0-2,1.3-3.9,3.3-3.9
		c0.7,0,1.3,0.3,1.5,0.6l0.1-0.5h2.3L782.1,330.4z M780.1,328.4c-0.1-0.3-0.4-0.6-0.9-0.6c-0.8,0-1.3,0.8-1.3,1.7c0,0.6,0.3,1,0.9,1
		c0.5,0,0.8-0.3,1-0.6L780.1,328.4z"/>
	<path d="M789.6,332.9c-1.7-0.3-2.9-1.4-3.2-3.2h2.8c0.2,0.7,0.8,1,1.6,1c0.8,0,1.3-0.4,1.3-1c0-0.6-0.3-0.8-1.1-1l-1.8-0.4
		c-1.5-0.4-2.7-1.2-2.7-3c0-1.7,1.2-3,3-3.3v-1.6h2.3v1.7c1.6,0.4,2.6,1.5,2.8,3h-2.7c-0.2-0.5-0.7-0.9-1.5-0.9
		c-0.7,0-1.2,0.4-1.2,0.9c0,0.5,0.3,0.7,0.9,0.9l2,0.5c1.8,0.4,2.7,1.4,2.7,3.1c0,1.8-1.2,2.9-3,3.3v1.7h-2.3V332.9z"/>
	<path d="M798.4,327.1c-1.5,0-2.6-1.2-2.6-2.6c0-1.5,1.2-2.7,2.6-2.7c1.5,0,2.7,1.2,2.7,2.7C801.1,326,799.9,327.1,798.4,327.1z
		 M804.2,322h1.6l-7.1,11.1h-1.6L804.2,322z M798.4,325.4c0.5,0,1-0.4,1-0.9c0-0.5-0.5-1-1-1c-0.5,0-0.9,0.5-0.9,1
		C797.5,325,797.9,325.4,798.4,325.4z M804.6,333.3c-1.5,0-2.7-1.2-2.7-2.7c0-1.5,1.2-2.6,2.7-2.6c1.5,0,2.6,1.2,2.6,2.6
		C807.2,332.1,806,333.3,804.6,333.3z M804.6,329.7c-0.5,0-1,0.4-1,0.9c0,0.5,0.5,1,1,1c0.5,0,0.9-0.4,0.9-1
		C805.5,330.1,805.1,329.7,804.6,329.7z"/>
	<path d="M813.8,325c0-0.5-0.3-0.9-0.9-0.9c-0.6,0-1,0.4-1,0.9c0,0.5,0.4,1,0.8,1.4l2.1,2.4c0.2-0.5,0.3-1,0.3-1.6h2.5
		c0,1.3-0.4,2.6-1.1,3.5l2,2.3h-3.2l-0.6-0.6c-0.8,0.5-1.8,0.8-2.7,0.8c-2.4,0-3.9-1.3-3.9-3.5c0-1.2,0.7-2.3,1.7-2.9
		c-0.4-0.6-0.6-1.2-0.6-1.9c0-1.9,1.5-3.2,3.7-3.2c2.2,0,3.5,1.4,3.6,3.1H813.8z M813.2,330.8l-2-2.2c-0.3,0.2-0.6,0.7-0.6,1.2
		c0,0.8,0.5,1.3,1.4,1.3C812.5,331.1,812.9,331,813.2,330.8z"/>
	<path d="M818.9,333.8h6.1v2.1h-6.1V333.8z"/>
	<path d="M827.4,329.8c0.9,0,1.7,0.7,1.7,1.7s-0.7,1.7-1.7,1.7c-0.9,0-1.7-0.7-1.7-1.7S826.5,329.8,827.4,329.8z"/>
	<path d="M830.1,327.2h4.3v2.4h-4.3V327.2z"/>
	<path d="M836.6,332.9c-0.6-0.1-1.2-0.6-1.2-1.5c0-0.9,0.7-1.6,1.7-1.6c0.9,0,1.7,0.6,1.7,1.7c0,0.6-0.3,1.3-0.7,1.9l-1,1.5h-1.8
		L836.6,332.9z"/>
	<path d="M839.7,327.4h7.1v1.9h-7.1V327.4z"/>
	<path d="M849,332.9c-0.6-0.1-1.2-0.6-1.2-1.5c0-0.9,0.7-1.6,1.7-1.6c0.9,0,1.7,0.6,1.7,1.7c0,0.6-0.3,1.3-0.7,1.9l-1,1.5h-1.8
		L849,332.9z M849.4,325.1c0.9,0,1.7,0.7,1.7,1.7s-0.7,1.7-1.7,1.7c-0.9,0-1.7-0.7-1.7-1.7S848.5,325.1,849.4,325.1z"/>
	<path d="M853.5,325.1c0.9,0,1.7,0.7,1.7,1.7s-0.7,1.7-1.7,1.7c-0.9,0-1.7-0.7-1.7-1.7S852.5,325.1,853.5,325.1z M853.5,329.8
		c0.9,0,1.7,0.7,1.7,1.7s-0.7,1.7-1.7,1.7c-0.9,0-1.7-0.7-1.7-1.7S852.5,329.8,853.5,329.8z"/>
	<path d="M856.1,327.4h13.8v1.9h-13.8V327.4z"/>
	<path d="M877,328.3c-0.4,0.5-0.5,0.8-0.5,1h-2.8c0-0.6,0.2-1.1,0.9-1.9c0.6-0.8,1.3-1.3,1.3-2c0-0.6-0.4-1-1-1
		c-0.7,0-1,0.5-1.1,1.1h-2.9c0.2-2.1,1.6-3.7,4.1-3.7c2.3,0,3.8,1.3,3.8,3.3C878.7,326.5,877.7,327.4,877,328.3z M875,330
		c1,0,1.7,0.7,1.7,1.6c0,0.9-0.8,1.6-1.7,1.6c-0.9,0-1.7-0.7-1.7-1.6C873.3,330.7,874,330,875,330z"/>
	<path d="M879.5,322h3.4l-0.6,7.3h-2.2L879.5,322z M881.2,330c0.9,0,1.7,0.7,1.7,1.6c0,0.9-0.8,1.6-1.7,1.6c-0.9,0-1.7-0.7-1.7-1.6
		C879.6,330.7,880.3,330,881.2,330z"/>
	<path d="M885.8,324.1c0.6,0.1,1.2,0.6,1.2,1.5c0,0.9-0.7,1.6-1.7,1.6c-0.9,0-1.7-0.6-1.7-1.8c0-0.6,0.3-1.3,0.7-1.9l1-1.5h1.8
		L885.8,324.1z"/>
	<path d="M889,324.9c-0.6-0.1-1.2-0.6-1.2-1.5c0-0.9,0.7-1.6,1.7-1.6c0.9,0,1.7,0.6,1.7,1.8c0,0.6-0.3,1.3-0.7,1.9l-1,1.5h-1.8
		L889,324.9z"/>
	<path d="M893.8,324.1c0.6,0.1,1.2,0.6,1.2,1.5c0,0.9-0.7,1.6-1.7,1.6c-0.9,0-1.7-0.6-1.7-1.8c0-0.6,0.3-1.3,0.7-1.9l1-1.5h1.8
		L893.8,324.1z M897.6,324.1c0.6,0.1,1.2,0.6,1.2,1.5c0,0.9-0.7,1.6-1.7,1.6c-0.9,0-1.7-0.6-1.7-1.8c0-0.6,0.3-1.3,0.7-1.9l1-1.5
		h1.8L897.6,324.1z"/>
	<path d="M900.8,324.9c-0.6-0.1-1.2-0.6-1.2-1.5c0-0.9,0.7-1.6,1.7-1.6c0.9,0,1.7,0.6,1.7,1.8c0,0.6-0.3,1.3-0.7,1.9l-1,1.5h-1.8
		L900.8,324.9z M904.6,324.9c-0.6-0.1-1.2-0.6-1.2-1.5c0-0.9,0.7-1.6,1.7-1.6c0.9,0,1.7,0.6,1.7,1.8c0,0.6-0.3,1.3-0.7,1.9l-1,1.5
		h-1.8L904.6,324.9z"/>
	<path d="M912.7,321.4v2.6c-1.5,0.5-2.5,1.8-2.5,4c0,2.2,1,3.5,2.5,4v2.6c-3.2-0.7-5.1-3.2-5.1-6.6
		C907.6,324.6,909.5,322.1,912.7,321.4z"/>
	<path d="M913.4,334.6v-2.6c1.5-0.5,2.5-1.8,2.5-4c0-2.2-1-3.5-2.5-4v-2.6c3.2,0.7,5.1,3.2,5.1,6.6
		C918.5,331.4,916.6,333.9,913.4,334.6z"/>
	<path d="M764.1,373.1c0,2-1.4,3.1-3.7,3.1h-4.6v-11.1h4.2c2.3,0,3.7,1,3.7,3c0,1.2-0.6,2.1-1.5,2.3
		C763.4,370.9,764.1,371.9,764.1,373.1z M759.9,369.8c1.1,0,1.7-0.4,1.7-1.3c0-0.9-0.6-1.3-1.7-1.3H758v2.6H759.9z M758,374.3h2.2
		c1.1,0,1.7-0.5,1.7-1.4c0-0.9-0.6-1.4-1.7-1.4H758V374.3z"/>
	<path d="M769.1,376.5c-2.3,0-3.9-1.7-3.9-4.2c0-2.5,1.6-4.2,3.9-4.2s3.9,1.7,3.9,4.2C773.1,374.7,771.5,376.5,769.1,376.5z
		 M769.1,369.9c-1.1,0-1.7,1-1.7,2.3c0,1.3,0.6,2.3,1.7,2.3s1.7-1,1.7-2.3C770.9,370.9,770.2,369.9,769.1,369.9z"/>
	<path d="M776.7,376.3h-2.2v-11.7h2.2V376.3z"/>
	<path d="M783.8,375.6c-0.4,0.4-1.2,0.8-2,0.8c-2.3,0-3.7-1.9-3.7-4.2s1.3-4.2,3.7-4.2c0.9,0,1.7,0.4,2,0.8v-4.3h2.3v11.7h-2.3
		V375.6z M783.8,370.9c-0.3-0.5-0.9-0.9-1.5-0.9c-1.2,0-1.9,1-1.9,2.3c0,1.3,0.7,2.3,1.9,2.3c0.7,0,1.3-0.4,1.5-0.9V370.9z"/>
	<path d="M792.9,367.2c-0.7,0-1.3-0.5-1.3-1.3c0-0.7,0.6-1.3,1.3-1.3c0.7,0,1.3,0.5,1.3,1.3C794.3,366.7,793.6,367.2,792.9,367.2z
		 M794.1,376.3h-2.2v-8h2.2V376.3z"/>
	<path d="M796.5,370h-1.2v-1.8h1.2V366h2.2v2.2h1.8v1.8h-1.8v3.5c0,0.6,0.3,0.9,0.9,0.9c0.3,0,0.7-0.1,1-0.3v2
		c-0.3,0.2-0.8,0.3-1.4,0.3c-1.6,0-2.7-0.8-2.7-2.6V370z"/>
	<path d="M806.5,376.3v-0.4c-0.3,0.3-1.1,0.6-2,0.6c-1.6,0-3-0.9-3-2.6c0-1.5,1.4-2.6,3.1-2.6c0.7,0,1.5,0.2,1.8,0.5v-0.6
		c0-0.7-0.4-1.2-1.3-1.2c-0.6,0-1,0.3-1.2,0.8h-2.1c0.2-1.5,1.5-2.6,3.4-2.6c2.1,0,3.4,1.2,3.4,3.1v5.1H806.5z M806.5,373.5
		c-0.2-0.4-0.8-0.7-1.5-0.7c-0.7,0-1.4,0.3-1.4,1c0,0.7,0.7,1,1.4,1c0.6,0,1.3-0.3,1.5-0.7V373.5z"/>
	<path d="M812.7,376.3h-2.2v-11.7h2.2V376.3z"/>
	<path d="M815.8,367.2c-0.7,0-1.3-0.5-1.3-1.3c0-0.7,0.6-1.3,1.3-1.3c0.7,0,1.3,0.5,1.3,1.3C817.1,366.7,816.5,367.2,815.8,367.2z
		 M816.9,376.3h-2.2v-8h2.2V376.3z"/>
	<path d="M822.2,368c2,0,3.3,1.2,3.5,2.9h-2.2c-0.1-0.6-0.6-1-1.3-1c-1,0-1.7,0.9-1.7,2.3c0,1.4,0.6,2.3,1.7,2.3
		c0.7,0,1.2-0.4,1.3-1h2.2c-0.2,1.7-1.5,2.9-3.5,2.9c-2.3,0-3.9-1.7-3.9-4.2C818.4,369.8,819.9,368,822.2,368z"/>
	<path d="M763.4,386.8l2.1,11.1h-2.9l-0.4-2.1h-4l-1.2,2.1h-2.9l6.3-11.1H763.4z M759.6,393.4h2.3l-0.6-3.1L759.6,393.4z"/>
	<path d="M775.9,394.4c0,2.2-1.8,3.5-4.2,3.5h-5.1l1.9-11.1h4.8c2,0,3.2,0.9,3.2,2.6c0,1.4-0.9,2.4-1.9,2.8
		C775.3,392.5,775.9,393.3,775.9,394.4z M769.7,395.5h1.9c0.9,0,1.5-0.5,1.5-1.2c0-0.6-0.3-0.9-1.1-0.9h-1.9L769.7,395.5z
		 M772.1,391.2c0.9,0,1.5-0.4,1.5-1.2c0-0.6-0.4-0.8-1.1-0.8h-1.7l-0.4,2H772.1z"/>
	<path d="M782.9,386.6c2.7,0,4.3,1.6,4.5,3.9h-2.9c-0.1-0.8-0.7-1.4-1.7-1.4c-1.7,0-2.8,1.6-2.8,3.8c0,1.5,0.8,2.6,2.1,2.6
		c1,0,1.6-0.5,2-1.4h2.9c-0.7,2.3-2.3,3.9-5,3.9c-3,0-5-2.1-5-5C777,389.5,779.4,386.6,782.9,386.6z"/>
	<path d="M789.4,386.8h4.1c3.1,0,4.8,1.7,4.8,4.6c0,3.8-2.7,6.5-6.6,6.5h-4.2L789.4,386.8z M791.9,395.4c2.1,0,3.4-1.5,3.4-3.7
		c0-1.5-0.8-2.4-2.4-2.4h-1.2l-1.1,6.1H791.9z"/>
	<path d="M808.3,386.8l-0.4,2.5h-5.1l-0.3,1.7h4.6l-0.4,2.4h-4.6l-0.3,1.9h5.1l-0.4,2.5h-7.9l1.9-11.1H808.3z"/>
	<path d="M807.8,397.9l1.9-11.1h7.8l-0.5,2.5h-4.9l-0.4,2.2h4.5l-0.4,2.4h-4.5l-0.7,3.9H807.8z"/>
	<path d="M817.4,393c0-3.5,2.4-6.4,5.9-6.4c2.8,0,4.4,1.6,4.6,3.9H825c-0.2-0.8-0.8-1.3-1.8-1.3c-1.7,0-2.9,1.6-2.9,3.8
		c0,1.5,0.8,2.6,2.2,2.6c1,0,1.8-0.6,2.1-1.4H823l0.4-2.2h4.6l-0.3,1.6c-0.5,2.6-2.5,4.5-5.2,4.5C819.4,398.1,817.4,396,817.4,393z"
		/>
	<path d="M840.2,386.8l-1.9,11.1h-2.9l0.8-4.4h-4.3l-0.8,4.4h-2.9l1.9-11.1h2.9l-0.7,4.2h4.3l0.7-4.2H840.2z"/>
	<path d="M842.8,397.9h-2.9l1.9-11.1h2.9L842.8,397.9z"/>
	<path d="M847.5,393.9c0,0,0,0.1,0,0.2c0,0.8,0.4,1.4,1.3,1.4c1,0,1.5-0.7,1.7-1.9l1.2-6.7h2.9l-1.2,6.8c-0.5,2.9-2.2,4.4-4.7,4.4
		c-2.5,0-4.1-1.5-4.1-3.7c0-0.2,0-0.4,0-0.5H847.5z"/>
	<path d="M858.2,391.3l4.3-4.5h3.5l-4.8,4.9l3,6.2h-3.3l-2.1-4.3l-1.2,1.2l-0.5,3h-2.9l1.9-11.1h2.9L858.2,391.3z"/>
	<path d="M867.1,386.8h2.9l-1.5,8.6h5l-0.4,2.5h-7.9L867.1,386.8z"/>
	<path d="M879.3,397.9l-1.2-6.6l-1.2,6.6h-2.7l1.9-11.1h3.5l1.2,6.9l3.6-6.9h3.6l-1.9,11.1h-2.7l1.2-6.6l-3.5,6.6H879.3z"/>
	<path d="M897.6,397.9h-2.2l-3.5-6.7l-1.2,6.7h-2.8l1.9-11.1h2.6l3.2,6.3l1.1-6.3h2.8L897.6,397.9z"/>
	<path d="M899.7,393c0-3.7,2.6-6.4,5.9-6.4c3.1,0,5,2.1,5,5c0,3.7-2.6,6.4-5.9,6.4C901.6,398.1,899.7,396,899.7,393z M907.6,391.7
		c0-1.5-0.8-2.6-2.1-2.6c-1.6,0-2.9,1.4-2.9,3.8c0,1.5,0.8,2.6,2.1,2.6C906.4,395.5,907.6,394.1,907.6,391.7z"/>
	<path d="M914.2,394.4l-0.6,3.4h-2.9l1.9-11.1h4.6c2.2,0,3.6,1.2,3.6,3.3c0,2.8-2.1,4.4-4.7,4.4H914.2z M914.7,392h1.7
		c1.1,0,1.8-0.6,1.8-1.6c0-0.7-0.4-1.1-1.3-1.1h-1.6L914.7,392z"/>
	<path d="M921.4,393c0-3.7,2.6-6.4,5.9-6.4c3.1,0,5,2.1,5,5c0,2.1-0.8,3.8-2.1,4.9l0.6,1l-1.8,1.2l-0.6-1c-0.6,0.2-1.3,0.3-1.9,0.3
		C923.3,398.1,921.4,396,921.4,393z M926.9,395.6l-0.7-1.1l1.8-1.2l0.6,1c0.4-0.6,0.6-1.5,0.6-2.6c0-1.5-0.8-2.6-2.1-2.6
		c-1.6,0-2.9,1.4-2.9,3.8c0,1.5,0.8,2.6,2.1,2.6C926.6,395.6,926.8,395.6,926.9,395.6z"/>
	<path d="M936,394.2l-0.6,3.7h-2.9l1.9-11.1h4.8c2.2,0,3.5,1.2,3.5,3.2c0,2-1.2,3.3-2.8,3.9l2,4h-3.1l-1.8-3.7H936z M936.4,391.9
		h1.8c1.1,0,1.7-0.6,1.7-1.6c0-0.6-0.4-1.1-1.3-1.1h-1.7L936.4,391.9z"/>
	<path d="M949.8,390.1c-0.1-0.6-0.6-1.1-1.5-1.1c-0.8,0-1.4,0.4-1.4,1.1c0,0.4,0.2,0.6,0.7,0.8l2,0.6c1.5,0.5,2.3,1.4,2.3,2.7
		c0,2.5-2.1,3.9-4.6,3.9c-2.6,0-4.3-1.3-4.5-3.5h2.9c0.1,0.8,0.8,1.2,1.6,1.2c0.9,0,1.5-0.4,1.5-1.1c0-0.5-0.3-0.7-1-0.9l-1.8-0.5
		c-1.3-0.4-2.3-1.1-2.3-2.7c0-2.3,2-3.9,4.4-3.9c2.8,0,4.2,1.5,4.3,3.4H949.8z"/>
	<path d="M953.7,386.8h9.7l-0.5,2.5h-3.4l-1.5,8.6h-2.9l1.5-8.6h-3.4L953.7,386.8z"/>
	<path d="M963.3,394.3c0-0.3,0-0.7,0.1-1.1l1.1-6.4h2.9l-1.1,6.3c0,0.2-0.1,0.5-0.1,0.7c0,1.1,0.6,1.7,1.6,1.7c1.3,0,2-0.8,2.3-2.4
		l1.1-6.3h2.9l-1.2,6.6c-0.5,3-2.4,4.7-5.4,4.7C965,398.1,963.3,396.7,963.3,394.3z"/>
	<path d="M977,397.9l-2-11.1h2.9l1.2,7.1l3.9-7.1h3.1l-6.3,11.1H977z"/>
	<path d="M994.7,386.8l0.4,6.5l2.8-6.5h3l-5.1,11.1h-2.6l-0.4-6.5l-3,6.5H987l-0.7-11.1h2.9l0.3,6.5l3-6.5H994.7z"/>
	<path d="M1006.9,392.3l2.7,5.6h-3l-1.6-3.4l-2.9,3.4h-3.2l4.9-5.8l-2.5-5.3h3l1.4,3.2l2.7-3.2h3.2L1006.9,392.3z"/>
	<path d="M1019.5,386.8h3.2l-5.2,7.1l-0.7,3.9h-2.9l0.7-3.9l-2.7-7.1h3l1.6,4.3L1019.5,386.8z"/>
	<path d="M1030.3,397.9h-8.9l0.4-2.1l6.3-6.4h-5l0.5-2.5h8.8l-0.4,2.1l-6.2,6.4h5.1L1030.3,397.9z"/>
	<path d="M762.1,419.5h-2.7l0.1-0.4c-0.3,0.3-1,0.6-1.9,0.6c-1.5,0-2.7-0.9-2.7-2.4c0-1.8,1.6-2.8,3.4-2.8c0.8,0,1.6,0.2,1.9,0.5
		l0.1-0.5c0,0,0-0.2,0-0.3c0-0.4-0.3-0.8-0.8-0.8c-0.5,0-0.9,0.2-1.1,0.6h-2.7c0.4-1.6,2-2.8,4.1-2.8c2,0,3.3,1,3.3,2.6
		c0,0.2,0,0.5-0.1,0.7L762.1,419.5z M759.8,416.7c-0.1-0.3-0.5-0.6-1.1-0.6c-0.6,0-1.2,0.3-1.2,0.9c0,0.5,0.5,0.7,1,0.7
		c0.5,0,1-0.2,1.2-0.5L759.8,416.7z"/>
	<path d="M766.4,419.5h-2.8l2.1-11.7h2.8l-0.8,4.3c0.5-0.4,1.2-0.9,2.1-0.9c2,0,3,1.5,3,3.5c0,2.7-1.7,5-4.3,5c-0.9,0-1.7-0.4-2-0.8
		L766.4,419.5z M766.9,416.5c0.1,0.5,0.6,0.8,1.2,0.8c1.1,0,1.8-1,1.8-2.3c0-0.8-0.4-1.4-1.2-1.4c-0.6,0-1.1,0.4-1.4,0.8
		L766.9,416.5z"/>
	<path d="M781.2,416.5c-0.5,2-1.8,3.2-4,3.2c-2.3,0-3.7-1.5-3.7-3.6c0-2.6,1.8-4.8,4.5-4.8c2.3,0,3.5,1.3,3.5,3.2h-2.7
		c0-0.5-0.3-0.8-0.9-0.8c-1.1,0-1.6,1.3-1.6,2.4c0,0.8,0.4,1.4,1.1,1.4c0.6,0,1-0.3,1.1-0.8H781.2z"/>
	<path d="M789,407.8h2.8l-2.1,11.7H787l0.1-0.7c-0.5,0.5-1.2,0.9-2.1,0.9c-2,0-3-1.5-3-3.5c0-2.7,1.7-5,4.3-5c0.9,0,1.7,0.4,2,0.8
		L789,407.8z M787.9,414.3c-0.1-0.4-0.6-0.8-1.2-0.8c-1.1,0-1.8,1-1.8,2.3c0,0.8,0.4,1.4,1.2,1.4c0.6,0,1.1-0.4,1.4-0.8L787.9,414.3
		z"/>
	<path d="M799.4,416.6c-0.5,1.9-1.9,3-4.1,3c-2.3,0-3.7-1.5-3.7-3.7c0-2.5,1.7-4.8,4.6-4.8c2.2,0,3.5,1.2,3.5,3.4
		c0,0.4-0.1,0.9-0.2,1.4h-5.2v0.1c0,0.9,0.4,1.4,1.2,1.4c0.6,0,1-0.3,1.2-0.8H799.4z M794.5,414.6h2.4c0,0,0-0.1,0-0.2
		c0-0.6-0.4-1-1-1C795.3,413.4,794.8,413.9,794.5,414.6z"/>
	<path d="M806.8,410.1c-0.2-0.1-0.4-0.2-0.6-0.2c-0.7,0-1.1,0.3-1.2,1l-0.1,0.4h1.6l-0.4,2.2h-1.6l-1,5.9h-2.8l1-5.9h-1.2l0.4-2.2
		h1.2l0.1-0.6c0.3-2.1,1.7-3.2,3.7-3.2c0.5,0,1,0.1,1.3,0.2L806.8,410.1z"/>
	<path d="M811.5,418.3c-0.4,0.5-1.1,0.8-2,0.8c-2.1,0-3.1-1.5-3.1-3.3c0-2.5,1.7-4.6,4.2-4.6c1,0,1.7,0.4,2,0.8l0.1-0.6h2.8l-1.2,7
		c-0.5,2.7-2.1,4.1-4.7,4.1c-2.2,0-3.7-1.2-3.7-2.9h2.7c0.1,0.6,0.5,0.9,1.2,0.9c1,0,1.5-0.6,1.6-1.6L811.5,418.3z M812.2,414.1
		c-0.1-0.4-0.6-0.7-1.2-0.7c-1.1,0-1.8,1-1.8,2.2c0,0.8,0.4,1.3,1.2,1.3c0.6,0,1.1-0.3,1.4-0.8L812.2,414.1z"/>
	<path d="M824.5,413.6c0,0.2,0,0.4-0.1,0.6l-0.9,5.2h-2.8l0.8-4.6c0-0.1,0-0.2,0-0.3c0-0.5-0.3-0.8-0.9-0.8c-0.5,0-1.1,0.3-1.3,0.9
		l-0.9,4.9h-2.8l2.1-11.7h2.8l-0.8,4.3c0.5-0.5,1.3-0.9,2.3-0.9C823.5,411.2,824.5,412.1,824.5,413.6z"/>
	<path d="M827.8,419.5H825l1.4-8.1h2.8L827.8,419.5z M828.1,410.7c-0.9,0-1.6-0.6-1.6-1.5c0-1,0.8-1.6,1.6-1.6s1.6,0.6,1.6,1.5
		C829.8,410.1,829,410.7,828.1,410.7z"/>
	<path d="M827.8,420.2c0.2,0.1,0.3,0.1,0.6,0.1c0.5,0,0.8-0.2,0.9-0.9l1.4-8h2.8l-1.4,7.9c-0.4,2.1-1.5,3.2-3.4,3.2
		c-0.5,0-1-0.1-1.3-0.2L827.8,420.2z M832.5,410.7c-0.9,0-1.6-0.6-1.6-1.5c0-1,0.8-1.6,1.6-1.6s1.6,0.6,1.6,1.5
		C834.1,410.1,833.4,410.7,832.5,410.7z"/>
	<path d="M837.6,416.4l-0.7,0.7l-0.4,2.4h-2.8l2.1-11.7h2.8l-1.1,6.3l2.7-2.7h3.5l-3.8,3.5l2.4,4.6h-3L837.6,416.4z"/>
	<path d="M845.9,419.5h-2.8l2.1-11.7h2.8L845.9,419.5z"/>
	<path d="M858.3,411.2c1.6,0,2.5,1,2.5,2.4c0,0.2,0,0.4-0.1,0.6l-0.9,5.3H857l0.8-4.6c0-0.2,0-0.3,0-0.4c0-0.5-0.2-0.8-0.7-0.8
		c-0.5,0-1,0.4-1.2,0.9l-0.8,4.9h-2.8l0.8-4.6c0-0.2,0-0.3,0-0.4c0-0.5-0.2-0.8-0.7-0.8c-0.5,0-1,0.4-1.2,0.9l-0.8,4.9h-2.8l1.4-8.1
		h2.8l-0.1,0.7c0.5-0.5,1.3-0.9,2.3-0.9c0.9,0,1.6,0.4,2,1C856.5,411.6,857.3,411.2,858.3,411.2z"/>
	<path d="M862.7,411.4h2.8l-0.1,0.7c0.5-0.5,1.3-0.9,2.3-0.9c1.5,0,2.5,1,2.5,2.4c0,0.2,0,0.4-0.1,0.6l-0.9,5.2h-2.8l0.8-4.6
		c0-0.1,0-0.2,0-0.3c0-0.5-0.3-0.8-0.9-0.8c-0.5,0-1.1,0.3-1.3,0.9l-0.9,4.9h-2.8L862.7,411.4z"/>
	<path d="M870.9,416c0-2.8,2-4.8,4.5-4.8c2.3,0,3.8,1.4,3.8,3.7c0,2.8-2,4.8-4.5,4.8C872.4,419.7,870.9,418.2,870.9,416z
		 M876.4,414.8c0-0.8-0.4-1.3-1.1-1.3c-1,0-1.6,1.1-1.6,2.5c0,0.7,0.4,1.3,1.1,1.3C875.7,417.3,876.4,416.2,876.4,414.8z"/>
	<path d="M881.9,422.3H879l1.9-11h2.8l-0.1,0.7c0.5-0.4,1.2-0.9,2.1-0.9c2,0,3,1.5,3,3.5c0,2.7-1.7,5-4.3,5c-0.9,0-1.7-0.4-2-0.8
		L881.9,422.3z M882.9,416.5c0.1,0.5,0.6,0.8,1.2,0.8c1.1,0,1.8-1,1.8-2.3c0-0.8-0.4-1.4-1.2-1.4c-0.6,0-1.1,0.4-1.4,0.8
		L882.9,416.5z"/>
	<path d="M895.8,411.4h2.8l-1.9,11h-2.8l0.6-3.5c-0.5,0.5-1.2,0.9-2.1,0.9c-2,0-3-1.5-3-3.5c0-2.7,1.7-5,4.3-5c0.9,0,1.7,0.4,2,0.8
		L895.8,411.4z M895.3,414.3c-0.1-0.4-0.6-0.8-1.2-0.8c-1.1,0-1.8,1-1.8,2.3c0,0.8,0.4,1.4,1.2,1.4c0.6,0,1.1-0.4,1.4-0.8
		L895.3,414.3z"/>
	<path d="M905.1,414.1c-0.3-0.2-0.7-0.3-1.1-0.3c-0.8,0-1.4,0.3-1.6,0.9l-0.8,4.8h-2.8l1.4-8.1h2.8l-0.1,0.7
		c0.4-0.6,1.2-0.9,1.9-0.9c0.4,0,0.7,0.1,0.8,0.1L905.1,414.1z"/>
	<path d="M908,417c0.1,0.5,0.5,0.7,1,0.7s0.9-0.2,0.9-0.6c0-0.3-0.1-0.4-0.6-0.5l-1.3-0.4c-1.2-0.3-1.9-1-1.9-2.1
		c0-1.9,1.7-2.9,3.6-2.9c2.4,0,3.4,1.1,3.5,2.7h-2.6c0-0.4-0.4-0.7-0.9-0.7c-0.5,0-0.8,0.2-0.8,0.6c0,0.2,0.2,0.3,0.4,0.4l1.5,0.4
		c1.3,0.4,1.9,1.2,1.9,2.2c0,2-1.8,2.9-3.7,2.9c-2.3,0-3.5-1.1-3.6-2.7H908z"/>
	<path d="M915,413.6h-1.2l0.4-2.2h1.2l0.4-2.2h2.8l-0.4,2.2h1.7l-0.4,2.2h-1.7l-0.5,2.6c0,0.1,0,0.2,0,0.3c0,0.4,0.3,0.6,0.8,0.6
		c0.3,0,0.7-0.1,0.9-0.2l-0.4,2.4c-0.4,0.1-1,0.3-1.6,0.3c-1.7,0-2.6-0.7-2.6-2.2c0-0.2,0-0.5,0.1-0.8L915,413.6z"/>
	<path d="M927.5,419.5h-2.8l0.1-0.7c-0.5,0.5-1.3,0.9-2.3,0.9c-1.5,0-2.4-0.9-2.4-2.4c0-0.2,0-0.4,0.1-0.7l0.9-5.2h2.8l-0.8,4.6
		c0,0.1-0.1,0.3-0.1,0.4c0,0.5,0.2,0.8,0.8,0.8c0.6,0,1.1-0.4,1.3-0.9l0.9-4.9h2.8L927.5,419.5z"/>
	<path d="M931.1,419.5l-1.3-8.1h2.6l0.7,4.6l2.6-4.6h2.8l-4.8,8.1H931.1z"/>
	<path d="M946.1,415.8l2.2-4.4h2.7l-4.3,8.1h-2.3l-0.3-4.1l-2,4.1h-2.3l-0.9-8.1h2.6l0.4,4.4l2.1-4.4h1.9L946.1,415.8z"/>
	<path d="M956.4,415.4l2.1,4.1h-2.9l-1.1-2.2l-1.9,2.2h-3l3.8-4.2l-2.1-3.9h2.9l1,2l1.7-2h3L956.4,415.4z"/>
	<path d="M959.6,422.3l1.9-3.2l-1.3-7.8h2.7l0.7,4.6l2.5-4.6h2.8l-6.5,11H959.6z"/>
	<path d="M975.2,419.5h-7.1l0.3-1.9l4.3-4.1h-3.5l0.4-2.2h7l-0.3,1.8l-4.1,4.1h3.5L975.2,419.5z"/>
	<path d="M759.6,441.1h-2.8l1.4-7.8l-2.8,1.2l0.5-2.8l3.7-1.6h1.9L759.6,441.1z"/>
	<path d="M765.9,435.3c0.7-0.6,1.5-1.3,1.5-2.1c0-0.5-0.3-0.8-0.9-0.8c-0.7,0-1.1,0.5-1.3,1.1h-3c0.5-2.1,2.2-3.7,4.6-3.7
		c2.2,0,3.5,1.2,3.5,2.9c0,1.8-1.2,2.8-2.6,4l-2.1,1.8h3.8l-0.4,2.5h-8l0.3-1.9L765.9,435.3z"/>
	<path d="M774.1,434.5h0.6c0.9,0,1.6-0.4,1.6-1.3c0-0.5-0.3-0.9-1-0.9c-0.7,0-1.2,0.6-1.4,1.2h-2.9c0.5-2.1,2.2-3.6,4.6-3.6
		c2.2,0,3.4,1.3,3.4,3c0,1.3-0.8,2.3-1.7,2.7c0.7,0.5,1,1.2,1,2.1c0,2.1-1.8,3.7-4.2,3.7c-2.4,0-4-1.4-4-3.4c0-0.1,0-0.3,0-0.3h2.9
		v0.1c0,0.7,0.4,1.2,1.2,1.2s1.4-0.5,1.4-1.3c0-0.6-0.5-1-1.3-1h-0.7L774.1,434.5z"/>
	<path d="M782.5,436.7h1.7l0.3-1.9h2.5l-0.3,1.9h1.5l-0.4,2.3h-1.5l-0.3,2.1h-2.5l0.3-2.1H779l0.4-2.2l4.5-6.8h3L782.5,436.7z"/>
	<path d="M788.7,437.8c0-0.1,0-0.3,0-0.3h2.8v0.1c0,0.7,0.5,1.2,1.2,1.2c0.9,0,1.5-0.6,1.5-1.6c0-0.7-0.4-1.2-1.2-1.2
		c-0.5,0-0.9,0.2-1.3,0.6h-2.4l1.2-6.6h6.9l-0.4,2.5h-4.5l-0.3,1.6c0.4-0.2,0.9-0.4,1.5-0.4c2,0,3.2,1.3,3.2,3.2
		c0,2.5-1.7,4.3-4.3,4.3C790.2,441.3,788.7,439.8,788.7,437.8z"/>
	<path d="M804.1,433.1c-0.1-0.4-0.4-0.9-1.1-0.9c-1.2,0-2,1.2-2.3,2.4h0c0.4-0.5,1.2-0.8,2-0.8c2.1,0,3.4,1.5,3.4,3.2
		c0,2.3-1.8,4.3-4.3,4.3c-2.8,0-4-2.1-4-4.6c0-3.1,1.8-6.8,5.3-6.8c2.2,0,3.5,1.4,3.6,3.3H804.1z M801.9,438.9
		c0.9,0,1.7-0.7,1.7-1.7c0-0.7-0.4-1.3-1.3-1.3s-1.7,0.7-1.7,1.7C800.6,438.4,801,438.9,801.9,438.9z"/>
	<path d="M810.5,441.1h-3l4.7-8.6h-4.6l0.4-2.5h7.8l-0.3,1.9L810.5,441.1z"/>
	<path d="M815.3,438.2c0-1.5,1-2.6,2.2-2.9c-0.7-0.4-1.1-1.1-1.1-2c0-2.3,1.9-3.5,4-3.5c2,0,3.7,1.1,3.7,3c0,1.3-0.8,2.4-1.9,2.8
		c0.8,0.4,1.4,1.2,1.4,2.2c0,2.3-2.1,3.4-4.3,3.4C817.4,441.3,815.3,440.3,815.3,438.2z M819.3,439c0.8,0,1.5-0.5,1.5-1.4
		c0-0.7-0.5-1.1-1.3-1.1c-0.8,0-1.5,0.5-1.5,1.4C818,438.6,818.6,439,819.3,439z M820.3,432c-0.8,0-1.4,0.5-1.4,1.3
		c0,0.6,0.5,1,1.2,1c0.8,0,1.4-0.5,1.4-1.3C821.5,432.4,821,432,820.3,432z"/>
	<path d="M827.2,438c0.1,0.4,0.4,0.9,1.1,0.9c1.2,0,2-1.2,2.2-2.4h0c-0.4,0.5-1.2,0.8-2,0.8c-2.1,0-3.4-1.5-3.4-3.2
		c0-2.3,1.8-4.3,4.3-4.3c2.8,0,4,2.1,4,4.6c0,3.1-1.8,6.8-5.3,6.8c-2.2,0-3.5-1.4-3.6-3.3H827.2z M829.4,432.2
		c-0.9,0-1.7,0.7-1.7,1.7c0,0.7,0.4,1.3,1.3,1.3s1.7-0.7,1.7-1.7C830.7,432.7,830.3,432.2,829.4,432.2z"/>
	<path d="M834.2,436.6c0-3.7,2.2-6.7,5.2-6.7c2.6,0,4,2,4,4.7c0,3.7-2.3,6.7-5.2,6.7C835.6,441.3,834.2,439.3,834.2,436.6z
		 M840.7,434.5c0-1.2-0.4-2.2-1.4-2.2c-1.6,0-2.4,2.2-2.4,4.2c0,1.2,0.4,2.2,1.4,2.2C839.9,438.7,840.7,436.5,840.7,434.5z"/>
	<path d="M764.9,459.9h-2l-0.8,2.8h-2l0.8-2.8H759l-0.8,2.8h-2l0.8-2.8h-1.6l0.4-1.8h1.7l0.6-1.9h-1.8l0.4-1.8h2l0.8-2.8h2l-0.9,2.8
		h1.9l0.9-2.8h2l-0.8,2.8h1.6l-0.4,1.8H764l-0.6,1.9h1.8L764.9,459.9z M759.5,458.1h1.9l0.6-1.9h-1.9L759.5,458.1z"/>
	<path d="M769.1,456.3l0.3-1.5l-1.4,0.5l-0.4-1.3l1.4-0.5l-1.2-1l0.9-1l1.2,1l0.3-1.5l1.3,0.2l-0.3,1.5l1.4-0.5l0.5,1.3l-1.4,0.5
		l1.2,1l-0.9,1l-1.2-1l-0.3,1.5L769.1,456.3z"/>
	<path d="M782.2,460c-0.1,0.4,0,0.7,0.4,0.7c1.1,0,1.9-1.2,1.9-3.2c0-2.4-1.9-3.8-4.4-3.8c-3.3,0-5.7,2.4-5.7,5.9
		c0,3.4,2.8,4.4,5.1,4.4c1.8,0,3.1-0.4,4.3-1l-0.3,1.5c-0.9,0.5-2.4,0.8-4.1,0.8c-3.4,0-6.6-1.7-6.6-5.8c0-4,3-7.3,7.3-7.3
		c3.5,0,5.8,2.2,5.8,5.1c0,3.1-1.9,4.7-4,4.7c-0.8,0-1.6-0.3-2-0.9c-0.4,0.6-1.2,0.9-1.9,0.9c-1.5,0-2.3-1.1-2.3-2.5
		c0-2.1,1.4-4.1,3.5-4.1c0.7,0,1.3,0.3,1.5,0.6l0.1-0.5h2.3L782.2,460z M780.3,458c-0.1-0.3-0.4-0.6-0.8-0.6c-0.8,0-1.4,0.8-1.4,1.8
		c0,0.5,0.3,0.9,0.9,0.9c0.5,0,0.8-0.3,1-0.6L780.3,458z"/>
	<path d="M789.2,459.2c0.1,0.8,0.7,1.2,1.5,1.2c0.9,0,1.4-0.4,1.5-1.1c0-0.4-0.3-0.7-1-0.8l-1.7-0.5c-1.3-0.4-2.2-1-2.2-2.6
		c0-2.1,1.6-3.5,3.7-3.7l0.3-1.6h2.3l-0.3,1.8c1.5,0.5,2.3,1.6,2.4,3h-2.7c-0.1-0.6-0.6-1.1-1.5-1.1c-0.8,0-1.4,0.4-1.4,1
		c0,0.4,0.3,0.6,0.8,0.8l1.9,0.6c1.5,0.5,2.3,1.3,2.3,2.6c0,2.1-1.6,3.4-3.7,3.7l-0.3,1.6h-2.3l0.3-1.8c-1.7-0.4-2.7-1.5-2.8-3.2
		H789.2z"/>
	<path d="M801.8,454c0,1.4-1.2,2.8-2.7,2.8c-1.4,0-2.5-1.1-2.5-2.5c0-1.4,1.2-2.8,2.7-2.8C800.7,451.4,801.8,452.6,801.8,454z
		 M805.4,451.6h1.7l-8.6,11.1h-1.7L805.4,451.6z M800.1,454c0-0.5-0.4-0.9-0.9-0.9s-1,0.5-1,1c0,0.5,0.4,0.9,0.9,0.9
		S800.1,454.6,800.1,454z M802,460.3c0-1.4,1.2-2.8,2.7-2.8c1.4,0,2.5,1.1,2.5,2.5c0,1.4-1.2,2.8-2.7,2.8
		C803.1,462.9,802,461.7,802,460.3z M803.7,460.3c0,0.5,0.4,0.9,0.9,0.9s1-0.4,1-1c0-0.5-0.4-0.9-0.9-0.9
		C804.1,459.3,803.7,459.7,803.7,460.3z"/>
	<path d="M812.9,454.8c0,0.5,0.2,0.8,0.5,1.2l1.8,2.5c0.3-0.5,0.4-1,0.5-1.6h2.5c-0.2,1.3-0.8,2.5-1.7,3.5l1.6,2.3H815l-0.5-0.6
		c-0.9,0.5-1.9,0.8-2.8,0.8c-2.2,0-3.5-1.2-3.5-3.1c0-1.4,0.9-2.6,2.3-3.3c-0.2-0.5-0.4-0.9-0.4-1.4c0-2.2,1.7-3.6,3.9-3.6
		c2.2,0,3.4,1.3,3.4,3.2h-2.7c0-0.5-0.3-0.9-0.8-0.9C813.3,453.7,812.9,454.2,812.9,454.8z M813.3,460.4l-1.6-2.2
		c-0.5,0.2-0.8,0.8-0.8,1.4c0,0.6,0.4,1.1,1.2,1.1C812.5,460.7,812.9,460.6,813.3,460.4z"/>
	<path d="M818.2,463.4h6.1l-0.4,2.1h-6.1L818.2,463.4z"/>
	<path d="M827.1,459.4c0.9,0,1.7,0.7,1.7,1.7s-0.7,1.7-1.7,1.7c-0.9,0-1.7-0.7-1.7-1.7S826.2,459.4,827.1,459.4z"/>
	<path d="M830.5,456.8h4.3l-0.4,2.4h-4.3L830.5,456.8z"/>
	<path d="M836.1,462.5c-0.6-0.2-1-0.6-1-1.4c0-1,0.7-1.6,1.7-1.6c0.9,0,1.7,0.6,1.7,1.7c0,0.7-0.4,1.2-0.8,1.8l-1.3,1.6h-1.8
		L836.1,462.5z"/>
	<path d="M840,457h7.1l-0.3,1.9h-7.1L840,457z"/>
	<path d="M848.5,462.5c-0.6-0.2-1-0.6-1-1.4c0-1,0.7-1.6,1.7-1.6c0.9,0,1.7,0.6,1.7,1.7c0,0.7-0.4,1.2-0.8,1.8l-1.3,1.6h-1.8
		L848.5,462.5z M850,454.7c0.9,0,1.7,0.7,1.7,1.7S851,458,850,458c-0.9,0-1.7-0.7-1.7-1.7S849.1,454.7,850,454.7z"/>
	<path d="M853.2,459.4c0.9,0,1.7,0.7,1.7,1.7s-0.7,1.7-1.7,1.7c-0.9,0-1.7-0.7-1.7-1.7S852.2,459.4,853.2,459.4z M854,454.7
		c0.9,0,1.7,0.7,1.7,1.7S855,458,854,458c-0.9,0-1.7-0.7-1.7-1.7S853.1,454.7,854,454.7z"/>
	<path d="M856.5,457h13.8l-0.3,1.9h-13.8L856.5,457z"/>
	<path d="M874.4,455.1h-3c0.6-2.1,2.2-3.7,4.8-3.7c2.1,0,3.4,1.1,3.4,2.8c0,1.7-1.2,2.6-2.2,3.6c-0.6,0.5-0.7,0.8-0.8,1.1h-2.8
		c0.1-0.6,0.4-1.2,1.1-1.9c0.8-0.8,1.6-1.4,1.7-2.2c0-0.5-0.3-0.8-0.8-0.8C875,454,874.5,454.6,874.4,455.1z M874.8,459.6
		c1,0,1.7,0.7,1.7,1.6c0,0.9-0.7,1.6-1.7,1.6c-0.9,0-1.7-0.7-1.7-1.6C873.1,460.3,873.9,459.6,874.8,459.6z"/>
	<path d="M881,459.6c0.9,0,1.7,0.7,1.7,1.6c0,0.9-0.7,1.6-1.7,1.6c-0.9,0-1.7-0.7-1.7-1.6C879.4,460.3,880.1,459.6,881,459.6z
		 M881,451.6h3.4l-2,7.3h-2.2L881,451.6z"/>
	<path d="M886.8,453.7c0.6,0.2,1,0.7,1,1.4c0,1-0.7,1.6-1.7,1.6c-0.9,0-1.7-0.6-1.7-1.7c0-0.7,0.3-1.2,0.8-1.8l1.3-1.6h1.9
		L886.8,453.7z"/>
	<path d="M889.8,454.5c-0.6-0.2-1-0.7-1-1.4c0-1,0.7-1.6,1.7-1.6c0.9,0,1.7,0.6,1.7,1.7c0,0.7-0.3,1.2-0.8,1.8l-1.3,1.6h-1.9
		L889.8,454.5z"/>
	<path d="M894.8,453.7c0.6,0.2,1,0.7,1,1.4c0,1-0.7,1.6-1.7,1.6c-0.9,0-1.7-0.6-1.7-1.7c0-0.7,0.3-1.2,0.8-1.8l1.3-1.6h1.9
		L894.8,453.7z M898.6,453.7c0.6,0.2,1,0.7,1,1.4c0,1-0.7,1.6-1.7,1.6c-0.9,0-1.7-0.6-1.7-1.7c0-0.7,0.3-1.2,0.8-1.8l1.3-1.6h1.9
		L898.6,453.7z"/>
	<path d="M901.6,454.5c-0.6-0.2-1-0.7-1-1.4c0-1,0.7-1.6,1.7-1.6c0.9,0,1.7,0.6,1.7,1.7c0,0.7-0.3,1.2-0.8,1.8l-1.3,1.6h-1.9
		L901.6,454.5z M905.5,454.5c-0.6-0.2-1-0.7-1-1.4c0-1,0.7-1.6,1.7-1.6c0.9,0,1.7,0.6,1.7,1.7c0,0.7-0.3,1.2-0.8,1.8l-1.3,1.6h-1.9
		L905.5,454.5z"/>
	<path d="M914.2,451l-0.5,2.6c-1.8,0.6-3.3,2.3-3.3,5c0,1.6,0.8,2.6,1.9,3l-0.5,2.6c-2.6-0.7-4.1-2.6-4.1-5.6
		C907.8,454.8,910.2,451.7,914.2,451z"/>
	<path d="M912.5,464.2l0.5-2.6c1.8-0.6,3.3-2.3,3.3-5c0-1.6-0.8-2.6-1.9-3l0.5-2.6c2.6,0.7,4.1,2.6,4.1,5.6
		C918.9,460.3,916.5,463.5,912.5,464.2z"/>
</g>
<g>
	<path d="M422.2,92.2c1.4,4.5,5.2,6.6,10,6.6c5.2,0,8.6-2.4,8.6-6.6c0-3.1-1.8-4.9-6.4-6l-7.5-1.8c-6.1-1.4-11-4.8-11-11.9
		c0-7.5,6.1-13.1,15-13.1c9.6,0,15.2,4.9,16.8,12.2h-7.5c-1.2-3.3-4-5.9-9.2-5.9c-4.8,0-8,2.4-8,6.1c0,3,1.9,4.8,5.8,5.8l7.7,1.8
		c6.9,1.6,11.4,5.6,11.4,12.2c0,8.3-6.6,13.4-15.8,13.4c-9.4,0-16.1-4.8-17.6-13H422.2z"/>
	<path d="M456.2,78.5h-5v-6h5v-8.6h7.2v8.6h7.2v6h-7.2V95c0,2.6,1.4,3.7,3.8,3.7c1.4,0,3.1-0.6,4.1-1.3v6.6
		c-1.2,0.7-3.2,1.2-5.4,1.2c-5.7,0-9.7-3-9.7-9.4V78.5z"/>
	<path d="M482.6,116.7l4.5-11.4l-12.4-32.8h7.7l8.4,23.5l8.2-23.5h7.4l-16.8,44.2H482.6z"/>
	<path d="M519.4,104.5h-7.2V57.7h7.2V104.5z"/>
	<path d="M554.7,94.5c-1.1,6.3-5.8,10.7-13.5,10.7c-8.9,0-15.1-6.8-15.1-16.6c0-9.6,6.3-16.8,15-16.8c9,0,13.9,6.4,13.9,15.8v2.6
		h-21.8c0.2,5.6,3.5,9,8.1,9c3.5,0,6-1.5,6.8-4.6H554.7z M533.4,84.9h14.5c-0.1-3.9-2.3-7.1-6.7-7.1
		C537.2,77.8,534.3,80.3,533.4,84.9z"/>
	<path d="M598.3,100.9c-1.4,1.7-4.5,3.3-8.1,3.3c-9.4,0-14.8-7.8-14.8-16.2s5.4-16.2,14.8-16.2c3.6,0,6.7,1.6,8.1,3.3v-2.6h7.2v29.3
		c0,10.8-6.6,15.6-15,15.6c-8.1,0-13.4-4.2-14.2-11.2h7c0.7,3.5,3.2,5.3,7.2,5.3c5.3,0,7.8-3.2,7.8-9.2V100.9z M598.3,81.9
		c-1.2-2.2-3.9-3.8-6.9-3.8c-5.5,0-8.7,4.2-8.7,9.9s3.2,9.9,8.7,9.9c3,0,5.7-1.7,6.9-3.8V81.9z"/>
	<path d="M641,104.5h-7.2v-3c-1.7,2-4.8,3.7-8.6,3.7c-7.3,0-11.2-4.8-11.2-11.9V72.5h7.2v19.6c0,4,1.9,6.6,6,6.6
		c3.1,0,5.8-1.9,6.6-5.1v-21h7.2V104.5z"/>
	<path d="M653.5,67.2c-2.4,0-4.5-1.9-4.5-4.4s2.1-4.4,4.5-4.4s4.5,1.9,4.5,4.4S655.9,67.2,653.5,67.2z M657.1,104.5h-7.2v-32h7.2
		V104.5z"/>
	<path d="M686.8,101.7c-1.4,1.8-4.6,3.5-8.1,3.5c-9.4,0-14.8-7.5-14.8-16.7c0-9.1,5.5-16.7,14.8-16.7c3.5,0,6.7,1.7,8.1,3.5V57.7
		h7.2v46.8h-7.2V101.7z M686.8,82.4c-1.2-2.5-4-4.2-6.9-4.2c-5.5,0-8.9,4.4-8.9,10.3s3.3,10.3,8.9,10.3c3,0,5.7-1.7,6.9-4.2V82.4z"
		/>
	<path d="M729.2,94.5c-1.1,6.3-5.8,10.7-13.5,10.7c-8.9,0-15.1-6.8-15.1-16.6c0-9.6,6.3-16.8,15-16.8c9,0,13.9,6.4,13.9,15.8v2.6
		h-21.8c0.2,5.6,3.5,9,8.1,9c3.5,0,6-1.5,6.8-4.6H729.2z M707.9,84.9h14.5c-0.1-3.9-2.3-7.1-6.7-7.1
		C711.8,77.8,708.8,80.3,707.9,84.9z"/>
</g>
<rect x="416.7" y="993.8" class="st13" width="293.5" height="32.1"/>
<rect x="716.7" y="993.8" class="st13" width="293.5" height="32.1"/>
<path class="st10" d="M548.1,1102.1H428.7c-6.6,0-12-5.4-12-12v-15.3c0-6.6,5.4-12,12-12h119.5c6.6,0,12,5.4,12,12v15.3
	C560.1,1096.7,554.7,1102.1,548.1,1102.1z"/>
<path class="st2" d="M769.8,1102.1H650.4c-6.6,0-12-5.4-12-12v-15.3c0-6.6,5.4-12,12-12h119.5c6.6,0,12,5.4,12,12v15.3
	C781.8,1096.7,776.4,1102.1,769.8,1102.1z"/>
<path class="st5" d="M998.1,1102.1H878.7c-6.6,0-12-5.4-12-12v-15.3c0-6.6,5.4-12,12-12h119.5c6.6,0,12,5.4,12,12v15.3
	C1010.1,1096.7,1004.7,1102.1,998.1,1102.1z"/>
</svg>
