<svg xmlns="http://www.w3.org/2000/svg" xmlns:xlink="http://www.w3.org/1999/xlink" width="1000" height="1000" viewBox="0 0 1000 1000"><style type="text/css">.st0{fill:#6D6E70;} .st1{fill:#B1B3B5;} .st2{clip-path:url(#SVGID_2_);} .st3{fill:#FFFFFF;} .st4{fill:#009FF0;} .st5{fill:#3299D6;} .st6{fill:#AFB1B3;} .st7{fill:#E5B062;} .st8{fill:#363636;} .st9{fill:#FFB01F;} .st10{fill:#D18516;} .st11{fill:#272425;} .st12{fill:#1C5DAA;} .st13{fill:#FBFCF6;} .st14{fill:#FBFBF6;} .st15{clip-path:url(#SVGID_4_);} .st16{fill:#0057B8;} .st17{clip-path:url(#SVGID_6_);} .st18{fill:#F35E37;} .st19{clip-path:url(#SVGID_8_);}</style><path class="st0" d="M654.8 732.6h-299.3c-3.2 0-5.8-2.6-5.8-5.8 0-3.2 2.6-5.8 5.8-5.8h299.3c3.2 0 5.8 2.6 5.8 5.8 0 3.2-2.6 5.8-5.8 5.8zM349.7 725.1l150.3-682.2 150.3 682.2z"/><path d="M972 603.1h-946.5c-14.3 0-26-11.7-26-26v-551.4c0-14.3 11.7-26 26-26h946.5c14.3 0 26 11.7 26 26v551.4c-.1 14.3-11.8 26-26 26z"/><path class="st1" d="M40.7 42.9h916.1v517.1h-916.1z"/><defs><path id="SVGID_1_" d="M40.7 42.9h916.1v517.1h-916.1z"/></defs><clipPath id="SVGID_2_"><use xlink:href="#SVGID_1_" overflow="visible"/></clipPath><g class="st2"><path class="st3" d="M133.9 72h729.3v730.2h-729.3z"/><path class="st4" d="M133.9 72h729.7v276.5h-729.7z"/><path class="st5" d="M205.4 367.5h222.1v207.9h-222.1z"/><path class="st0" d="M445.7 367.5h349.4v41.3h-349.4zM445.7 405.1h349.4v18.2h-349.4zM445.7 442.6h349.4v18.2h-349.4zM445.7 480.2h349.4v18.2h-349.4zM445.7 517.7h349.4v18.2h-349.4zM445.7 555.3h349.4v18.2h-349.4zM445.7 592.8h349.4v18.2h-349.4zM445.7 630.4h349.4v18.2h-349.4zM445.7 667.9h349.4v18.2h-349.4zM445.7 705.5h349.4v18.2h-349.4zM445.7 743h349.4v18.2h-349.4zM445.7 780.6h349.4v18.2h-349.4z"/><path class="st6" d="M284 592.8h143.5v18.2h-143.5zM284 630.4h143.5v18.2h-143.5zM284 667.9h143.5v18.2h-143.5zM284 705.5h143.5v18.2h-143.5zM284 743h143.5v18.2h-143.5zM284 780.6h143.5v18.2h-143.5z"/><circle class="st7" cx="237.9" cy="620.4" r="22.4"/><circle class="st8" cx="230.7" cy="613.8" r="2.9"/><circle class="st8" cx="245.3" cy="613.8" r="2.9"/><path class="st8" d="M250.6 627.7l-1-1c-3 3-7 4.7-11.3 4.7-4.3 0-8.3-1.7-11.3-4.7l-1 1c3.2 3.2 7.5 5.1 12.3 5.1 4.8 0 9.2-1.9 12.3-5.1z"/><path class="st5" d="M224.6 595h3.1v9.7h-3.1zM240.2 593.2h3.1v9.2h-3.1zM247.9 595h3.1v9.7h-3.1zM232.4 593.2h3.1v9.2h-3.1z"/><path class="st8" d="M249.7 750.7c-4.4 0-8.5 1.3-11.9 3.5-3.4-2.2-7.5-3.5-11.9-3.5-11.5 0-20.9 8.9-20.9 19.9 0 11 9.4 19.9 20.9 19.9 4.4 0 8.5-1.3 11.9-3.5 3.4 2.2 7.5 3.5 11.9 3.5 11.5 0 20.9-8.9 20.9-19.9 0-11-9.3-19.9-20.9-19.9z"/><path class="st6" d="M222.6 756.7c-7.7 0-14 6.3-14 14s6.3 14 14 14 14-6.3 14-14-6.3-14-14-14zm0 25.5c-6.3 0-11.5-5.1-11.5-11.5 0-6.3 5.1-11.5 11.5-11.5 6.3 0 11.5 5.1 11.5 11.5-.1 6.4-5.2 11.5-11.5 11.5zM222.6 761.8c-4.9 0-8.9 4-8.9 8.9s4 8.9 8.9 8.9 8.9-4 8.9-8.9-4-8.9-8.9-8.9zm0 15.3c-3.5 0-6.4-2.9-6.4-6.4 0-3.5 2.9-6.4 6.4-6.4s6.4 2.9 6.4 6.4c-.1 3.5-2.9 6.4-6.4 6.4zM222.6 766.9c-2.1 0-3.8 1.7-3.8 3.8 0 2.1 1.7 3.8 3.8 3.8 2.1 0 3.8-1.7 3.8-3.8 0-2.1-1.7-3.8-3.8-3.8zm0 5.1c-.7 0-1.3-.6-1.3-1.3s.6-1.3 1.3-1.3c.7 0 1.3.6 1.3 1.3s-.6 1.3-1.3 1.3zM253.2 751.6c-6.3 0-11.8 3-15.3 7.6-3.5-4.6-9-7.6-15.3-7.6-10.6 0-19.1 8.6-19.1 19.1 0 10.6 8.6 19.1 19.1 19.1 6.3 0 11.8-3 15.3-7.6 3.5 4.6 9 7.6 15.3 7.6 10.6 0 19.1-8.6 19.1-19.1 0-10.6-8.6-19.1-19.1-19.1zm0 35.7c-5.8 0-10.8-2.9-13.8-7.4-.6-.9-1.1-1.8-1.5-2.8-.4 1-.9 1.9-1.5 2.8-3 4.5-8 7.4-13.8 7.4-9.2 0-16.6-7.4-16.6-16.6 0-9.2 7.4-16.6 16.6-16.6 5.8 0 10.8 2.9 13.8 7.4.6.9 1.1 1.8 1.5 2.8.4-1 .9-1.9 1.5-2.8 3-4.5 8-7.4 13.8-7.4 9.2 0 16.6 7.4 16.6 16.6-.1 9.2-7.5 16.6-16.6 16.6zM253.2 756.7c-7.7 0-14 6.3-14 14s6.3 14 14 14 14-6.3 14-14-6.3-14-14-14zm0 25.5c-6.3 0-11.5-5.1-11.5-11.5 0-6.3 5.1-11.5 11.5-11.5 6.3 0 11.5 5.1 11.5 11.5-.1 6.4-5.2 11.5-11.5 11.5zM253.2 761.8c-4.9 0-8.9 4-8.9 8.9s4 8.9 8.9 8.9 8.9-4 8.9-8.9-4-8.9-8.9-8.9zm0 15.3c-3.5 0-6.4-2.9-6.4-6.4 0-3.5 2.9-6.4 6.4-6.4s6.4 2.9 6.4 6.4c-.1 3.5-2.9 6.4-6.4 6.4zM253.2 766.9c-2.1 0-3.8 1.7-3.8 3.8 0 2.1 1.7 3.8 3.8 3.8 2.1 0 3.8-1.7 3.8-3.8 0-2.1-1.7-3.8-3.8-3.8zm0 5.1c-.7 0-1.3-.6-1.3-1.3s.6-1.3 1.3-1.3c.7 0 1.3.6 1.3 1.3s-.6 1.3-1.3 1.3z"/><circle class="st9" cx="237.9" cy="782.5" r="19.1"/><circle class="st8" cx="231.7" cy="776.8" r="2.5"/><circle class="st8" cx="244.2" cy="776.8" r="2.5"/><path class="st8" d="M248.8 788.7l-.9-.9c-2.6 2.6-6 4-9.6 4-3.6 0-7.1-1.4-9.7-4l-.9.9c2.7 2.7 6.4 4.4 10.5 4.4 4.1-.1 7.9-1.7 10.6-4.4zM246 742.9c-3 0-5.9.9-8.2 2.5-2.3-1.6-5.1-2.5-8.2-2.5-8 0-14.4 6.5-14.4 14.4 0 8 6.5 14.4 14.4 14.4 3 0 5.9-.9 8.2-2.5 2.3 1.6 5.1 2.5 8.2 2.5 8 0 14.4-6.5 14.4-14.4.1-7.9-6.4-14.4-14.4-14.4z"/><path class="st6" d="M261.4 757.3c0-8.5-6.9-15.3-15.3-15.3-3 0-5.8.9-8.2 2.4.6.4 1.2.8 1.8 1.3 1.9-1 4.1-1.6 6.4-1.6 7.3 0 13.3 6 13.3 13.3 0 7.3-6 13.3-13.3 13.3-7.3 0-13.3-6-13.3-13.3 0-1.7-1.4-3.1-3.1-3.1-1.7 0-3.1 1.4-3.1 3.1 0 1.7 1.4 3.1 3.1 3.1.5 0 .9-.1 1.3-.3.4 2.1 1.2 4 2.3 5.7-1.1.5-2.3.7-3.6.7-5.1 0-9.2-4.1-9.2-9.2s4.1-9.2 9.2-9.2 9.2 4.1 9.2 9.2c0 4 3.2 7.2 7.2 7.2s7.2-3.2 7.2-7.2-3.2-7.2-7.2-7.2c-.9 0-1.8.2-2.6.5.3.6.6 1.2.8 1.9.6-.2 1.2-.3 1.8-.3 2.8 0 5.1 2.3 5.1 5.1s-2.3 5.1-5.1 5.1-5.1-2.3-5.1-5.1c0-6.2-5-11.3-11.3-11.3-6.2 0-11.3 5-11.3 11.3 0 6.2 5 11.3 11.3 11.3 1.7 0 3.4-.4 4.9-1.1 2.8 3.2 6.9 5.2 11.5 5.2 8.4-.1 15.3-7 15.3-15.5zm-31.7 1.1c-.6 0-1-.5-1-1 0-.6.5-1 1-1s1 .5 1 1-.5 1-1 1zM257.3 757.3c0-6.2-5-11.3-11.3-11.3-1.7 0-3.4.4-4.9 1.1-2.8-3.2-6.9-5.2-11.5-5.2-8.5 0-15.3 6.9-15.3 15.3 0 8.5 6.9 15.3 15.3 15.3 3 0 5.8-.9 8.2-2.4-.6-.4-1.2-.8-1.8-1.3-1.9 1-4.1 1.6-6.4 1.6-7.3 0-13.3-6-13.3-13.3 0-7.3 6-13.3 13.3-13.3 7.3 0 13.3 6 13.3 13.3 0 1.7 1.4 3.1 3.1 3.1 1.7 0 3.1-1.4 3.1-3.1 0-1.7-1.4-3.1-3.1-3.1-.5 0-.9.1-1.3.3-.4-2.1-1.2-4-2.3-5.7 1.1-.5 2.3-.7 3.6-.7 5.1 0 9.2 4.1 9.2 9.2s-4.1 9.2-9.2 9.2-9.2-4.1-9.2-9.2c0-4-3.2-7.2-7.2-7.2s-7.2 3.2-7.2 7.2 3.2 7.2 7.2 7.2c.9 0 1.8-.2 2.6-.5-.3-.6-.6-1.2-.8-1.9-.6.2-1.2.3-1.8.3-2.8 0-5.1-2.3-5.1-5.1s2.3-5.1 5.1-5.1 5.1 2.3 5.1 5.1c0 6.2 5 11.3 11.3 11.3 6.3.2 11.3-4.8 11.3-11.1zm-11.3-1c.6 0 1 .5 1 1 0 .6-.5 1-1 1s-1-.5-1-1 .5-1 1-1z"/><path class="st8" d="M246.2 670.9c-3.1 0-6 1.3-8.3 3.6-2.4-2.3-5.2-3.6-8.3-3.6-8.1 0-14.7 9.3-14.7 20.7s6.6 20.7 14.7 20.7c3.1 0 6-1.3 8.3-3.6 2.4 2.3 5.2 3.6 8.3 3.6 8.1 0 14.7-9.3 14.7-20.7s-6.6-20.7-14.7-20.7z"/><circle class="st10" cx="239.4" cy="706" r="19.3"/><circle class="st8" cx="233.2" cy="700.3" r="2.5"/><circle class="st8" cx="245.7" cy="700.3" r="2.5"/><path class="st8" d="M250.4 712.2l-.9-.9c-2.6 2.6-6 4-9.7 4-3.7 0-7.1-1.4-9.7-4l-.9.9c2.7 2.7 6.5 4.4 10.6 4.4s7.8-1.7 10.6-4.4zM245.4 668.7c-2.8 0-5.3.9-7.5 2.3-2.1-1.5-4.7-2.3-7.5-2.3-7.3 0-13.1 5.9-13.1 13.1 0 7.3 5.9 13.1 13.1 13.1 2.8 0 5.3-.9 7.5-2.3 2.1 1.5 4.7 2.3 7.5 2.3 7.3 0 13.1-5.9 13.1-13.1 0-7.3-5.9-13.1-13.1-13.1z"/><path class="st11" d="M259.3 681.8c0-7.7-6.3-14-14-14-2.7 0-5.3.8-7.5 2.2.6.4 1.1.8 1.6 1.2 1.7-.9 3.7-1.5 5.8-1.5 6.7 0 12.1 5.4 12.1 12.1 0 6.7-5.4 12.1-12.1 12.1-6.7 0-12.1-5.4-12.1-12.1 0-1.5-1.3-2.8-2.8-2.8-1.5 0-2.8 1.3-2.8 2.8 0 1.5 1.3 2.8 2.8 2.8.4 0 .8-.1 1.2-.3.3 1.9 1.1 3.6 2.1 5.2-1 .4-2.1.7-3.3.7-4.6 0-8.4-3.8-8.4-8.4 0-4.6 3.8-8.4 8.4-8.4 4.6 0 8.4 3.8 8.4 8.4 0 3.6 2.9 6.5 6.5 6.5s6.5-2.9 6.5-6.5-2.9-6.5-6.5-6.5c-.8 0-1.6.2-2.3.4.3.6.5 1.1.7 1.7.5-.2 1.1-.3 1.6-.3 2.6 0 4.7 2.1 4.7 4.7s-2.1 4.7-4.7 4.7-4.7-2.1-4.7-4.7c0-5.7-4.6-10.3-10.3-10.3-5.7 0-10.3 4.6-10.3 10.3 0 5.7 4.6 10.3 10.3 10.3 1.6 0 3.1-.4 4.4-1 2.6 2.9 6.3 4.7 10.5 4.7 8 0 14.2-6.3 14.2-14zm-28.8.9c-.5 0-.9-.4-.9-.9s.4-.9.9-.9.9.4.9.9-.4.9-.9.9z"/><path class="st8" d="M228.7 697.6h18v2.7h-18zM231.8 707.3h-2.6c-2.8 0-5.1-2.3-5.1-5.1s2.3-5.1 5.1-5.1h2.6c2.8 0 5.1 2.3 5.1 5.1s-2.3 5.1-5.1 5.1zM246.5 707.3h-2.6c-2.8 0-5.1-2.3-5.1-5.1s2.3-5.1 5.1-5.1h2.6c2.8 0 5.1 2.3 5.1 5.1s-2.3 5.1-5.1 5.1z"/><path class="st12" d="M427.5 575.4h-222.1l222.1-95.2z"/><path class="st13" d="M206 126.4h108.6v18.2h-108.6z"/></g><path d="M919.3 828.2h-274.9c-12 0-21.9-9.9-21.9-21.9v-426c0-12 9.9-21.9 21.9-21.9h274.9c12 0 21.9 9.9 21.9 21.9v426c0 12-9.8 21.9-21.9 21.9z"/><path class="st14" d="M637.3 395.5h289.1v395.5h-289.1z"/><defs><path id="SVGID_3_" d="M637.3 395.5h289.1v395.5h-289.1z"/></defs><clipPath id="SVGID_4_"><use xlink:href="#SVGID_3_" overflow="visible"/></clipPath><g class="st15"><path class="st3" d="M637.5 393.7h289.1v433.6h-289.1z"/><path class="st4" d="M637.5 393.7h289.2v109.6h-289.2z"/><path class="st16" d="M665.9 690.4h232.4v36.3h-232.4z"/><path class="st5" d="M665.9 733.9h84.2v36.3h-84.2zM759.3 733.9h50.1v36.3h-50.1zM818.6 733.9h79.7v36.3h-79.7zM665.9 510.8h88v82.4h-88z"/><path class="st0" d="M761.1 510.8h138.5v16.4h-138.5zM761.1 525.7h138.5v7.2h-138.5zM761.1 540.6h138.5v7.2h-138.5zM761.1 555.5h138.5v7.2h-138.5zM761.1 570.4h138.5v7.2h-138.5zM761.1 585.3h138.5v7.2h-138.5zM761.1 600.1h138.5v7.2h-138.5zM761.1 615h138.5v7.2h-138.5zM761.1 629.9h138.5v7.2h-138.5zM761.1 644.8h138.5v7.2h-138.5zM761.1 659.7h138.5v7.2h-138.5zM761.1 674.6h138.5v7.2h-138.5z"/><path class="st6" d="M697.1 600.1h56.9v7.2h-56.9zM697.1 615h56.9v7.2h-56.9zM697.1 629.9h56.9v7.2h-56.9zM697.1 644.8h56.9v7.2h-56.9zM697.1 659.7h56.9v7.2h-56.9zM697.1 674.6h56.9v7.2h-56.9z"/><circle class="st7" cx="678.8" cy="611.1" r="8.9"/><circle class="st8" cx="675.9" cy="608.5" r="1.2"/><circle class="st8" cx="681.7" cy="608.5" r="1.2"/><path class="st8" d="M683.8 614l-.4-.4c-1.2 1.2-2.8 1.8-4.5 1.8-1.7 0-3.3-.7-4.5-1.9l-.4.5c1.3 1.3 3 2 4.9 2 1.9 0 3.7-.8 4.9-2z"/><path class="st5" d="M673.5 601h1.2v3.9h-1.2zM679.7 600.3h1.2v3.6h-1.2zM682.8 601h1.2v3.9h-1.2zM676.6 600.3h1.2v3.6h-1.2z"/><path class="st8" d="M683.5 662.7c-1.7 0-3.4.5-4.7 1.4-1.3-.9-3-1.4-4.7-1.4-4.6 0-8.3 3.5-8.3 7.9s3.7 7.9 8.3 7.9c1.7 0 3.4-.5 4.7-1.4 1.3.9 3 1.4 4.7 1.4 4.6 0 8.3-3.5 8.3-7.9-.1-4.3-3.8-7.9-8.3-7.9z"/><path class="st6" d="M672.7 665.1c-3.1 0-5.6 2.5-5.6 5.6 0 3.1 2.5 5.6 5.6 5.6s5.6-2.5 5.6-5.6c0-3.1-2.5-5.6-5.6-5.6zm0 10.1c-2.5 0-4.6-2-4.6-4.6s2-4.6 4.6-4.6 4.6 2 4.6 4.6-2.1 4.6-4.6 4.6zM672.7 667.1c-2 0-3.5 1.6-3.5 3.5 0 2 1.6 3.5 3.5 3.5s3.5-1.6 3.5-3.5-1.5-3.5-3.5-3.5zm0 6.1c-1.4 0-2.5-1.1-2.5-2.5s1.1-2.5 2.5-2.5 2.5 1.1 2.5 2.5-1.1 2.5-2.5 2.5zM672.7 669.1c-.8 0-1.5.7-1.5 1.5s.7 1.5 1.5 1.5 1.5-.7 1.5-1.5-.7-1.5-1.5-1.5zm0 2.1c-.3 0-.5-.2-.5-.5s.2-.5.5-.5.5.2.5.5c0 .2-.2.5-.5.5zM684.8 663.1c-2.5 0-4.7 1.2-6.1 3-1.4-1.8-3.6-3-6.1-3-4.2 0-7.6 3.4-7.6 7.6s3.4 7.6 7.6 7.6c2.5 0 4.7-1.2 6.1-3 1.4 1.8 3.6 3 6.1 3 4.2 0 7.6-3.4 7.6-7.6s-3.4-7.6-7.6-7.6zm0 14.1c-2.3 0-4.3-1.2-5.5-2.9-.2-.3-.4-.7-.6-1.1-.2.4-.4.8-.6 1.1-1.2 1.8-3.2 2.9-5.5 2.9-3.6 0-6.6-2.9-6.6-6.6 0-3.6 2.9-6.6 6.6-6.6 2.3 0 4.3 1.2 5.5 2.9.2.3.4.7.6 1.1.2-.4.4-.8.6-1.1 1.2-1.8 3.2-2.9 5.5-2.9 3.6 0 6.6 2.9 6.6 6.6 0 3.7-2.9 6.6-6.6 6.6zM684.8 665.1c-3.1 0-5.6 2.5-5.6 5.6 0 3.1 2.5 5.6 5.6 5.6 3.1 0 5.6-2.5 5.6-5.6 0-3.1-2.5-5.6-5.6-5.6zm0 10.1c-2.5 0-4.6-2-4.6-4.6s2-4.6 4.6-4.6 4.6 2 4.6 4.6-2.1 4.6-4.6 4.6zM684.8 667.1c-2 0-3.5 1.6-3.5 3.5 0 2 1.6 3.5 3.5 3.5 2 0 3.5-1.6 3.5-3.5.1-1.9-1.5-3.5-3.5-3.5zm0 6.1c-1.4 0-2.5-1.1-2.5-2.5s1.1-2.5 2.5-2.5 2.5 1.1 2.5 2.5c.1 1.4-1.1 2.5-2.5 2.5zM684.8 669.1c-.8 0-1.5.7-1.5 1.5s.7 1.5 1.5 1.5 1.5-.7 1.5-1.5-.6-1.5-1.5-1.5zm0 2.1c-.3 0-.5-.2-.5-.5s.2-.5.5-.5.5.2.5.5c0 .2-.2.5-.5.5z"/><circle class="st9" cx="678.8" cy="675.3" r="7.6"/><circle class="st8" cx="676.3" cy="673.1" r="1"/><circle class="st8" cx="681.3" cy="673.1" r="1"/><path class="st8" d="M683.1 677.8l-.3-.3c-1 1-2.4 1.6-3.8 1.6s-2.8-.6-3.8-1.6l-.3.3c1.1 1.1 2.5 1.7 4.2 1.7 1.4 0 2.9-.6 4-1.7zM682 659.6c-1.2 0-2.3.4-3.2 1-.9-.6-2-1-3.2-1-3.2 0-5.7 2.6-5.7 5.7 0 3.2 2.6 5.7 5.7 5.7 1.2 0 2.3-.4 3.2-1 .9.6 2 1 3.2 1 3.2 0 5.7-2.6 5.7-5.7s-2.5-5.7-5.7-5.7z"/><path class="st6" d="M688.1 665.4c0-3.4-2.7-6.1-6.1-6.1-1.2 0-2.3.3-3.2.9l.7.5c.8-.4 1.6-.6 2.5-.6 2.9 0 5.3 2.4 5.3 5.3s-2.4 5.3-5.3 5.3-5.3-2.4-5.3-5.3c0-.7-.5-1.2-1.2-1.2s-1.2.5-1.2 1.2.5 1.2 1.2 1.2c.2 0 .4 0 .5-.1.2.8.5 1.6.9 2.3-.4.2-.9.3-1.4.3-2 0-3.6-1.6-3.6-3.6s1.6-3.6 3.6-3.6 3.6 1.6 3.6 3.6c0 1.6 1.3 2.8 2.8 2.8s2.8-1.3 2.8-2.8c0-1.6-1.3-2.8-2.8-2.8-.4 0-.7.1-1 .2.1.2.2.5.3.8.2-.1.5-.1.7-.1 1.1 0 2 .9 2 2s-.9 2-2 2-2-.9-2-2c0-2.5-2-4.5-4.5-4.5s-4.5 2-4.5 4.5 2 4.5 4.5 4.5c.7 0 1.3-.2 1.9-.4 1.1 1.3 2.7 2.1 4.6 2.1 3.5-.4 6.2-3.1 6.2-6.4zm-12.6.4c-.2 0-.4-.2-.4-.4s.2-.4.4-.4.4.2.4.4-.2.4-.4.4zM686.5 665.4c0-2.5-2-4.5-4.5-4.5-.7 0-1.3.2-1.9.4-1.1-1.3-2.7-2.1-4.6-2.1-3.4 0-6.1 2.7-6.1 6.1 0 3.4 2.7 6.1 6.1 6.1 1.2 0 2.3-.3 3.2-.9l-.7-.5c-.8.4-1.6.6-2.5.6-2.9 0-5.3-2.4-5.3-5.3s2.4-5.3 5.3-5.3 5.3 2.4 5.3 5.3c0 .7.5 1.2 1.2 1.2s1.2-.5 1.2-1.2-.5-1.2-1.2-1.2c-.2 0-.4 0-.5.1-.2-.8-.5-1.6-.9-2.3.4-.2.9-.3 1.4-.3 2 0 3.6 1.6 3.6 3.6s-1.6 3.6-3.6 3.6-3.6-1.6-3.6-3.6c0-1.6-1.3-2.8-2.8-2.8-1.6 0-2.8 1.3-2.8 2.8 0 1.6 1.3 2.8 2.8 2.8.4 0 .7-.1 1-.2-.1-.2-.2-.5-.3-.8-.2.1-.5.1-.7.1-1.1 0-2-.9-2-2s.9-2 2-2 2 .9 2 2c0 2.5 2 4.5 4.5 4.5s4.4-1.8 4.4-4.2zm-4.5-.4c.2 0 .4.2.4.4s-.2.4-.4.4-.4-.2-.4-.4c0-.3.2-.4.4-.4z"/><path class="st8" d="M682.1 631.1c-1.2 0-2.4.5-3.3 1.4-.9-.9-2.1-1.4-3.3-1.4-3.2 0-5.8 3.7-5.8 8.2 0 4.5 2.6 8.2 5.8 8.2 1.2 0 2.4-.5 3.3-1.4.9.9 2.1 1.4 3.3 1.4 3.2 0 5.8-3.7 5.8-8.2 0-4.6-2.6-8.2-5.8-8.2z"/><circle class="st10" cx="679.4" cy="645" r="7.6"/><circle class="st8" cx="676.9" cy="642.7" r="1"/><circle class="st8" cx="681.9" cy="642.7" r="1"/><path class="st8" d="M683.7 647.5l-.4-.4c-1 1-2.4 1.6-3.8 1.6-1.5 0-2.8-.6-3.9-1.6l-.4.4c1.1 1.1 2.6 1.7 4.2 1.7 1.8 0 3.2-.6 4.3-1.7zM681.7 630.2c-1.1 0-2.1.3-3 .9-.8-.6-1.9-.9-3-.9-2.9 0-5.2 2.3-5.2 5.2 0 2.9 2.3 5.2 5.2 5.2 1.1 0 2.1-.3 3-.9.8.6 1.9.9 3 .9 2.9 0 5.2-2.3 5.2-5.2 0-2.9-2.3-5.2-5.2-5.2z"/><path class="st11" d="M687.3 635.4c0-3.1-2.5-5.5-5.5-5.5-1.1 0-2.1.3-3 .9.2.1.4.3.6.5.7-.4 1.5-.6 2.3-.6 2.7 0 4.8 2.2 4.8 4.8 0 2.7-2.2 4.8-4.8 4.8-2.7 0-4.8-2.2-4.8-4.8 0-.6-.5-1.1-1.1-1.1s-1.1.5-1.1 1.1c0 .6.5 1.1 1.1 1.1.2 0 .3 0 .5-.1.1.7.4 1.4.8 2.1-.4.2-.8.3-1.3.3-1.8 0-3.3-1.5-3.3-3.3 0-1.8 1.5-3.3 3.3-3.3 1.8 0 3.3 1.5 3.3 3.3 0 1.4 1.2 2.6 2.6 2.6 1.4 0 2.6-1.2 2.6-2.6 0-1.4-1.2-2.6-2.6-2.6-.3 0-.6.1-.9.2.1.2.2.4.3.7.2-.1.4-.1.6-.1 1 0 1.8.8 1.8 1.8s-.8 1.8-1.8 1.8-1.8-.8-1.8-1.8c0-2.2-1.8-4.1-4.1-4.1-2.2 0-4.1 1.8-4.1 4.1 0 2.2 1.8 4.1 4.1 4.1.6 0 1.2-.1 1.8-.4 1 1.2 2.5 1.9 4.2 1.9 3-.2 5.5-2.7 5.5-5.8zm-11.5.4c-.2 0-.4-.2-.4-.4s.2-.4.4-.4.4.2.4.4-.2.4-.4.4z"/><path class="st8" d="M675.1 641.7h7.1v1.1h-7.1zM676.4 645.5h-1c-1.1 0-2-.9-2-2s.9-2 2-2h1c1.1 0 2 .9 2 2s-.9 2-2 2zM682.2 645.5h-1c-1.1 0-2-.9-2-2s.9-2 2-2h1c1.1 0 2 .9 2 2s-.9 2-2 2z"/><path class="st12" d="M753.9 593.3h-88l88-37.8zM750.1 770.1h-84.2l84.2-36.2zM898.3 770.1h-78.1l78.1-36.2z"/><path class="st13" d="M666.1 415.3h43v7.2h-43z"/></g><path class="st16" d="M678.5 280.3l-40.5-70 40.5-70h80.8l40.4 70-40.4 70zM852.8 480.5l-17.3-29.9 17.3-29.9h34.5l17.3 29.9-17.3 29.9z"/><path d="M434.8 668.9v200.7c0 8.8-7.2 16-16 16h-311.1c-8.8 0-16-7.2-16-16v-200.7c0-8.8 7.2-16 16-16h311.1c8.8 0 16 7.2 16 16z"/><path class="st14" d="M118.8 663.7h288.9v211.1h-288.9z"/><defs><path id="SVGID_5_" d="M118.4 663.2h289.6v211.7h-289.6z"/></defs><clipPath id="SVGID_6_"><use xlink:href="#SVGID_5_" overflow="visible"/></clipPath><g class="st17"><path class="st3" d="M118.6 661.4h289.6v434.4h-289.6z"/><path class="st4" d="M118.6 661.4h289.8v109.8h-289.8z"/><path class="st18" d="M147 958.6h232.8v36.3h-232.8z"/><path class="st5" d="M147 1002.2h84.4v36.3h-84.4zM240.6 1002.2h50.2v36.3h-50.2zM300 1002.2h79.9v36.3h-79.9zM147 778.7h88.2v82.6h-88.2z"/><path class="st0" d="M242.4 778.7h138.8v16.4h-138.8zM242.4 793.7h138.8v7.2h-138.8zM242.4 808.6h138.8v7.2h-138.8zM242.4 823.5h138.8v7.2h-138.8zM242.4 838.4h138.8v7.2h-138.8zM242.4 853.3h138.8v7.2h-138.8zM242.4 868.2h138.8v7.2h-138.8zM242.4 883.1h138.8v7.2h-138.8zM242.4 898h138.8v7.2h-138.8zM242.4 913h138.8v7.2h-138.8zM242.4 927.9h138.8v7.2h-138.8zM242.4 942.8h138.8v7.2h-138.8z"/><path class="st6" d="M178.2 868.2h57v7.2h-57zM178.2 883.1h57v7.2h-57zM178.2 898h57v7.2h-57zM178.2 913h57v7.2h-57zM178.2 927.9h57v7.2h-57zM178.2 942.8h57v7.2h-57z"/><circle class="st7" cx="159.9" cy="879.2" r="8.9"/><circle class="st8" cx="157.1" cy="876.6" r="1.2"/><circle class="st8" cx="162.8" cy="876.6" r="1.2"/><path class="st8" d="M165 882.1l-.4-.4c-1.2 1.2-2.8 1.8-4.5 1.8-1.7 0-3.3-.7-4.5-1.9l-.4.4c1.3 1.3 3 2 4.9 2 1.9.1 3.6-.7 4.9-1.9z"/><path class="st5" d="M154.7 869.1h1.3v3.9h-1.3zM160.8 868.4h1.3v3.6h-1.3zM163.9 869.1h1.3v3.9h-1.3zM157.7 868.4h1.3v3.6h-1.3z"/><path class="st8" d="M164.6 930.9c-1.7 0-3.4.5-4.7 1.4-1.3-.9-3-1.4-4.7-1.4-4.6 0-8.3 3.5-8.3 7.9s3.7 7.9 8.3 7.9c1.7 0 3.4-.5 4.7-1.4 1.3.9 3 1.4 4.7 1.4 4.6 0 8.3-3.5 8.3-7.9s-3.7-7.9-8.3-7.9z"/><path class="st6" d="M153.8 933.3c-3.1 0-5.6 2.5-5.6 5.6s2.5 5.6 5.6 5.6 5.6-2.5 5.6-5.6-2.5-5.6-5.6-5.6zm0 10.1c-2.5 0-4.6-2-4.6-4.6 0-2.5 2-4.6 4.6-4.6s4.6 2 4.6 4.6c0 2.6-2 4.6-4.6 4.6zM153.8 935.3c-2 0-3.5 1.6-3.5 3.5s1.6 3.5 3.5 3.5 3.5-1.6 3.5-3.5-1.5-3.5-3.5-3.5zm0 6.1c-1.4 0-2.5-1.1-2.5-2.5s1.1-2.5 2.5-2.5 2.5 1.1 2.5 2.5c.1 1.4-1.1 2.5-2.5 2.5zM153.8 937.3c-.8 0-1.5.7-1.5 1.5s.7 1.5 1.5 1.5 1.5-.7 1.5-1.5c.1-.8-.6-1.5-1.5-1.5zm0 2.1c-.3 0-.5-.2-.5-.5s.2-.5.5-.5.5.2.5.5c0 .2-.2.5-.5.5zM166 931.3c-2.5 0-4.7 1.2-6.1 3-1.4-1.8-3.6-3-6.1-3-4.2 0-7.6 3.4-7.6 7.6 0 4.2 3.4 7.6 7.6 7.6 2.5 0 4.7-1.2 6.1-3 1.4 1.8 3.6 3 6.1 3 4.2 0 7.6-3.4 7.6-7.6 0-4.2-3.4-7.6-7.6-7.6zm0 14.2c-2.3 0-4.3-1.2-5.5-2.9-.2-.3-.4-.7-.6-1.1-.2.4-.4.8-.6 1.1-1.2 1.8-3.2 2.9-5.5 2.9-3.6 0-6.6-2.9-6.6-6.6 0-3.6 2.9-6.6 6.6-6.6 2.3 0 4.3 1.2 5.5 2.9.2.3.4.7.6 1.1.2-.4.4-.8.6-1.1 1.2-1.8 3.2-2.9 5.5-2.9 3.6 0 6.6 2.9 6.6 6.6 0 3.6-3 6.6-6.6 6.6zM166 933.3c-3.1 0-5.6 2.5-5.6 5.6s2.5 5.6 5.6 5.6 5.6-2.5 5.6-5.6-2.5-5.6-5.6-5.6zm0 10.1c-2.5 0-4.6-2-4.6-4.6 0-2.5 2-4.6 4.6-4.6s4.6 2 4.6 4.6c-.1 2.6-2.1 4.6-4.6 4.6zM166 935.3c-2 0-3.5 1.6-3.5 3.5s1.6 3.5 3.5 3.5 3.5-1.6 3.5-3.5-1.6-3.5-3.5-3.5zm0 6.1c-1.4 0-2.5-1.1-2.5-2.5s1.1-2.5 2.5-2.5 2.5 1.1 2.5 2.5-1.1 2.5-2.5 2.5zM166 937.3c-.8 0-1.5.7-1.5 1.5s.7 1.5 1.5 1.5 1.5-.7 1.5-1.5-.7-1.5-1.5-1.5zm0 2.1c-.3 0-.5-.2-.5-.5s.2-.5.5-.5.5.2.5.5c0 .2-.2.5-.5.5z"/><circle class="st9" cx="159.9" cy="943.5" r="7.6"/><circle class="st8" cx="157.5" cy="941.3" r="1"/><circle class="st8" cx="162.4" cy="941.3" r="1"/><path class="st8" d="M164.2 946l-.3-.3c-1 1-2.4 1.6-3.8 1.6s-2.8-.6-3.8-1.6l-.3.3c1.1 1.1 2.5 1.7 4.2 1.7 1.5 0 3-.6 4-1.7zM163.2 927.8c-1.2 0-2.3.4-3.3 1-.9-.6-2-1-3.3-1-3.2 0-5.7 2.6-5.7 5.7 0 3.2 2.6 5.7 5.7 5.7 1.2 0 2.3-.4 3.3-1 .9.6 2 1 3.3 1 3.2 0 5.7-2.6 5.7-5.7s-2.6-5.7-5.7-5.7z"/><path class="st6" d="M169.3 933.6c0-3.4-2.7-6.1-6.1-6.1-1.2 0-2.3.3-3.2.9l.7.5c.8-.4 1.6-.6 2.5-.6 2.9 0 5.3 2.4 5.3 5.3s-2.4 5.3-5.3 5.3-5.3-2.4-5.3-5.3c0-.7-.5-1.2-1.2-1.2s-1.2.5-1.2 1.2.5 1.2 1.2 1.2c.2 0 .4 0 .5-.1.2.8.5 1.6.9 2.3-.4.2-.9.3-1.4.3-2 0-3.7-1.6-3.7-3.7 0-2 1.6-3.7 3.7-3.7 2 0 3.7 1.6 3.7 3.7 0 1.6 1.3 2.8 2.8 2.8 1.6 0 2.8-1.3 2.8-2.8 0-1.6-1.3-2.8-2.8-2.8-.4 0-.7.1-1 .2.1.2.2.5.3.8.2-.1.5-.1.7-.1 1.1 0 2 .9 2 2s-.9 2-2 2-2-.9-2-2c0-2.5-2-4.5-4.5-4.5s-4.5 2-4.5 4.5 2 4.5 4.5 4.5c.7 0 1.3-.2 1.9-.4 1.1 1.3 2.8 2.1 4.6 2.1 3.3-.3 6.1-3 6.1-6.3zm-12.6.4c-.2 0-.4-.2-.4-.4s.2-.4.4-.4.4.2.4.4-.2.4-.4.4zM167.6 933.6c0-2.5-2-4.5-4.5-4.5-.7 0-1.3.2-1.9.4-1.1-1.3-2.8-2.1-4.6-2.1-3.4 0-6.1 2.7-6.1 6.1 0 3.4 2.7 6.1 6.1 6.1 1.2 0 2.3-.3 3.2-.9l-.7-.5c-.8.4-1.6.6-2.5.6-2.9 0-5.3-2.4-5.3-5.3s2.4-5.3 5.3-5.3 5.3 2.4 5.3 5.3c0 .7.5 1.2 1.2 1.2s1.2-.5 1.2-1.2-.5-1.2-1.2-1.2c-.2 0-.4 0-.5.1-.2-.8-.5-1.6-.9-2.3.4-.2.9-.3 1.4-.3 2 0 3.7 1.6 3.7 3.7 0 2-1.6 3.7-3.7 3.7-2 0-3.7-1.6-3.7-3.7 0-1.6-1.3-2.8-2.8-2.8-1.6 0-2.8 1.3-2.8 2.8 0 1.6 1.3 2.8 2.8 2.8.4 0 .7-.1 1-.2-.1-.2-.2-.5-.3-.8-.2.1-.5.1-.7.1-1.1 0-2-.9-2-2s.9-2 2-2 2 .9 2 2c0 2.5 2 4.5 4.5 4.5 2.5.1 4.5-1.9 4.5-4.3zm-4.4-.5c.2 0 .4.2.4.4s-.2.4-.4.4-.4-.2-.4-.4.1-.4.4-.4z"/><path class="st8" d="M163.2 899.2c-1.2 0-2.4.5-3.3 1.4-.9-.9-2.1-1.4-3.3-1.4-3.2 0-5.8 3.7-5.8 8.2s2.6 8.2 5.8 8.2c1.2 0 2.4-.5 3.3-1.4.9.9 2.1 1.4 3.3 1.4 3.2 0 5.8-3.7 5.8-8.2s-2.6-8.2-5.8-8.2z"/><circle class="st10" cx="160.5" cy="913.2" r="7.6"/><circle class="st8" cx="158.1" cy="910.9" r="1"/><circle class="st8" cx="163" cy="910.9" r="1"/><path class="st8" d="M164.9 915.6l-.4-.4c-1 1-2.4 1.6-3.9 1.6s-2.8-.6-3.9-1.6l-.4.4c1.1 1.1 2.6 1.7 4.2 1.7 1.8.1 3.3-.6 4.4-1.7zM162.9 898.3c-1.1 0-2.1.3-3 .9-.8-.6-1.9-.9-3-.9-2.9 0-5.2 2.3-5.2 5.2 0 2.9 2.3 5.2 5.2 5.2 1.1 0 2.1-.3 3-.9.8.6 1.9.9 3 .9 2.9 0 5.2-2.3 5.2-5.2 0-2.8-2.3-5.2-5.2-5.2z"/><path class="st11" d="M168.4 903.6c0-3.1-2.5-5.6-5.6-5.6-1.1 0-2.1.3-3 .9.2.1.4.3.6.5.7-.4 1.5-.6 2.3-.6 2.7 0 4.8 2.2 4.8 4.8 0 2.7-2.2 4.8-4.8 4.8-2.7 0-4.8-2.2-4.8-4.8 0-.6-.5-1.1-1.1-1.1s-1.1.5-1.1 1.1c0 .6.5 1.1 1.1 1.1.2 0 .3 0 .5-.1.1.8.4 1.4.8 2.1-.4.2-.8.3-1.3.3-1.8 0-3.3-1.5-3.3-3.3 0-1.8 1.5-3.3 3.3-3.3 1.8 0 3.3 1.5 3.3 3.3 0 1.4 1.2 2.6 2.6 2.6 1.4 0 2.6-1.2 2.6-2.6 0-1.4-1.2-2.6-2.6-2.6-.3 0-.6.1-.9.2l.3.7c.2-.1.4-.1.6-.1 1 0 1.9.8 1.9 1.9 0 1-.8 1.9-1.9 1.9-1 0-1.9-.8-1.9-1.9 0-2.2-1.8-4.1-4.1-4.1-2.2 0-4.1 1.8-4.1 4.1 0 2.2 1.8 4.1 4.1 4.1.6 0 1.2-.1 1.8-.4 1 1.2 2.5 1.9 4.2 1.9 3.3-.3 5.7-2.8 5.7-5.8zm-11.4.3c-.2 0-.4-.2-.4-.4s.2-.4.4-.4.4.2.4.4c-.1.3-.2.4-.4.4z"/><path class="st8" d="M156.3 909.8h7.1v1.1h-7.1zM157.5 913.7h-1c-1.1 0-2-.9-2-2s.9-2 2-2h1c1.1 0 2 .9 2 2s-.9 2-2 2zM163.3 913.7h-1c-1.1 0-2-.9-2-2s.9-2 2-2h1c1.1 0 2 .9 2 2 .1 1.1-.9 2-2 2z"/><path class="st12" d="M235.2 861.3h-88.2l88.2-37.8zM231.4 1038.5h-84.4l84.4-36.3zM379.8 1038.5h-78.2l78.2-36.3z"/><path class="st13" d="M147.3 683h43.1v7.2h-43.1z"/></g><path class="st16" d="M319.4 745.9l-18.9-32.7 18.9-32.8h37.8l18.9 32.8-18.9 32.7z"/><path d="M672.5 997.1h-111.4c-10.4 0-19-8.5-19-19v-281.8c0-10.4 8.5-19 19-19h111.5c10.4 0 19 8.5 19 19v281.8c-.1 10.4-8.6 19-19.1 19z"/><path class="st14" d="M554.6 715h124.5v244.4h-124.5z"/><defs><path id="SVGID_7_" d="M554.6 715h124.5v244.4h-124.5z"/></defs><clipPath id="SVGID_8_"><use xlink:href="#SVGID_7_" overflow="visible"/></clipPath><g class="st19"><path class="st3" d="M553 713.6h126v375.3h-126z"/><path class="st4" d="M553 713.6h126v41.7h-126z"/><path class="st18" d="M562.9 983h106.7v43.9h-106.7z"/><path class="st5" d="M562.9 1035.6h106.7v43.9h-106.7zM562.9 765.4h106.7v99.8h-106.7z"/><path class="st6" d="M600.6 873.6h68.9v8.8h-68.9zM600.6 891.7h68.9v8.8h-68.9zM600.6 909.7h68.9v8.8h-68.9zM600.6 927.7h68.9v8.8h-68.9zM600.6 945.8h68.9v8.8h-68.9zM600.6 963.8h68.9v8.8h-68.9z"/><circle class="st7" cx="578.5" cy="886.9" r="10.8"/><circle class="st8" cx="575" cy="883.7" r="1.4"/><circle class="st8" cx="582" cy="883.7" r="1.4"/><path class="st8" d="M584.6 890.4l-.5-.5c-1.5 1.4-3.4 2.2-5.4 2.2-2.1 0-4-.8-5.4-2.2l-.5.5c1.5 1.5 3.6 2.5 5.9 2.5 2.3 0 4.4-1 5.9-2.5z"/><path class="st5" d="M572.1 874.7h1.5v4.7h-1.5zM579.6 873.8h1.5v4.4h-1.5zM583.3 874.7h1.5v4.7h-1.5zM575.9 873.8h1.5v4.4h-1.5z"/><path class="st8" d="M584.2 949.5c-2.1 0-4.1.6-5.7 1.7-1.6-1.1-3.6-1.7-5.7-1.7-5.5 0-10 4.3-10 9.5 0 5.3 4.5 9.5 10 9.5 2.1 0 4.1-.6 5.7-1.7 1.6 1.1 3.6 1.7 5.7 1.7 5.5 0 10-4.3 10-9.5 0-5.3-4.5-9.5-10-9.5z"/><path class="st6" d="M571.1 952.3c-3.7 0-6.7 3-6.7 6.7s3 6.7 6.7 6.7 6.7-3 6.7-6.7c.1-3.7-2.9-6.7-6.7-6.7zm0 12.3c-3 0-5.5-2.5-5.5-5.5s2.5-5.5 5.5-5.5 5.5 2.5 5.5 5.5-2.4 5.5-5.5 5.5zM571.1 954.8c-2.4 0-4.3 1.9-4.3 4.3s1.9 4.3 4.3 4.3 4.3-1.9 4.3-4.3-1.9-4.3-4.3-4.3zm0 7.3c-1.7 0-3.1-1.4-3.1-3.1 0-1.7 1.4-3.1 3.1-3.1 1.7 0 3.1 1.4 3.1 3.1 0 1.8-1.4 3.1-3.1 3.1zM571.1 957.2c-1 0-1.8.8-1.8 1.8s.8 1.8 1.8 1.8 1.8-.8 1.8-1.8c.1-.9-.8-1.8-1.8-1.8zm0 2.5c-.3 0-.6-.3-.6-.6s.3-.6.6-.6.6.3.6.6-.2.6-.6.6zM585.8 949.9c-3 0-5.7 1.4-7.3 3.7-1.7-2.2-4.3-3.7-7.3-3.7-5.1 0-9.2 4.1-9.2 9.2s4.1 9.2 9.2 9.2c3 0 5.7-1.4 7.3-3.7 1.7 2.2 4.3 3.7 7.3 3.7 5.1 0 9.2-4.1 9.2-9.2s-4.1-9.2-9.2-9.2zm0 17.1c-2.8 0-5.2-1.4-6.6-3.6-.3-.4-.5-.9-.7-1.3-.2.5-.4.9-.7 1.3-1.4 2.1-3.9 3.6-6.6 3.6-4.4 0-8-3.6-8-8s3.6-8 8-8c2.8 0 5.2 1.4 6.6 3.6.3.4.5.9.7 1.3.2-.5.4-.9.7-1.3 1.4-2.1 3.9-3.6 6.6-3.6 4.4 0 8 3.6 8 8 0 4.5-3.6 8-8 8zM585.8 952.3c-3.7 0-6.7 3-6.7 6.7s3 6.7 6.7 6.7 6.7-3 6.7-6.7c.1-3.7-3-6.7-6.7-6.7zm0 12.3c-3 0-5.5-2.5-5.5-5.5s2.5-5.5 5.5-5.5 5.5 2.5 5.5 5.5-2.4 5.5-5.5 5.5zM585.8 954.8c-2.4 0-4.3 1.9-4.3 4.3s1.9 4.3 4.3 4.3 4.3-1.9 4.3-4.3-1.9-4.3-4.3-4.3zm0 7.3c-1.7 0-3.1-1.4-3.1-3.1 0-1.7 1.4-3.1 3.1-3.1 1.7 0 3.1 1.4 3.1 3.1 0 1.8-1.4 3.1-3.1 3.1zM585.8 957.2c-1 0-1.8.8-1.8 1.8s.8 1.8 1.8 1.8 1.8-.8 1.8-1.8c.1-.9-.8-1.8-1.8-1.8zm0 2.5c-.3 0-.6-.3-.6-.6s.3-.6.6-.6.6.3.6.6-.2.6-.6.6z"/><circle class="st9" cx="578.5" cy="964.7" r="9.2"/><circle class="st8" cx="575.5" cy="962" r="1.2"/><circle class="st8" cx="581.5" cy="962" r="1.2"/><path class="st8" d="M583.7 967.7l-.4-.4c-1.2 1.2-2.9 1.9-4.6 1.9-1.8 0-3.4-.7-4.6-1.9l-.4.4c1.3 1.3 3.1 2.1 5.1 2.1 1.8 0 3.6-.8 4.9-2.1zM582.4 945.7c-1.5 0-2.8.5-3.9 1.2-1.1-.8-2.5-1.2-3.9-1.2-3.8 0-6.9 3.1-6.9 6.9s3.1 6.9 6.9 6.9c1.5 0 2.8-.5 3.9-1.2 1.1.8 2.5 1.2 3.9 1.2 3.8 0 6.9-3.1 6.9-6.9s-3.1-6.9-6.9-6.9z"/><path class="st6" d="M589.8 952.6c0-4.1-3.3-7.4-7.4-7.4-1.4 0-2.8.4-3.9 1.1l.9.6c.9-.5 2-.8 3.1-.8 3.5 0 6.4 2.9 6.4 6.4 0 3.5-2.9 6.4-6.4 6.4-3.5 0-6.4-2.9-6.4-6.4 0-.8-.7-1.5-1.5-1.5s-1.5.7-1.5 1.5.7 1.5 1.5 1.5c.2 0 .4 0 .6-.1.2 1 .6 1.9 1.1 2.7-.5.2-1.1.3-1.7.3-2.4 0-4.4-2-4.4-4.4 0-2.4 2-4.4 4.4-4.4 2.4 0 4.4 2 4.4 4.4 0 1.9 1.5 3.4 3.4 3.4s3.4-1.5 3.4-3.4-1.5-3.4-3.4-3.4c-.4 0-.8.1-1.2.2l.4.9c.3-.1.6-.2.9-.2 1.4 0 2.5 1.1 2.5 2.5s-1.1 2.5-2.5 2.5-2.5-1.1-2.5-2.5c0-3-2.4-5.4-5.4-5.4-3 0-5.4 2.4-5.4 5.4 0 3 2.4 5.4 5.4 5.4.8 0 1.6-.2 2.3-.5 1.4 1.5 3.3 2.5 5.5 2.5 4.1.1 7.4-3.2 7.4-7.3zm-15.3.5c-.3 0-.5-.2-.5-.5s.2-.5.5-.5.5.2.5.5-.2.5-.5.5zM587.8 952.6c0-3-2.4-5.4-5.4-5.4-.8 0-1.6.2-2.3.5-1.4-1.5-3.3-2.5-5.5-2.5-4.1 0-7.4 3.3-7.4 7.4 0 4.1 3.3 7.4 7.4 7.4 1.4 0 2.8-.4 3.9-1.1l-.9-.6c-.9.5-2 .8-3.1.8-3.5 0-6.4-2.9-6.4-6.4 0-3.5 2.9-6.4 6.4-6.4 3.5 0 6.4 2.9 6.4 6.4 0 .8.7 1.5 1.5 1.5s1.5-.7 1.5-1.5-.7-1.5-1.5-1.5c-.2 0-.4 0-.6.1-.2-1-.6-1.9-1.1-2.7.5-.2 1.1-.3 1.7-.3 2.4 0 4.4 2 4.4 4.4 0 2.4-2 4.4-4.4 4.4-2.4 0-4.4-2-4.4-4.4 0-1.9-1.5-3.4-3.4-3.4s-3.4 1.5-3.4 3.4 1.5 3.4 3.4 3.4c.4 0 .8-.1 1.2-.2l-.4-.9c-.3.1-.6.2-.9.2-1.4 0-2.5-1.1-2.5-2.5s1.1-2.5 2.5-2.5 2.5 1.1 2.5 2.5c0 3 2.4 5.4 5.4 5.4 3-.1 5.4-2.5 5.4-5.5zm-5.4-.4c.3 0 .5.2.5.5s-.2.5-.5.5-.5-.2-.5-.5.2-.5.5-.5z"/><path class="st8" d="M582.5 911.1c-1.5 0-2.9.6-4 1.8-1.1-1.1-2.5-1.8-4-1.8-3.9 0-7 4.4-7 9.9s3.2 9.9 7 9.9c1.5 0 2.9-.6 4-1.8 1.1 1.1 2.5 1.8 4 1.8 3.9 0 7-4.4 7-9.9s-3.1-9.9-7-9.9z"/><circle class="st10" cx="579.2" cy="928" r="9.2"/><circle class="st8" cx="576.2" cy="925.2" r="1.2"/><circle class="st8" cx="582.3" cy="925.2" r="1.2"/><path class="st8" d="M584.5 931l-.4-.4c-1.2 1.2-2.9 1.9-4.7 1.9-1.8 0-3.4-.7-4.7-1.9l-.4.4c1.3 1.3 3.1 2.1 5.1 2.1 2 0 3.8-.8 5.1-2.1zM582.1 910.1c-1.3 0-2.6.4-3.6 1.1-1-.7-2.3-1.1-3.6-1.1-3.5 0-6.3 2.8-6.3 6.3s2.8 6.3 6.3 6.3c1.3 0 2.6-.4 3.6-1.1 1 .7 2.3 1.1 3.6 1.1 3.5 0 6.3-2.8 6.3-6.3s-2.8-6.3-6.3-6.3z"/><path class="st11" d="M588.8 916.4c0-3.7-3-6.7-6.7-6.7-1.3 0-2.5.4-3.6 1l.8.6c.8-.5 1.8-.7 2.8-.7 3.2 0 5.8 2.6 5.8 5.8 0 3.2-2.6 5.8-5.8 5.8-3.2 0-5.8-2.6-5.8-5.8 0-.7-.6-1.3-1.3-1.3-.7 0-1.3.6-1.3 1.3 0 .7.6 1.3 1.3 1.3.2 0 .4 0 .6-.1.2.9.5 1.8 1 2.5-.5.2-1 .3-1.6.3-2.2 0-4-1.8-4-4s1.8-4 4-4 4 1.8 4 4c0 1.7 1.4 3.1 3.1 3.1 1.7 0 3.1-1.4 3.1-3.1 0-1.7-1.4-3.1-3.1-3.1-.4 0-.8.1-1.1.2l.3.8c.2-.1.5-.1.8-.1 1.2 0 2.2 1 2.2 2.2 0 1.2-1 2.2-2.2 2.2s-2.2-1-2.2-2.2c0-2.7-2.2-4.9-4.9-4.9s-4.9 2.2-4.9 4.9 2.2 4.9 4.9 4.9c.8 0 1.5-.2 2.1-.5 1.2 1.4 3 2.3 5 2.3 3.7 0 6.7-3 6.7-6.7zm-13.9.4c-.2 0-.4-.2-.4-.4s.2-.4.4-.4.4.2.4.4c.1.2-.1.4-.4.4z"/><path class="st8" d="M574.1 924h8.6v1.3h-8.6zM575.6 928.6h-1.2c-1.3 0-2.4-1.1-2.4-2.4 0-1.3 1.1-2.4 2.4-2.4h1.2c1.3 0 2.4 1.1 2.4 2.4 0 1.3-1.1 2.4-2.4 2.4zM582.6 928.6h-1.2c-1.3 0-2.4-1.1-2.4-2.4 0-1.3 1.1-2.4 2.4-2.4h1.2c1.3 0 2.4 1.1 2.4 2.4.1 1.3-1 2.4-2.4 2.4z"/><path class="st12" d="M669.5 865.3h-106.6l106.6-45.8zM669.5 1079.6h-106.6l106.6-44z"/><path class="st13" d="M566.5 725.7h52.1v8.8h-52.1z"/></g><path class="st16" d="M645.2 747l-6.4-11 6.4-11h12.7l6.3 11-6.3 11z"/></svg>