<?xml version="1.0" encoding="utf-8"?>
<!-- Generator: Adobe Illustrator 19.0.0, SVG Export Plug-In . SVG Version: 6.00 Build 0)  -->
<svg version="1.1" id="Layer_1" xmlns="http://www.w3.org/2000/svg" xmlns:xlink="http://www.w3.org/1999/xlink" x="0px" y="0px"
	 width="427.7px" height="596.7px" viewBox="0 0 427.7 596.7" style="enable-background:new 0 0 427.7 596.7;" xml:space="preserve"
	>
<style type="text/css">
	.st0{fill:#FFFFFF;stroke:#363636;stroke-width:0.5078;stroke-miterlimit:10;}
	.st1{fill:#6D6E70;}
	.st2{fill:#AFB1B3;}
</style>
<rect id="XMLID_28_" x="3" y="4.8" class="st0" width="421.6" height="587.1"/>
<rect id="XMLID_27_" x="44.4" y="43.8" class="st1" width="339" height="121.3"/>
<rect id="XMLID_26_" x="44.4" y="437.5" class="st1" width="339" height="52.9"/>
<rect id="XMLID_25_" x="44.4" y="500.9" class="st2" width="122.9" height="52.9"/>
<rect id="XMLID_24_" x="180.6" y="500.9" class="st2" width="73.1" height="52.9"/>
<rect id="XMLID_23_" x="267" y="500.9" class="st2" width="116.3" height="52.9"/>
<rect id="XMLID_22_" x="44.4" y="175.6" class="st2" width="128.4" height="120.2"/>
<rect id="XMLID_21_" x="183.3" y="175.6" class="st2" width="202" height="10.5"/>
<rect id="XMLID_20_" x="183.3" y="197.3" class="st2" width="202" height="10.5"/>
<rect id="XMLID_19_" x="183.3" y="219" class="st2" width="202" height="10.5"/>
<rect id="XMLID_18_" x="183.3" y="240.8" class="st2" width="202" height="10.5"/>
<rect id="XMLID_17_" x="183.3" y="262.5" class="st2" width="202" height="10.5"/>
<rect id="XMLID_16_" x="183.3" y="284.2" class="st2" width="202" height="10.5"/>
<rect id="XMLID_15_" x="183.3" y="305.9" class="st2" width="202" height="10.5"/>
<rect id="XMLID_14_" x="183.3" y="327.6" class="st2" width="202" height="10.5"/>
<rect id="XMLID_13_" x="183.3" y="349.3" class="st2" width="202" height="10.5"/>
<rect id="XMLID_12_" x="183.3" y="371" class="st2" width="202" height="10.5"/>
<rect id="XMLID_11_" x="183.3" y="392.7" class="st2" width="202" height="10.5"/>
<rect id="XMLID_10_" x="183.3" y="414.4" class="st2" width="202" height="10.5"/>
<rect id="XMLID_9_" x="44.4" y="305.9" class="st2" width="34.9" height="32.7"/>
<rect id="XMLID_8_" x="89.8" y="305.9" class="st2" width="82.9" height="10.5"/>
<rect id="XMLID_7_" x="89.8" y="327.6" class="st2" width="82.9" height="10.5"/>
<rect id="XMLID_6_" x="44.4" y="349.3" class="st2" width="34.9" height="32.7"/>
<rect id="XMLID_5_" x="89.8" y="349.3" class="st2" width="82.9" height="10.5"/>
<rect id="XMLID_4_" x="89.8" y="371" class="st2" width="82.9" height="10.5"/>
<rect id="XMLID_3_" x="44.4" y="392.7" class="st2" width="34.9" height="32.7"/>
<rect id="XMLID_2_" x="89.8" y="392.7" class="st2" width="82.9" height="10.5"/>
<rect id="XMLID_1_" x="89.8" y="414.4" class="st2" width="82.9" height="10.5"/>
</svg>
