<svg id="7774bef8-a64b-4725-862d-43961f32b02b" data-name="Layer 1" xmlns="http://www.w3.org/2000/svg" xmlns:xlink="http://www.w3.org/1999/xlink" viewBox="0 0 2000 500"><defs><clipPath id="e47f239f-2db5-4f0a-8cc2-67c736b79fff"><rect x="1520.1" y="21.7" width="459.2" height="259.22" style="fill:none"/></clipPath><clipPath id="287e0c87-fb6a-4fcd-ba60-fbdb9be670c9"><rect x="1819.2" y="198.4" width="144.9" height="198.27" style="fill:none"/></clipPath><clipPath id="3358d53e-250e-4606-91d3-78108ce34aa1"><rect x="1559.1" y="332.6" width="145.2" height="106.13" style="fill:none"/></clipPath><clipPath id="0439c84f-5fca-4c87-ae17-9851e501d780"><rect x="1777.7" y="358.6" width="62.4" height="122.52" style="fill:none"/></clipPath></defs><title>Artboard 1</title><path d="M1828,367.4h-150a2.9,2.9,0,1,1,0-5.8h150a2.9,2.9,0,1,1,0,5.8ZM1675,363.6l75.3-342,75.3,342Z" style="fill:#6d6e70"/><path d="M1987,302.5H1512.5a13.1,13.1,0,0,1-13-13V13a13.1,13.1,0,0,1,13-13H1987a13.1,13.1,0,0,1,13,13V289.5A13.1,13.1,0,0,1,1987,302.5Z"/><path d="M1520.1,21.7h459.2V280.9H1520.1Z" style="fill:#b1b3b5"/><g style="clip-path:url(#e47f239f-2db5-4f0a-8cc2-67c736b79fff)"><path d="M1566.8,36.2h365.6V402.3H1566.8Z" style="fill:#fff"/><path d="M1566.8,36.2h365.8V174.9H1566.8Z" style="fill:#009ff0"/><path d="M1602.7,184.4H1714V288.6H1602.7Z" style="fill:#3299d6"/><path d="M1723.1,184.4h175.2v20.7H1723.1Zm0,18.8h175.2v9.1H1723.1Zm0,18.8h175.2v9.1H1723.1Zm0,18.8h175.2V250H1723.1Zm0,18.8h175.2v9.1H1723.1Zm0,18.8h175.2v9.1H1723.1Zm0,18.8h175.2v9.1H1723.1Zm0,18.8h175.2v9.1H1723.1Zm0,18.8h175.2v9.1H1723.1Zm0,18.8h175.2v9.1H1723.1Zm0,18.8h175.2v9.1H1723.1Zm0,18.8h175.2v9.1H1723.1Z" style="fill:#6d6e70"/><path d="M1642.1,297.3H1714v9.1h-71.9Zm0,18.8H1714v9.1h-71.9Zm0,18.8H1714v9.1h-71.9Zm0,18.8H1714v9.1h-71.9Zm0,18.8H1714v9.1h-71.9Zm0,18.8H1714v9.1h-71.9Z" style="fill:#afb1b3"/><circle cx="1619" cy="311.2" r="11.2" style="fill:#e5b062"/><circle cx="1615.3" cy="307.9" r="1.5" style="fill:#363636"/><circle cx="1622.7" cy="307.9" r="1.5" style="fill:#363636"/><path d="M1625.3,314.8l-.5-.5a8,8,0,0,1-11.3,0l-.5.5a8.7,8.7,0,0,0,12.3,0Z" style="fill:#363636"/><path d="M1612.3,298.4h1.6v4.9h-1.6Zm7.8-.9h1.6v4.6h-1.6Zm3.9.9h1.6v4.9H1624Zm-7.8-.9h1.6v4.6h-1.6Z" style="fill:#3299d6"/><path d="M1624.9,376.5a11,11,0,0,1-11.9,0,10,10,0,1,0,0,20,11,11,0,0,1,11.9,0,10,10,0,1,0,0-20Z" style="fill:#363636"/><path d="M1611.3,379.5a7,7,0,1,0,7,7A7,7,0,0,0,1611.3,379.5Zm0,12.8a5.8,5.8,0,1,1,5.8-5.8A5.8,5.8,0,0,1,1611.3,392.3Zm0-10.2a4.5,4.5,0,1,0,4.5,4.5A4.5,4.5,0,0,0,1611.3,382Zm0,7.7a3.2,3.2,0,1,1,3.2-3.2A3.3,3.3,0,0,1,1611.3,389.7Zm0-5.1a1.9,1.9,0,1,0,1.9,1.9A1.9,1.9,0,0,0,1611.3,384.6Zm0,2.6a.7.7,0,1,1,.7-.7A.7.7,0,0,1,1611.3,387.2Zm15.3-10.2a9.6,9.6,0,0,1-15.3,0,18.9,18.9,0,1,0,15.3,0Zm0,17.9a8.2,8.2,0,0,1-6.9-3.7.9.9,0,1,0-1.5,0,8.3,8.3,0,1,1,0-9.2.9.9,0,1,0,1.5,0,8.3,8.3,0,0,1,15.2,4.6,8.4,8.4,0,0,1-8.3,8.3Zm0-15.3a7,7,0,1,0,7,7,7,7,0,0,0-7-7Zm0,12.8a5.8,5.8,0,1,1,5.8-5.8,5.8,5.8,0,0,1-5.8,5.8Zm0-10.2a4.5,4.5,0,1,0,4.5,4.5,4.5,4.5,0,0,0-4.5-4.5Zm0,7.7a3.2,3.2,0,1,1,3.2-3.2,3.3,3.3,0,0,1-3.2,3.2Zm0-5.1a1.9,1.9,0,1,0,1.9,1.9A1.9,1.9,0,0,0,1626.6,384.6Zm0,2.6a.7.7,0,1,1,.7-.7A.7.7,0,0,1,1626.6,387.2Z" style="fill:#afb1b3"/><circle cx="1619" cy="392.4" r="9.6" style="fill:#ffb01f"/><circle cx="1615.9" cy="389.6" r="1.3" style="fill:#363636"/><circle cx="1622.1" cy="389.6" r="1.3" style="fill:#363636"/><path d="M1624.4,395.5l-.5-.5a6.8,6.8,0,0,1-4.8,2,6.9,6.9,0,0,1-4.9-2l-.5.5a7.4,7.4,0,0,0,5.3,2.2,7.8,7.8,0,0,0,5.3-2.2Zm-1.4-23a7.2,7.2,0,0,0-4.1,1.3,7.1,7.1,0,0,0-4.1-1.3,7.2,7.2,0,1,0,4.1,13.2,7.1,7.1,0,0,0,4.1,1.3,7.2,7.2,0,0,0,0-14.4Z" style="fill:#363636"/><path d="M1630.7,379.8a7.7,7.7,0,0,0-11.8-6.5l.9.7a6.9,6.9,0,0,1,3.2-.8,6.7,6.7,0,1,1-6.7,6.7,1.6,1.6,0,1,0-1.6,1.6l.7-.2a8,8,0,0,0,1.2,2.9,4.3,4.3,0,0,1-1.8.4,4.6,4.6,0,1,1,4.6-4.6,3.6,3.6,0,1,0,3.6-3.6l-1.3.3a5.4,5.4,0,0,1,.4,1l.9-.2a2.6,2.6,0,1,1-2.6,2.6,5.7,5.7,0,1,0-5.7,5.7,5.9,5.9,0,0,0,2.5-.6,7.6,7.6,0,0,0,5.8,2.6,7.8,7.8,0,0,0,7.7-7.8Zm-15.9.6a.5.5,0,0,1,0-1,.5.5,0,1,1,0,1Zm13.8-.6a5.7,5.7,0,0,0-5.7-5.7,5.9,5.9,0,0,0-2.5.6,7.7,7.7,0,1,0-5.8,12.7,7.7,7.7,0,0,0,4.1-1.2l-.9-.7a6.9,6.9,0,0,1-3.2.8,6.7,6.7,0,1,1,6.7-6.7,1.6,1.6,0,1,0,1.6-1.6l-.7.2a8,8,0,0,0-1.2-2.9,4.3,4.3,0,0,1,1.8-.4,4.6,4.6,0,1,1-4.6,4.6,3.6,3.6,0,1,0-3.6,3.6l1.3-.3a5.4,5.4,0,0,1-.4-1l-.9.2a2.6,2.6,0,1,1,2.6-2.6,5.7,5.7,0,0,0,5.7,5.7,5.5,5.5,0,0,0,5.7-5.6Zm-5.7-.5a.5.5,0,1,1,0,1,.5.5,0,0,1,0-1Z" style="fill:#afb1b3"/><path d="M1623.1,336.5a5.9,5.9,0,0,0-4.2,1.8,5.9,5.9,0,0,0-4.2-1.8c-4.1,0-7.4,4.7-7.4,10.4s3.3,10.4,7.4,10.4a5.9,5.9,0,0,0,4.2-1.8,5.9,5.9,0,0,0,4.2,1.8c4.1,0,7.4-4.7,7.4-10.4S1627.2,336.5,1623.1,336.5Z" style="fill:#363636"/><circle cx="1619.7" cy="354.1" r="9.7" style="fill:#d18516"/><circle cx="1616.6" cy="351.2" r="1.3" style="fill:#363636"/><circle cx="1622.9" cy="351.2" r="1.3" style="fill:#363636"/><path d="M1625.2,357.2l-.5-.5a6.9,6.9,0,0,1-9.7,0l-.5.5a7.5,7.5,0,0,0,5.3,2.2,7.6,7.6,0,0,0,5.3-2.2Zm-2.5-21.8a6.9,6.9,0,0,0-3.8,1.2,6.4,6.4,0,0,0-3.8-1.2,6.6,6.6,0,1,0,0,13.1,6.9,6.9,0,0,0,3.8-1.2,6.4,6.4,0,0,0,3.8,1.2,6.6,6.6,0,1,0,0-13.1Z" style="fill:#363636"/><path d="M1629.7,341.9a7,7,0,0,0-10.8-5.9l.8.6a6.3,6.3,0,0,1,2.9-.8,6.1,6.1,0,1,1-6.1,6.1,1.4,1.4,0,1,0-1.4,1.4l.6-.2a7,7,0,0,0,1.1,2.6,4.4,4.4,0,0,1-1.7.4,4.2,4.2,0,1,1,4.2-4.2,3.3,3.3,0,1,0,3.3-3.3l-1.2.2.4.9.8-.2a2.4,2.4,0,1,1-2.4,2.4,5.2,5.2,0,1,0-5.2,5.2,5.3,5.3,0,0,0,2.2-.5,7.1,7.1,0,0,0,12.4-4.7Zm-14.4.5a.5.5,0,1,1,.5-.5A.4.4,0,0,1,1615.2,342.4Z" style="fill:#272425"/><path d="M1614.3,349.9h9v1.4h-9Zm1.6,4.9h-1.3a2.6,2.6,0,1,1,0-5.1h1.3a2.6,2.6,0,1,1,0,5.1Zm7.4,0H1622a2.6,2.6,0,1,1,0-5.1h1.3a2.6,2.6,0,1,1,0,5.1Z" style="fill:#363636"/><path d="M1714,288.6H1602.7L1714,240.9Z" style="fill:#1c5daa"/><path d="M1603,63.5h54.4v9.1H1603Z" style="fill:#fbfcf6"/></g><path d="M1960.5,415.3H1822.7a11,11,0,0,1-11-11V190.8a11,11,0,0,1,11-11h137.8a11,11,0,0,1,11,11V404.4a11,11,0,0,1-11,11Z"/><path d="M1819.2,198.4h144.9V396.7H1819.2Z" style="fill:#fbfbf6"/><g style="clip-path:url(#287e0c87-fb6a-4fcd-ba60-fbdb9be670c9)"><path d="M1819.3,197.5h144.9V414.9H1819.3Z" style="fill:#fff"/><path d="M1819.3,197.5h145v54.9h-145Z" style="fill:#009ff0"/><path d="M1833.5,346.3H1950v18.2H1833.5Z" style="fill:#0057b8"/><path d="M1833.5,368.1h42.2v18.2h-42.2Zm46.8,0h25.1v18.2h-25.1Zm29.7,0h40v18.2h-40Zm-76.5-111.8h44.1v41.3h-44.1Z" style="fill:#3299d6"/><path d="M1881.2,256.2h69.4v8.2h-69.4Zm0,7.5h69.4v3.6h-69.4Zm0,7.5h69.4v3.6h-69.4Zm0,7.5h69.4v3.6h-69.4Zm0,7.5h69.4v3.6h-69.4Zm0,7.5h69.4v3.6h-69.4Zm0,7.4h69.4v3.6h-69.4Zm0,7.5h69.4v3.6h-69.4Zm0,7.5h69.4v3.6h-69.4Zm0,7.5h69.4V327h-69.4Zm0,7.5h69.4v3.6h-69.4Zm0,7.5h69.4v3.6h-69.4Z" style="fill:#6d6e70"/><path d="M1849.2,301h28.5v3.6h-28.5Zm0,7.5h28.5v3.6h-28.5Zm0,7.5h28.5v3.6h-28.5Zm0,7.5h28.5V327h-28.5Zm0,7.5h28.5v3.6h-28.5Zm0,7.5h28.5v3.6h-28.5Z" style="fill:#afb1b3"/><circle cx="1840" cy="306.5" r="4.5" style="fill:#e5b062"/><circle cx="1838.5" cy="305.2" r="0.6" style="fill:#363636"/><circle cx="1841.4" cy="305.2" r="0.6" style="fill:#363636"/><path d="M1842.5,308l-.2-.2a3.1,3.1,0,0,1-2.3.9,3.2,3.2,0,0,1-2.3-1l-.2.3a3.4,3.4,0,0,0,2.5,1,3.5,3.5,0,0,0,2.5-1Z" style="fill:#363636"/><path d="M1837.3,301.4h.6v2h-.6Zm3.1-.4h.6v1.8h-.6Zm1.6.4h.6v2h-.6Zm-3.1-.4h.6v1.8h-.6Z" style="fill:#3299d6"/><path d="M1842.3,332.4a4.3,4.3,0,0,1-4.7,0,4,4,0,1,0,0,7.9,4.3,4.3,0,0,1,4.7,0,4,4,0,0,0,4.2-4A4.1,4.1,0,0,0,1842.3,332.4Z" style="fill:#363636"/><path d="M1836.9,333.6a2.8,2.8,0,1,0,2.8,2.8A2.8,2.8,0,0,0,1836.9,333.6Zm0,5.1a2.3,2.3,0,0,1-2.3-2.3,2.3,2.3,0,0,1,4.6,0A2.3,2.3,0,0,1,1836.9,338.6Zm0-4.1a1.8,1.8,0,1,0,0,3.5,1.8,1.8,0,0,0,1.8-1.8A1.7,1.7,0,0,0,1836.9,334.6Zm0,3.1a1.3,1.3,0,1,1,1.3-1.3A1.2,1.2,0,0,1,1836.9,337.6Zm0-2.1a.8.8,0,1,0,.8.8A.8.8,0,0,0,1836.9,335.6Zm0,1.1a.3.3,0,1,1,.3-.3A.3.3,0,0,1,1836.9,336.6Zm6.1-4.1a3.9,3.9,0,0,1-6.1,0,3.8,3.8,0,1,0,0,7.6,3.9,3.9,0,0,1,6.1,0,3.8,3.8,0,1,0,0-7.6Zm0,7.1a3.4,3.4,0,0,1-2.8-1.5l-.3-.6-.3.6a3.3,3.3,0,0,1-2.8,1.5,3.3,3.3,0,0,1,0-6.6,3.4,3.4,0,0,1,2.8,1.5l.3.6.3-.6a3.3,3.3,0,0,1,2.8-1.5,3.3,3.3,0,0,1,0,6.6Zm0-6.1a2.8,2.8,0,1,0,2.8,2.8A2.8,2.8,0,0,0,1843,333.6Zm0,5.1a2.3,2.3,0,0,1-2.3-2.3,2.3,2.3,0,0,1,4.6,0A2.3,2.3,0,0,1,1843,338.6Zm0-4.1a1.8,1.8,0,1,0,1.8,1.8A1.7,1.7,0,0,0,1843,334.6Zm0,3.1a1.3,1.3,0,1,1,1.3-1.3A1.2,1.2,0,0,1,1843,337.6Zm0-2.1a.8.8,0,1,0,.8.8A.7.7,0,0,0,1843,335.6Zm0,1.1a.3.3,0,1,1,.3-.3A.3.3,0,0,1,1843,336.6Z" style="fill:#afb1b3"/><circle cx="1840" cy="338.7" r="3.8" style="fill:#ffb01f"/><circle cx="1838.7" cy="337.6" r="0.5" style="fill:#363636"/><circle cx="1841.2" cy="337.6" r="0.5" style="fill:#363636"/><path d="M1842.1,339.9l-.2-.2a2.7,2.7,0,0,1-3.8,0l-.2.2a2.9,2.9,0,0,0,4.1,0Zm-.6-9.1a2.8,2.8,0,0,1-3.2,0,2.9,2.9,0,0,0,0,5.7,2.8,2.8,0,0,1,3.2,0,2.9,2.9,0,0,0,0-5.7Z" style="fill:#363636"/><path d="M1844.6,333.7a3,3,0,0,0-3.1-3.1,2.9,2.9,0,0,0-1.6.5l.4.3a2.7,2.7,0,0,1,1.3-.3,2.7,2.7,0,1,1-2.7,2.7.6.6,0,1,0-.6.6h.3a4.6,4.6,0,0,0,.5,1.2l-.7.2a1.8,1.8,0,1,1,1.8-1.8,1.4,1.4,0,0,0,1.4,1.4,1.4,1.4,0,0,0,1.4-1.4,1.4,1.4,0,0,0-1.4-1.4h-.5l.2.4h.4a1,1,0,1,1-1,1,2.3,2.3,0,1,0-2.3,2.3l1-.2a3,3,0,0,0,2.3,1.1,3.4,3.4,0,0,0,3.1-3.2Zm-6.3.2a.2.2,0,1,1,.2-.2A.2.2,0,0,1,1838.3,333.9Zm5.5-.2a2.2,2.2,0,0,0-2.3-2.3l-1,.2a3,3,0,0,0-2.3-1.1,3.1,3.1,0,0,0,0,6.1,2.9,2.9,0,0,0,1.6-.5l-.4-.3a2.7,2.7,0,0,1-1.3.3,2.7,2.7,0,1,1,2.7-2.7.6.6,0,1,0,.6-.6h-.3a4.6,4.6,0,0,0-.5-1.2l.7-.2a1.8,1.8,0,1,1-1.8,1.8,1.4,1.4,0,1,0-1.4,1.4h.5l-.2-.4h-.4a1,1,0,1,1,1-1,2.2,2.2,0,0,0,2.3,2.3,2.1,2.1,0,0,0,2.2-2.1Zm-2.3-.2a.2.2,0,1,1-.2.2A.2.2,0,0,1,1841.6,333.5Z" style="fill:#afb1b3"/><path d="M1841.6,316.5a2.3,2.3,0,0,1-3.3,0c-1.6,0-2.9,1.9-2.9,4.1s1.3,4.1,2.9,4.1a2.3,2.3,0,0,1,3.3,0c1.6,0,2.9-1.9,2.9-4.1S1843.2,316.5,1841.6,316.5Z" style="fill:#363636"/><circle cx="1840.3" cy="323.5" r="3.8" style="fill:#d18516"/><circle cx="1839" cy="322.3" r="0.5" style="fill:#363636"/><circle cx="1841.5" cy="322.3" r="0.5" style="fill:#363636"/><path d="M1842.4,324.7l-.2-.2a2.7,2.7,0,0,1-1.9.8,2.9,2.9,0,0,1-2-.8l-.2.2a3,3,0,0,0,2.1.9,2.9,2.9,0,0,0,2.2-.9Zm-1-8.7a2.7,2.7,0,0,0-1.5.5,2.5,2.5,0,0,0-1.5-.5,2.6,2.6,0,1,0,0,5.2,2.7,2.7,0,0,0,1.5-.5,2.5,2.5,0,0,0,1.5.5,2.6,2.6,0,1,0,0-5.2Z" style="fill:#363636"/><path d="M1844.2,318.7a2.7,2.7,0,0,0-2.8-2.8,2.7,2.7,0,0,0-1.5.5l.3.3a2.3,2.3,0,0,1,1.2-.3,2.4,2.4,0,1,1-2.4,2.4.6.6,0,1,0-.6.6h.3a3,3,0,0,0,.4,1.1l-.7.2a1.7,1.7,0,1,1,1.7-1.7,1.3,1.3,0,1,0,1.3-1.3h-.5l.2.4h.3a.9.9,0,1,1-.9.9,2.1,2.1,0,1,0-2.1,2.1l.9-.2a2.7,2.7,0,0,0,2.1,1,3,3,0,0,0,2.8-2.9Zm-5.8.2a.2.2,0,1,1,.2-.2A.2.2,0,0,1,1838.5,318.9Z" style="fill:#272425"/><path d="M1838.1,321.8h3.6v.6h-3.6Zm.7,1.9h-.5a1,1,0,1,1,0-2h.5a1,1,0,1,1,0,2Zm2.9,0h-.5a1,1,0,0,1,0-2h.5a1,1,0,1,1,0,2Z" style="fill:#363636"/><path d="M1877.6,297.6h-44.1l44.1-18.9Zm-1.9,88.6h-42.2l42.2-18.1Zm74.3,0h-39.2l39.2-18.1Z" style="fill:#1c5daa"/><path d="M1833.6,208.3h21.6V212h-21.6Z" style="fill:#fbfcf6"/></g><path d="M1839.8,140.7l-20.3-35.1,20.3-35.1h40.5l20.3,35.1-20.3,35.1ZM1927.2,241l-8.7-15,8.7-15h17.3l8.7,15-8.7,15Z" style="fill:#0057b8"/><path d="M1717.7,335.5V436.1a8,8,0,0,1-8,8h-156a8,8,0,0,1-8-8V335.5a8,8,0,0,1,8-8h156A8,8,0,0,1,1717.7,335.5Z"/><path d="M1559.3,332.9h144.8V438.7H1559.3Z" style="fill:#fbfbf6"/><g style="clip-path:url(#3358d53e-250e-4606-91d3-78108ce34aa1)"><path d="M1559.2,331.7h145.2V549.5H1559.2Z" style="fill:#fff"/><path d="M1559.2,331.7h145.3v55H1559.2Z" style="fill:#009ff0"/><path d="M1573.4,480.7h116.7v18.2H1573.4Z" style="fill:#f35e37"/><path d="M1573.4,502.6h42.3v18.2h-42.3Zm46.9,0h25.2v18.2h-25.2Zm29.8,0h40.1v18.2h-40.1Zm-76.7-112h44.2v41.4h-44.2Z" style="fill:#3299d6"/><path d="M1621.2,390.5h69.6v8.2h-69.6Zm0,7.5h69.6v3.6h-69.6Zm0,7.5h69.6v3.6h-69.6Zm0,7.5h69.6v3.6h-69.6Zm0,7.5h69.6v3.6h-69.6Zm0,7.5h69.6v3.6h-69.6Zm0,7.5h69.6V439h-69.6Zm0,7.5h69.6v3.6h-69.6Zm0,7.5h69.6v3.6h-69.6Zm0,7.5h69.6v3.6h-69.6Zm0,7.5h69.6v3.6h-69.6Zm0,7.5h69.6v3.6h-69.6Z" style="fill:#6d6e70"/><path d="M1589,435.4h28.6V439H1589Zm0,7.5h28.6v3.6H1589Zm0,7.5h28.6v3.6H1589Zm0,7.5h28.6v3.6H1589Zm0,7.5h28.6v3.6H1589Zm0,7.5h28.6v3.6H1589Z" style="fill:#afb1b3"/><circle cx="1579.9" cy="440.9" r="4.5" style="fill:#e5b062"/><circle cx="1578.5" cy="439.6" r="0.6" style="fill:#363636"/><circle cx="1581.3" cy="439.6" r="0.6" style="fill:#363636"/><path d="M1582.4,442.4l-.2-.2a3.1,3.1,0,0,1-2.3.9,3.2,3.2,0,0,1-2.3-1l-.2.2a3.4,3.4,0,0,0,2.5,1,3.4,3.4,0,0,0,2.5-1Z" style="fill:#363636"/><path d="M1577.3,435.8h.7v2h-.7Zm3.1-.4h.7v1.8h-.7Zm1.6.4h.7v2h-.7Zm-3.1-.4h.7v1.8h-.7Z" style="fill:#3299d6"/><path d="M1582.2,466.8a4.3,4.3,0,0,1-4.7,0,4,4,0,1,0,0,7.9,4.3,4.3,0,0,1,4.7,0,4,4,0,1,0,0-7.9Z" style="fill:#363636"/><path d="M1576.8,468a2.8,2.8,0,1,0,2.8,2.8A2.8,2.8,0,0,0,1576.8,468Zm0,5.1a2.3,2.3,0,1,1,0-4.6,2.3,2.3,0,1,1,0,4.6Zm0-4.1a1.7,1.7,0,0,0-1.8,1.8,1.8,1.8,0,0,0,3.5,0A1.7,1.7,0,0,0,1576.8,469Zm0,3.1a1.3,1.3,0,1,1,1.3-1.3A1.2,1.2,0,0,1,1576.8,472.1Zm0-2.1a.8.8,0,1,0,.8.8A.7.7,0,0,0,1576.8,470Zm0,1.1a.3.3,0,1,1,.3-.3A.3.3,0,0,1,1576.8,471.1Zm6.1-4.1a3.9,3.9,0,0,1-6.1,0,3.8,3.8,0,1,0,0,7.6,3.9,3.9,0,0,1,6.1,0,3.8,3.8,0,1,0,0-7.6Zm0,7.1a3.4,3.4,0,0,1-2.8-1.5l-.3-.6-.3.6a3.3,3.3,0,0,1-2.8,1.5,3.3,3.3,0,1,1,0-6.6,3.4,3.4,0,0,1,2.8,1.5l.3.6.3-.6a3.3,3.3,0,0,1,2.8-1.5,3.3,3.3,0,1,1,0,6.6Zm0-6.1a2.8,2.8,0,1,0,2.8,2.8A2.8,2.8,0,0,0,1582.9,468Zm0,5.1a2.3,2.3,0,1,1,0-4.6,2.3,2.3,0,0,1,2.3,2.3A2.3,2.3,0,0,1,1582.9,473.1Zm0-4.1a1.7,1.7,0,0,0-1.8,1.8,1.8,1.8,0,1,0,1.8-1.8Zm0,3.1a1.3,1.3,0,1,1,1.3-1.3A1.2,1.2,0,0,1,1582.9,472.1Zm0-2.1a.8.8,0,1,0,.8.8A.8.8,0,0,0,1582.9,470Zm0,1.1a.3.3,0,1,1,.3-.3A.3.3,0,0,1,1582.9,471.1Z" style="fill:#afb1b3"/><circle cx="1579.9" cy="473.1" r="3.8" style="fill:#ffb01f"/><circle cx="1578.7" cy="472" r="0.5" style="fill:#363636"/><circle cx="1581.1" cy="472" r="0.5" style="fill:#363636"/><path d="M1582,474.4l-.2-.2a2.7,2.7,0,0,1-3.8,0l-.2.2a2.9,2.9,0,0,0,2.1.9,2.7,2.7,0,0,0,2-.9Zm-.5-9.1a3.2,3.2,0,0,0-1.7.5,2.9,2.9,0,0,0-1.7-.5,2.9,2.9,0,0,0,0,5.7,3.2,3.2,0,0,0,1.7-.5,2.9,2.9,0,0,0,1.7.5,2.9,2.9,0,0,0,2.9-2.9A2.9,2.9,0,0,0,1581.5,465.3Z" style="fill:#363636"/><path d="M1584.6,468.2a3,3,0,0,0-3.1-3.1,2.9,2.9,0,0,0-1.6.5l.4.3a2.7,2.7,0,0,1,1.3-.3,2.7,2.7,0,1,1-2.7,2.7.6.6,0,1,0-.6.6h.3a4.6,4.6,0,0,0,.5,1.2l-.7.2a1.9,1.9,0,1,1,1.9-1.9,1.4,1.4,0,1,0,1.4-1.4h-.5l.2.4h.4a1,1,0,1,1-1,1,2.3,2.3,0,1,0-2.3,2.3l1-.2a3,3,0,0,0,2.3,1.1,3.3,3.3,0,0,0,3.1-3.2Zm-6.3.2a.2.2,0,1,1,.2-.2A.2.2,0,0,1,1578.3,468.4Zm5.5-.2a2.2,2.2,0,0,0-2.3-2.3l-1,.2a3.1,3.1,0,1,0-2.3,5.1,2.9,2.9,0,0,0,1.6-.5l-.4-.3a2.7,2.7,0,0,1-1.3.3,2.7,2.7,0,1,1,2.7-2.7.6.6,0,1,0,.6-.6h-.3a4.6,4.6,0,0,0-.5-1.2l.7-.2a1.9,1.9,0,1,1-1.9,1.9,1.4,1.4,0,1,0-1.4,1.4h.5l-.2-.4h-.4a1,1,0,1,1,1-1,2.2,2.2,0,0,0,2.3,2.3,2.2,2.2,0,0,0,2.3-2.2Zm-2.2-.3a.2.2,0,1,1-.2.2A.2.2,0,0,1,1581.5,467.9Z" style="fill:#afb1b3"/><path d="M1581.5,450.9a2.3,2.3,0,0,1-3.3,0c-1.6,0-2.9,1.9-2.9,4.1s1.3,4.1,2.9,4.1a2.3,2.3,0,0,1,3.3,0c1.6,0,2.9-1.9,2.9-4.1S1583.1,450.9,1581.5,450.9Z" style="fill:#363636"/><circle cx="1580.2" cy="457.9" r="3.8" style="fill:#d18516"/><circle cx="1579" cy="456.8" r="0.5" style="fill:#363636"/><circle cx="1581.4" cy="456.8" r="0.5" style="fill:#363636"/><path d="M1582.4,459.1l-.2-.2a2.8,2.8,0,0,1-2,.8,2.9,2.9,0,0,1-2-.8l-.2.2a3,3,0,0,0,2.1.9,2.8,2.8,0,0,0,2.2-.9Zm-1-8.7a2.7,2.7,0,0,0-1.5.5,2.5,2.5,0,0,0-1.5-.5,2.6,2.6,0,0,0,0,5.2,2.7,2.7,0,0,0,1.5-.5,2.5,2.5,0,0,0,1.5.5,2.6,2.6,0,0,0,2.6-2.6A2.6,2.6,0,0,0,1581.4,450.5Z" style="fill:#363636"/><path d="M1584.1,453.1a2.8,2.8,0,0,0-2.8-2.8,2.7,2.7,0,0,0-1.5.5l.3.3a2.3,2.3,0,0,1,1.2-.3,2.4,2.4,0,1,1-2.4,2.4.6.6,0,1,0-.6.6h.3a2.7,2.7,0,0,0,.4,1.1l-.7.2a1.7,1.7,0,1,1,1.7-1.7,1.3,1.3,0,1,0,1.3-1.3h-.5l.2.4h.3a1,1,0,1,1-1,1,2.1,2.1,0,1,0-2.1,2.1l.9-.2a2.7,2.7,0,0,0,2.1,1,3,3,0,0,0,2.9-2.9Zm-5.7.2a.2.2,0,1,1,.2-.2C1578.6,453.2,1578.5,453.3,1578.4,453.3Z" style="fill:#272425"/><path d="M1578.1,456.2h3.6v.6h-3.6Zm.6,2h-.5a1,1,0,1,1,0-2h.5a1,1,0,1,1,0,2Zm2.9,0h-.5a1,1,0,1,1,0-2h.5a1,1,0,0,1,1,1A1,1,0,0,1,1581.6,458.2Z" style="fill:#363636"/><path d="M1617.6,431.9h-44.2l44.2-18.9Zm-1.9,88.8h-42.3l42.3-18.2Zm74.4,0h-39.2l39.2-18.2Z" style="fill:#1c5daa"/><path d="M1573.5,342.5h21.6v3.6h-21.6Z" style="fill:#fbfcf6"/></g><path d="M1659.8,374.1l-9.5-16.4,9.5-16.4h18.9l9.5,16.4-9.5,16.4Z" style="fill:#0057b8"/><path d="M1836.8,500H1781a9.6,9.6,0,0,1-9.5-9.5V349.2a9.6,9.6,0,0,1,9.5-9.5h55.9a9.6,9.6,0,0,1,9.5,9.5V490.5A9.6,9.6,0,0,1,1836.8,500Z"/><path d="M1777.7,358.6h62.4V481.1h-62.4Z" style="fill:#fbfbf6"/><g style="clip-path:url(#0439c84f-5fca-4c87-ae17-9851e501d780)"><path d="M1776.9,357.9h63.2V546h-63.2Z" style="fill:#fff"/><path d="M1776.9,357.9h63.2v20.9h-63.2Z" style="fill:#009ff0"/><path d="M1781.9,492.9h53.5v22h-53.5Z" style="fill:#f35e37"/><path d="M1781.9,519.3h53.5v22h-53.5Zm0-135.5h53.5v50h-53.5Z" style="fill:#3299d6"/><path d="M1800.8,438.1h34.5v4.4h-34.5Zm0,9.1h34.5v4.4h-34.5Zm0,9h34.5v4.4h-34.5Zm0,9h34.5v4.4h-34.5Zm0,9.1h34.5v4.4h-34.5Zm0,9h34.5v4.4h-34.5Z" style="fill:#afb1b3"/><circle cx="1789.7" cy="444.8" r="5.4" style="fill:#e5b062"/><circle cx="1787.9" cy="443.2" r="0.7" style="fill:#363636"/><circle cx="1791.5" cy="443.2" r="0.7" style="fill:#363636"/><path d="M1792.8,446.5l-.3-.3a4,4,0,0,1-2.7,1.1,3.8,3.8,0,0,1-2.7-1.1l-.3.3a4.1,4.1,0,0,0,5.9,0Z" style="fill:#363636"/><path d="M1786.5,438.6h.8V441h-.8Zm3.8-.5h.8v2.2h-.8Zm1.9.5h.8V441h-.8Zm-3.7-.5h.8v2.2h-.8Z" style="fill:#3299d6"/><path d="M1792.6,476.1a5.2,5.2,0,0,1-5.7,0,4.8,4.8,0,1,0,0,9.5,5.2,5.2,0,0,1,5.7,0,4.8,4.8,0,1,0,0-9.5Z" style="fill:#363636"/><path d="M1786,477.5a3.4,3.4,0,1,0,3.4,3.4A3.3,3.3,0,0,0,1786,477.5Zm0,6.2a2.8,2.8,0,1,1,2.8-2.8A2.7,2.7,0,0,1,1786,483.7Zm0-4.9a2.2,2.2,0,1,0,2.2,2.2A2.1,2.1,0,0,0,1786,478.8Zm0,3.7a1.6,1.6,0,1,1,1.6-1.6A1.5,1.5,0,0,1,1786,482.5Zm0-2.5a.9.9,0,1,0,.9.9A.9.9,0,0,0,1786,480Zm0,1.3a.3.3,0,1,1,.3-.3A.3.3,0,0,1,1786,481.3Zm7.4-4.9a4.4,4.4,0,0,0-3.7,1.9,4.6,4.6,0,1,0-3.7,7.4,4.4,4.4,0,0,0,3.7-1.9,4.6,4.6,0,1,0,3.7-7.4Zm0,8.6a3.9,3.9,0,0,1-3.3-1.8l-.4-.7-.4.7a4,4,0,1,1-3.3-6.2,3.9,3.9,0,0,1,3.3,1.8l.4.7.4-.7a4,4,0,0,1,7.3,2.2A4,4,0,0,1,1793.4,484.9Zm0-7.4a3.4,3.4,0,1,0,3.4,3.4A3.4,3.4,0,0,0,1793.4,477.5Zm0,6.2a2.8,2.8,0,1,1,2.8-2.8A2.7,2.7,0,0,1,1793.4,483.7Zm0-4.9a2.2,2.2,0,1,0,2.2,2.2A2.1,2.1,0,0,0,1793.4,478.8Zm0,3.7a1.6,1.6,0,1,1,1.6-1.6A1.5,1.5,0,0,1,1793.4,482.5Zm0-2.5a.9.9,0,1,0,.9.9A.9.9,0,0,0,1793.4,480Zm0,1.3a.3.3,0,1,1,.3-.3A.3.3,0,0,1,1793.4,481.3Z" style="fill:#afb1b3"/><circle cx="1789.7" cy="483.8" r="4.6" style="fill:#ffb01f"/><circle cx="1788.2" cy="482.4" r="0.6" style="fill:#363636"/><circle cx="1791.2" cy="482.4" r="0.6" style="fill:#363636"/><path d="M1792.3,485.3l-.2-.2a3.3,3.3,0,0,1-2.3,1,3.2,3.2,0,0,1-2.3-1l-.2.2a3.6,3.6,0,0,0,2.6,1.1A3.5,3.5,0,0,0,1792.3,485.3Zm-.7-11a3.6,3.6,0,0,0-2,.6,3.3,3.3,0,0,0-2-.6,3.5,3.5,0,0,0,0,6.9,3.6,3.6,0,0,0,2-.6,3.3,3.3,0,0,0,2,.6,3.5,3.5,0,0,0,0-6.9Z" style="fill:#363636"/><path d="M1795.4,477.7a3.7,3.7,0,0,0-5.7-3.2l.5.3a3.2,3.2,0,1,1-1.7,2.8.8.8,0,1,0-.8.8h.3a4.1,4.1,0,0,0,.6,1.4l-.9.2a2.2,2.2,0,1,1,2.2-2.2,1.7,1.7,0,1,0,1.7-1.7h-.6l.2.5h.5a1.3,1.3,0,1,1-1.3,1.3,2.7,2.7,0,1,0-2.7,2.7l1.2-.3a3.8,3.8,0,0,0,2.8,1.3,3.6,3.6,0,0,0,3.7-3.7Zm-7.7.3a.3.3,0,1,1,.3-.3A.2.2,0,0,1,1787.7,477.9Zm6.7-.3a2.7,2.7,0,0,0-2.7-2.7l-1.2.3a3.8,3.8,0,0,0-2.8-1.3,3.7,3.7,0,1,0,2,6.9l-.5-.3a3.2,3.2,0,1,1,1.7-2.8.8.8,0,1,0,.8-.8h-.3a4.1,4.1,0,0,0-.6-1.4l.9-.2a2.2,2.2,0,1,1-2.2,2.2,1.7,1.7,0,1,0-1.7,1.7h.6l-.2-.5h-.5a1.3,1.3,0,1,1,1.3-1.3,2.7,2.7,0,0,0,2.7,2.7,2.8,2.8,0,0,0,2.7-2.8Zm-2.7-.2a.3.3,0,1,1-.3.3A.2.2,0,0,1,1791.7,477.5Z" style="fill:#afb1b3"/><path d="M1791.7,456.9a2.7,2.7,0,0,0-2,.9,2.9,2.9,0,0,0-2-.9c-2,0-3.5,2.2-3.5,5s1.6,5,3.5,5a2.7,2.7,0,0,0,2-.9,2.9,2.9,0,0,0,2,.9c2,0,3.5-2.2,3.5-5S1793.7,456.9,1791.7,456.9Z" style="fill:#363636"/><circle cx="1790.1" cy="465.4" r="4.6" style="fill:#d18516"/><circle cx="1788.6" cy="464" r="0.6" style="fill:#363636"/><circle cx="1791.6" cy="464" r="0.6" style="fill:#363636"/><path d="M1792.7,466.9l-.2-.2a3.3,3.3,0,0,1-2.4,1,3.4,3.4,0,0,1-2.4-1l-.2.2a3.6,3.6,0,0,0,5.1,0Zm-1.2-10.5a3.2,3.2,0,0,1-3.6,0,3.2,3.2,0,1,0,0,6.3,3.2,3.2,0,0,1,3.6,0,3.2,3.2,0,1,0,0-6.3Z" style="fill:#363636"/><path d="M1794.9,459.5a3.4,3.4,0,0,0-3.4-3.4,3.8,3.8,0,0,0-1.8.5l.4.3a2.7,2.7,0,0,1,1.4-.4,2.9,2.9,0,1,1-2.9,2.9.7.7,0,1,0-.7.7h.3a3.5,3.5,0,0,0,.5,1.3l-.8.2a2,2,0,1,1,2-2,1.6,1.6,0,1,0,1.6-1.6h-.6l.2.4h.4a1.1,1.1,0,1,1-1.1,1.1,2.5,2.5,0,1,0-2.5,2.5l1.1-.3a3.3,3.3,0,0,0,2.5,1.2,3.4,3.4,0,0,0,3.4-3.4Zm-7,.2a.2.2,0,1,1,.2-.2C1788.1,459.6,1788,459.7,1787.9,459.7Z" style="fill:#272425"/><path d="M1787.5,463.4h4.3v.7h-4.3Zm.8,2.3h-.6a1.2,1.2,0,0,1,0-2.4h.6a1.2,1.2,0,0,1,0,2.4Zm3.5,0h-.6a1.2,1.2,0,0,1,0-2.4h.6a1.2,1.2,0,0,1,1.2,1.2A1.2,1.2,0,0,1,1791.8,465.7Z" style="fill:#363636"/><path d="M1835.3,433.9h-53.4l53.4-23Zm0,107.4h-53.4l53.4-22.1Z" style="fill:#1c5daa"/><path d="M1783.7,363.9h26.1v4.4h-26.1Z" style="fill:#fbfcf6"/></g><path d="M1823.1,374.6l-3.2-5.5,3.2-5.5h6.4l3.2,5.5-3.2,5.5Z" style="fill:#0057b8"/><rect id="df63a388-4c95-4eda-b225-b0ba664f8a60" data-name="&lt;Path&gt;" width="359.1" height="500" style="fill:#fff;stroke:#363636;stroke-miterlimit:10;stroke-width:0.43246466775771725px"/><rect id="0ff45051-407a-4934-8bbf-16276b4bca93" data-name="&lt;Path&gt;" x="35.3" y="33.2" width="288.7" height="103.3" style="fill:#6d6e70"/><rect id="08797afb-1bc4-4768-9ff2-af29d522a85a" data-name="&lt;Path&gt;" x="35.3" y="368.5" width="288.7" height="45.05" style="fill:#6d6e70"/><rect id="f9904bef-67de-40ca-a580-0b6017aac86a" data-name="&lt;Path&gt;" x="35.3" y="422.5" width="104.7" height="45.05" style="fill:#afb1b3"/><rect id="8d298823-cc3e-4150-93e4-79bf1b3b3c74" data-name="&lt;Path&gt;" x="151.3" y="422.5" width="62.3" height="45.05" style="fill:#afb1b3"/><rect id="1c263333-9a5e-4554-80a8-3c45d023de06" data-name="&lt;Path&gt;" x="224.8" y="422.5" width="99" height="45.05" style="fill:#afb1b3"/><rect id="9d6494c6-b407-4fef-af4f-295fd104b23e" data-name="&lt;Path&gt;" x="35.3" y="145.5" width="109.4" height="102.37" style="fill:#afb1b3"/><rect id="2c43dfa4-d1cf-4679-87e2-3286e10f8970" data-name="&lt;Path&gt;" x="153.6" y="145.5" width="172" height="8.94" style="fill:#afb1b3"/><rect id="8e60e806-886b-440d-8c9b-778edc0e1cf6" data-name="&lt;Path&gt;" x="153.6" y="163.9" width="172" height="8.94" style="fill:#afb1b3"/><rect id="d15ecb16-22cd-40eb-894b-7b59f7d8ce2f" data-name="&lt;Path&gt;" x="153.6" y="182.4" width="172" height="8.94" style="fill:#afb1b3"/><rect id="3a5a4c4e-4b8f-4bfe-ba92-7863cc933bbe" data-name="&lt;Path&gt;" x="153.6" y="201" width="172" height="8.94" style="fill:#afb1b3"/><rect id="185d8bd4-d9b8-405f-8bee-77f9b504470f" data-name="&lt;Path&gt;" x="153.6" y="219.5" width="172" height="8.94" style="fill:#afb1b3"/><rect id="5369c753-a398-4db0-b688-c7e40de33c29" data-name="&lt;Path&gt;" x="153.6" y="237.9" width="172" height="8.94" style="fill:#afb1b3"/><rect id="ea7eddd7-47ff-436a-a3d8-33a59e728d5c" data-name="&lt;Path&gt;" x="153.6" y="256.4" width="172" height="8.94" style="fill:#afb1b3"/><rect id="dbd45d61-b27b-4b0a-829e-68ac97d0873b" data-name="&lt;Path&gt;" x="153.6" y="274.9" width="172" height="8.94" style="fill:#afb1b3"/><rect id="854f5fd8-c42d-46e9-be99-4c242d8fe043" data-name="&lt;Path&gt;" x="153.6" y="293.4" width="172" height="8.94" style="fill:#afb1b3"/><rect id="e5aee4a8-06c0-4b61-92d8-626433666280" data-name="&lt;Path&gt;" x="153.6" y="311.9" width="172" height="8.94" style="fill:#afb1b3"/><rect id="a9d0d03e-b9a2-47b3-b5c4-5f9ac1c5358a" data-name="&lt;Path&gt;" x="153.6" y="330.4" width="172" height="8.94" style="fill:#afb1b3"/><rect id="64e45541-1a10-4ef4-855e-5f4d59783645" data-name="&lt;Path&gt;" x="153.6" y="348.8" width="172" height="8.94" style="fill:#afb1b3"/><rect id="acd5a935-19dc-4189-b8d6-7cd0e5fcd124" data-name="&lt;Path&gt;" x="35.3" y="256.4" width="29.7" height="27.85" style="fill:#afb1b3"/><rect id="ec8814ac-9852-4c80-a923-26953ee3799a" data-name="&lt;Path&gt;" x="73.9" y="256.4" width="70.6" height="8.94" style="fill:#afb1b3"/><rect id="e4fba688-9487-45c3-9527-17af738eb697" data-name="&lt;Path&gt;" x="73.9" y="274.9" width="70.6" height="8.94" style="fill:#afb1b3"/><rect id="d4c267cd-e267-4d02-a904-9f2ed0c68aef" data-name="&lt;Path&gt;" x="35.3" y="293.4" width="29.7" height="27.85" style="fill:#afb1b3"/><rect id="75ac0b87-3de5-4047-94b3-b25c48f6b510" data-name="&lt;Path&gt;" x="73.9" y="293.4" width="70.6" height="8.94" style="fill:#afb1b3"/><rect id="a467974d-f386-4ba0-b1fa-9a4ed7a1ffc7" data-name="&lt;Path&gt;" x="73.9" y="311.9" width="70.6" height="8.94" style="fill:#afb1b3"/><rect id="d4ff3a4e-cb06-4ace-b22a-82bbc3aa8208" data-name="&lt;Path&gt;" x="35.3" y="330.4" width="29.7" height="27.85" style="fill:#afb1b3"/><rect id="17fa7fb7-7c39-48b0-93eb-2cdd5dbf9989" data-name="&lt;Path&gt;" x="73.9" y="330.4" width="70.6" height="8.94" style="fill:#afb1b3"/><rect id="b6e26a0f-facc-498a-8c92-0311aedd2fa8" data-name="&lt;Path&gt;" x="73.9" y="348.8" width="70.6" height="8.94" style="fill:#afb1b3"/><rect id="a66df0a0-d97a-4e47-a08a-e003548779aa" data-name="&lt;Path&gt;" x="114.4" width="359.1" height="500" style="fill:#fff;stroke:#363636;stroke-miterlimit:10;stroke-width:0.43246466775771725px"/><rect id="58c4a28f-6c1c-4184-a7dc-d8b5184d6f5b" data-name="&lt;Path&gt;" x="149.7" y="33.2" width="288.7" height="103.3" style="fill:#6d6e70"/><rect id="d75f562e-4b72-4539-a6bd-5e2e94d27fda" data-name="&lt;Path&gt;" x="149.7" y="368.5" width="288.7" height="45.05" style="fill:#6d6e70"/><rect id="5fda8741-c3d1-45a9-9c43-7df204d1c6a3" data-name="&lt;Path&gt;" x="149.7" y="422.5" width="104.7" height="45.05" style="fill:#afb1b3"/><rect id="44a457ee-339b-4d98-9f47-42d21037fea2" data-name="&lt;Path&gt;" x="265.7" y="422.5" width="62.3" height="45.05" style="fill:#afb1b3"/><rect id="ba5719d3-a86a-425f-9ecf-4f80dcdb797a" data-name="&lt;Path&gt;" x="339.3" y="422.5" width="99" height="45.05" style="fill:#afb1b3"/><rect id="479c56ea-36e5-475f-a62a-90b86d29b0f1" data-name="&lt;Path&gt;" x="149.7" y="145.5" width="109.4" height="102.37" style="fill:#afb1b3"/><rect id="e3cc610f-d908-4d89-a0ed-5a3a2192d45f" data-name="&lt;Path&gt;" x="268" y="145.5" width="172" height="8.94" style="fill:#afb1b3"/><rect id="29678ef6-e945-4312-b291-5cf1e70eb059" data-name="&lt;Path&gt;" x="268" y="163.9" width="172" height="8.94" style="fill:#afb1b3"/><rect id="a0b1a6e6-3062-4c59-b573-831306ea28fe" data-name="&lt;Path&gt;" x="268" y="182.4" width="172" height="8.94" style="fill:#afb1b3"/><rect id="8f0d8ee7-a3db-43c2-9caa-ed89dc4d1fe1" data-name="&lt;Path&gt;" x="268" y="201" width="172" height="8.94" style="fill:#afb1b3"/><rect id="383093a3-36ae-43a9-87f9-1df1ab2cdde4" data-name="&lt;Path&gt;" x="268" y="219.5" width="172" height="8.94" style="fill:#afb1b3"/><rect id="e92a6de8-3d70-4485-91a3-21bcc19d1fa4" data-name="&lt;Path&gt;" x="268" y="237.9" width="172" height="8.94" style="fill:#afb1b3"/><rect id="e2d3c68b-217e-46d7-b52d-025a4057b1b9" data-name="&lt;Path&gt;" x="268" y="256.4" width="172" height="8.94" style="fill:#afb1b3"/><rect id="6e6eda60-cc0c-46d6-9937-4f374c167ae1" data-name="&lt;Path&gt;" x="268" y="274.9" width="172" height="8.94" style="fill:#afb1b3"/><rect id="e8bcd405-1e85-4a96-8297-10a71906b656" data-name="&lt;Path&gt;" x="268" y="293.4" width="172" height="8.94" style="fill:#afb1b3"/><rect id="02c50b69-0c9a-4278-be5f-f1b2a17bc1f9" data-name="&lt;Path&gt;" x="268" y="311.9" width="172" height="8.94" style="fill:#afb1b3"/><rect id="2230a60a-e511-40e7-b1e7-ea85ce644c8f" data-name="&lt;Path&gt;" x="268" y="330.4" width="172" height="8.94" style="fill:#afb1b3"/><rect id="3a62dcbd-3558-4a17-9423-83b68ec6485e" data-name="&lt;Path&gt;" x="268" y="348.8" width="172" height="8.94" style="fill:#afb1b3"/><rect id="9d7ace73-b531-4fa4-a239-091e1edc067b" data-name="&lt;Path&gt;" x="149.7" y="256.4" width="29.7" height="27.85" style="fill:#afb1b3"/><rect id="0f30e9f0-f69a-440b-b1bc-6d66889de6c3" data-name="&lt;Path&gt;" x="188.4" y="256.4" width="70.6" height="8.94" style="fill:#afb1b3"/><rect id="98894dc7-012c-4ec6-bec6-e3ce3920a0eb" data-name="&lt;Path&gt;" x="188.4" y="274.9" width="70.6" height="8.94" style="fill:#afb1b3"/><rect id="fb6fe337-bad8-4e67-8ff4-ff23f1ff3169" data-name="&lt;Path&gt;" x="149.7" y="293.4" width="29.7" height="27.85" style="fill:#afb1b3"/><rect id="9b238ba8-aa72-4939-950d-f0834f09bb4f" data-name="&lt;Path&gt;" x="188.4" y="293.4" width="70.6" height="8.94" style="fill:#afb1b3"/><rect id="704ee9ab-7b7c-4404-adea-1941816551b1" data-name="&lt;Path&gt;" x="188.4" y="311.9" width="70.6" height="8.94" style="fill:#afb1b3"/><rect id="cb921716-a938-45f4-b28f-3ef7a4eed7b5" data-name="&lt;Path&gt;" x="149.7" y="330.4" width="29.7" height="27.85" style="fill:#afb1b3"/><rect id="889426f6-2473-48ba-a6fd-f64205f25b35" data-name="&lt;Path&gt;" x="188.4" y="330.4" width="70.6" height="8.94" style="fill:#afb1b3"/><rect id="cf2fa383-34b1-470b-ad5e-85d02b009a27" data-name="&lt;Path&gt;" x="188.4" y="348.8" width="70.6" height="8.94" style="fill:#afb1b3"/><rect x="861.5" width="375.3" height="500" style="fill:#fbfbf6"/><rect x="736.5" width="125" height="500" style="fill:#231f20"/><rect x="907.6" y="264.5" width="62.5" height="31.25" style="fill:#c63527"/><rect x="970.1" y="264.5" width="62.5" height="31.25" style="fill:#ff5c39"/><rect x="1032.6" y="264.5" width="62.5" height="31.25" style="fill:#0057b8"/><rect x="1095.1" y="264.5" width="62.5" height="31.25" style="fill:#009ff0"/><rect x="907.6" y="295.7" width="62.5" height="31.25" style="fill:#aa711f"/><rect x="970.1" y="295.7" width="62.5" height="31.25" style="fill:#fbb33b"/><rect x="1032.6" y="295.7" width="62.5" height="31.25" style="fill:#006c42"/><rect x="1095.1" y="295.7" width="62.5" height="31.25" style="fill:#4ba354"/><rect x="907.6" y="327" width="62.5" height="31.25" style="fill:#231f20"/><rect x="970.1" y="327" width="62.5" height="31.25" style="fill:#333"/><rect x="1032.6" y="327" width="62.5" height="31.25" style="fill:#6d6e70"/><rect x="1095.1" y="327" width="62.5" height="31.25" style="fill:#b1b3b5"/><path d="M915.1,243.5a3.7,3.7,0,0,1,3.9,3.1H917a2,2,0,0,0-2-1.4c-1.5,0-2.3,1.3-2.3,3s.9,3,2.3,3a2,2,0,0,0,2-1.4H919a3.6,3.6,0,0,1-3.9,3.1c-2.5,0-4.3-1.9-4.3-4.8S912.6,243.5,915.1,243.5Z"/><path d="M923.1,253.1a3.5,3.5,0,1,1,3.3-3.5A3.3,3.3,0,0,1,923.1,253.1Zm0-5.5c-.9,0-1.5.8-1.5,1.9s.5,1.9,1.5,1.9,1.5-.8,1.5-1.9S924,247.6,923.1,247.6Z"/><path d="M929.4,252.9h-1.9v-9.8h1.9Z"/><path d="M933.9,253.1a3.5,3.5,0,1,1,3.3-3.5A3.3,3.3,0,0,1,933.9,253.1Zm0-5.5c-.9,0-1.5.8-1.5,1.9s.5,1.9,1.5,1.9,1.5-.8,1.5-1.9S934.8,247.6,933.9,247.6Z"/><path d="M944.3,252.9h-1.9v-.6a2.4,2.4,0,0,1-1.8.7,2.3,2.3,0,0,1-2.4-2.5v-4.4h1.9v4c0,.7.3,1.2,1.1,1.2a1.2,1.2,0,0,0,1.2-.9v-4.3h1.9Z"/><path d="M950,248a1.7,1.7,0,0,0-.9-.2,1.3,1.3,0,0,0-1.3,1V253h-1.9v-6.7h1.9v.7a1.7,1.7,0,0,1,1.5-.8h.7Z"/><path d="M952.5,250.9a1.1,1.1,0,0,0,1.1.7c.6,0,1-.2,1-.7s-.2-.5-.7-.6l-1.3-.3c-1-.2-1.8-.7-1.8-1.9s1.2-2.2,2.7-2.2,2.6.8,2.8,2.1h-1.8a1,1,0,0,0-1-.7c-.5,0-.9.2-.9.6s.2.4.6.5l1.4.3c1.2.3,1.8.9,1.8,2s-1.2,2.2-2.7,2.2-2.8-.8-3-2.1h1.8Z"/><path d="M911.2,401.7v-9.2h6.1v1.7h-4.3v2.3H917v1.7h-3.9v3.5Z"/><path d="M919.6,394.2a1.1,1.1,0,1,1,1.1-1.1A1.1,1.1,0,0,1,919.6,394.2Zm.9,7.5h-1.9V395h1.9Z"/><path d="M928,399.5a2.7,2.7,0,0,1-3,2.3,3.2,3.2,0,0,1-3.2-3.5,3.2,3.2,0,0,1,3.2-3.5c2,0,3,1.4,3,3.3v.6h-4.5a1.5,1.5,0,0,0,1.5,1.6,1.2,1.2,0,0,0,1.3-.8H928Zm-4.4-1.9h2.6a1.1,1.1,0,0,0-1.2-1.2C924.2,396.4,923.7,396.8,923.6,397.7Z"/><path d="M931,401.7h-1.9V392H931Z"/><path d="M937,401.2a2.2,2.2,0,0,1-1.7.7c-2,0-3-1.6-3-3.5s1.1-3.5,3-3.5a2.2,2.2,0,0,1,1.7.7V392h1.9v9.8H937Zm0-3.9a1.4,1.4,0,0,0-1.2-.8,1.7,1.7,0,0,0-1.6,1.9,1.7,1.7,0,0,0,1.6,1.9,1.4,1.4,0,0,0,1.3-.8Z"/><path d="M941.9,399.8a1.1,1.1,0,0,0,1.1.7c.6,0,1-.2,1-.7s-.2-.5-.7-.6L942,399c-1-.2-1.8-.7-1.8-1.9s1.2-2.2,2.7-2.2,2.6.8,2.8,2.1H944a1,1,0,0,0-1-.7c-.5,0-.9.2-.9.6s.2.4.6.5l1.4.3c1.2.3,1.8.9,1.8,2s-1.2,2.2-2.8,2.2-2.8-.8-3-2.1h1.8Z"/><path d="M911.2,85.3V76h6.1v1.7h-4.3V80H917v1.7h-3.9v3.5Z"/><path d="M921.3,85.4a3.5,3.5,0,1,1,3.3-3.5A3.3,3.3,0,0,1,921.3,85.4Zm0-5.5c-.9,0-1.5.8-1.5,1.9s.5,1.9,1.5,1.9,1.5-.8,1.5-1.9S922.2,80,921.3,80Z"/><path d="M925.8,78.5h1.9v.6a2.4,2.4,0,0,1,1.8-.8,2.3,2.3,0,0,1,2.4,2.5v4.4H930v-4a1,1,0,0,0-1.1-1.2,1.2,1.2,0,0,0-1.2.9v4.2h-1.9Z"/><path d="M933.8,80h-1V78.5h1V76.7h1.8v1.8h1.5V80h-1.5v3a.7.7,0,0,0,.7.8l.8-.2v1.7l-1.2.2a1.9,1.9,0,0,1-2.2-2.2V80Z"/><path d="M939.9,83.3a1.1,1.1,0,0,0,1.1.8c.6,0,1-.2,1-.7s-.2-.5-.7-.6l-1.3-.3c-1-.3-1.8-.8-1.8-1.9s1.2-2.2,2.7-2.2,2.6.8,2.8,2.1H942a1,1,0,0,0-1-.7c-.5,0-.9.2-.9.6s.2.4.6.5l1.4.3c1.2.3,1.8.9,1.8,2s-1.2,2.2-2.8,2.2-2.8-.8-3-2.1h1.8Z"/><path d="M754.9,43.7c-2.6,0-4.3-2-4.3-4.8s1.8-4.8,4.3-4.8a4.4,4.4,0,0,1,4.4,4.8C759.3,41.7,757.5,43.7,754.9,43.7Zm0-7.8c-1.5,0-2.4,1.3-2.4,3s1,3,2.4,3,2.4-1.2,2.4-3S756.4,35.9,754.9,35.9Z" style="fill:#fbfbf6"/><path d="M762.5,43.5l-2.5-6.7h2l1.5,4.5,1.5-4.5h1.9l-2.5,6.7Z" style="fill:#fbfbf6"/><path d="M773.4,41.3a2.7,2.7,0,0,1-3,2.3,3.2,3.2,0,0,1-3.3-3.5,3.2,3.2,0,0,1,3.2-3.5c2,0,3,1.4,3,3.3v.6H769a1.5,1.5,0,0,0,1.5,1.6,1.2,1.2,0,0,0,1.3-.8h1.7ZM769,39.5h2.6a1.1,1.1,0,0,0-1.2-1.2A1.4,1.4,0,0,0,769,39.5Z" style="fill:#fbfbf6"/><path d="M778.7,38.7a1.7,1.7,0,0,0-.9-.2,1.3,1.3,0,0,0-1.3,1v4.2h-1.8V36.8h1.9v.7a1.7,1.7,0,0,1,1.5-.8h.7v1.8Z" style="fill:#fbfbf6"/><path d="M781.8,43.5l-2.5-6.7h2l1.5,4.5,1.5-4.5h1.9l-2.5,6.7Z" style="fill:#fbfbf6"/><path d="M788.1,36a1.1,1.1,0,1,1,1.1-1.1A1.1,1.1,0,0,1,788.1,36Zm.9,7.6h-1.9V36.8H789Z" style="fill:#fbfbf6"/><path d="M796.5,41.3a2.7,2.7,0,0,1-3,2.3,3.2,3.2,0,0,1-3.3-3.5,3.2,3.2,0,0,1,3.2-3.5c2,0,3,1.4,3,3.3v.6H792a1.5,1.5,0,0,0,1.5,1.6,1.2,1.2,0,0,0,1.3-.8h1.7Zm-4.4-1.9h2.6a1.1,1.1,0,0,0-1.2-1.2A1.4,1.4,0,0,0,792.1,39.5Z" style="fill:#fbfbf6"/><path d="M803.7,41.1l1.2-4.3h1.8l-2,6.7H803l-1.1-4.1-1.1,4.1h-1.7l-2-6.7h1.9l1.2,4.3,1.1-4.3h1.4Z" style="fill:#fbfbf6"/><path d="M753,73.5H751V64.3H753Z" style="fill:#fbfbf6"/><path d="M758.9,73a2.2,2.2,0,0,1-1.7.7c-2,0-3-1.6-3-3.5s1.1-3.5,3-3.5a2.2,2.2,0,0,1,1.7.7V63.8h1.9v9.7h-1.9Zm0-3.9a1.4,1.4,0,0,0-1.2-.8,1.7,1.7,0,0,0-1.6,1.9,1.7,1.7,0,0,0,1.6,1.9,1.4,1.4,0,0,0,1.3-.8Z" style="fill:#fbfbf6"/><path d="M768.2,71.3a2.7,2.7,0,0,1-3,2.3,3.2,3.2,0,0,1-3.2-3.5,3.2,3.2,0,0,1,3.2-3.5c2,0,3,1.4,3,3.3v.6h-4.5a1.5,1.5,0,0,0,1.5,1.6,1.2,1.2,0,0,0,1.3-.8h1.7Zm-4.4-1.9h2.6a1.1,1.1,0,0,0-1.2-1.2A1.4,1.4,0,0,0,763.8,69.5Z" style="fill:#fbfbf6"/><path d="M769.5,66.8h1.9v.6a2.4,2.4,0,0,1,1.8-.8,2.3,2.3,0,0,1,2.4,2.5v4.4h-1.9v-4a1,1,0,0,0-1.1-1.2,1.2,1.2,0,0,0-1.2.9v4.2h-1.9Z" style="fill:#fbfbf6"/><path d="M777.4,68.3h-1V66.8h1V65h1.8v1.8h1.5v1.5h-1.5v3a.7.7,0,0,0,.8.8l.8-.2v1.7l-1.2.2a1.9,1.9,0,0,1-2.2-2.2V68.3Z" style="fill:#fbfbf6"/><path d="M783.1,66a1.1,1.1,0,1,1,1.1-1.1A1.1,1.1,0,0,1,783.1,66Zm.9,7.6h-1.9V66.8H784Z" style="fill:#fbfbf6"/><path d="M786.1,68.3h-1V66.8h1V65h1.8v1.8h1.5v1.5h-1.5v3a.7.7,0,0,0,.8.8l.8-.2v1.7l-1.2.2a1.9,1.9,0,0,1-2.2-2.2V68.3Z" style="fill:#fbfbf6"/><path d="M791.7,76l1-2.5L790,66.8h2l1.5,4.5,1.5-4.5H797L793.5,76h-1.8Z" style="fill:#fbfbf6"/><path d="M754.9,94.2a3.7,3.7,0,0,1,3.9,3.1h-1.9a2,2,0,0,0-2-1.4c-1.5,0-2.3,1.3-2.3,3s.9,3,2.3,3a2,2,0,0,0,2-1.4h1.9a3.6,3.6,0,0,1-3.9,3.1c-2.5,0-4.3-1.9-4.3-4.7S752.4,94.2,754.9,94.2Z" style="fill:#fbfbf6"/><path d="M762.8,103.7a3.5,3.5,0,1,1,3.3-3.5A3.3,3.3,0,0,1,762.8,103.7Zm0-5.4c-.9,0-1.5.8-1.5,1.9s.5,1.9,1.5,1.9,1.5-.8,1.5-1.9S763.8,98.3,762.8,98.3Z" style="fill:#fbfbf6"/><path d="M767.3,96.8h1.9v.6a2.4,2.4,0,0,1,1.8-.8,2.3,2.3,0,0,1,2.4,2.5v4.4h-1.9v-4a1,1,0,0,0-1.1-1.2,1.2,1.2,0,0,0-1.2.9v4.2h-1.9Z" style="fill:#fbfbf6"/><path d="M775.3,98.3h-1V96.8h1V95h1.8v1.8h1.5v1.5h-1.5v3a.7.7,0,0,0,.8.8l.8-.2v1.7l-1.2.2a1.9,1.9,0,0,1-2.2-2.2V98.3Z" style="fill:#fbfbf6"/><path d="M785.8,101.3a2.7,2.7,0,0,1-3,2.3,3.2,3.2,0,0,1-3.3-3.5,3.2,3.2,0,0,1,3.2-3.5c2,0,3,1.4,3,3.3v.6h-4.5a1.5,1.5,0,0,0,1.5,1.6,1.2,1.2,0,0,0,1.3-.8h1.7Zm-4.4-1.9H784a1.1,1.1,0,0,0-1.2-1.2A1.4,1.4,0,0,0,781.4,99.5Z" style="fill:#fbfbf6"/><path d="M787,96.8h1.9v.6a2.4,2.4,0,0,1,1.8-.8,2.3,2.3,0,0,1,2.4,2.5v4.4h-1.9v-4a1,1,0,0,0-1.1-1.2,1.2,1.2,0,0,0-1.2.9v4.2H787Z" style="fill:#fbfbf6"/><path d="M795,98.3h-1V96.8h1V95h1.8v1.8h1.5v1.5h-1.5v3a.7.7,0,0,0,.8.8l.8-.2v1.7l-1.2.2a1.9,1.9,0,0,1-2.2-2.2V98.3Z" style="fill:#fbfbf6"/><path d="M751,124.3H753v7.5h4.3v1.7H751Z" style="fill:#fbfbf6"/><path d="M762.3,133.5v-.4a2.8,2.8,0,0,1-1.6.5,2.3,2.3,0,0,1-2.5-2.2c0-1.3,1.1-2.1,2.6-2.1a3.6,3.6,0,0,1,1.5.4v-.5a1,1,0,0,0-1.1-1,1,1,0,0,0-1,.6h-1.8a2.7,2.7,0,0,1,2.8-2.1c1.8,0,2.8,1,2.8,2.6v4.3h-1.8Zm0-2.3a1.3,1.3,0,0,0-1.2-.6c-.6,0-1.2.3-1.2.8s.6.8,1.2.8a1.3,1.3,0,0,0,1.2-.6Z" style="fill:#fbfbf6"/><path d="M766.4,136l1-2.5-2.6-6.8h2l1.5,4.5,1.5-4.5h1.9l-3.5,9.2h-1.8Z" style="fill:#fbfbf6"/><path d="M775.3,133.7a3.5,3.5,0,1,1,3.3-3.5A3.3,3.3,0,0,1,775.3,133.7Zm0-5.4c-.9,0-1.5.8-1.5,1.9s.5,1.9,1.5,1.9,1.5-.8,1.5-1.9S776.3,128.2,775.3,128.2Z" style="fill:#fbfbf6"/><path d="M785.7,133.5h-1.9v-.6a2.4,2.4,0,0,1-1.8.7,2.3,2.3,0,0,1-2.4-2.5v-4.4h1.9v4c0,.7.3,1.2,1.1,1.2a1.2,1.2,0,0,0,1.2-.9v-4.3h1.9Z" style="fill:#fbfbf6"/><path d="M787.7,128.3h-1v-1.5h1V125h1.8v1.8H791v1.5h-1.5v3a.7.7,0,0,0,.8.7l.8-.2v1.7l-1.2.2a1.9,1.9,0,0,1-2.2-2.2v-3.2Z" style="fill:#fbfbf6"/><path d="M757.3,154.3V156h-4.4v2h4v1.6h-4v2.2h4.4v1.7H751v-9.2h6.3Z" style="fill:#fbfbf6"/><path d="M760.5,163.5h-1.9v-9.7h1.9Z" style="fill:#fbfbf6"/><path d="M768,161.3a2.7,2.7,0,0,1-3,2.3,3.2,3.2,0,0,1-3.2-3.5,3.2,3.2,0,0,1,3.2-3.5c2,0,3,1.4,3,3.3v.6h-4.5a1.5,1.5,0,0,0,1.5,1.6,1.2,1.2,0,0,0,1.3-.8H768Zm-4.4-1.9h2.6a1.1,1.1,0,0,0-1.2-1.2A1.4,1.4,0,0,0,763.6,159.5Z" style="fill:#fbfbf6"/><path d="M776.6,156.7a2.2,2.2,0,0,1,2.2,2.5v4.4h-1.9v-4c0-.7-.3-1.2-1-1.2a1,1,0,0,0-1,.9v4.3H773v-4c0-.7-.3-1.2-1-1.2a1,1,0,0,0-1,.9v4.3h-1.9v-6.7H771v.5a2.2,2.2,0,0,1,1.7-.7,2.2,2.2,0,0,1,1.8.9A2.7,2.7,0,0,1,776.6,156.7Z" style="fill:#fbfbf6"/><path d="M786.1,161.3a2.7,2.7,0,0,1-3,2.3,3.2,3.2,0,0,1-3.3-3.5,3.2,3.2,0,0,1,3.2-3.5c2,0,3,1.4,3,3.3v.6h-4.5a1.5,1.5,0,0,0,1.5,1.6,1.2,1.2,0,0,0,1.3-.8h1.7Zm-4.4-1.9h2.6a1.1,1.1,0,0,0-1.2-1.2A1.4,1.4,0,0,0,781.7,159.5Z" style="fill:#fbfbf6"/><path d="M787.4,156.8h1.9v.6a2.4,2.4,0,0,1,1.8-.7,2.3,2.3,0,0,1,2.4,2.5v4.4h-1.9v-4a1,1,0,0,0-1.1-1.2,1.2,1.2,0,0,0-1.2.9v4.3h-1.9Z" style="fill:#fbfbf6"/><path d="M795.3,158.3h-1v-1.5h1V155h1.8v1.8h1.5v1.5h-1.5v3a.7.7,0,0,0,.8.7l.8-.2v1.7l-1.2.2a1.9,1.9,0,0,1-2.2-2.2v-3.2Z" style="fill:#fbfbf6"/><path d="M801.5,161.5a1.1,1.1,0,0,0,1.1.7c.6,0,1-.2,1-.7s-.2-.5-.7-.6l-1.3-.3c-1-.3-1.7-.7-1.7-1.9s1.2-2.2,2.7-2.2,2.6.8,2.8,2.1h-1.7a1,1,0,0,0-1-.7c-.5,0-.9.2-.9.6s.2.4.6.5l1.4.3c1.2.3,1.8.9,1.8,2s-1.2,2.2-2.8,2.2-2.8-.8-3-2.1h1.8Z" style="fill:#fbfbf6"/><path d="M754.9,184.2a3.7,3.7,0,0,1,3.9,3.1h-1.9a2,2,0,0,0-2-1.4c-1.5,0-2.3,1.3-2.3,3s.9,3,2.3,3a2,2,0,0,0,2-1.4h1.9a3.6,3.6,0,0,1-3.9,3.1c-2.5,0-4.3-1.9-4.3-4.7S752.4,184.2,754.9,184.2Z" style="fill:#fbfbf6"/><path d="M762.8,193.7a3.5,3.5,0,1,1,3.3-3.5A3.3,3.3,0,0,1,762.8,193.7Zm0-5.4c-.9,0-1.5.8-1.5,1.9s.5,1.9,1.5,1.9,1.5-.8,1.5-1.9S763.8,188.2,762.8,188.2Z" style="fill:#fbfbf6"/><path d="M774.7,186.7a2.2,2.2,0,0,1,2.2,2.5v4.4H775v-4c0-.7-.3-1.2-1-1.2a1,1,0,0,0-1,.9v4.3h-1.9v-4c0-.7-.3-1.2-1-1.2a1,1,0,0,0-1,.9v4.3h-1.9v-6.7h1.9v.5a2.2,2.2,0,0,1,1.7-.7,2.2,2.2,0,0,1,1.8.9A2.7,2.7,0,0,1,774.7,186.7Z" style="fill:#fbfbf6"/><path d="M780.3,196h-1.9v-9.2h1.9v.5a2.2,2.2,0,0,1,1.7-.7c2,0,3,1.6,3,3.5s-1.1,3.5-3,3.5a2.2,2.2,0,0,1-1.7-.7Zm0-4.7a1.4,1.4,0,0,0,1.3.8,1.7,1.7,0,0,0,1.6-1.9,1.7,1.7,0,0,0-1.6-1.9,1.4,1.4,0,0,0-1.2.8Z" style="fill:#fbfbf6"/><path d="M789.2,193.7a3.5,3.5,0,1,1,3.3-3.5A3.3,3.3,0,0,1,789.2,193.7Zm0-5.4c-.9,0-1.5.8-1.5,1.9s.5,1.9,1.5,1.9,1.5-.8,1.5-1.9S790.1,188.2,789.2,188.2Z" style="fill:#fbfbf6"/><path d="M793.6,186.8h1.9v.6a2.4,2.4,0,0,1,1.8-.7,2.3,2.3,0,0,1,2.4,2.5v4.4h-1.9v-4a1,1,0,0,0-1.1-1.2,1.2,1.2,0,0,0-1.2.9v4.3h-1.9Z" style="fill:#fbfbf6"/><path d="M807,191.3a2.7,2.7,0,0,1-3,2.3,3.2,3.2,0,0,1-3.3-3.5,3.2,3.2,0,0,1,3.2-3.5c2,0,3,1.4,3,3.3v.6h-4.5a1.5,1.5,0,0,0,1.5,1.6,1.2,1.2,0,0,0,1.3-.8H807Zm-4.4-1.9h2.6a1.1,1.1,0,0,0-1.2-1.2A1.4,1.4,0,0,0,802.6,189.5Z" style="fill:#fbfbf6"/><path d="M808.2,186.8h1.9v.6a2.4,2.4,0,0,1,1.8-.7,2.3,2.3,0,0,1,2.4,2.5v4.4h-1.9v-4a1,1,0,0,0-1.1-1.2,1.2,1.2,0,0,0-1.2.9v4.3h-1.9Z" style="fill:#fbfbf6"/><path d="M816.2,188.3h-1v-1.5h1V185H818v1.8h1.5v1.5H818v3a.7.7,0,0,0,.8.7l.8-.2v1.7l-1.2.2a1.9,1.9,0,0,1-2.2-2.2v-3.2Z" style="fill:#fbfbf6"/><path d="M822.3,191.5a1.1,1.1,0,0,0,1.1.7c.6,0,1-.2,1-.7s-.2-.5-.7-.6l-1.3-.3c-1-.3-1.7-.7-1.7-1.9s1.2-2.2,2.7-2.2,2.6.8,2.8,2.1h-1.7a1,1,0,0,0-1-.7c-.5,0-.9.2-.9.6s.2.4.6.5l1.4.3c1.2.3,1.8.9,1.8,2s-1.2,2.2-2.8,2.2-2.8-.8-3-2.1h1.8Z" style="fill:#fbfbf6"/><path d="M750.5,214.3h7.9V216h-3v7.5h-1.9V216h-3v-1.7Z" style="fill:#fbfbf6"/><path d="M764.4,221.3a2.7,2.7,0,0,1-3,2.3,3.2,3.2,0,0,1-3.2-3.5,3.2,3.2,0,0,1,3.2-3.5c2,0,3,1.4,3,3.3v.6H760a1.5,1.5,0,0,0,1.5,1.6,1.2,1.2,0,0,0,1.3-.8h1.7Zm-4.4-1.9h2.6a1.1,1.1,0,0,0-1.2-1.2A1.4,1.4,0,0,0,760,219.5Z" style="fill:#fbfbf6"/><path d="M773,216.7a2.2,2.2,0,0,1,2.2,2.5v4.4h-1.9v-4c0-.7-.3-1.2-1-1.2a1,1,0,0,0-1,.9v4.3h-1.9v-4c0-.7-.3-1.2-1-1.2a1,1,0,0,0-1,.9v4.3h-1.9v-6.7h1.9v.5a2.2,2.2,0,0,1,1.7-.7,2.2,2.2,0,0,1,1.8.9A2.7,2.7,0,0,1,773,216.7Z" style="fill:#fbfbf6"/><path d="M778.6,226h-1.9v-9.2h1.9v.5a2.2,2.2,0,0,1,1.7-.7c2,0,3,1.6,3,3.5s-1.1,3.5-3,3.5a2.2,2.2,0,0,1-1.7-.7Zm0-4.7a1.4,1.4,0,0,0,1.3.8,1.7,1.7,0,0,0,1.6-1.9,1.7,1.7,0,0,0-1.6-1.9,1.4,1.4,0,0,0-1.2.8Z" style="fill:#fbfbf6"/><path d="M786.4,223.5h-1.9v-9.8h1.9Z" style="fill:#fbfbf6"/><path d="M791.7,223.5v-.4a2.8,2.8,0,0,1-1.6.5,2.3,2.3,0,0,1-2.5-2.2c0-1.3,1.1-2.1,2.6-2.1a3.6,3.6,0,0,1,1.5.4v-.5a1,1,0,0,0-1.1-1,1,1,0,0,0-1,.6h-1.7a2.7,2.7,0,0,1,2.8-2.1c1.8,0,2.8,1,2.8,2.6v4.3h-1.8Zm0-2.3a1.3,1.3,0,0,0-1.2-.6c-.6,0-1.2.2-1.2.8s.6.8,1.2.8a1.3,1.3,0,0,0,1.2-.6Z" style="fill:#fbfbf6"/><path d="M795.4,218.3h-1v-1.5h1V215h1.8v1.8h1.5v1.5h-1.5v3a.7.7,0,0,0,.8.7l.8-.2v1.7l-1.2.2a1.9,1.9,0,0,1-2.2-2.2v-3.2Z" style="fill:#fbfbf6"/><path d="M805.9,221.3a2.7,2.7,0,0,1-3,2.3,3.2,3.2,0,0,1-3.3-3.5,3.2,3.2,0,0,1,3.2-3.5c2,0,3,1.4,3,3.3v.6h-4.5a1.5,1.5,0,0,0,1.5,1.6,1.2,1.2,0,0,0,1.3-.8h1.7Zm-4.4-1.9h2.6a1.1,1.1,0,0,0-1.2-1.2A1.4,1.4,0,0,0,801.5,219.5Z" style="fill:#fbfbf6"/><path d="M808.6,221.5a1.1,1.1,0,0,0,1.1.7c.6,0,1-.2,1-.7s-.2-.5-.7-.6l-1.3-.3c-1-.2-1.7-.7-1.7-1.9s1.2-2.2,2.7-2.2,2.6.8,2.8,2.1h-1.7a1,1,0,0,0-1-.7c-.5,0-.9.2-.9.6s.2.4.6.5l1.4.3c1.2.3,1.8.9,1.8,2s-1.2,2.2-2.8,2.2-2.8-.8-3-2.1h1.8Z" style="fill:#fbfbf6"/><path d="M754.9,244.2a3.7,3.7,0,0,1,3.9,3.1h-1.9a2,2,0,0,0-2-1.4c-1.5,0-2.3,1.3-2.3,3s.9,3,2.3,3a2,2,0,0,0,2-1.4h1.9a3.6,3.6,0,0,1-3.9,3.1c-2.5,0-4.3-1.9-4.3-4.8S752.4,244.2,754.9,244.2Z" style="fill:#fbfbf6"/><path d="M762.8,253.7a3.5,3.5,0,1,1,3.3-3.5A3.3,3.3,0,0,1,762.8,253.7Zm0-5.4c-.9,0-1.5.8-1.5,1.9s.5,1.9,1.5,1.9,1.5-.8,1.5-1.9S763.8,248.2,762.8,248.2Z" style="fill:#fbfbf6"/><path d="M771.7,253a2.2,2.2,0,0,1-1.7.7c-2,0-3-1.6-3-3.5s1.1-3.5,3-3.5a2.2,2.2,0,0,1,1.7.7v-3.6h1.9v9.8h-1.9Zm0-3.9a1.4,1.4,0,0,0-1.2-.8,1.7,1.7,0,0,0-1.6,1.9,1.7,1.7,0,0,0,1.6,1.9,1.4,1.4,0,0,0,1.3-.8Z" style="fill:#fbfbf6"/><path d="M781,251.3a2.7,2.7,0,0,1-3,2.3,3.2,3.2,0,0,1-3.3-3.5,3.2,3.2,0,0,1,3.2-3.5c2,0,3,1.4,3,3.3v.6h-4.5a1.5,1.5,0,0,0,1.5,1.6,1.2,1.2,0,0,0,1.3-.8H781Zm-4.4-1.9h2.6a1.1,1.1,0,0,0-1.2-1.2A1.4,1.4,0,0,0,776.6,249.5Z" style="fill:#fbfbf6"/><path d="M911.7,102.2V104h-1V99.3h1.9a1.4,1.4,0,0,1,1.6,1.5,1.3,1.3,0,0,1-1,1.4l1.2,1.8h-1.1l-1.1-1.7Zm0-.8h.9c.5,0,.7-.3.7-.6s-.3-.6-.7-.6h-.9Z"/><path d="M917.9,102.9a1.4,1.4,0,0,1-1.5,1.2,1.6,1.6,0,0,1-1.6-1.7,1.6,1.6,0,0,1,1.6-1.7,1.5,1.5,0,0,1,1.5,1.7v.3h-2.2c0,.5.3.8.7.8a.6.6,0,0,0,.6-.4Zm-2.2-1H917a.6.6,0,0,0-.6-.6A.7.7,0,0,0,915.7,101.9Z"/><path d="M920.6,103.5a1.2,1.2,0,0,1-.8.3,1.6,1.6,0,0,1-1.5-1.7,1.5,1.5,0,0,1,1.5-1.7,1.2,1.2,0,0,1,.8.3v-.3h.9v3a1.5,1.5,0,0,1-1.6,1.7,1.4,1.4,0,0,1-1.5-1.2h.9c.1.3.3.5.7.5s.7-.3.7-.8v-.2Zm0-1.9a.8.8,0,0,0-.6-.3.8.8,0,0,0-.8.9c0,.5.3.9.8.9a.8.8,0,0,0,.6-.3Z"/><path d="M925.3,104h-.9v-.3a1.2,1.2,0,0,1-.9.4,1.1,1.1,0,0,1-1.2-1.2v-2.2h.9v2a.5.5,0,0,0,.5.6.5.5,0,0,0,.6-.5v-2.1h1V104Z"/><path d="M927,104h-.9V99.1h.9Z"/><path d="M929.7,104v-.2a1.3,1.3,0,0,1-.8.3,1.1,1.1,0,0,1-1.2-1.1,1.2,1.2,0,0,1,1.3-1.1l.7.2v-.3a.5.5,0,0,0-.5-.5.5.5,0,0,0-.5.3h-.9a1.3,1.3,0,0,1,1.4-1.1,1.3,1.3,0,0,1,1.4,1.3V104h-.9Zm0-1.2a.7.7,0,0,0-.6-.3c-.3,0-.6.1-.6.4s.3.4.6.4a.8.8,0,0,0,.6-.3Z"/><path d="M933.4,101.5H933a.6.6,0,0,0-.6.5V104h-.9v-3.3h.9v.3a.8.8,0,0,1,.7-.4h.3v1Z"/><path d="M912.9,108.3l1.8,4.6h-.6l-.5-1.4h-1.9l-.5,1.4h-.6l1.8-4.6Zm-1,2.7h1.5l-.7-2Z"/><path d="M918.6,111.7c0,.8-.6,1.3-1.5,1.3h-1.7v-4.6h1.5c1,0,1.5.4,1.5,1.2a1,1,0,0,1-.7,1A1.2,1.2,0,0,1,918.6,111.7Zm-1.7-1.3c.6,0,1-.3,1-.7s-.3-.7-1-.7h-1v1.5h1Zm-.9,2.1H917c.6,0,1-.3,1-.8s-.3-.8-1-.8H916Z"/><path d="M921.2,108.3a1.7,1.7,0,0,1,1.8,1.4h-.6a1.2,1.2,0,0,0-1.2-.9c-.9,0-1.5.7-1.5,1.8s.6,1.8,1.5,1.8a1.2,1.2,0,0,0,1.2-.9h.6a1.7,1.7,0,0,1-1.8,1.4,2.4,2.4,0,0,1,0-4.7Z"/><path d="M923.8,108.3h1.5a2.2,2.2,0,0,1,2.2,2.3,2.1,2.1,0,0,1-2.2,2.3h-1.5Zm1.5,4.1a1.6,1.6,0,0,0,1.7-1.8,1.6,1.6,0,0,0-1.7-1.8h-.9v3.5Z"/><path d="M931.3,108.3v.5H929v1.5h2.1v.5H929v1.6h2.3v.5h-2.9v-4.7Z"/><path d="M932.2,113v-4.6H935v.5h-2.2v1.5h2.1v.5h-2.1v2h-.6Z"/><path d="M938,111.2v-.5h1.7v.3a1.9,1.9,0,0,1-1.9,2,2.4,2.4,0,0,1,0-4.8,1.8,1.8,0,0,1,1.8,1.4h-.6a1.2,1.2,0,0,0-1.2-.9c-.9,0-1.5.7-1.5,1.8a1.6,1.6,0,0,0,1.5,1.8,1.3,1.3,0,0,0,1.3-1.3H938Z"/><path d="M944.2,108.3V113h-.6v-2.1H941V113h-.6v-4.6h.6v2h2.6v-2Z"/><path d="M945.9,113h-.6v-4.6h.6Z"/><path d="M947.2,111.7a.8.8,0,0,0,.9.8c.6,0,.9-.3.9-1v-3.1h.6v3.1a1.5,1.5,0,0,1-3,.2h.6Z"/><path d="M951.2,110.7l2.1-2.3h.7l-2,2.1,2,2.5h-.7l-1.8-2.1-.5.5V113h-.6v-4.7h.6v2.3Z"/><path d="M954.8,108.3h.6v4.1h2.3v.5h-3v-4.6Z"/><path d="M960.6,113l-1.5-3.5V113h-.6v-4.6h.7l1.5,3.8,1.5-3.8h.6V113h-.6v-3.5l-1.5,3.5Z"/><path d="M967.7,113h-.4l-2.6-3.7V113h-.6v-4.6h.6l2.5,3.5v-3.5h.6V113Z"/><path d="M970.6,113a2.4,2.4,0,0,1,0-4.8,2.1,2.1,0,0,1,2.1,2.4A2.2,2.2,0,0,1,970.6,113Zm0-4.2c-.9,0-1.5.7-1.5,1.8s.6,1.8,1.5,1.8,1.5-.7,1.5-1.8S971.5,108.8,970.6,108.8Z"/><path d="M974.1,111.1V113h-.6v-4.6h1.7c.9,0,1.5.5,1.5,1.4s-.6,1.4-1.5,1.4h-1.1Zm1.1-2.3h-1.1v1.7h1.1a.8.8,0,0,0,1-.9C976.2,109.2,975.8,108.9,975.2,108.9Z"/><path d="M980.4,112.8l-1,.3a2.4,2.4,0,0,1,0-4.8,2.1,2.1,0,0,1,2.1,2.4,2.5,2.5,0,0,1-.7,1.8l.4.5-.4.3Zm-1-3.9c-.9,0-1.5.7-1.5,1.8s.6,1.8,1.5,1.8l.7-.2-.4-.5.4-.3.4.5a2.2,2.2,0,0,0,.4-1.4C980.8,109.6,980.2,108.8,979.3,108.8Z"/><path d="M982.8,111v2h-.6v-4.6H984c.9,0,1.5.5,1.5,1.3a1.2,1.2,0,0,1-1.2,1.3l1.4,2H985l-1.3-2h-.8Zm0-.5h1.1c.6,0,1-.3,1-.8s-.3-.8-1-.8h-1.1Z"/><path d="M986.6,111.8a1.1,1.1,0,0,0,1.2.7c.6,0,1-.3,1-.8s-.2-.6-.7-.7l-.8-.2c-.6-.2-1.1-.5-1.1-1.2a1.3,1.3,0,0,1,1.5-1.3,1.6,1.6,0,0,1,1.7,1.2h-.6a1,1,0,0,0-1.1-.7c-.5,0-1,.3-1,.7s.2.6.7.7l.8.2c.7.2,1.2.6,1.2,1.3s-.7,1.3-1.6,1.3a1.6,1.6,0,0,1-1.8-1.2h.5Z"/><path d="M989.8,108.3h3.8v.5H992V113h-.6v-4.1h-1.6v-.5Z"/><path d="M994.3,111.1v-2.8h.6V111c0,1,.5,1.5,1.2,1.5s1.2-.5,1.2-1.5v-2.7h.6v2.8a1.7,1.7,0,0,1-1.8,1.9A1.6,1.6,0,0,1,994.3,111.1Z"/><path d="M1000.3,113l-1.8-4.6h.6l1.5,3.8,1.5-3.8h.6l-1.8,4.6Z"/><path d="M1006,108.3l1,3.7,1-3.7h.6l-1.2,4.6h-.5l-1-3.6-1,3.6h-.5l-1.2-4.6h.6l1,3.7,1-3.7Z"/><path d="M1011,110.6l1.6,2.4h-.7l-1.3-1.9-1.3,1.9h-.7l1.6-2.3-1.6-2.2h.7l1.3,1.8,1.3-1.8h.7Z"/><path d="M1016.2,108.3h.6l-1.7,2.7V113h-.6V111l-1.7-2.7h.6l1.3,2.2Z"/><path d="M1020.6,113h-3.4v-.4l2.6-3.7h-2.6v-.5h3.3v.4l-2.6,3.7h2.6Z"/><path d="M912.7,122v-.3a1.4,1.4,0,0,1-.9.3,1.1,1.1,0,1,1,0-2.1l.8.3v-.4a.7.7,0,0,0-.7-.7.6.6,0,0,0-.7.5h-.5a1.2,1.2,0,0,1,1.3-1,1.1,1.1,0,0,1,1.3,1.2v2.2h-.5Zm0-1.2a.8.8,0,0,0-.8-.4c-.4,0-.8.2-.8.6s.4.6.8.6a.9.9,0,0,0,.8-.4Z"/><path d="M914.8,122h-.5v-4.9h.6V119a1.2,1.2,0,0,1,1-.5,1.8,1.8,0,0,1,0,3.5,1.2,1.2,0,0,1-1-.5v.4Zm0-1a1,1,0,0,0,.9.5c.6,0,1-.5,1-1.2s-.4-1.2-1-1.2a1.1,1.1,0,0,0-.9.5Z"/><path d="M919.3,118.5a1.2,1.2,0,0,1,1.3,1.1H920a.7.7,0,0,0-.7-.6c-.6,0-1,.5-1,1.3s.4,1.3,1,1.3a.7.7,0,0,0,.7-.6h.6a1.3,1.3,0,0,1-1.3,1.1,1.8,1.8,0,0,1,0-3.5Z"/><path d="M923.5,121.6a1.2,1.2,0,0,1-1,.5,1.8,1.8,0,0,1,0-3.5,1.2,1.2,0,0,1,1,.5v-1.9h.6V122h-.6Zm0-2a1,1,0,0,0-.9-.5c-.6,0-1,.5-1,1.2s.4,1.2,1,1.2a1.1,1.1,0,0,0,.9-.5Z"/><path d="M927.7,121a1.3,1.3,0,0,1-1.3,1.1,1.6,1.6,0,0,1-1.5-1.7,1.6,1.6,0,0,1,1.5-1.8c.9,0,1.4.7,1.4,1.6v.2h-2.4c0,.7.4,1.2,1,1.2a.7.7,0,0,0,.8-.6h.6Zm-2.3-1h1.8a.8.8,0,0,0-.8-.9C925.9,119,925.5,119.4,925.5,120Z"/><path d="M930.2,117.6h-.3c-.3,0-.5.2-.5.6v.5h.7v.5h-.7V122h-.5v-2.8h-.6v-.5h.6v-.5a1,1,0,0,1,1-1h.4v.5Z"/><path d="M932.8,121.5a1.1,1.1,0,0,1-.9.5,1.7,1.7,0,0,1,0-3.4,1.1,1.1,0,0,1,.9.5v-.4h.6v3.1a1.4,1.4,0,0,1-1.5,1.6,1.3,1.3,0,0,1-1.4-1.1h.5a.8.8,0,0,0,.9.6c.6,0,.9-.4.9-1.1Zm0-1.9a.9.9,0,0,0-.8-.5,1.2,1.2,0,0,0,0,2.3.9.9,0,0,0,.8-.5Z"/><path d="M934.4,117.1h.6v2a1.3,1.3,0,0,1,1-.5,1.1,1.1,0,0,1,1.2,1.2v2.2h-.6v-2.1a.7.7,0,0,0-.7-.8.9.9,0,0,0-.8.6v2.2h-.6Z"/><path d="M938.4,118a.4.4,0,1,1,.4-.4A.4.4,0,0,1,938.4,118Zm.3,4H938v-3.3h.6Z"/><path d="M940.2,122.3a.9.9,0,0,1-1,1H939v-.5h.2c.3,0,.5-.1.5-.5v-3.7h.6v3.7Zm-.3-4.3a.4.4,0,1,1,.4-.4A.4.4,0,0,1,939.9,118Z"/><path d="M942.1,120.4l-.4.3V122h-.6v-4.9h.6v3l1.5-1.5h.7l-1.5,1.5,1.5,1.9h-.7Z"/><path d="M945.2,122h-.6v-4.9h.6Z"/><path d="M949.6,118.5c.7,0,1,.5,1,1.2V122h-.6v-2.1c0-.5-.2-.8-.6-.8a.8.8,0,0,0-.7.6v2.3h-.6v-2.1c0-.5-.2-.8-.6-.8a.8.8,0,0,0-.7.6v2.3h-.6v-3.3h.6v.4a1.1,1.1,0,0,1,.9-.5,1,1,0,0,1,.9.5A1.6,1.6,0,0,1,949.6,118.5Z"/><path d="M951.6,118.6h.6v.4a1.3,1.3,0,0,1,1-.5,1.1,1.1,0,0,1,1.2,1.2v2.2h-.6v-2.1a.7.7,0,0,0-.7-.8.9.9,0,0,0-.8.6v2.2h-.6Z"/><path d="M956.6,122a1.8,1.8,0,1,1,1.5-1.8A1.6,1.6,0,0,1,956.6,122Zm0-3c-.6,0-1,.5-1,1.3s.4,1.3,1,1.3,1-.5,1-1.2S957.2,119,956.6,119Z"/><path d="M959.5,123.2h-.6v-4.6h.6v.4a1.2,1.2,0,0,1,1-.5c1,0,1.5.8,1.5,1.8a1.6,1.6,0,0,1-1.5,1.8,1.2,1.2,0,0,1-1-.5Zm0-2.3a1,1,0,0,0,.9.5c.6,0,1-.5,1-1.2s-.4-1.2-1-1.2a1.1,1.1,0,0,0-.9.5Z"/><path d="M964.9,121.6a1.2,1.2,0,0,1-1,.5c-1,0-1.5-.8-1.5-1.8a1.6,1.6,0,0,1,1.5-1.8,1.2,1.2,0,0,1,1,.5v-.4h.6v4.6h-.6Zm0-2a1,1,0,0,0-.9-.5c-.6,0-1,.5-1,1.2s.4,1.2,1,1.2a1.1,1.1,0,0,0,.9-.5Z"/><path d="M968.1,119.2h-.4a.9.9,0,0,0-.8.6V122h-.6v-3.3h.6v.4a.9.9,0,0,1,.8-.5h.3v.6Z"/><path d="M969.1,121a.8.8,0,0,0,.8.5c.4,0,.7-.2.7-.5s-.2-.4-.5-.5l-.7-.2c-.5-.1-.8-.4-.8-.9a1.1,1.1,0,0,1,1.2-1,1.2,1.2,0,0,1,1.3,1h-.6c-.1-.3-.3-.5-.7-.5s-.6.2-.6.5.2.3.5.4l.6.2c.6.2.8.5.8.9s-.5,1-1.2,1a1.3,1.3,0,0,1-1.4-1Z"/><path d="M972.1,119.1h-.5v-.5h.5v-.9h.6v.9h.8v.5h-.8v2a.4.4,0,0,0,.5.5h.4v.5H973a.8.8,0,0,1-.9-.9Z"/><path d="M976.9,122h-.6v-.4a1.3,1.3,0,0,1-1,.5,1.1,1.1,0,0,1-1.2-1.2v-2.2h.6v2.1c0,.5.2.8.7.8a.9.9,0,0,0,.8-.6v-2.2h.6V122Z"/><path d="M978.8,122l-1.3-3.3h.6l1,2.6,1-2.6h.6l-1.3,3.3Z"/><path d="M984.1,121.2l.7-2.5h.5l-1,3.3h-.5l-.7-2.5-.7,2.5h-.5l-1-3.3h.6l.7,2.5.7-2.5h.5Z"/><path d="M987.5,120.3l1.3,1.7h-.6l-.9-1.3-.9,1.3h-.6l1.3-1.7-1.2-1.6h.6l.8,1.2.9-1.2h.6Z"/><path d="M989.8,123.2l.5-1.2-1.3-3.3h.6l1,2.6,1-2.6h.6l-1.8,4.6h-.6Z"/><path d="M995.2,122h-2.6v-.4l1.9-2.5h-1.8v-.5h2.5v.4l-1.8,2.5h1.9v.5Z"/><path d="M912.2,131h-.6V127l-1.1.6V127l1.4-.7h.3V131Z"/><path d="M914.6,126.8a.9.9,0,0,0-.9.9H913a1.5,1.5,0,0,1,1.5-1.5,1.3,1.3,0,0,1,1.4,1.3c0,.6-.5,1-.9,1.6l-1.2,1.3h2.2v.5h-3v-.4l1.5-1.6c.5-.5.9-.9.9-1.3A.8.8,0,0,0,914.6,126.8Z"/><path d="M917.7,128.3h.3a.8.8,0,0,0,.9-.8.8.8,0,0,0-.8-.8.9.9,0,0,0-.9.8h-.6a1.5,1.5,0,0,1,1.5-1.3,1.3,1.3,0,0,1,1.4,1.3,1.1,1.1,0,0,1-.7,1,1,1,0,0,1,.8,1.1,1.4,1.4,0,0,1-1.5,1.4,1.4,1.4,0,0,1-1.6-1.4h.6a.9.9,0,0,0,1,.9.8.8,0,0,0,.9-.8.9.9,0,0,0-1-.8h-.3v-.5Z"/><path d="M920.6,129.4h1.5v-1.1h.5v1.1h.8v.5h-.8v1h-.5v-1H920v-.4l1.8-3.1h.6Z"/><path d="M924.6,128.9h-.5v-2.5h2.5v.5h-2v1.4a1.4,1.4,0,0,1,.8-.3,1.4,1.4,0,0,1,1.5,1.5,1.5,1.5,0,0,1-1.5,1.5,1.5,1.5,0,0,1-1.6-1.4h.6a.9.9,0,0,0,1,.9,1,1,0,0,0,1-1,.9.9,0,0,0-1-1A1,1,0,0,0,924.6,128.9Z"/><path d="M930,127.4a.9.9,0,0,0-.8-.7c-.7,0-1.2.8-1.2,1.8v.2a1.2,1.2,0,0,1,1.2-.8,1.5,1.5,0,0,1,1.5,1.5,1.5,1.5,0,0,1-2.9.7,3.1,3.1,0,0,1-.3-1.4c0-1.5.7-2.5,1.7-2.5a1.3,1.3,0,0,1,1.4,1.1H930Zm-.9,3.1a1,1,0,1,0-1-1A1,1,0,0,0,929.2,130.5Z"/><path d="M932.4,131h-.6l1.6-4.1h-2.4v-.5h3v.5Z"/><path d="M934.4,129.7a1.2,1.2,0,0,1,.9-1.2,1.1,1.1,0,0,1-.7-1,1.4,1.4,0,0,1,2.8,0,1.1,1.1,0,0,1-.7,1,1.2,1.2,0,0,1,.9,1.2A1.4,1.4,0,0,1,936,131,1.4,1.4,0,0,1,934.4,129.7Zm2.6,0a1,1,0,0,0-2,0,.9.9,0,0,0,1,.9A.9.9,0,0,0,937,129.7Zm-.2-2.1a.8.8,0,1,0-.8.7A.8.8,0,0,0,936.8,127.5Z"/><path d="M938.7,129.9a.9.9,0,0,0,.8.7c.7,0,1.2-.8,1.2-1.8v-.2a1.2,1.2,0,0,1-1.2.8,1.5,1.5,0,0,1-1.5-1.5,1.5,1.5,0,0,1,2.9-.7,3.1,3.1,0,0,1,.3,1.4c0,1.5-.7,2.5-1.7,2.5a1.3,1.3,0,0,1-1.4-1.1h.6Zm.9-3.1a1,1,0,1,0,1,1A1,1,0,0,0,939.6,126.8Z"/><path d="M941.8,128.7c0-1.4.7-2.4,1.7-2.4s1.7,1,1.7,2.4-.7,2.4-1.7,2.4S941.8,130,941.8,128.7Zm.6,0c0,1.1.4,1.8,1.1,1.8s1.1-.7,1.1-1.8-.4-1.8-1.1-1.8S942.4,127.6,942.4,128.7Z"/><path d="M914.1,138.6h-.8L913,140h-.5l.3-1.3h-1.1l-.3,1.3h-.5l.3-1.3h-.7v-.5h.7l.3-1.1h-.7v-.5h.8l.3-1.3h.5l-.3,1.3h1l.3-1.3h.5l-.3,1.3h.7v.5h-.7l-.3,1.1h.7Zm-2.3-.4h1l.3-1.1h-1Z"/><path d="M914.9,135.7l.2-.3.7.4V135h.3v.8l.7-.4.2.3-.7.4.7.4-.2.3-.7-.4v.8h-.3v-.8l-.7.4-.2-.3.7-.4Z"/><path d="M921,138.9c0,.3,0,.4.3.4s1-.5,1-1.4a1.8,1.8,0,0,0-2-1.8,2.3,2.3,0,0,0-2.4,2.4,2.1,2.1,0,0,0,2.4,2.1,4.3,4.3,0,0,0,1.6-.3v.4a4.1,4.1,0,0,1-1.6.3,2.5,2.5,0,0,1-2.8-2.6,2.7,2.7,0,0,1,2.8-2.8,2.3,2.3,0,0,1,2.5,2.2c0,1.2-.7,1.8-1.5,1.8a.8.8,0,0,1-.7-.4.9.9,0,0,1-.7.4,1,1,0,0,1-1-1.1,1.5,1.5,0,0,1,1.4-1.6.7.7,0,0,1,.7.3V137h.5Zm-.3-1a.6.6,0,0,0-.5-.4,1,1,0,0,0-.9,1.1c0,.4.2.7.6.7a.8.8,0,0,0,.7-.4Z"/><path d="M924.5,139.9a1.5,1.5,0,0,1-1.4-1.2h.6a1.1,1.1,0,0,0,1.1.7c.6,0,1-.3,1-.7s-.2-.5-.7-.7l-.7-.2c-.6-.2-1-.5-1-1.1a1.2,1.2,0,0,1,1.3-1.2v-.7h.5v.7a1.5,1.5,0,0,1,1.2,1.1h-.5a1,1,0,0,0-1-.7c-.5,0-.9.3-.9.7s.3.5.7.7l.7.2a1.2,1.2,0,0,1,1.1,1.2,1.3,1.3,0,0,1-1.2,1.3v.7h-.5v-.8Z"/><path d="M927.8,137.3a1,1,0,1,1,1-1A1,1,0,0,1,927.8,137.3Zm0-.5a.6.6,0,0,0,.6-.5.6.6,0,0,0-.6-.6.5.5,0,0,0-.5.6A.5.5,0,0,0,927.8,136.8Zm2.4-1.5h.5l-2.9,4.6h-.5Zm0,4.7a1,1,0,1,1,1-1A1,1,0,0,1,930.1,140Zm0-1.6a.6.6,0,0,0-.6.5.6.6,0,0,0,.6.6.6.6,0,0,0,.5-.6A.6.6,0,0,0,930.1,138.5Z"/><path d="M934,136.4a.7.7,0,0,0-1.4,0c0,.3.3.6.5.9l1.3,1.4a2.5,2.5,0,0,0,.2-1h.5a2.5,2.5,0,0,1-.4,1.4l.9.9h-.7l-.5-.5a1.9,1.9,0,0,1-1.3.5,1.4,1.4,0,0,1-1.5-1.4,1.4,1.4,0,0,1,.8-1.2,1.5,1.5,0,0,1-.4-.9,1.3,1.3,0,0,1,2.5,0Zm.1,2.7-1.3-1.4a1,1,0,0,0-.6.9.9.9,0,0,0,1,1A1.4,1.4,0,0,0,934.2,139.1Z"/><path d="M935.9,140.3h2.5v.5h-2.5Z"/><path d="M939.2,139.2a.4.4,0,0,1,.4.4.4.4,0,0,1-.4.4.4.4,0,0,1-.4-.4A.4.4,0,0,1,939.2,139.2Z"/><path d="M940.1,137.8h1.8v.5h-1.8Z"/><path d="M942.7,140a.4.4,0,0,1-.3-.4.4.4,0,0,1,.8,0,.9.9,0,0,1-.2.5l-.4.7h-.4Z"/><path d="M943.8,137.8h3v.5h-3Z"/><path d="M947.6,140a.4.4,0,0,1-.3-.4.4.4,0,0,1,.4-.4.4.4,0,0,1,.4.4.9.9,0,0,1-.2.5l-.4.7h-.4Zm.1-3.1a.4.4,0,0,1,.4.4.4.4,0,0,1-.4.4.4.4,0,0,1-.4-.4A.4.4,0,0,1,947.7,136.8Z"/><path d="M949,136.8a.4.4,0,0,1,.4.4.4.4,0,0,1-.4.4.4.4,0,1,1,0-.8Zm0,2.3a.4.4,0,0,1,.4.4.4.4,0,0,1-.4.4.4.4,0,1,1,0-.8Z"/><path d="M949.9,137.8h5.8v.5h-5.7v-.5Z"/><path d="M958.2,137.9a.8.8,0,0,0-.3.6h-.5a1.4,1.4,0,0,1,.4-.9c.2-.3.6-.6.6-1a.8.8,0,0,0-.8-.8.9.9,0,0,0-.9.9H956a1.5,1.5,0,0,1,1.5-1.5,1.3,1.3,0,0,1,1.4,1.3A1.9,1.9,0,0,1,958.2,137.9Zm-.6,1.3a.4.4,0,0,1,.4.4.4.4,0,0,1-.4.4.4.4,0,1,1,0-.8Z"/><path d="M960,139.2a.4.4,0,0,1,.4.4.4.4,0,0,1-.4.4.4.4,0,1,1,0-.8Zm-.3-3.8h.7v3.2h-.4Z"/><path d="M961.4,136.1a.4.4,0,0,1,.3.4.4.4,0,0,1-.4.4.4.4,0,0,1-.4-.4.9.9,0,0,1,.2-.5l.4-.6h.4Z"/><path d="M962.6,136a.4.4,0,0,1-.3-.4.4.4,0,0,1,.8,0,.9.9,0,0,1-.2.5l-.4.6h-.4Z"/><path d="M963.9,136.1a.4.4,0,0,1,.3.4.4.4,0,1,1-.8,0,.9.9,0,0,1,.2-.5l.4-.6h.4Zm1.2,0a.4.4,0,0,1,.3.4.4.4,0,1,1-.8,0,.9.9,0,0,1,.2-.5l.4-.6h.4Z"/><path d="M966.2,136a.4.4,0,0,1-.3-.4.4.4,0,1,1,.8,0,.9.9,0,0,1-.2.5l-.4.6h-.4Zm1.1,0a.4.4,0,0,1-.3-.4.4.4,0,0,1,.4-.4.4.4,0,0,1,.4.4.9.9,0,0,1-.2.5l-.4.6H967Z"/><path d="M970.3,135.1v.6a2.1,2.1,0,0,0-1.5,2.2,2.1,2.1,0,0,0,1.5,2.2v.6a2.9,2.9,0,0,1,0-5.5Z"/><path d="M970.6,140.6V140a2.1,2.1,0,0,0,1.5-2.2,2.1,2.1,0,0,0-1.5-2.2v-.6a2.9,2.9,0,0,1,0,5.5Z"/><path d="M911.7,158h-1v-4.6h1Z"/><path d="M912.8,155.4h-.5v-.7h.5v-.9h.9v.9h.7v.7h-.7v1.5a.3.3,0,0,0,.4.4h.4v.8h-.6a1,1,0,0,1-1.1-1.1Z"/><path d="M917,158v-.2a1.3,1.3,0,0,1-.8.3,1.1,1.1,0,0,1-1.2-1.1,1.2,1.2,0,0,1,1.3-1.1l.7.2v-.3a.5.5,0,0,0-.5-.5.5.5,0,0,0-.5.3h-.8a1.3,1.3,0,0,1,1.4-1.1,1.3,1.3,0,0,1,1.4,1.3V158H917Zm0-1.2a.7.7,0,0,0-.6-.3c-.3,0-.6.1-.6.4s.3.4.6.4a.8.8,0,0,0,.6-.3Z"/><path d="M919.6,158h-.9v-4.9h.9Z"/><path d="M920.8,154.2a.5.5,0,0,1-.5-.5.6.6,0,0,1,.5-.5.5.5,0,0,1,.5.5C921.4,154,921.2,154.2,920.8,154.2Zm.5,3.8h-.9v-3.3h.9Z"/><path d="M923.5,154.5a1.4,1.4,0,0,1,1.5,1.2h-.9a.5.5,0,0,0-.5-.4c-.4,0-.7.4-.7,1s.3,1,.7,1a.5.5,0,0,0,.5-.4h.9a1.4,1.4,0,0,1-1.5,1.2,1.8,1.8,0,0,1,0-3.5Z"/><path d="M913.5,162.3l.9,4.6h-.6l-.3-1.4h-1.9l-.8,1.4h-.6l2.7-4.6ZM912,165h1.5l-.4-2Z"/><path d="M918.5,165.5c0,1-.8,1.5-1.8,1.5h-1.7l.8-4.6h1.5c.9,0,1.3.4,1.3,1a1.2,1.2,0,0,1-.9,1.2A1,1,0,0,1,918.5,165.5Zm-2.7,1h1.1a1,1,0,0,0,1.1-1c0-.4-.3-.7-.8-.7H916Zm1.3-2.1c.7,0,1.1-.3,1.1-.9s-.3-.6-.8-.6h-1l-.3,1.5Z"/><path d="M921.6,162.3a1.6,1.6,0,0,1,1.7,1.4h-.6a1,1,0,0,0-1.1-.9c-1,0-1.7,1-1.7,2.2a1.3,1.3,0,0,0,1.3,1.5,1.3,1.3,0,0,0,1.3-.9h.6a1.9,1.9,0,0,1-3.7-.6A2.4,2.4,0,0,1,921.6,162.3Z"/><path d="M924.4,162.3h1.4a1.8,1.8,0,0,1,1.9,1.9,2.6,2.6,0,0,1-2.6,2.7h-1.5Zm.8,4.1a2,2,0,0,0,2-2.1,1.3,1.3,0,0,0-1.4-1.4h-.8l-.6,3.5Z"/><path d="M931.9,162.3v.5h-2.4l-.3,1.5h2.1v.5h-2.1l-.3,1.6h2.4v.5h-2.9l.8-4.6h2.9Z"/><path d="M932,167l.8-4.6h2.8v.5h-2.2l-.3,1.5h2.1v.5h-2.1l-.3,2H932Z"/><path d="M935.7,165a2.5,2.5,0,0,1,2.3-2.7,1.6,1.6,0,0,1,1.7,1.4h-.5a1.1,1.1,0,0,0-1.2-.9c-1.1,0-1.7,1-1.7,2.2a1.3,1.3,0,0,0,1.3,1.5,1.5,1.5,0,0,0,1.5-1.3h-1.1v-.5h1.6v.5a2.1,2.1,0,0,1-2,1.9A1.9,1.9,0,0,1,935.7,165Z"/><path d="M944.8,162.3,944,167h-.6l.4-2.1h-2.6l-.4,2.1h-.6l.8-4.6h.6l-.3,2h2.6l.3-2Z"/><path d="M945.7,167h-.6l.8-4.6h.6Z"/><path d="M947.3,165.5h0a.7.7,0,0,0,.8.8c.6,0,.9-.4,1-1.1l.5-3h.6l-.5,3.1a1.7,1.7,0,0,1-1.6,1.6,1.3,1.3,0,0,1-1.4-1.3v-.2h.6Z"/><path d="M951.5,164.7l2.5-2.3h.7l-2.4,2.1L954,167h-.7l-1.4-2.1-.6.5-.2,1.6h-.6l.8-4.6h.6Z"/><path d="M955.5,162.3h.6l-.7,4.1h2.4v.5h-3Z"/><path d="M960.5,167l-.8-3.5L959,167h-.6l.8-4.6h.6l.9,3.8,2.2-3.8h.7l-.8,4.6h-.6l.6-3.5-2,3.5Z"/><path d="M967.6,167h-.4l-1.9-3.7-.7,3.8H964l.8-4.6h.5l1.8,3.6.6-3.6h.6Z"/><path d="M968.7,165a2.5,2.5,0,0,1,2.3-2.7,1.9,1.9,0,0,1,1.9,2,2.5,2.5,0,0,1-2.3,2.7A1.8,1.8,0,0,1,968.7,165Zm3.6-.6c0-.9-.5-1.5-1.2-1.5a1.9,1.9,0,0,0-1.8,2.2c0,.9.5,1.5,1.3,1.5A1.9,1.9,0,0,0,972.4,164.3Z"/><path d="M974.3,165.1,974,167h-.6l.8-4.6h1.7a1.1,1.1,0,0,1,1.3,1.2,1.6,1.6,0,0,1-1.8,1.6h-1.1Zm.1-.5h1.1a1,1,0,0,0,1.1-1c0-.4-.2-.7-.8-.7h-1.1Z"/><path d="M977.6,165a2.5,2.5,0,0,1,2.3-2.7,1.9,1.9,0,0,1,1.9,2.1,2.9,2.9,0,0,1-1,2.2l.3.5-.4.3-.3-.5-1,.3A1.9,1.9,0,0,1,977.6,165Zm2.5,1.4-.3-.5.4-.3.3.5a2.3,2.3,0,0,0,.6-1.7,1.4,1.4,0,0,0-1.3-1.5c-1,0-1.7,1-1.7,2.1a1.4,1.4,0,0,0,1.3,1.5Z"/><path d="M983.1,165l-.3,2h-.6l.8-4.6h1.6c.9,0,1.3.4,1.3,1.2a1.4,1.4,0,0,1-1.4,1.5l1,2h-.6l-1-2h-.8Zm.1-.5h1.1c.7,0,1.1-.3,1.1-1s-.3-.7-.8-.7h-1.1Z"/><path d="M989.3,163.5a.9.9,0,0,0-1-.8c-.6,0-1,.3-1,.8s.2.5.6.6l.8.3a1.1,1.1,0,0,1,.9,1.1,1.5,1.5,0,0,1-1.7,1.5,1.5,1.5,0,0,1-1.7-1.3h.6a1,1,0,0,0,1.1.8c.6,0,1.1-.3,1.1-.9s-.2-.5-.6-.6l-.8-.3c-.5-.2-.9-.5-.9-1a1.5,1.5,0,0,1,1.6-1.4c1,0,1.5.5,1.6,1.3Z"/><path d="M990.5,162.3h3.8v.5h-1.6l-.7,4.1h-.6l.7-4.1h-1.6Z"/><path d="M994.5,165.5a2.4,2.4,0,0,1,0-.5l.5-2.7h.6L995,165a1.4,1.4,0,0,0,0,.4.9.9,0,0,0,1,1c.8,0,1.3-.5,1.5-1.5l.5-2.7h.6l-.5,2.8a2,2,0,0,1-2,1.9A1.4,1.4,0,0,1,994.5,165.5Z"/><path d="M1000.1,167l-.9-4.6h.6l.7,3.8,2.2-3.8h.6l-2.7,4.6Z"/><path d="M1006.6,162.3l.2,3.7,1.7-3.7h.6L1007,167h-.5l-.3-3.6-1.7,3.6h-.5l-.3-4.6h.5l.2,3.7,1.7-3.7Z"/><path d="M1011.2,164.6l1.2,2.3h-.6l-1-1.9-1.7,1.9h-.7l2.1-2.4-1.1-2.2h.6l.9,1.8,1.6-1.8h.7Z"/><path d="M1016.9,162.3h.7l-2.2,2.7-.3,1.9h-.6l.3-1.9-1.2-2.7h.6l1,2.2Z"/><path d="M1020.5,167h-3.4v-.4l3.2-3.7h-2.5v-.5h3.3v.4l-3.2,3.7h2.6Z"/><path d="M913,176h-.5v-.3a1.3,1.3,0,0,1-.9.3,1,1,0,0,1-1.1-1,1.3,1.3,0,0,1,1.4-1.2,1.1,1.1,0,0,1,.8.3v-.6a.5.5,0,0,0-.6-.5.8.8,0,0,0-.8.5h-.5a1.5,1.5,0,0,1,1.4-1c.7,0,1.1.4,1.1,1a.4.4,0,0,1,0,.2Zm-.3-1.2c0-.3-.4-.4-.7-.4s-.9.2-.9.7.3.5.7.5a.9.9,0,0,0,.8-.4Z"/><path d="M914.5,176H914l.9-4.9h.6l-.3,2a1.4,1.4,0,0,1,1-.5,1.3,1.3,0,0,1,1.3,1.4,1.9,1.9,0,0,1-1.8,2,1,1,0,0,1-.9-.5Zm.2-1a.8.8,0,0,0,.8.5c.8,0,1.2-.7,1.2-1.5s-.3-.9-.8-.9a1.3,1.3,0,0,0-1,.6Z"/><path d="M920.6,175a1.4,1.4,0,0,1-1.5,1.1,1.3,1.3,0,0,1-1.3-1.5,1.9,1.9,0,0,1,1.8-2,1.1,1.1,0,0,1,1.2,1.1h-.6a.6.6,0,0,0-.7-.6c-.7,0-1.1.7-1.1,1.5s.3,1,.8,1a.8.8,0,0,0,.8-.6h.6Z"/><path d="M924.2,171.1h.6l-.9,4.9h-.6v-.4a1.4,1.4,0,0,1-1,.5,1.3,1.3,0,0,1-1.2-1.4,1.9,1.9,0,0,1,1.8-2,1,1,0,0,1,.9.5Zm-.5,2.5a.8.8,0,0,0-.8-.5c-.8,0-1.2.8-1.2,1.5s.3.9.8.9a1.3,1.3,0,0,0,1-.6Z"/><path d="M927.8,175a1.5,1.5,0,0,1-1.5,1.1,1.3,1.3,0,0,1-1.4-1.5,1.8,1.8,0,0,1,1.8-2,1.2,1.2,0,0,1,1.3,1.3c0,.1,0,.3,0,.5h-2.4v.2c0,.6.3,1,.8,1a.9.9,0,0,0,.9-.6h.6Zm-2.2-1h1.8a.7.7,0,0,0-.7-.8A1.1,1.1,0,0,0,925.6,174Z"/><path d="M930.8,171.6h-.3a.7.7,0,0,0-.7.6v.5h.7v.5h-.7l-.5,2.8h-.5l.5-2.8h-.5v-.5h.6v-.5a1.2,1.2,0,0,1,1.2-1h.4Z"/><path d="M932.8,175.5a1.4,1.4,0,0,1-1,.5,1.3,1.3,0,0,1-1.2-1.4,1.9,1.9,0,0,1,1.8-2,1.1,1.1,0,0,1,.9.5v-.4h.6l-.5,3.1a1.6,1.6,0,0,1-1.7,1.5,1.2,1.2,0,0,1-1.3-1.1h.5a.7.7,0,0,0,.7.6c.6,0,1-.4,1.1-1.1Zm.3-1.9a.8.8,0,0,0-.8-.5,1.3,1.3,0,0,0-1.2,1.5.8.8,0,0,0,.8.9,1.3,1.3,0,0,0,1-.6Z"/><path d="M937.4,173.5a.5.5,0,0,1,0,.3L937,176h-.6l.4-2.1v-.2a.5.5,0,0,0-.6-.6,1.1,1.1,0,0,0-1,.6l-.4,2.2h-.6l.9-4.9h.6l-.3,2a1.5,1.5,0,0,1,1.1-.5A.9.9,0,0,1,937.4,173.5Z"/><path d="M938.5,176h-.6l.6-3.3h.6Zm.5-4a.4.4,0,1,1,.4-.4A.4.4,0,0,1,939,172Z"/><path d="M938.7,176.7h.3c.3,0,.4-.1.5-.5l.7-3.7h.6l-.7,3.7c-.1.6-.5,1-1,1h-.4Zm1.9-4.7a.4.4,0,1,1,.4-.4A.4.4,0,0,1,940.5,172Z"/><path d="M942.3,174.4l-.4.3-.2,1.2h-.6l.9-4.9h.6l-.5,3,1.8-1.5h.7l-1.8,1.5L944,176h-.6Z"/><path d="M945.1,176h-.6l.9-4.9h.6Z"/><path d="M950,172.5a.9.9,0,0,1,.9.9.7.7,0,0,1,0,.3l-.4,2.2h-.6l.4-2.1a.8.8,0,0,0,0-.3c0-.3-.2-.5-.5-.5a1.1,1.1,0,0,0-.9.6l-.4,2.2H948l.4-2.1c0-.1,0-.2,0-.3s-.2-.5-.5-.5a1.1,1.1,0,0,0-.9.6l-.4,2.2H946l.6-3.3h.6v.4a1.3,1.3,0,0,1,1-.5.8.8,0,0,1,.8.5A2.2,2.2,0,0,1,950,172.5Z"/><path d="M952.1,172.6h.6v.4a1.5,1.5,0,0,1,1.1-.5.9.9,0,0,1,1,1,.5.5,0,0,1,0,.3l-.4,2.2h-.6l.4-2.1v-.2a.5.5,0,0,0-.6-.6,1.1,1.1,0,0,0-1,.6l-.4,2.2h-.6Z"/><path d="M955.2,174.6a1.8,1.8,0,0,1,1.7-2,1.3,1.3,0,0,1,1.4,1.5,1.8,1.8,0,0,1-1.7,2A1.3,1.3,0,0,1,955.2,174.6Zm2.5-.6c0-.6-.3-1-.8-1s-1.1.6-1.1,1.5.3,1,.8,1S957.7,174.9,957.7,174Z"/><path d="M959.1,177.2h-.6l.8-4.6h.6v.4a1.4,1.4,0,0,1,1-.5A1.3,1.3,0,0,1,962,174a1.9,1.9,0,0,1-1.8,2,1,1,0,0,1-.9-.5Zm.4-2.3a.8.8,0,0,0,.8.5c.8,0,1.2-.7,1.2-1.5s-.2-.9-.8-.9a1.3,1.3,0,0,0-1,.6Z"/><path d="M965.3,172.6h.6l-.8,4.6h-.6l.3-1.7a1.4,1.4,0,0,1-1,.5,1.3,1.3,0,0,1-1.2-1.4,1.9,1.9,0,0,1,1.8-2,1,1,0,0,1,.9.5Zm-.2,1a.8.8,0,0,0-.8-.5c-.8,0-1.2.8-1.2,1.5s.3.9.8.9a1.3,1.3,0,0,0,1-.6Z"/><path d="M968.5,173.2h-.4a1,1,0,0,0-.9.6l-.4,2.2h-.6l.6-3.3h.6v.4a1.1,1.1,0,0,1,.9-.5h.3Z"/><path d="M969.2,175c0,.4.4.5.7.5s.7-.2.7-.5-.1-.3-.4-.4l-.6-.2c-.4-.1-.7-.3-.7-.8a1.1,1.1,0,0,1,1.3-1c.8,0,1.2.4,1.2,1h-.5a.6.6,0,0,0-.7-.5c-.4,0-.7.2-.7.5s.1.3.4.4l.6.2c.5.2.7.4.7.8a1.2,1.2,0,0,1-1.3,1.1,1.2,1.2,0,0,1-1.3-1h.6Z"/><path d="M972.4,173.1h-.5v-.5h.5l.2-.9h.6l-.2.9h.8v.5H973l-.3,1.9v.2c0,.2.1.3.4.3h.5v.5h-.5c-.5,0-.8-.2-.8-.7a.6.6,0,0,1,0-.3Z"/><path d="M976.7,176h-.6v-.4a1.4,1.4,0,0,1-1.1.5.9.9,0,0,1-1-1,.5.5,0,0,1,0-.3l.4-2.2h.6l-.4,2.1v.3c0,.3.2.5.6.5a1.1,1.1,0,0,0,1-.6l.4-2.2h.6Z"/><path d="M978.6,176l-.6-3.3h.5l.4,2.6,1.5-2.6h.6l-2,3.3Z"/><path d="M984,175.2l1.3-2.5h.6l-1.7,3.3h-.5l-.2-2.5-1.2,2.5h-.5l-.3-3.3h.5l.2,2.5,1.3-2.5h.5Z"/><path d="M987.7,174.3l.9,1.7H988l-.7-1.3-1.2,1.3h-.6l1.6-1.7-.8-1.6h.6l.6,1.2,1.1-1.2h.6Z"/><path d="M989.3,177.2l.8-1.3-.6-3.3h.5l.5,2.6,1.5-2.6h.6l-2.8,4.6Z"/><path d="M995.1,176h-2.6v-.4l2.3-2.5H993v-.5h2.5v.4l-2.3,2.5h1.9Z"/><path d="M911.9,185h-.6l.7-3.9-1.2.6v-.6l1.5-.7h.3Z"/><path d="M914.7,182.8c.5-.4,1-.9,1-1.4s-.3-.6-.7-.6a1,1,0,0,0-1,.9h-.6a1.8,1.8,0,0,1,1.7-1.5c.8,0,1.3.4,1.3,1.1s-.5,1.2-1.2,1.8l-1.4,1.3h2.2v.5h-3v-.4Z"/><path d="M917.8,182.3h.3a.9.9,0,0,0,1-.9.6.6,0,0,0-.7-.7,1,1,0,0,0-1,.8h-.6a1.7,1.7,0,0,1,1.7-1.3,1.1,1.1,0,0,1,1.3,1.1,1.3,1.3,0,0,1-1,1.2.9.9,0,0,1,.6.9,1.6,1.6,0,0,1-1.6,1.5c-.9,0-1.5-.5-1.5-1.2h.6a.8.8,0,0,0,.9.8,1,1,0,0,0,1-1,.7.7,0,0,0-.8-.7h-.3Z"/><path d="M920.5,183.4H922l.2-1.1h.5l-.2,1.1h.8v.5h-.8l-.2,1h-.5l.2-1h-2.1v-.4l2.3-3.1h.6Z"/><path d="M923.7,183.8h.6a.8.8,0,0,0,.9.8,1.1,1.1,0,0,0,1.1-1.2.8.8,0,0,0-.8-.9,1.3,1.3,0,0,0-.9.4h-.5l.5-2.5H927v.5h-2l-.3,1.4a1.7,1.7,0,0,1,.8-.3,1.2,1.2,0,0,1,1.3,1.3A1.7,1.7,0,0,1,925,185,1.2,1.2,0,0,1,923.7,183.8Z"/><path d="M930.2,181.5a.7.7,0,0,0-.7-.7c-.8,0-1.4.9-1.5,1.8h0a1.4,1.4,0,0,1,1.2-.7,1.3,1.3,0,0,1,1.4,1.3,1.7,1.7,0,0,1-1.7,1.7c-1,0-1.5-.8-1.5-1.8s.8-3,2.1-3a1.2,1.2,0,0,1,1.3,1.2h-.6Zm-1.4,3a1.1,1.1,0,0,0,1.1-1.2.8.8,0,0,0-.9-.9,1.1,1.1,0,0,0-1.1,1.2A.8.8,0,0,0,928.9,184.5Z"/><path d="M931.9,185h-.6l2.3-4.1h-2.3v-.5h3v.5Z"/><path d="M934.2,183.8a1.4,1.4,0,0,1,1.1-1.3,1,1,0,0,1-.6-.9,1.4,1.4,0,0,1,1.5-1.3,1.2,1.2,0,0,1,.4,2.3,1.1,1.1,0,0,1,.7,1,1.5,1.5,0,0,1-1.7,1.4A1.2,1.2,0,0,1,934.2,183.8Zm1.5.7a1,1,0,0,0,1.1-1c0-.5-.4-.8-1-.8a1,1,0,0,0-1.1,1A.9.9,0,0,0,935.7,184.5Zm.5-3.8a.8.8,0,0,0-.9.9.7.7,0,0,0,.7.7.9.9,0,0,0,.9-.9C937.1,181,936.7,180.7,936.3,180.7Z"/><path d="M938.5,183.8a.7.7,0,0,0,.7.7c.8,0,1.4-.9,1.5-1.8h0a1.4,1.4,0,0,1-1.2.7,1.3,1.3,0,0,1-1.4-1.3,1.7,1.7,0,0,1,1.7-1.7c1,0,1.5.8,1.5,1.8s-.8,3-2.1,3a1.2,1.2,0,0,1-1.3-1.2h.6Zm1.3-3a1.1,1.1,0,0,0-1.1,1.2.8.8,0,0,0,.9.9,1.1,1.1,0,0,0,1.1-1.2A.8.8,0,0,0,939.9,180.8Z"/><path d="M941.9,183.2c0-1.6.9-3,2-3s1.5.7,1.5,1.8-.9,3-2,3S941.9,184.3,941.9,183.2Zm2.9-1.2c0-.7-.3-1.2-.9-1.2s-1.5,1.3-1.5,2.4.3,1.3.9,1.3S944.8,183.2,944.8,182.1Z"/><path d="M914.2,192.6h-.9L913,194h-.5l.4-1.3h-1l-.4,1.3H911l.4-1.3h-.7v-.5h.7l.3-1.1H911v-.5h.9l.4-1.3h.5l-.4,1.3h1l.4-1.3h.5l-.4,1.3h.7v.5h-.7l-.3,1.1h.8Zm-2.2-.4h1l.3-1.1h-1Z"/><path d="M916,191.2v-.8l-.7.3v-.3l.7-.3-.6-.5.2-.3.6.5v-.7h.3v.8l.7-.3v.3l-.7.3.6.5-.2.3-.6-.5v.8Z"/><path d="M921.2,192.9c0,.3,0,.4.3.4s1-.5,1-1.5a1.7,1.7,0,0,0-1.9-1.7,2.5,2.5,0,0,0-2.5,2.6c0,1.5,1.2,2,2.2,2a4.8,4.8,0,0,0,1.7-.3v.5a4.1,4.1,0,0,1-1.6.3c-1.4,0-2.7-.7-2.7-2.4a3,3,0,0,1,3-3,2.1,2.1,0,0,1,2.4,2.1c0,1.3-.8,1.9-1.5,1.9a.7.7,0,0,1-.7-.4,1,1,0,0,1-.8.4.9.9,0,0,1-.9-1,1.6,1.6,0,0,1,1.5-1.7.7.7,0,0,1,.7.3v-.3h.5Zm-.3-1a.6.6,0,0,0-.5-.4,1.1,1.1,0,0,0-1,1.2.5.5,0,0,0,.5.6,1,1,0,0,0,.7-.4Z"/><path d="M923.7,192.7a.9.9,0,0,0,1,.7c.6,0,1-.3,1-.9s-.2-.5-.6-.6l-.7-.2c-.5-.2-.9-.4-.9-1a1.4,1.4,0,0,1,1.5-1.3v-.7h.5v.7a1.3,1.3,0,0,1,1,1.1h-.5c0-.4-.4-.7-1-.7s-1,.3-1,.8.2.5.6.6l.7.2a1,1,0,0,1,.9,1,1.4,1.4,0,0,1-1.5,1.4v.7h-.5v-.7a1.3,1.3,0,0,1-1.2-1.2h.5Z"/><path d="M930.7,189.3h.5l-3.7,4.6H927Zm-1.6.9a1,1,0,0,1-1,1,.9.9,0,0,1-1-1,1,1,0,0,1,1-1A.9.9,0,0,1,929.1,190.3Zm-.4,0a.5.5,0,0,0-.5-.5.6.6,0,0,0-.6.6.5.5,0,0,0,.5.5A.6.6,0,0,0,928.7,190.3Zm.4,2.8a1,1,0,0,1,1-1,.9.9,0,0,1,1,1,1,1,0,0,1-1,1A.9.9,0,0,1,929.1,193.1Zm.5,0a.5.5,0,0,0,.5.5.6.6,0,0,0,.6-.6.5.5,0,0,0-.5-.5A.5.5,0,0,0,929.5,193.1Z"/><path d="M933.1,190.5a1.1,1.1,0,0,0,.3.7l1.1,1.4a3.8,3.8,0,0,0,.4-1h.5a3,3,0,0,1-.6,1.4l.7.9h-.7l-.4-.5a2,2,0,0,1-1.4.5,1.2,1.2,0,0,1-1.4-1.2,1.5,1.5,0,0,1,1.1-1.4,1.4,1.4,0,0,1-.3-.8,1.3,1.3,0,0,1,1.3-1.3,1.1,1.1,0,0,1,1.2,1.1h-.5a.6.6,0,0,0-.6-.7A.7.7,0,0,0,933.1,190.5Zm1.1,2.6-1.1-1.4a1,1,0,0,0-.8,1,.8.8,0,0,0,.8.8A1.7,1.7,0,0,0,934.2,193.1Z"/><path d="M935.6,194.3H938v.5h-2.5Z"/><path d="M938.9,193.2a.4.4,0,0,1,.4.4.4.4,0,0,1-.4.4.4.4,0,1,1,0-.8Z"/><path d="M940.2,191.8H942v.5h-1.8Z"/><path d="M942.5,194a.3.3,0,0,1-.3-.4.4.4,0,0,1,.4-.4.4.4,0,0,1,.4.4.7.7,0,0,1-.2.5l-.5.7H942Z"/><path d="M943.8,191.8h3v.5h-3Z"/><path d="M947.3,194a.3.3,0,0,1-.3-.4.4.4,0,0,1,.4-.4.4.4,0,0,1,.4.4.7.7,0,0,1-.2.5l-.5.7h-.4Zm.5-3.1a.4.4,0,0,1,.4.4.4.4,0,0,1-.4.4.4.4,0,0,1-.4-.4A.4.4,0,0,1,947.9,190.8Z"/><path d="M948.7,193.2a.4.4,0,0,1,.4.4.4.4,0,0,1-.4.4.4.4,0,0,1-.4-.4A.4.4,0,0,1,948.7,193.2Zm.4-2.3a.4.4,0,0,1,.4.4.4.4,0,0,1-.4.4.4.4,0,0,1-.4-.4A.4.4,0,0,1,949.2,190.8Z"/><path d="M950,191.8h5.7v.5h-5.7Z"/><path d="M956.9,190.7h-.6a1.7,1.7,0,0,1,1.7-1.4c.8,0,1.2.4,1.2,1.1s-.5,1.1-1,1.5a1.2,1.2,0,0,0-.5.6h-.5a1.8,1.8,0,0,1,.6-1c.3-.3.8-.7.8-1.2a.6.6,0,0,0-.7-.6A1.1,1.1,0,0,0,956.9,190.7Zm.4,2.5a.4.4,0,0,1,.4.4.4.4,0,0,1-.8,0A.4.4,0,0,1,957.3,193.2Z"/><path d="M959.7,193.2a.4.4,0,0,1,.4.4.4.4,0,0,1-.4.4.4.4,0,0,1,0-.8Zm.4-3.8h.7l-.7,3.2h-.4Z"/><path d="M961.7,190.1a.4.4,0,0,1,.3.4.4.4,0,0,1-.4.4.4.4,0,0,1-.4-.4.7.7,0,0,1,.2-.5l.5-.7h.4Z"/><path d="M962.9,190a.4.4,0,0,1-.3-.4.4.4,0,0,1,.4-.4.4.4,0,0,1,.4.4.7.7,0,0,1-.2.5l-.5.7h-.4Z"/><path d="M964.2,190.1a.4.4,0,0,1,.3.4.4.4,0,0,1-.4.4.4.4,0,0,1-.4-.4.7.7,0,0,1,.2-.5l.5-.7h.4Zm1.1,0a.4.4,0,0,1,.3.4.4.4,0,0,1-.4.4.4.4,0,0,1-.4-.4.7.7,0,0,1,.2-.5l.5-.7h.4Z"/><path d="M966.6,190a.4.4,0,0,1-.3-.4.4.4,0,0,1,.4-.4.4.4,0,0,1,.4.4.7.7,0,0,1-.2.5l-.5.7H966Zm1.2,0a.4.4,0,0,1-.3-.4.4.4,0,0,1,.4-.4.4.4,0,0,1,.4.4.7.7,0,0,1-.2.5l-.5.7h-.4Z"/><path d="M970.8,189.1v.6a2.7,2.7,0,0,0-1.9,2.7,1.6,1.6,0,0,0,1.1,1.7v.6a2.2,2.2,0,0,1-1.6-2.2A3.4,3.4,0,0,1,970.8,189.1Z"/><path d="M970.2,194.6V194a2.7,2.7,0,0,0,1.9-2.7,1.6,1.6,0,0,0-1.1-1.7V189a2.2,2.2,0,0,1,1.6,2.2A3.3,3.3,0,0,1,970.2,194.6Z"/><path d="M1055.1,101.5c0,.8-.6,1.3-1.5,1.3h-1.9V98.1h1.8c1,0,1.5.4,1.5,1.3a.9.9,0,0,1-.6,1A1.2,1.2,0,0,1,1055.1,101.5Zm-1.7-1.4c.5,0,.7-.2.7-.5s-.2-.5-.7-.5h-.8v1.1Zm-.8,1.9h.9c.5,0,.7-.2.7-.6s-.2-.6-.7-.6h-.9Z"/><path d="M1057.2,102.9a1.8,1.8,0,1,1,1.6-1.7A1.6,1.6,0,0,1,1057.2,102.9Zm0-2.7c-.5,0-.7.4-.7,1s.2,1,.7,1,.7-.4.7-1S1057.7,100.1,1057.2,100.1Z"/><path d="M1060.4,102.8h-.9V97.9h.9Z"/><path d="M1063.3,102.5a1.3,1.3,0,0,1-.8.3,1.6,1.6,0,0,1-1.5-1.7,1.6,1.6,0,0,1,1.5-1.7,1.1,1.1,0,0,1,.8.3V97.9h1v4.9h-1Zm0-2a.8.8,0,0,0-.6-.4c-.5,0-.8.4-.8,1s.3,1,.8,1a.7.7,0,0,0,.6-.4Z"/><path d="M1054.3,107.2l1.8,4.6h-1.2l-.3-.9h-1.7l-.3.9h-1.2l1.8-4.6Zm-1.1,2.7h1l-.5-1.3Z"/><path d="M1060.1,110.5c0,.8-.6,1.3-1.5,1.3h-2.1v-4.6h2c1,0,1.5.4,1.5,1.3a.9.9,0,0,1-.6,1A1.2,1.2,0,0,1,1060.1,110.5Zm-1.8-1.5c.3,0,.5-.1.5-.4s-.2-.4-.5-.4h-.7v.8Zm-.7,1.8h.8c.3,0,.5-.2.5-.5s-.2-.5-.5-.5h-.8Z"/><path d="M1062.6,107.1a1.9,1.9,0,0,1,2,1.6h-1.2a.8.8,0,0,0-.8-.6c-.6,0-1,.6-1,1.3s.4,1.3,1,1.3a.8.8,0,0,0,.8-.6h1.2a1.9,1.9,0,0,1-2,1.6,2.4,2.4,0,0,1,0-4.8Z"/><path d="M1065.1,107.2h1.8a2.3,2.3,0,1,1,0,4.6h-1.8Zm1.7,3.6a1.1,1.1,0,0,0,1.2-1.2,1.1,1.1,0,0,0-1.2-1.2h-.5v2.5h.5Z"/><path d="M1073,107.2v1h-2.1v.7h1.9v1h-1.9v.8h2.1v1h-3.3v-4.6h3.3Z"/><path d="M1073.6,111.8v-4.6h3.2v1h-2v.9h1.9v1h-1.9v1.6h-1.2Z"/><path d="M1079.6,110.2v-.9h1.9v.5a1.9,1.9,0,0,1-2.1,2.1,2.4,2.4,0,0,1,0-4.8,1.9,1.9,0,0,1,2,1.6h-1.2a.8.8,0,0,0-.8-.6c-.7,0-1,.5-1,1.3s.4,1.3,1.1,1.3a.8.8,0,0,0,.9-.6Z"/><path d="M1086.2,107.2v4.6H1085V110h-1.8v1.8H1082v-4.6h1.2v1.8h1.8v-1.8Z"/><path d="M1088.1,111.8h-1.2v-4.6h1.2Z"/><path d="M1089.8,110.2c0,.4.2.6.6.6s.6-.3.6-.8v-2.8h1.2V110a1.7,1.7,0,0,1-1.8,1.8,1.7,1.7,0,0,1-1.8-1.7h1.3Z"/><path d="M1094,109.1l1.5-1.9h1.4l-1.6,2,1.7,2.6h-1.4l-1.2-1.8-.4.5v1.3h-1.2v-4.6h1.2v1.8Z"/><path d="M1097.4,107.2h1.2v3.6h2.1v1h-3.3Z"/><path d="M1103.3,111.8l-1-2.8v2.8h-1.1v-4.6h1.5l1,2.9,1-2.9h1.5v4.6H1105V109l-1,2.8Z"/><path d="M1111,111.8h-1l-1.9-2.7v2.7h-1.2v-4.6h1.1l1.8,2.5v-2.5h1.2v4.6Z"/><path d="M1113.7,111.9a2.4,2.4,0,1,1,2.3-2.4A2.2,2.2,0,0,1,1113.7,111.9Zm0-3.7c-.6,0-1,.5-1,1.3s.4,1.3,1,1.3,1-.5,1-1.3S1114.3,108.2,1113.7,108.2Z"/><path d="M1117.6,110.3v1.4h-1.2v-4.6h2a1.6,1.6,0,1,1,0,3.2h-.8Zm.7-2.1h-.7v1.2h.7a.6.6,0,0,0,.6-.6C1119,108.4,1118.8,108.2,1118.3,108.2Z"/><path d="M1123.6,111.7l-.9.2a2.4,2.4,0,1,1,2.3-2.4,2.4,2.4,0,0,1-.6,1.6l.3.4-.7.6Zm-.9-3.5c-.6,0-1,.5-1,1.3s.4,1.4,1,1.4h.2l-.4-.5.7-.6.3.4a2,2,0,0,0,.1-.7C1123.7,108.7,1123.3,108.2,1122.7,108.2Z"/><path d="M1126.7,110.3v1.5h-1.2v-4.6h2.1a1.5,1.5,0,0,1,1.7,1.6,1.3,1.3,0,0,1-.9,1.4l1.1,1.7h-1.3l-1-1.5h-.5Zm0-1h.7c.4,0,.6-.2.6-.5s-.2-.5-.6-.5h-.7Z"/><path d="M1130.8,110.4c.1.3.4.5.7.5s.6-.2.6-.5-.1-.3-.4-.4l-.9-.2c-.7-.2-1.2-.5-1.2-1.3a1.6,1.6,0,0,1,1.8-1.5,1.7,1.7,0,0,1,1.9,1.4h-1.2a.7.7,0,0,0-.7-.5c-.3,0-.6.2-.6.4s.1.3.4.4l.9.2c.8.2,1.2.6,1.2,1.3s-.8,1.5-1.8,1.5a1.8,1.8,0,0,1-2-1.5h1.2Z"/><path d="M1133.6,107.2h4v1h-1.4v3.6H1135v-3.6h-1.4v-1Z"/><path d="M1138.1,109.9v-2.7h1.2v2.6c0,.7.3,1,.8,1s.8-.3.8-1v-2.6h1.2V110a1.8,1.8,0,0,1-2,2A1.9,1.9,0,0,1,1138.1,109.9Z"/><path d="M1144.2,111.8l-1.7-4.6h1.3l1,3,1-3h1.3l-1.7,4.6Z"/><path d="M1150.7,107.2l.7,2.7.6-2.7h1.2l-1.2,4.6h-1.1l-.7-2.7-.7,2.7h-1.1l-1.2-4.6h1.3l.6,2.7.7-2.7Z"/><path d="M1156.2,109.4l1.5,2.4h-1.3l-.9-1.4-.9,1.4h-1.3l1.5-2.4-1.5-2.2h1.3l.8,1.3.9-1.3h1.3Z"/><path d="M1161.1,107.2h1.3l-1.7,3v1.6h-1.2v-1.6l-1.6-3h1.3l1,1.8Z"/><path d="M1166.3,111.8h-3.7v-.9l2.1-2.7h-2.1v-1h3.7v.9l-2.1,2.7h2.1v1Z"/><path d="M1053.4,120.8v-.2a1.3,1.3,0,0,1-.8.3,1.1,1.1,0,0,1-1.2-1.1,1.2,1.2,0,0,1,1.3-1.1l.7.2v-.2a.4.4,0,0,0-.4-.4.4.4,0,0,0-.4.3h-1.1a1.4,1.4,0,0,1,1.5-1.2,1.3,1.3,0,0,1,1.5,1.4v2.1h-1.1Zm0-1.2a.6.6,0,0,0-.5-.3c-.2,0-.5.1-.5.3s.2.3.5.3l.5-.2Z"/><path d="M1056.3,120.8h-1.2v-4.9h1.2v1.8a1.3,1.3,0,0,1,.8-.3,1.8,1.8,0,0,1,0,3.5,1.3,1.3,0,0,1-.8-.3Zm0-1.2a.5.5,0,0,0,.5.3c.4,0,.6-.3.6-.7a.7.7,0,0,0-.6-.7.5.5,0,0,0-.5.3Z"/><path d="M1060.7,117.3a1.5,1.5,0,0,1,1.6,1.3h-1.1a.4.4,0,0,0-.4-.3c-.3,0-.5.3-.5.8s.2.8.5.8.4-.1.4-.3h1.1a1.5,1.5,0,0,1-1.6,1.3,1.7,1.7,0,0,1-1.7-1.8A1.7,1.7,0,0,1,1060.7,117.3Z"/><path d="M1064.9,120.5a1.3,1.3,0,0,1-.8.3,1.8,1.8,0,0,1,0-3.5,1.3,1.3,0,0,1,.8.3v-1.8h1.2v4.9h-1.2Zm0-1.9a.6.6,0,0,0-.5-.3c-.4,0-.6.3-.6.7a.7.7,0,0,0,.6.7.5.5,0,0,0,.5-.3Z"/><path d="M1069.8,119.6a1.5,1.5,0,0,1-1.6,1.3,1.6,1.6,0,0,1-1.7-1.8,1.7,1.7,0,0,1,1.7-1.8,1.6,1.6,0,0,1,1.6,1.7v.3h-2.2c0,.4.2.6.6.6a.5.5,0,0,0,.5-.3h1Zm-2.2-.8h1a.5.5,0,0,0-.5-.5C1067.9,118.2,1067.7,118.4,1067.6,118.8Z"/><path d="M1072.4,116.9h-.3a.4.4,0,0,0-.4.4v.2h.7v.9h-.7v2.5h-1.2v-2.4h-.5v-.9h.5v-.3a1.2,1.2,0,0,1,1.3-1.3h.5Z"/><path d="M1074.9,120.3a1.1,1.1,0,0,1-.8.3,1.5,1.5,0,0,1-1.5-1.7,1.5,1.5,0,0,1,1.5-1.7,1,1,0,0,1,.8.3v-.3h1.2v2.9a1.6,1.6,0,0,1-1.8,1.8,1.5,1.5,0,0,1-1.7-1.2h1.1a.5.5,0,0,0,.5.4c.4,0,.6-.2.6-.6Zm0-1.8a.6.6,0,0,0-.5-.3.7.7,0,0,0,0,1.4.5.5,0,0,0,.5-.3Z"/><path d="M1076.7,115.9h1.2v1.8a1.2,1.2,0,0,1,.9-.4,1.1,1.1,0,0,1,1.2,1.3v2.2h-1.2v-1.9c0-.3-.1-.5-.5-.5a.5.5,0,0,0-.5.4v2h-1.2v-4.9Z"/><path d="M1081.2,117.1a.6.6,0,1,1,.7-.6A.6.6,0,0,1,1081.2,117.1Zm.6,3.7h-1.2v-3.4h1.2Z"/><path d="M1083.5,120.7a1.2,1.2,0,0,1-1.3,1.3h-.4v-.9h.2c.2,0,.4-.1.4-.4v-3.3h1.2v3.3Zm-.6-3.6a.6.6,0,1,1,.7-.6A.6.6,0,0,1,1083,117.1Z"/><path d="M1085.6,119.5l-.2.3v1h-1.2v-4.9h1.2v2.6l1-1.1h1.4l-1.3,1.4,1.3,2h-1.3Z"/><path d="M1089.3,120.8h-1.2v-4.9h1.2Z"/><path d="M1094,117.3a1.1,1.1,0,0,1,1.1,1.3v2.2h-1.2v-1.9c0-.3-.1-.5-.4-.5a.4.4,0,0,0-.4.4v2H1092v-1.9c0-.3-.1-.5-.4-.5a.4.4,0,0,0-.4.4v2H1090v-3.4h1.2v.3a1.3,1.3,0,0,1,1.8.1A1.1,1.1,0,0,1,1094,117.3Z"/><path d="M1095.7,117.4h1.2v.3a1.2,1.2,0,0,1,.9-.4,1.1,1.1,0,0,1,1.2,1.3v2.2h-1.2v-1.9c0-.3-.1-.5-.5-.5a.5.5,0,0,0-.5.4v2h-1.2v-3.4Z"/><path d="M1101.1,120.9a1.8,1.8,0,0,1,0-3.5,1.6,1.6,0,0,1,1.7,1.8A1.7,1.7,0,0,1,1101.1,120.9Zm0-2.6c-.4,0-.6.3-.6.8s.2.8.6.8.6-.3.6-.8S1101.5,118.3,1101.1,118.3Z"/><path d="M1104.5,122h-1.2v-4.6h1.2v.3a1.3,1.3,0,0,1,.8-.3,1.8,1.8,0,0,1,0,3.5,1.3,1.3,0,0,1-.8-.3Zm0-2.4a.5.5,0,0,0,.5.3c.4,0,.6-.3.6-.7a.7.7,0,0,0-.6-.7.5.5,0,0,0-.5.3Z"/><path d="M1109.5,120.5a1.3,1.3,0,0,1-.8.3,1.8,1.8,0,0,1,0-3.5,1.3,1.3,0,0,1,.8.3v-.3h1.2V122h-1.2Zm0-1.9a.6.6,0,0,0-.5-.3c-.4,0-.6.3-.6.7a.7.7,0,0,0,.6.7.5.5,0,0,0,.5-.3Z"/><path d="M1113.5,118.5h-.5c-.3,0-.5.1-.6.4v2h-1.2v-3.4h1.2v.3a.9.9,0,0,1,.7-.4h.3v1.2Z"/><path d="M1115,119.7a.4.4,0,0,0,.4.3c.2,0,.3-.1.3-.3s-.1-.2-.2-.2h-.7c-.6-.1-.9-.4-.9-1s.6-1.1,1.5-1.1,1.4.4,1.5,1.1h-1.1c0-.1-.1-.3-.4-.3s-.3.1-.3.2.1.2.2.2l.7.2c.6.1,1,.5,1,1s-.7,1.1-1.5,1.1-1.5-.4-1.6-1.1Z"/><path d="M1117.6,118.3h-.5v-.9h.5v-.9h1.2v.9h.7v.9h-.7v1.1a.3.3,0,0,0,.4.4h.4v1h-.7a1.1,1.1,0,0,1-1.2-1.2v-1.3Z"/><path d="M1123.3,120.8h-1.2v-.3a1.2,1.2,0,0,1-.9.4,1.1,1.1,0,0,1-1.2-1.2v-2.2h1.2v1.9c0,.3.1.5.4.5a.5.5,0,0,0,.5-.4v-2h1.2Z"/><path d="M1124.9,120.8l-1.3-3.4h1.2l.6,1.9.6-1.9h1.2l-1.3,3.4Z"/><path d="M1130.8,119.3l.5-1.8h1.1l-1.1,3.4h-1l-.5-1.7-.5,1.7h-1l-1.1-3.4h1.2l.5,1.8.5-1.8h.7Z"/><path d="M1135,119l1.2,1.7h-1.3l-.6-.9-.6.9h-1.2l1.2-1.7-1.1-1.7h1.3l.5.8.5-.8h1.2Z"/><path d="M1137.1,122l.5-1.3-1.2-3.3h1.2l.6,1.9.6-1.9h1.2l-1.8,4.6Z"/><path d="M1143.2,120.8h-3V120l1.5-1.7h-1.5v-.9h2.9v.7l-1.4,1.7h1.5Z"/><path d="M1053.6,129.8h-1.2v-3.3l-1.1.5v-1.1l1.4-.7h.8v4.6Z"/><path d="M1055.8,126.2c-.3,0-.4.2-.5.5h-1.2a1.6,1.6,0,0,1,1.7-1.5,1.5,1.5,0,0,1,1.7,1.4,2.2,2.2,0,0,1-.9,1.5l-.7.7h1.7v1h-3.3V129l1.6-1.6c.3-.3.5-.5.5-.8A.5.5,0,0,0,1055.8,126.2Z"/><path d="M1059.2,127h.2c.3,0,.6-.1.6-.5a.4.4,0,0,0-.5-.5.5.5,0,0,0-.5.5h-1.2a1.6,1.6,0,0,1,1.7-1.5,1.4,1.4,0,0,1,1.6,1.4,1.1,1.1,0,0,1-.5,1,1,1,0,0,1,.6,1,1.4,1.4,0,0,1-1.6,1.4,1.7,1.7,0,0,1-1.8-1.5h1.2c0,.3.2.5.5.5a.5.5,0,0,0,.5-.5c0-.3-.2-.5-.6-.5h-.3Z"/><path d="M1062.8,128h.7v-.8h1v.8h.6v1h-.6v.9h-1v-.9h-2V128l1.4-2.9h1.2Z"/><path d="M1066.7,127.9h-1v-2.8h2.8v1h-1.9v.7l.7-.2a1.4,1.4,0,0,1,1.5,1.5,1.5,1.5,0,0,1-1.7,1.6,1.6,1.6,0,0,1-1.8-1.5h1.2a.6.6,0,0,0,.6.5.6.6,0,0,0,0-1.2Z"/><path d="M1071.6,126.4a.5.5,0,0,0-.5-.3c-.5,0-.7.5-.7,1h0a1,1,0,0,1,.8-.3,1.5,1.5,0,0,1,1.5,1.5,1.6,1.6,0,0,1-1.7,1.6,1.7,1.7,0,0,1-1.4-.7,2.9,2.9,0,0,1-.4-1.5c0-1.5.7-2.5,1.8-2.5a1.5,1.5,0,0,1,1.6,1.3h-1.1Zm-.5,2.5a.6.6,0,1,0-.6-.6A.6.6,0,0,0,1071,128.9Z"/><path d="M1074.8,129.8h-1.2l1.3-3.6h-2v-1h3.2v.8Z"/><path d="M1076.5,128.5a1.1,1.1,0,0,1,.7-1.1,1,1,0,0,1-.6-1,1.6,1.6,0,0,1,3.2,0,1,1,0,0,1-.6,1,1.1,1.1,0,0,1,.7,1.1c0,.8-.8,1.3-1.8,1.3S1076.5,129.4,1076.5,128.5Zm2.3-.1c0-.3-.2-.5-.6-.5a.5.5,0,1,0,.6.5Zm-.1-1.9a.5.5,0,0,0-1,0,.5.5,0,0,0,1,0Z"/><path d="M1081.5,128.5a.5.5,0,0,0,.5.3c.5,0,.7-.5.7-1h0a1,1,0,0,1-.8.3,1.5,1.5,0,0,1-1.5-1.5,1.6,1.6,0,0,1,1.7-1.6,1.7,1.7,0,0,1,1.4.7,2.9,2.9,0,0,1,.4,1.5c0,1.5-.7,2.5-1.8,2.5a1.5,1.5,0,0,1-1.6-1.3h1.1Zm.5-2.5a.6.6,0,1,0,.6.6A.6.6,0,0,0,1082,126.1Z"/><path d="M1084.2,127.5c0-1.4.8-2.4,1.9-2.4s1.9,1,1.9,2.4-.8,2.4-1.9,2.4S1084.2,128.9,1084.2,127.5Zm1.2,0c0,.7.2,1.3.7,1.3s.7-.6.7-1.3-.2-1.3-.7-1.3S1085.4,126.8,1085.4,127.5Z"/><path d="M1055.3,137.6h-.7l-.3,1.2h-.8l.3-1.2h-.8l-.3,1.2h-.8l.3-1.2h-.7l.2-.7h.7l.2-.8h-.7l.2-.7h.7l.3-1.2h.8l-.3,1.2h.8l.3-1.2h.8l-.3,1.2h.7l-.2.7h-.7l-.2.8h.7Zm-2.2-.7h.8l.2-.8h-.8Z"/><path d="M1056.2,134.7l.3-.5.5.3v-.6h.6v.6l.5-.3.3.5-.5.3.5.3-.3.5-.5-.3v.6h-.6v-.6l-.5.3-.3-.5.5-.3Z"/><path d="M1062.6,137.7c0,.2,0,.3.2.3s.7-.5.7-1.2a1.7,1.7,0,0,0-1.9-1.7,2.2,2.2,0,0,0-2.3,2.3,2,2,0,0,0,2.3,2,3.8,3.8,0,0,0,1.7-.4v.6a3.7,3.7,0,0,1-1.7.3,2.6,2.6,0,0,1-2.9-2.6,2.8,2.8,0,0,1,2.9-2.9,2.3,2.3,0,0,1,2.5,2.2c0,1.3-.7,1.8-1.6,1.8a1.1,1.1,0,0,1-.9-.4.9.9,0,0,1-.7.4,1,1,0,0,1-1-1.2,1.5,1.5,0,0,1,1.4-1.6.8.8,0,0,1,.6.3v-.2h1Zm-.8-.8a.4.4,0,0,0-.4-.3c-.3,0-.5.3-.5.7s.1.4.4.4a.5.5,0,0,0,.4-.3Z"/><path d="M1065.7,138.7a1.5,1.5,0,0,1-1.3-1.3h1.2a.6.6,0,0,0,.7.4c.3,0,.5-.2.5-.4s-.1-.3-.5-.4l-.7-.2c-.6-.2-1.1-.5-1.1-1.2a1.4,1.4,0,0,1,1.3-1.4v-.7h1v.7a1.5,1.5,0,0,1,1.2,1.3h-1.1a.6.6,0,0,0-.6-.4c-.3,0-.5.2-.5.4s.1.3.4.4l.8.2a1.2,1.2,0,0,1,1.1,1.3,1.4,1.4,0,0,1-1.2,1.4v.7h-1v-.7Z"/><path d="M1069.4,136.3a1.1,1.1,0,0,1-1.1-1.1,1.1,1.1,0,1,1,2.2,0A1.1,1.1,0,0,1,1069.4,136.3Zm2.4-2.1h.7l-3,4.6h-.7Zm-2.4,1.4a.4.4,0,0,0,.4-.4.4.4,0,0,0-.4-.4.4.4,0,0,0-.4.4A.4.4,0,0,0,1069.4,135.6Zm2.6,3.3a1.1,1.1,0,0,1-1.1-1.1,1.1,1.1,0,0,1,2.2,0A1.1,1.1,0,0,1,1072,138.9Zm0-1.5a.4.4,0,0,0-.4.4.4.4,0,0,0,.4.4.4.4,0,0,0,.4-.4A.4.4,0,0,0,1072,137.4Z"/><path d="M1075.8,135.4a.3.3,0,0,0-.4-.4.4.4,0,0,0-.4.4.9.9,0,0,0,.3.6l.9,1a1.7,1.7,0,0,0,.1-.7h1a2.4,2.4,0,0,1-.5,1.5l.8,1h-1.3l-.2-.3a2.2,2.2,0,0,1-1.1.3,1.4,1.4,0,0,1-.9-2.7,1.5,1.5,0,1,1,2.8-.8h-1.1Zm-.2,2.4-.8-.9a.6.6,0,0,0-.2.5.5.5,0,0,0,.6.5Z"/><path d="M1078,139.1h2.5v.9H1078Z"/><path d="M1081.5,137.4a.7.7,0,0,1,.7.7.7.7,0,0,1-.7.7.7.7,0,0,1,0-1.4Z"/><path d="M1082.6,136.3h1.8v1h-1.8Z"/><path d="M1085.3,138.7a.6.6,0,0,1-.5-.6.7.7,0,0,1,.7-.7.7.7,0,0,1,.7.7,1.5,1.5,0,0,1-.3.8l-.4.6h-.7Z"/><path d="M1086.6,136.4h3v.8h-3Z"/><path d="M1090.5,138.7a.6.6,0,0,1-.5-.6.7.7,0,0,1,.7-.7.7.7,0,0,1,.7.7,1.5,1.5,0,0,1-.3.8l-.4.6h-.7Zm.2-3.2a.7.7,0,0,1,.7.7.7.7,0,0,1-.7.7.7.7,0,1,1,0-1.4Z"/><path d="M1092.4,135.5a.7.7,0,0,1,.7.7.7.7,0,0,1-.7.7.7.7,0,0,1-.7-.7A.7.7,0,0,1,1092.4,135.5Zm0,2a.7.7,0,0,1,.7.7.7.7,0,0,1-.7.7.7.7,0,0,1-.7-.7A.7.7,0,0,1,1092.4,137.4Z"/><path d="M1093.5,136.4h5.7v.8h-5.7Z"/><path d="M1102.2,136.8a.7.7,0,0,0-.2.4h-1.2a1.1,1.1,0,0,1,.4-.8c.2-.3.5-.5.5-.8a.4.4,0,0,0-.4-.4c-.3,0-.4.2-.5.5h-1.2a1.6,1.6,0,0,1,1.7-1.5,1.4,1.4,0,0,1,1.6,1.4A2.5,2.5,0,0,1,1102.2,136.8Zm-.8.7a.7.7,0,0,1,.7.7.7.7,0,0,1-1.4,0A.7.7,0,0,1,1101.3,137.5Z"/><path d="M1103.2,134.2h1.4l-.2,3h-.9Zm.7,3.3a.7.7,0,1,1-.7.7A.7.7,0,0,1,1103.9,137.5Z"/><path d="M1105.8,135a.6.6,0,0,1,.5.6.7.7,0,0,1-.7.7.7.7,0,0,1-.7-.7,1.5,1.5,0,0,1,.3-.8l.4-.6h.7Z"/><path d="M1107.2,135.4a.6.6,0,0,1-.5-.6.7.7,0,0,1,.7-.7.7.7,0,0,1,.7.7,1.5,1.5,0,0,1-.3.8l-.4.6h-.7Z"/><path d="M1109.2,135a.6.6,0,0,1,.5.6.7.7,0,0,1-.7.7.7.7,0,0,1-.7-.7,1.5,1.5,0,0,1,.3-.8l.4-.6h.7Zm1.6,0a.6.6,0,0,1,.5.6.7.7,0,0,1-.7.7.7.7,0,0,1-.7-.7,1.5,1.5,0,0,1,.3-.8l.4-.6h.7Z"/><path d="M1112.1,135.4a.6.6,0,0,1-.5-.6.7.7,0,0,1,.7-.7.7.7,0,0,1,.7.7,1.5,1.5,0,0,1-.3.8l-.4.6h-.7Zm1.6,0a.6.6,0,0,1-.5-.6.7.7,0,0,1,.7-.7.7.7,0,0,1,.7.7,1.5,1.5,0,0,1-.3.8l-.4.6h-.7Z"/><path d="M1117,133.9V135a1.9,1.9,0,0,0,0,3.3v1.1a2.8,2.8,0,0,1,0-5.5Z"/><path d="M1117.3,139.4v-1.1a1.9,1.9,0,0,0,0-3.3v-1.1a2.8,2.8,0,0,1,0,5.5Z"/><path d="M1055.1,155.5c0,.8-.6,1.3-1.5,1.3h-1.9v-4.6h1.8c1,0,1.5.4,1.5,1.3a.9.9,0,0,1-.6,1A1.2,1.2,0,0,1,1055.1,155.5Zm-1.7-1.4c.5,0,.7-.2.7-.5s-.2-.5-.7-.5h-.8v1.1h.8Zm-.8,1.9h.9c.5,0,.7-.2.7-.6s-.2-.6-.7-.6h-.9Z"/><path d="M1057.2,156.9a1.8,1.8,0,1,1,1.6-1.8A1.6,1.6,0,0,1,1057.2,156.9Zm0-2.8c-.5,0-.7.4-.7,1s.2,1,.7,1,.7-.4.7-1S1057.7,154.1,1057.2,154.1Z"/><path d="M1060.4,156.8h-.9v-4.9h.9Z"/><path d="M1063.3,156.5a1.3,1.3,0,0,1-.8.3,1.6,1.6,0,0,1-1.5-1.8,1.6,1.6,0,0,1,1.5-1.8,1.1,1.1,0,0,1,.8.3v-1.8h1v4.9h-1Zm0-2a.8.8,0,0,0-.6-.4c-.5,0-.8.4-.8,1s.3,1,.8,1a.7.7,0,0,0,.6-.4Z"/><path d="M1067.1,153a.5.5,0,0,1-.5-.5.6.6,0,0,1,.5-.5.5.5,0,0,1,.5.5A.5.5,0,0,1,1067.1,153Zm.5,3.8h-.9v-3.3h.9Z"/><path d="M1068.6,154.2h-.5v-.7h.5v-.9h.9v.9h.7v.7h-.7v1.5a.3.3,0,0,0,.4.4h.4v.8h-.6a1,1,0,0,1-1.1-1.1Z"/><path d="M1072.8,156.8v-.2a1.3,1.3,0,0,1-.8.3,1.1,1.1,0,0,1-1.2-1.1,1.2,1.2,0,0,1,1.3-1.1l.7.2v-.3a.5.5,0,0,0-.5-.5.5.5,0,0,0-.5.3h-.9a1.3,1.3,0,0,1,1.4-1.1,1.3,1.3,0,0,1,1.4,1.3v2.1h-.9Zm0-1.2a.7.7,0,0,0-.6-.3c-.3,0-.6.1-.6.4s.3.4.6.4a.8.8,0,0,0,.6-.3Z"/><path d="M1075.4,156.8h-.9v-4.9h.9Z"/><path d="M1076.7,153a.5.5,0,0,1-.5-.5.6.6,0,0,1,.5-.5.5.5,0,0,1,0,1.1Zm.5,3.8h-.9v-3.3h.9Z"/><path d="M1079.3,153.3a1.4,1.4,0,0,1,1.5,1.2h-.9a.5.5,0,0,0-.5-.4c-.4,0-.7.4-.7,1s.2,1,.7,1a.5.5,0,0,0,.5-.4h.9a1.4,1.4,0,0,1-1.5,1.2,1.6,1.6,0,0,1-1.6-1.8A1.7,1.7,0,0,1,1079.3,153.3Z"/><path d="M1054.8,161.2l.9,4.6h-1.2l-.2-.9h-1.7l-.5.9H1051l2.6-4.6Zm-1.6,2.8h1l-.2-1.3Z"/><path d="M1060,164.3c0,.9-.7,1.5-1.8,1.5h-2.1l.8-4.6h2c.8,0,1.3.4,1.3,1.1a1.3,1.3,0,0,1-.8,1.2A1,1,0,0,1,1060,164.3Zm-2.6.5h.8c.4,0,.6-.2.6-.5s-.1-.4-.5-.4h-.8Zm1-1.8c.4,0,.6-.2.6-.5s-.2-.3-.5-.3h-.7l-.2.8Z"/><path d="M1063,161.1a1.7,1.7,0,0,1,1.9,1.6h-1.2a.7.7,0,0,0-.7-.6c-.7,0-1.2.7-1.2,1.6s.3,1.1.9,1.1a.8.8,0,0,0,.8-.6h1.2a2.1,2.1,0,0,1-2.1,1.6,2,2,0,0,1-2.1-2.1A2.5,2.5,0,0,1,1063,161.1Z"/><path d="M1065.7,161.2h1.7a1.8,1.8,0,0,1,2,1.9,2.6,2.6,0,0,1-2.7,2.7h-1.8Zm1,3.6a1.4,1.4,0,0,0,1.4-1.5.9.9,0,0,0-1-1h-.5l-.5,2.5Z"/><path d="M1073.5,161.2l-.2,1h-2.1v.7h1.9l-.2,1H1071v.8h2.1l-.2,1h-3.3l.8-4.6h3.3Z"/><path d="M1073.3,165.8l.8-4.6h3.2l-.2,1h-2l-.2.9h1.9l-.2,1h-1.9l-.3,1.6h-1.2Z"/><path d="M1077.3,163.8a2.5,2.5,0,0,1,2.5-2.7,1.7,1.7,0,0,1,1.9,1.6h-1.2a.7.7,0,0,0-.7-.5c-.7,0-1.2.7-1.2,1.6s.3,1.1.9,1.1a.9.9,0,0,0,.9-.6h-.7l.2-.9h1.9v.7a2.2,2.2,0,0,1-2.2,1.9A2,2,0,0,1,1077.3,163.8Z"/><path d="M1086.8,161.2l-.8,4.6h-1.2l.3-1.8h-1.8l-.3,1.8h-1.2l.8-4.6h1.2l-.3,1.8h1.8l.3-1.8Z"/><path d="M1087.9,165.8h-1.2l.8-4.6h1.2Z"/><path d="M1089.9,164.1h0a.5.5,0,0,0,.5.6c.4,0,.6-.3.7-.8l.5-2.8h1.2l-.5,2.8a1.9,1.9,0,0,1-2,1.8,1.5,1.5,0,0,1-1.7-1.5v-.2h1.2Z"/><path d="M1094.3,163l1.8-1.9h1.5l-2,2,1.3,2.6h-1.4l-.9-1.8-.5.5-.2,1.3h-1.2l.8-4.6h1.2Z"/><path d="M1098,161.2h1.2l-.6,3.6h2.1l-.2,1h-3.3Z"/><path d="M1103.1,165.8l-.5-2.8-.5,2.8H1101l.8-4.6h1.5l.5,2.9,1.5-2.9h1.5l-.8,4.6h-1.1l.5-2.8-1.5,2.8Z"/><path d="M1110.7,165.8h-.9l-1.5-2.8-.5,2.8h-1.2l.8-4.6h1.1l1.3,2.6.5-2.6h1.2Z"/><path d="M1111.6,163.8a2.5,2.5,0,0,1,2.5-2.7,2,2,0,0,1,2.1,2.1,2.5,2.5,0,0,1-2.5,2.7A1.9,1.9,0,0,1,1111.6,163.8Zm3.3-.5c0-.6-.3-1.1-.9-1.1s-1.2.6-1.2,1.6.3,1.1.9,1.1S1114.9,164.2,1114.9,163.2Z"/><path d="M1117.7,164.3l-.2,1.4h-1.2l.8-4.6h1.9a1.3,1.3,0,0,1,1.5,1.4,1.8,1.8,0,0,1-2,1.8h-.8Zm.2-1h.7a.7.7,0,0,0,.7-.7c0-.3-.2-.5-.5-.5h-.7Z"/><path d="M1120.7,163.8a2.5,2.5,0,0,1,2.5-2.7,2,2,0,0,1,2.1,2.1,2.6,2.6,0,0,1-.9,2l.2.4-.7.5-.2-.4h-.8A1.9,1.9,0,0,1,1120.7,163.8Zm2.3,1.1-.3-.5.7-.5.2.4a2,2,0,0,0,.2-1.1c0-.6-.3-1.1-.9-1.1s-1.2.6-1.2,1.6.3,1.1.9,1.1Z"/><path d="M1126.7,164.3l-.2,1.5h-1.2l.8-4.6h2a1.3,1.3,0,0,1,1.5,1.3,1.7,1.7,0,0,1-1.2,1.6l.8,1.7h-1.3l-.7-1.5Zm.2-1h.7a.6.6,0,0,0,.7-.7c0-.3-.2-.5-.5-.5h-.7Z"/><path d="M1132.5,162.5a.6.6,0,0,0-.6-.5c-.3,0-.6.2-.6.5s.1.3.3.3l.8.3a1.2,1.2,0,0,1,1,1.1,1.7,1.7,0,0,1-1.9,1.6,1.7,1.7,0,0,1-1.9-1.5h1.2a.6.6,0,0,0,.7.5c.4,0,.6-.2.6-.5s-.1-.3-.4-.4l-.7-.2a1.1,1.1,0,0,1-1-1.1,1.7,1.7,0,0,1,1.8-1.6c1.2,0,1.8.6,1.8,1.4Z"/><path d="M1134.1,161.2h4l-.2,1h-1.4l-.6,3.6h-1.2l.6-3.6h-1.4Z"/><path d="M1138.1,164.3a1.9,1.9,0,0,1,0-.5l.5-2.7h1.2l-.5,2.6v.3a.6.6,0,0,0,.7.7c.5,0,.8-.3,1-1l.5-2.6h1.2l-.5,2.8a2.1,2.1,0,0,1-2.3,2A1.6,1.6,0,0,1,1138.1,164.3Z"/><path d="M1143.8,165.8l-.8-4.6h1.2l.5,3,1.6-3h1.3l-2.6,4.6Z"/><path d="M1151.2,161.2l.2,2.7,1.2-2.7h1.3l-2.1,4.6h-1.1l-.2-2.7-1.2,2.7H1148l-.3-4.6h1.2v2.7l1.3-2.7Z"/><path d="M1156.3,163.5l1.1,2.3h-1.2l-.7-1.4-1.2,1.4H1153l2-2.4-1-2.2h1.3l.6,1.3,1.1-1.3h1.3Z"/><path d="M1161.5,161.2h1.3l-2.2,3-.3,1.6h-1.2l.3-1.6-1.1-3h1.3l.7,1.8Z"/><path d="M1166,165.8h-3.7l.2-.9,2.6-2.7H1163l.2-1h3.7l-.2.9-2.6,2.7h2.1Z"/><path d="M1054.3,174.8h-1.1v-.2a1.2,1.2,0,0,1-.8.3,1,1,0,0,1-1.1-1,1.3,1.3,0,0,1,1.4-1.2l.8.2v-.2h0a.3.3,0,0,0-.3-.3.5.5,0,0,0-.5.3h-1.1a1.7,1.7,0,0,1,1.7-1.2c.8,0,1.4.4,1.4,1.1a.7.7,0,0,1,0,.3Zm-1-1.2a.5.5,0,0,0-.5-.3c-.2,0-.5.1-.5.4s.2.3.4.3l.5-.2Z"/><path d="M1056.1,174.8h-1.2l.9-4.9h1.2l-.3,1.8a1.4,1.4,0,0,1,.9-.4c.8,0,1.3.6,1.3,1.5a1.9,1.9,0,0,1-1.8,2.1,1.1,1.1,0,0,1-.8-.3Zm.2-1.2a.5.5,0,0,0,.5.3c.5,0,.7-.4.7-1s-.2-.6-.5-.6a.8.8,0,0,0-.6.3Z"/><path d="M1062.2,173.5a1.6,1.6,0,0,1-1.7,1.3,1.4,1.4,0,0,1-1.5-1.5,1.9,1.9,0,0,1,1.9-2,1.3,1.3,0,0,1,1.5,1.3h-1.1c0-.2-.1-.3-.4-.3s-.7.5-.7,1,.2.6.5.6a.4.4,0,0,0,.5-.3h1.1Z"/><path d="M1065.5,169.9h1.2l-.9,4.9h-1.1v-.3a1.2,1.2,0,0,1-.9.4c-.8,0-1.2-.6-1.2-1.5a1.9,1.9,0,0,1,1.8-2.1,1.1,1.1,0,0,1,.8.3Zm-.5,2.7a.5.5,0,0,0-.5-.3c-.5,0-.7.4-.7,1s.2.6.5.6a.8.8,0,0,0,.6-.3Z"/><path d="M1069.8,173.6a1.6,1.6,0,0,1-1.7,1.3,1.4,1.4,0,0,1-1.5-1.5,1.9,1.9,0,0,1,1.9-2,1.3,1.3,0,0,1,1.5,1.4,3.3,3.3,0,0,1-.1.6h-2.2c0,.4.2.6.5.6a.5.5,0,0,0,.5-.3Zm-2-.8h1a.4.4,0,0,0-.4-.4A.7.7,0,0,0,1067.8,172.8Z"/><path d="M1072.9,170.9h-.2a.4.4,0,0,0-.5.4v.2h.7l-.2.9h-.7l-.4,2.5h-1.2l.4-2.5h-.5l.2-.9h.5v-.3a1.4,1.4,0,0,1,1.5-1.3h.5Z"/><path d="M1074.9,174.3a1,1,0,0,1-.8.3,1.2,1.2,0,0,1-1.3-1.4,1.8,1.8,0,0,1,1.8-1.9,1,1,0,0,1,.8.3v-.3h1.2l-.5,2.9a1.8,1.8,0,0,1-2,1.7c-.9,0-1.5-.5-1.5-1.2h1.1a.4.4,0,0,0,.5.4c.4,0,.6-.3.7-.7Zm.3-1.7a.5.5,0,0,0-.5-.3.8.8,0,0,0-.7.9c0,.3.2.5.5.5a.7.7,0,0,0,.6-.3Z"/><path d="M1080.3,172.3a.5.5,0,0,1,0,.3l-.4,2.2h-1.2l.3-1.9h0c0-.2-.1-.3-.4-.3a.6.6,0,0,0-.5.4l-.4,2h-1.2l.9-4.9h1.2l-.3,1.8a1.3,1.3,0,0,1,1-.4A1,1,0,0,1,1080.3,172.3Z"/><path d="M1081.7,174.8h-1.2l.6-3.4h1.2Zm.1-3.7a.6.6,0,0,1-.7-.6.7.7,0,0,1,.7-.7.6.6,0,0,1,.7.6A.6.6,0,0,1,1081.8,171.1Z"/><path d="M1081.7,175.1h.2c.2,0,.3-.1.4-.4l.6-3.3h1.2l-.6,3.3c-.2.9-.6,1.3-1.4,1.3h-.5Zm2-4a.6.6,0,0,1-.7-.6.7.7,0,0,1,.7-.7.6.6,0,0,1,.7.6A.6.6,0,0,1,1083.6,171.1Z"/><path d="M1085.7,173.5l-.3.3-.2,1h-1.2l.9-4.9h1.2l-.5,2.6,1.1-1.1h1.5l-1.6,1.5,1,1.9h-1.2Z"/><path d="M1089.2,174.8H1088l.9-4.9h1.2Z"/><path d="M1094.4,171.3a1,1,0,0,1,1,1,.5.5,0,0,1,0,.3l-.4,2.2h-1.2l.3-1.9v-.2c0-.2-.1-.3-.3-.3a.6.6,0,0,0-.5.4l-.3,2h-1.2l.3-1.9v-.2c0-.2-.1-.3-.3-.3a.6.6,0,0,0-.5.4l-.3,2h-1.2l.6-3.4h1.2v.3a1.3,1.3,0,0,1,1-.4,1,1,0,0,1,.8.4A1.2,1.2,0,0,1,1094.4,171.3Z"/><path d="M1096.2,171.4h1.2v.3a1.3,1.3,0,0,1,1-.4,1,1,0,0,1,1,1,.5.5,0,0,1,0,.3l-.4,2.2h-1.2l.3-1.9h0c0-.2-.1-.3-.4-.3a.6.6,0,0,0-.5.4l-.4,2h-1.2Z"/><path d="M1099.6,173.3a1.9,1.9,0,0,1,1.9-2,1.5,1.5,0,0,1,1.6,1.5,1.9,1.9,0,0,1-1.9,2A1.5,1.5,0,0,1,1099.6,173.3Zm2.3-.5c0-.3-.2-.5-.5-.5s-.7.5-.7,1a.5.5,0,0,0,.5.5C1101.6,173.9,1101.9,173.4,1101.9,172.8Z"/><path d="M1104.2,176H1103l.8-4.6h1.2v.3a1.4,1.4,0,0,1,.9-.4c.8,0,1.3.6,1.3,1.5a1.9,1.9,0,0,1-1.8,2.1,1.1,1.1,0,0,1-.8-.3Zm.4-2.4a.5.5,0,0,0,.5.3c.5,0,.7-.4.7-1s-.2-.6-.5-.6a.8.8,0,0,0-.6.3Z"/><path d="M1110,171.4h1.2l-.8,4.6h-1.2l.2-1.5a1.2,1.2,0,0,1-.9.4c-.8,0-1.2-.6-1.2-1.5a1.9,1.9,0,0,1,1.8-2.1,1.1,1.1,0,0,1,.8.3Zm-.2,1.2a.5.5,0,0,0-.5-.3c-.5,0-.7.4-.7,1s.2.6.5.6a.8.8,0,0,0,.6-.3Z"/><path d="M1113.9,172.5h-.5a.6.6,0,0,0-.7.4l-.3,2h-1.2l.6-3.4h1.2v.3a1,1,0,0,1,.8-.4h.3Z"/><path d="M1115.1,173.8a.4.4,0,0,0,.4.3c.2,0,.4-.1.4-.3s0-.2-.2-.2l-.5-.2a.9.9,0,0,1-.8-.9c0-.8.7-1.2,1.5-1.2s1.4.5,1.5,1.1h-1.1a.3.3,0,0,0-.4-.3c-.2,0-.3.1-.3.3l.2.2.6.2a1,1,0,0,1,.8.9c0,.8-.7,1.2-1.5,1.2s-1.5-.5-1.5-1.1Z"/><path d="M1118,172.3h-.5l.2-.9h.5l.2-.9h1.2l-.2.9h.7l-.2.9h-.7l-.2,1.1h0c0,.2.1.3.3.3h.4l-.2,1h-.7c-.7,0-1.1-.3-1.1-.9a1,1,0,0,1,0-.3Z"/><path d="M1123.2,174.8H1122v-.3a1.3,1.3,0,0,1-1,.4.9.9,0,0,1-1-1,.8.8,0,0,1,0-.3l.4-2.2h1.2l-.3,1.9v.2c0,.2.1.3.3.3a.6.6,0,0,0,.5-.4l.4-2h1.2Z"/><path d="M1124.7,174.8l-.5-3.4h1.1l.3,1.9,1.1-1.9h1.2l-2,3.4Z"/><path d="M1131,173.2l.9-1.8h1.1l-1.8,3.4h-1v-1.7l-.8,1.7h-1l-.4-3.4h1.1l.2,1.8.9-1.8h.8Z"/><path d="M1135.2,173.1l.9,1.7h-1.2l-.5-.9-.8.9h-1.2l1.6-1.8-.9-1.6h1.2l.4.8.7-.8h1.3Z"/><path d="M1136.6,176l.8-1.3-.5-3.2h1.1l.3,1.9,1-1.9h1.2l-2.7,4.6Z"/><path d="M1143.1,174.8h-3V174l1.8-1.7h-1.5l.2-.9h2.9v.7l-1.7,1.7h1.5Z"/><path d="M1053.2,183.8h-1.2l.6-3.2-1.2.5.2-1.2,1.5-.7h.8Z"/><path d="M1055.9,181.4c.3-.3.6-.5.6-.9s-.1-.3-.4-.3a.6.6,0,0,0-.5.5h-1.2a1.9,1.9,0,0,1,1.9-1.5c.9,0,1.5.5,1.5,1.2s-.5,1.2-1.1,1.7l-.9.7h1.6l-.2,1h-3.3V183Z"/><path d="M1059.3,181h.2c.4,0,.7-.2.7-.5a.4.4,0,0,0-.4-.4.7.7,0,0,0-.6.5H1058a1.9,1.9,0,0,1,1.9-1.5,1.3,1.3,0,0,1,1.4,1.3,1.2,1.2,0,0,1-.7,1.1,1,1,0,0,1,.4.9,1.6,1.6,0,0,1-1.8,1.5,1.5,1.5,0,0,1-1.7-1.4h1.2a.5.5,0,0,0,.5.5.5.5,0,0,0,.6-.5c0-.3-.2-.4-.5-.4h-.3Z"/><path d="M1062.8,182h.7v-.8h1v.8h.6l-.2,1h-.6v.9h-1v-.9h-2l.2-.9,1.9-2.8h1.3Z"/><path d="M1065.4,182.4h1.2a.5.5,0,0,0,.5.5.6.6,0,0,0,.6-.7.5.5,0,0,0-.5-.5l-.5.3h-1l.5-2.8h2.9l-.2,1H1067v.7l.6-.2a1.2,1.2,0,0,1,1.3,1.3,1.7,1.7,0,0,1-1.8,1.8A1.4,1.4,0,0,1,1065.4,182.4Z"/><path d="M1071.8,180.5a.5.5,0,0,0-.5-.4c-.5,0-.8.5-1,1h0a1.1,1.1,0,0,1,.8-.3,1.3,1.3,0,0,1,1.4,1.3,1.8,1.8,0,0,1-1.8,1.8c-1.2,0-1.7-.9-1.7-1.9s.7-2.8,2.2-2.8a1.4,1.4,0,0,1,1.5,1.4h-1.1Zm-.9,2.4a.7.7,0,0,0,.7-.7.5.5,0,0,0-.5-.5.7.7,0,0,0-.7.7A.5.5,0,0,0,1070.9,182.9Z"/><path d="M1074.5,183.8h-1.2l2-3.6h-1.9l.2-1h3.2v.8Z"/><path d="M1076.5,182.6a1.2,1.2,0,0,1,.9-1.2.9.9,0,0,1-.5-.8,1.5,1.5,0,0,1,1.7-1.5c.8,0,1.5.5,1.5,1.3a1.2,1.2,0,0,1-.8,1.2,1,1,0,0,1,.6.9c0,1-.9,1.4-1.8,1.4S1076.5,183.5,1076.5,182.6Zm1.7.3a.6.6,0,0,0,.6-.6c0-.3-.2-.5-.5-.5a.6.6,0,0,0-.6.6A.5.5,0,0,0,1078.1,182.9Zm.4-2.9a.5.5,0,0,0-.6.5c0,.3.2.4.5.4a.5.5,0,0,0,.6-.5C1079,180.2,1078.8,180,1078.5,180Z"/><path d="M1081.4,182.5a.5.5,0,0,0,.5.4c.5,0,.8-.5.9-1h0a1.1,1.1,0,0,1-.8.3,1.3,1.3,0,0,1-1.4-1.3,1.8,1.8,0,0,1,1.8-1.8c1.2,0,1.7.9,1.7,1.9s-.7,2.8-2.2,2.8a1.4,1.4,0,0,1-1.5-1.4h1.1Zm.9-2.4a.7.7,0,0,0-.7.7.5.5,0,0,0,.5.5.7.7,0,0,0,.7-.7A.5.5,0,0,0,1082.3,180.1Z"/><path d="M1084.3,181.9c0-1.5.9-2.8,2.2-2.8s1.7.8,1.7,2-1,2.8-2.2,2.8S1084.3,183,1084.3,181.9Zm2.7-.9c0-.5-.2-.9-.6-.9s-1,.9-1,1.8.2.9.6.9S1087,181.9,1087,181Z"/><path d="M1055.5,191.6h-.8l-.3,1.2h-.8l.3-1.2h-.8l-.3,1.2h-.8l.3-1.2h-.7l.2-.7h.7l.2-.8h-.7l.2-.7h.8l.3-1.2h.8l-.4,1.2h.8l.4-1.2h.8l-.3,1.2h.7l-.2.7h-.8l-.2.8h.7Zm-2.3-.7h.8l.2-.8h-.8Z"/><path d="M1057.2,190.1v-.6l-.6.2-.2-.5.6-.2-.5-.4.4-.4.5.4v-.6h.5v.6l.6-.2.2.5-.6.2.5.4-.4.4-.5-.4v.6Z"/><path d="M1062.7,191.7c0,.2,0,.3.2.3s.8-.5.8-1.3a1.6,1.6,0,0,0-1.8-1.6,2.3,2.3,0,0,0-2.4,2.5c0,1.4,1.2,1.8,2.1,1.8a3.8,3.8,0,0,0,1.8-.4v.6a3.8,3.8,0,0,1-1.7.3c-1.4,0-2.7-.7-2.7-2.4a3,3,0,0,1,3-3,2.2,2.2,0,0,1,2.4,2.1,1.7,1.7,0,0,1-1.7,2,1,1,0,0,1-.8-.4,1,1,0,0,1-.8.4.9.9,0,0,1-1-1,1.6,1.6,0,0,1,1.5-1.7.8.8,0,0,1,.6.3v-.2h1Zm-.8-.8a.4.4,0,0,0-.3-.3.7.7,0,0,0-.6.7.3.3,0,0,0,.4.4.5.5,0,0,0,.4-.3Z"/><path d="M1065.6,191.3a.6.6,0,0,0,.6.5c.4,0,.6-.2.6-.5s-.1-.3-.4-.3l-.7-.2c-.5-.2-.9-.4-.9-1.1a1.6,1.6,0,0,1,1.5-1.5v-.7h1v.7a1.4,1.4,0,0,1,1,1.3h-1.1a.6.6,0,0,0-.6-.5c-.3,0-.6.2-.6.4s.1.3.3.3l.8.3c.6.2,1,.5,1,1.1a1.6,1.6,0,0,1-1.5,1.5v.7h-1v-.7a1.4,1.4,0,0,1-1.2-1.3h1.2Z"/><path d="M1070.8,189.2a1.2,1.2,0,0,1-1.1,1.2,1,1,0,0,1-1-1,1.2,1.2,0,0,1,1.1-1.2A1,1,0,0,1,1070.8,189.2Zm1.5-1h.7l-3.6,4.6h-.7Zm-2.2,1a.4.4,0,0,0-.4-.4.4.4,0,0,0-.4.4.4.4,0,0,0,.4.4A.4.4,0,0,0,1070.1,189.2Zm.8,2.6a1.2,1.2,0,0,1,1.1-1.2,1,1,0,0,1,1,1,1.2,1.2,0,0,1-1.1,1.2A1,1,0,0,1,1070.9,191.8Zm.7,0a.4.4,0,0,0,.4.4.4.4,0,0,0,.4-.4.4.4,0,0,0-.4-.4A.4.4,0,0,0,1071.6,191.8Z"/><path d="M1075.5,189.5a.8.8,0,0,0,.2.5l.7,1a1.8,1.8,0,0,0,.2-.7h1a2.8,2.8,0,0,1-.7,1.5l.7,1h-1.3l-.2-.3a2.5,2.5,0,0,1-1.2.3c-.9,0-1.5-.5-1.5-1.3a1.6,1.6,0,0,1,1-1.4,1.5,1.5,0,0,1-.2-.6,1.5,1.5,0,0,1,1.6-1.5,1.3,1.3,0,0,1,1.4,1.3h-1.1a.3.3,0,0,0-.3-.4C1075.6,189,1075.5,189.3,1075.5,189.5Zm.2,2.3-.7-.9a.6.6,0,0,0-.3.6.4.4,0,0,0,.5.5Z"/><path d="M1077.7,193.1h2.5l-.2.9h-2.5Z"/><path d="M1081.4,191.4a.7.7,0,0,1,.7.7.7.7,0,0,1-.7.7.7.7,0,1,1,0-1.4Z"/><path d="M1082.8,190.3h1.8l-.2,1h-1.8Z"/><path d="M1085.1,192.7a.6.6,0,0,1-.4-.6.6.6,0,0,1,.7-.7.7.7,0,0,1,.7.7,1.4,1.4,0,0,1-.3.7l-.5.7h-.7Z"/><path d="M1086.7,190.4h3v.8h-3Z"/><path d="M1090.3,192.7a.6.6,0,0,1-.4-.6.6.6,0,0,1,.7-.7.7.7,0,0,1,.7.7,1.4,1.4,0,0,1-.3.7l-.5.7h-.7Zm.6-3.2a.7.7,0,0,1,.7.7.6.6,0,0,1-.7.7.7.7,0,0,1-.7-.7A.7.7,0,0,1,1090.9,189.5Z"/><path d="M1092.2,191.4a.7.7,0,0,1,.7.7.7.7,0,0,1-.7.7.7.7,0,0,1-.7-.7A.7.7,0,0,1,1092.2,191.4Zm.3-2a.7.7,0,0,1,.7.7.6.6,0,0,1-.7.7.7.7,0,0,1-.7-.7A.7.7,0,0,1,1092.6,189.5Z"/><path d="M1093.6,190.4h5.7v.8h-5.7Z"/><path d="M1101.1,189.6h-1.2a2,2,0,0,1,2-1.5c.9,0,1.4.5,1.4,1.2s-.5,1.1-.9,1.5a.9.9,0,0,0-.3.5h-1.2a1.4,1.4,0,0,1,.5-.8c.3-.3.7-.6.7-.9a.3.3,0,0,0-.3-.3A.6.6,0,0,0,1101.1,189.6Zm.2,1.9a.7.7,0,1,1,0,1.3.7.7,0,1,1,0-1.3Z"/><path d="M1103.8,191.5a.7.7,0,0,1,.7.7.7.7,0,0,1-.7.7.7.7,0,0,1-.7-.7A.7.7,0,0,1,1103.8,191.5Zm0-3.3h1.4l-.8,3h-.9Z"/><path d="M1106.2,189a.6.6,0,0,1,.4.6.6.6,0,0,1-.7.7.7.7,0,0,1-.7-.7,1.1,1.1,0,0,1,.3-.7l.5-.7h.8Z"/><path d="M1107.5,189.4a.6.6,0,0,1-.4-.6.6.6,0,0,1,.7-.7.7.7,0,0,1,.7.7,1.1,1.1,0,0,1-.3.7l-.5.7h-.8Z"/><path d="M1109.6,189a.6.6,0,0,1,.4.6.6.6,0,0,1-.7.7.7.7,0,0,1-.7-.7,1.1,1.1,0,0,1,.3-.7l.5-.7h.8Zm1.6,0a.6.6,0,0,1,.4.6.6.6,0,0,1-.7.7.7.7,0,0,1-.7-.7,1.1,1.1,0,0,1,.3-.7l.5-.7h.8Z"/><path d="M1112.4,189.4a.6.6,0,0,1-.4-.6.6.6,0,0,1,.7-.7.7.7,0,0,1,.7.7,1.1,1.1,0,0,1-.3.7l-.5.7h-.8Zm1.6,0a.6.6,0,0,1-.4-.6.6.6,0,0,1,.7-.7.7.7,0,0,1,.7.7,1.1,1.1,0,0,1-.3.7l-.5.7h-.8Z"/><path d="M1117.7,187.9l-.2,1.1a2.1,2.1,0,0,0-1.4,2.1,1.2,1.2,0,0,0,.8,1.3l-.2,1.1a2.2,2.2,0,0,1-1.7-2.3A3.2,3.2,0,0,1,1117.7,187.9Z"/><path d="M1117,193.4l.2-1.1a2.1,2.1,0,0,0,1.4-2.1,1.2,1.2,0,0,0-.8-1.2l.2-1.1a2.2,2.2,0,0,1,1.7,2.3A3.2,3.2,0,0,1,1117,193.4Z"/><path d="M912.7,38.4a4,4,0,0,0,4.2,2.7c2.2,0,3.6-1,3.6-2.7s-.7-2-2.7-2.5l-3.1-.8c-2.5-.6-4.6-2-4.6-5s2.5-5.5,6.3-5.5,6.3,2,7,5.1h-3.1a3.7,3.7,0,0,0-3.8-2.5c-2,0-3.3,1-3.3,2.5s.8,2,2.4,2.4l3.2.8c2.9.7,4.7,2.3,4.7,5.1s-2.8,5.6-6.6,5.6-6.7-2-7.3-5.4h3.2Z"/><path d="M926.8,32.7h-2.1V30.2h2.1V26.6h3v3.6h3v2.5h-3v6.9a1.4,1.4,0,0,0,1.6,1.5,3.3,3.3,0,0,0,1.7-.5v2.7a4.7,4.7,0,0,1-2.2.5c-2.4,0-4-1.2-4-3.9Z"/><path d="M937.8,48.6l1.9-4.8-5.2-13.7h3.2l3.5,9.8,3.4-9.8h3.1l-7,18.4Z"/><path d="M953.2,43.5h-3V24h3Z"/><path d="M967.9,39.4c-.5,2.6-2.4,4.5-5.6,4.5S956,41,956,36.9s2.6-7,6.3-7,5.8,2.7,5.8,6.6v1.1h-9.1c.1,2.3,1.5,3.8,3.4,3.8a2.6,2.6,0,0,0,2.8-1.9h2.7Zm-8.9-4h6a2.7,2.7,0,0,0-2.8-3A3.2,3.2,0,0,0,959,35.4Z"/><path d="M986,42a4.5,4.5,0,0,1-3.4,1.4c-3.9,0-6.2-3.3-6.2-6.8s2.3-6.7,6.2-6.7a4.5,4.5,0,0,1,3.4,1.4V30.2h3V42.4c0,4.5-2.7,6.5-6.2,6.5s-5.6-1.7-5.9-4.7h2.9a2.7,2.7,0,0,0,3,2.2c2.2,0,3.2-1.3,3.2-3.8Zm0-7.9a3.3,3.3,0,0,0-2.9-1.6c-2.3,0-3.6,1.7-3.6,4.1s1.3,4.1,3.6,4.1a3.4,3.4,0,0,0,2.9-1.6Z"/><path d="M1003.8,43.5h-3V42.3a4.7,4.7,0,0,1-3.6,1.5c-3,0-4.7-2-4.7-5V30.2h3v8.2c0,1.7.8,2.7,2.5,2.7a2.8,2.8,0,0,0,2.7-2.1V30.2h3Z"/><path d="M1009,28a1.8,1.8,0,1,1,1.9-1.8A1.9,1.9,0,0,1,1009,28Zm1.5,15.5h-3V30.2h3Z"/><path d="M1022.9,42.4a4.5,4.5,0,0,1-3.4,1.5c-3.9,0-6.2-3.1-6.2-7s2.3-7,6.2-7a4.5,4.5,0,0,1,3.4,1.5V24h3V43.5h-3Zm0-8a3.2,3.2,0,0,0-2.9-1.7c-2.3,0-3.7,1.8-3.7,4.3s1.4,4.3,3.7,4.3a3.2,3.2,0,0,0,2.9-1.7Z"/><path d="M1040.6,39.4c-.5,2.6-2.4,4.5-5.6,4.5s-6.3-2.8-6.3-6.9,2.6-7,6.3-7,5.8,2.7,5.8,6.6v1.1h-9.1c.1,2.3,1.5,3.8,3.4,3.8a2.6,2.6,0,0,0,2.8-1.9h2.7Zm-8.9-4h6a2.7,2.7,0,0,0-2.8-3A3.3,3.3,0,0,0,1031.7,35.4Z"/><rect x="910.4" y="414.1" width="122.3" height="13.38" style="fill:none;stroke:#000;stroke-miterlimit:10;stroke-width:0.4166666558974054px"/><rect x="1035.4" y="414.1" width="122.3" height="13.38" style="fill:none;stroke:#000;stroke-miterlimit:10;stroke-width:0.4166666558974054px"/><path d="M965.1,459.2H915.4a5,5,0,0,1-5-5v-6.4a5,5,0,0,1,5-5h49.8a5,5,0,0,1,5,5v6.4A5.1,5.1,0,0,1,965.1,459.2Z" style="fill:#333"/><path d="M1057.5,459.2h-49.7a5,5,0,0,1-5-5v-6.4a5,5,0,0,1,5-5h49.8a5,5,0,0,1,5,5v6.4A5.1,5.1,0,0,1,1057.5,459.2Z" style="fill:#c63527"/><path d="M1152.6,459.2h-49.7a5,5,0,0,1-5-5v-6.4a5,5,0,0,1,5-5h49.8a5,5,0,0,1,5,5v6.4A5.1,5.1,0,0,1,1152.6,459.2Z" style="fill:#009ff0"/><path d="M1334.2,228.5H1402v15.7h-67.8Zm0,27.6H1402v15.4h-67.8Z"/><path d="M613.7,216v25.3H639v17.4H613.7V284H596.3V258.8H570.9V241.4h25.3V216Z"/></svg>